<svg xmlns="http://www.w3.org/2000/svg" viewBox="0 0 305.21 72.11"><defs><style>.cls-1{fill:#fff;}.cls-2{fill:#20af92;}</style></defs><g id="Capa_2" data-name="Capa 2"><g id="Capa_1-2" data-name="Capa 1"><path class="cls-1" d="M0,7.63V4.77A4.91,4.91,0,0,1,1,1.55,4.66,4.66,0,0,1,3.8,0V1.41a2.83,2.83,0,0,0-1.86,1.5,2.4,2.4,0,0,0-.2,1.15H3.87V7.63ZM10.24,1.41A2.77,2.77,0,0,0,8.39,2.93a2.12,2.12,0,0,0-.21,1.13h2.13V7.63H6.44V4.77a4.81,4.81,0,0,1,1-3.24A4.81,4.81,0,0,1,10.24,0Z"/><path class="cls-1" d="M28.13.19V3.73h-6V20.21H17.93V3.73h-6V.19Z"/><path class="cls-1" d="M40.33,15.86A5,5,0,0,1,39,18.54a6.74,6.74,0,0,1-5.33,2.16,7.52,7.52,0,0,1-5-1.82c-1.44-1.21-2.16-3.19-2.16-5.92a8.23,8.23,0,0,1,2-5.9A6.67,6.67,0,0,1,33.5,5a7.73,7.73,0,0,1,3.32.69,6,6,0,0,1,2.45,2.19A7.44,7.44,0,0,1,40.39,11a20.55,20.55,0,0,1,.13,2.93H30.38A3.69,3.69,0,0,0,31.78,17a3.25,3.25,0,0,0,1.93.56,2.72,2.72,0,0,0,1.94-.68,2.9,2.9,0,0,0,.72-1ZM36.5,11.33A3.42,3.42,0,0,0,35.57,9a2.9,2.9,0,0,0-2.07-.8,2.61,2.61,0,0,0-2.09.85,4.24,4.24,0,0,0-.93,2.28Z"/><path class="cls-1" d="M43.12,7c1-1.31,2.78-2,5.28-2a9.22,9.22,0,0,1,4.31,1A3.69,3.69,0,0,1,54.6,9.66v6.79q0,.71,0,1.71a2.13,2.13,0,0,0,.23,1,1.47,1.47,0,0,0,.57.45v.57H51.22a3.86,3.86,0,0,1-.24-.84,6.92,6.92,0,0,1-.11-.9A8.08,8.08,0,0,1,49,20a5.57,5.57,0,0,1-2.83.72,4.84,4.84,0,0,1-3.32-1.15,4.1,4.1,0,0,1-1.31-3.25,4.21,4.21,0,0,1,2.11-3.95,9.41,9.41,0,0,1,3.39-1l1.32-.16a6.82,6.82,0,0,0,1.54-.34,1.17,1.17,0,0,0,.82-1.1,1.31,1.31,0,0,0-.63-1.26,3.94,3.94,0,0,0-1.85-.35,2.41,2.41,0,0,0-1.94.68,2.77,2.77,0,0,0-.55,1.36H42A5.69,5.69,0,0,1,43.12,7ZM46,17.41a2,2,0,0,0,1.34.45,3.93,3.93,0,0,0,2.3-.73,3.14,3.14,0,0,0,1.09-2.68V13a3.41,3.41,0,0,1-.74.37,5.61,5.61,0,0,1-1,.27l-.87.16a5.79,5.79,0,0,0-1.76.53A1.79,1.79,0,0,0,45.45,16,1.69,1.69,0,0,0,46,17.41Z"/><path class="cls-1" d="M64.26,17.45v2.9l-1.83.06c-1.83.07-3.08-.25-3.75-.95A2.79,2.79,0,0,1,58,17.41V8.3H56V5.54H58V1.41h3.83V5.54h2.41V8.3H61.85v7.82a1.72,1.72,0,0,0,.24,1.14c.15.15.62.22,1.41.22h.37Z"/><path class="cls-1" d="M73.63,9a3.21,3.21,0,0,0-3.14,1.52,6.06,6.06,0,0,0-.44,2.63v7.08h-3.9V5.41h3.69V8A8.29,8.29,0,0,1,71.4,6a4.31,4.31,0,0,1,2.83-.91h.18l.34,0v4L74.09,9Z"/><path class="cls-1" d="M88.8,7.28a8.65,8.65,0,0,1,1.88,5.55,8.58,8.58,0,0,1-1.88,5.58,6.89,6.89,0,0,1-5.69,2.32,6.9,6.9,0,0,1-5.69-2.32,8.57,8.57,0,0,1-1.87-5.58,8.64,8.64,0,0,1,1.87-5.55,6.83,6.83,0,0,1,5.69-2.35A6.82,6.82,0,0,1,88.8,7.28Zm-5.7.92a3.1,3.1,0,0,0-2.62,1.21,5.55,5.55,0,0,0-.91,3.42,5.59,5.59,0,0,0,.91,3.44,3.1,3.1,0,0,0,2.62,1.21,3.07,3.07,0,0,0,2.61-1.21,5.66,5.66,0,0,0,.91-3.44,5.61,5.61,0,0,0-.91-3.42A3.07,3.07,0,0,0,83.1,8.2Z"/><path class="cls-1" d="M100.62,7q1.53-2,5.27-2a9.29,9.29,0,0,1,4.32,1,3.69,3.69,0,0,1,1.89,3.64v6.79c0,.47,0,1,0,1.71a2.1,2.1,0,0,0,.24,1,1.33,1.33,0,0,0,.57.45v.57h-4.21a4.6,4.6,0,0,1-.25-.84c0-.26-.08-.56-.11-.9A8,8,0,0,1,106.52,20a5.59,5.59,0,0,1-2.83.72,4.83,4.83,0,0,1-3.32-1.15,4.1,4.1,0,0,1-1.31-3.25,4.22,4.22,0,0,1,2.1-3.95,9.48,9.48,0,0,1,3.4-1l1.32-.16a6.84,6.84,0,0,0,1.53-.34,1.18,1.18,0,0,0,.83-1.1,1.31,1.31,0,0,0-.63-1.26,3.94,3.94,0,0,0-1.85-.35,2.43,2.43,0,0,0-2,.68,2.86,2.86,0,0,0-.54,1.36H99.53A5.77,5.77,0,0,1,100.62,7Zm2.88,10.4a2,2,0,0,0,1.33.45,3.93,3.93,0,0,0,2.3-.73,3.12,3.12,0,0,0,1.1-2.68V13a3.65,3.65,0,0,1-.74.37,5.52,5.52,0,0,1-1,.27l-.87.16a5.7,5.7,0,0,0-1.75.53,1.78,1.78,0,0,0-.9,1.65A1.69,1.69,0,0,0,103.5,17.41Z"/><path class="cls-1" d="M115.06.19h3.87v20h-3.87Z"/><path class="cls-1" d="M128.93,17.45v2.9l-1.84.06c-1.83.07-3.08-.25-3.75-.95a2.83,2.83,0,0,1-.65-2.05V8.3h-2.06V5.54h2.06V1.41h3.83V5.54h2.41V8.3h-2.41v7.82a1.81,1.81,0,0,0,.23,1.14,2.59,2.59,0,0,0,1.42.22h.37Z"/><path class="cls-1" d="M131.41,7c1-1.31,2.78-2,5.27-2A9.29,9.29,0,0,1,141,6a3.69,3.69,0,0,1,1.89,3.64v6.79q0,.71,0,1.71a2,2,0,0,0,.23,1,1.33,1.33,0,0,0,.57.45v.57h-4.21a4.6,4.6,0,0,1-.25-.84c0-.26-.08-.56-.11-.9A8,8,0,0,1,137.31,20a5.59,5.59,0,0,1-2.83.72,4.84,4.84,0,0,1-3.32-1.15,4.1,4.1,0,0,1-1.31-3.25A4.21,4.21,0,0,1,132,12.32a9.41,9.41,0,0,1,3.39-1l1.32-.16a6.7,6.7,0,0,0,1.53-.34,1.17,1.17,0,0,0,.83-1.1,1.31,1.31,0,0,0-.63-1.26,3.94,3.94,0,0,0-1.85-.35,2.45,2.45,0,0,0-2,.68,2.86,2.86,0,0,0-.54,1.36h-3.73A5.69,5.69,0,0,1,131.41,7Zm2.88,10.4a2,2,0,0,0,1.33.45,4,4,0,0,0,2.31-.73A3.14,3.14,0,0,0,139,14.45V13a3.65,3.65,0,0,1-.74.37,5.52,5.52,0,0,1-1,.27l-.87.16a5.8,5.8,0,0,0-1.75.53,1.78,1.78,0,0,0-.89,1.65A1.69,1.69,0,0,0,134.29,17.41Z"/><path class="cls-1" d="M154.08,9.48a1.89,1.89,0,0,0-1.91-1.07,2.29,2.29,0,0,0-2.23,1.07,4.11,4.11,0,0,0-.31,1.82v8.91H145.7V5.43h3.76V7.59A6.21,6.21,0,0,1,150.82,6a5.37,5.37,0,0,1,5.67-.12,4.3,4.3,0,0,1,1.27,1.78,5,5,0,0,1,1.89-1.92,5.72,5.72,0,0,1,2.66-.61,5.22,5.22,0,0,1,1.93.38A4.3,4.3,0,0,1,166,6.79a4.4,4.4,0,0,1,.84,1.9,13.39,13.39,0,0,1,.13,2.19l0,9.33h-4V10.78a3.08,3.08,0,0,0-.27-1.38,1.92,1.92,0,0,0-1.9-1,2.23,2.23,0,0,0-2.22,1.33,4.3,4.3,0,0,0-.31,1.7v8.81h-3.9V11.4A5,5,0,0,0,154.08,9.48Z"/><path class="cls-1" d="M182.62,15.86a5,5,0,0,1-1.37,2.68,6.74,6.74,0,0,1-5.33,2.16,7.52,7.52,0,0,1-5-1.82c-1.44-1.21-2.16-3.19-2.16-5.92a8.23,8.23,0,0,1,1.95-5.9,6.68,6.68,0,0,1,5.06-2,7.73,7.73,0,0,1,3.32.69,5.91,5.91,0,0,1,2.45,2.19A7.59,7.59,0,0,1,182.69,11a19.41,19.41,0,0,1,.12,2.93H172.68a3.64,3.64,0,0,0,1.4,3.12,3.2,3.2,0,0,0,1.92.56,2.76,2.76,0,0,0,1.95-.68,3.17,3.17,0,0,0,.72-1Zm-3.83-4.53A3.33,3.33,0,0,0,177.86,9a2.9,2.9,0,0,0-2.07-.8,2.62,2.62,0,0,0-2.09.85,4.24,4.24,0,0,0-.93,2.28Z"/><path class="cls-1" d="M191.83,8.27a2.69,2.69,0,0,0-2.7,1.67,5.64,5.64,0,0,0-.38,2.26v8h-3.86V5.43h3.73V7.59A6.39,6.39,0,0,1,190,6a4.86,4.86,0,0,1,3-.9,5.73,5.73,0,0,1,3.76,1.2,4.91,4.91,0,0,1,1.46,4v10h-4v-9a4.13,4.13,0,0,0-.31-1.8A2.19,2.19,0,0,0,191.83,8.27Z"/><path class="cls-1" d="M208.07,17.45v2.9l-1.83.06c-1.83.07-3.08-.25-3.75-.95a2.83,2.83,0,0,1-.65-2.05V8.3h-2.07V5.54h2.07V1.41h3.83V5.54h2.4V8.3h-2.4v7.82a1.81,1.81,0,0,0,.23,1.14c.15.15.62.22,1.41.22h.38Z"/><path class="cls-1" d="M222.67,15.86a4.89,4.89,0,0,1-1.37,2.68A6.72,6.72,0,0,1,216,20.7a7.53,7.53,0,0,1-5-1.82c-1.44-1.21-2.16-3.19-2.16-5.92a8.23,8.23,0,0,1,1.95-5.9,6.7,6.7,0,0,1,5.06-2,7.81,7.81,0,0,1,3.33.69,5.89,5.89,0,0,1,2.44,2.19A7.45,7.45,0,0,1,222.74,11a19.41,19.41,0,0,1,.12,2.93H212.73a3.67,3.67,0,0,0,1.4,3.12,3.25,3.25,0,0,0,1.93.56,2.74,2.74,0,0,0,1.94-.68,3.17,3.17,0,0,0,.72-1Zm-3.83-4.53A3.33,3.33,0,0,0,217.91,9a2.87,2.87,0,0,0-2.07-.8,2.6,2.6,0,0,0-2.08.85,4.09,4.09,0,0,0-.93,2.28Z"/><path class="cls-2" d="M27.61,43.61a4.91,4.91,0,0,1-1.37,2.67,6.72,6.72,0,0,1-5.32,2.16,7.48,7.48,0,0,1-5-1.82q-2.16-1.82-2.16-5.92a8.21,8.21,0,0,1,2-5.89,6.66,6.66,0,0,1,5.06-2.05,7.81,7.81,0,0,1,3.33.69,5.81,5.81,0,0,1,2.44,2.19,7.35,7.35,0,0,1,1.13,3,19.48,19.48,0,0,1,.12,2.93H17.67a3.67,3.67,0,0,0,1.4,3.13,3.3,3.3,0,0,0,1.93.56,2.8,2.8,0,0,0,1.94-.68,3.41,3.41,0,0,0,.72-1Zm-3.83-4.54a3.35,3.35,0,0,0-.93-2.33A2.89,2.89,0,0,0,20.78,36a2.65,2.65,0,0,0-2.09.84,4.24,4.24,0,0,0-.93,2.28Z"/><path class="cls-2" d="M36.79,27.81V31L35.7,30.9A1.12,1.12,0,0,0,34.35,32v1.25h2.54V36H34.35V48H30.49V36H28.33V33.29h2.12v-1a5,5,0,0,1,.8-3.27c.56-.89,1.92-1.33,4.06-1.33l.67,0Z"/><path class="cls-2" d="M51.23,43.61a4.84,4.84,0,0,1-1.37,2.67,6.72,6.72,0,0,1-5.32,2.16,7.48,7.48,0,0,1-5-1.82q-2.16-1.82-2.16-5.92a8.21,8.21,0,0,1,2-5.89,6.66,6.66,0,0,1,5.06-2.05,7.81,7.81,0,0,1,3.33.69,5.81,5.81,0,0,1,2.44,2.19,7.35,7.35,0,0,1,1.13,3,19.48,19.48,0,0,1,.12,2.93H41.29a3.67,3.67,0,0,0,1.4,3.13,3.3,3.3,0,0,0,1.93.56,2.8,2.8,0,0,0,1.94-.68,3.41,3.41,0,0,0,.72-1ZM47.4,39.07a3.35,3.35,0,0,0-.93-2.33A2.89,2.89,0,0,0,44.4,36a2.61,2.61,0,0,0-2.08.84,4.17,4.17,0,0,0-.94,2.28Z"/><path class="cls-2" d="M66.28,38.46h-4A3.5,3.5,0,0,0,61.76,37a2.34,2.34,0,0,0-2-.9A2.67,2.67,0,0,0,57.06,38a8.22,8.22,0,0,0-.38,2.75,7.56,7.56,0,0,0,.38,2.62,2.58,2.58,0,0,0,2.61,1.84,2.3,2.3,0,0,0,1.93-.73,3.63,3.63,0,0,0,.69-1.9h3.95A6.47,6.47,0,0,1,65,45.93a6.21,6.21,0,0,1-5.39,2.54q-3.57,0-5.25-2.12a8.52,8.52,0,0,1-1.69-5.5,8.69,8.69,0,0,1,1.86-5.93,6.45,6.45,0,0,1,5.14-2.12,7.67,7.67,0,0,1,4.55,1.25Q65.95,35.3,66.28,38.46Z"/><path class="cls-2" d="M75.16,45.2v2.89l-1.83.07c-1.83.06-3.08-.26-3.75-.95a2.86,2.86,0,0,1-.65-2.05V36H66.87V33.29h2.06V29.16h3.83v4.13h2.4V36h-2.4v7.83A1.79,1.79,0,0,0,73,45a2.57,2.57,0,0,0,1.41.22h.38Z"/><path class="cls-2" d="M81.07,27.81v3.57H77.15V27.81Zm0,5.34V48H77.15V33.15Z"/><path class="cls-2" d="M82.81,33.15h4.35l3.08,10.92,3.15-10.92h4.16L92.21,48H88.12Z"/><path class="cls-2" d="M111.53,35a8.65,8.65,0,0,1,1.87,5.56,8.56,8.56,0,0,1-1.87,5.57q-1.87,2.33-5.7,2.32a6.88,6.88,0,0,1-5.69-2.32,8.56,8.56,0,0,1-1.87-5.57A8.65,8.65,0,0,1,100.14,35a8.08,8.08,0,0,1,11.39,0Zm-5.71.93a3.09,3.09,0,0,0-2.61,1.2,5.56,5.56,0,0,0-.92,3.43,5.63,5.63,0,0,0,.92,3.44,3.44,3.44,0,0,0,5.22,0,5.63,5.63,0,0,0,.91-3.44,5.56,5.56,0,0,0-.91-3.43A3.09,3.09,0,0,0,105.82,36Z"/><path class="cls-2" d="M128.8,44.07l3.06-10.92H136l-5.08,14.56a20,20,0,0,1-2.32,5.22c-.57.68-1.71,1-3.42,1h-.83l-.94,0v-3.1l.49,0a6.5,6.5,0,0,0,1.09,0,2.09,2.09,0,0,0,.87-.31,2.15,2.15,0,0,0,.63-1,2.26,2.26,0,0,0,.24-.89l-5.44-15.46h4.31Z"/><path class="cls-2" d="M156.57,38.46h-4A3.37,3.37,0,0,0,152,37a2.31,2.31,0,0,0-2-.9A2.68,2.68,0,0,0,147.34,38a8.22,8.22,0,0,0-.38,2.75,7.56,7.56,0,0,0,.38,2.62A2.59,2.59,0,0,0,150,45.22a2.29,2.29,0,0,0,1.93-.73,3.63,3.63,0,0,0,.69-1.9h4a6.47,6.47,0,0,1-1.28,3.34,6.21,6.21,0,0,1-5.39,2.54c-2.38,0-4.14-.71-5.26-2.12a8.57,8.57,0,0,1-1.68-5.5,8.69,8.69,0,0,1,1.86-5.93,6.45,6.45,0,0,1,5.13-2.12,7.68,7.68,0,0,1,4.56,1.25Q156.24,35.3,156.57,38.46Z"/><path class="cls-2" d="M159.23,34.75q1.53-1.95,5.27-2a9.41,9.41,0,0,1,4.32,1,3.7,3.7,0,0,1,1.89,3.64v6.79c0,.47,0,1,0,1.71a2.34,2.34,0,0,0,.23,1,1.36,1.36,0,0,0,.57.44V48h-4.21a4.31,4.31,0,0,1-.24-.84c-.05-.26-.08-.56-.11-.89a8.14,8.14,0,0,1-1.85,1.48,5.53,5.53,0,0,1-2.82.72A4.87,4.87,0,0,1,159,47.27,4.08,4.08,0,0,1,157.67,44a4.24,4.24,0,0,1,2.1-4,9.41,9.41,0,0,1,3.4-1l1.32-.16a5.87,5.87,0,0,0,1.53-.34,1.17,1.17,0,0,0,.83-1.1,1.31,1.31,0,0,0-.63-1.26,4,4,0,0,0-1.86-.34,2.39,2.39,0,0,0-1.94.68,2.78,2.78,0,0,0-.54,1.35h-3.74A5.72,5.72,0,0,1,159.23,34.75Zm2.88,10.41a2,2,0,0,0,1.33.44,3.93,3.93,0,0,0,2.3-.73,3.14,3.14,0,0,0,1.1-2.67V40.76a5.67,5.67,0,0,1-.74.37,6.91,6.91,0,0,1-1,.26l-.87.17a5.44,5.44,0,0,0-1.75.53,1.77,1.77,0,0,0-.9,1.64A1.71,1.71,0,0,0,162.11,45.16Z"/><path class="cls-2" d="M181,36.72a3.22,3.22,0,0,0-3.14,1.52,5.91,5.91,0,0,0-.45,2.64V48h-3.89V33.15h3.69v2.58a8.2,8.2,0,0,1,1.56-2,4.26,4.26,0,0,1,2.83-.91h.18l.33,0v4a5.42,5.42,0,0,0-.65,0Z"/><path class="cls-2" d="M187.83,27.81v3.57h-3.92V27.81Zm0,5.34V48h-3.92V33.15Z"/><path class="cls-2" d="M201.23,33.83a4.75,4.75,0,0,1,2,3.83h-3.87a2.21,2.21,0,0,0-.42-1.18,2.62,2.62,0,0,0-2.17-.79,3.16,3.16,0,0,0-1.8.39,1.14,1.14,0,0,0-.54.93,1,1,0,0,0,.57,1A24,24,0,0,0,199,39a7.41,7.41,0,0,1,3.46,1.65,3.73,3.73,0,0,1,1.14,2.78A4.45,4.45,0,0,1,202,47.06a7.65,7.65,0,0,1-5.05,1.4q-3.49,0-5.16-1.48a4.78,4.78,0,0,1-1.66-3.75H194a2.56,2.56,0,0,0,.53,1.46,3.57,3.57,0,0,0,2.66.78,4,4,0,0,0,1.82-.34,1.09,1.09,0,0,0,.67-1,1.11,1.11,0,0,0-.54-1,21.78,21.78,0,0,0-4-1.17,8.53,8.53,0,0,1-3.54-1.56,3.38,3.38,0,0,1-1-2.66,4.62,4.62,0,0,1,1.6-3.53,6.5,6.5,0,0,1,4.53-1.47A8.44,8.44,0,0,1,201.23,33.83Z"/><path class="cls-2" d="M214.25,37.22a1.89,1.89,0,0,0-1.91-1.07,2.29,2.29,0,0,0-2.23,1.07A4.14,4.14,0,0,0,209.8,39V48h-3.93V33.18h3.77v2.16A6.25,6.25,0,0,1,211,33.69a5.37,5.37,0,0,1,5.67-.12,4.37,4.37,0,0,1,1.27,1.78,5,5,0,0,1,1.89-1.92,5.88,5.88,0,0,1,2.66-.61,5.18,5.18,0,0,1,1.93.38A4.35,4.35,0,0,1,227,36.44a13,13,0,0,1,.14,2.18l0,9.33h-4V38.53a3.13,3.13,0,0,0-.27-1.39,1.92,1.92,0,0,0-1.9-1,2.23,2.23,0,0,0-2.22,1.33,4.34,4.34,0,0,0-.31,1.7V48h-3.9V39.14A5,5,0,0,0,214.25,37.22Z"/><path class="cls-2" d="M230.67,34.75c1-1.3,2.78-2,5.27-2a9.41,9.41,0,0,1,4.32,1,3.7,3.7,0,0,1,1.89,3.64v6.79q0,.7,0,1.71a2.21,2.21,0,0,0,.23,1,1.36,1.36,0,0,0,.57.44V48h-4.21a4.38,4.38,0,0,1-.25-.84c0-.26-.08-.56-.1-.89a8.36,8.36,0,0,1-1.85,1.48,5.57,5.57,0,0,1-2.83.72,4.89,4.89,0,0,1-3.32-1.15A4.11,4.11,0,0,1,229.11,44a4.23,4.23,0,0,1,2.11-4,9.41,9.41,0,0,1,3.39-1l1.32-.16a5.86,5.86,0,0,0,1.54-.34,1.16,1.16,0,0,0,.82-1.1,1.31,1.31,0,0,0-.63-1.26,4,4,0,0,0-1.85-.34,2.38,2.38,0,0,0-1.94.68,2.69,2.69,0,0,0-.55,1.35h-3.73A5.71,5.71,0,0,1,230.67,34.75Zm2.88,10.41a2,2,0,0,0,1.33.44,3.94,3.94,0,0,0,2.31-.73,3.13,3.13,0,0,0,1.09-2.67V40.76a4.65,4.65,0,0,1-.74.37,6.59,6.59,0,0,1-1,.26l-.86.17a5.51,5.51,0,0,0-1.76.53,1.78,1.78,0,0,0-.89,1.64A1.71,1.71,0,0,0,233.55,45.16Zm.29-14,2.61-4.06h4.32l-4.13,4.06Z"/><path class="cls-2" d="M251.81,45.2v2.89l-1.83.07c-1.83.06-3.08-.26-3.75-.95a2.82,2.82,0,0,1-.66-2.05V36h-2.06V33.29h2.06V29.16h3.83v4.13h2.41V36H249.4v7.83a1.71,1.71,0,0,0,.24,1.13c.15.15.62.22,1.41.22h.37Z"/><path class="cls-2" d="M257.72,27.81v3.57h-3.93V27.81Zm0,5.34V48h-3.93V33.15Z"/><path class="cls-2" d="M273.72,38.46h-4a3.37,3.37,0,0,0-.56-1.49,2.31,2.31,0,0,0-2-.9A2.67,2.67,0,0,0,264.5,38a8,8,0,0,0-.38,2.75,7.33,7.33,0,0,0,.38,2.62,2.57,2.57,0,0,0,2.6,1.84,2.29,2.29,0,0,0,1.93-.73,3.63,3.63,0,0,0,.69-1.9h4a6.47,6.47,0,0,1-1.28,3.34A6.21,6.21,0,0,1,267,48.47c-2.38,0-4.14-.71-5.26-2.12a8.57,8.57,0,0,1-1.68-5.5,8.69,8.69,0,0,1,1.86-5.93,6.45,6.45,0,0,1,5.13-2.12,7.68,7.68,0,0,1,4.56,1.25Q273.39,35.3,273.72,38.46Z"/><path class="cls-2" d="M288.17,35A8.65,8.65,0,0,1,290,40.58a8.56,8.56,0,0,1-1.87,5.57,6.88,6.88,0,0,1-5.69,2.32c-2.55,0-4.44-.77-5.69-2.32a8.57,8.57,0,0,1-1.88-5.57A8.66,8.66,0,0,1,276.79,35a8.06,8.06,0,0,1,11.38,0Zm-5.7.93a3.09,3.09,0,0,0-2.62,1.2,5.56,5.56,0,0,0-.92,3.43,5.63,5.63,0,0,0,.92,3.44,3.09,3.09,0,0,0,2.62,1.2,3.06,3.06,0,0,0,2.6-1.2,5.63,5.63,0,0,0,.91-3.44,5.56,5.56,0,0,0-.91-3.43A3.06,3.06,0,0,0,282.47,36Z"/><path class="cls-2" d="M292.5,31.57V28h3.87v2.87a4.93,4.93,0,0,1-1,3.2,4.56,4.56,0,0,1-2.83,1.57V34.21a2.81,2.81,0,0,0,1.85-1.5,2.4,2.4,0,0,0,.22-1.14ZM301.83,34A4.49,4.49,0,0,1,299,35.64V34.21a2.58,2.58,0,0,0,2-2.64h-2.12V28h3.86v2.87A5,5,0,0,1,301.83,34Z"/><path class="cls-2" d="M301.09,43.91h4.12v4h-4.12Z"/><path class="cls-1" d="M16,61.1l2.41,7.17,2.39-7.17H22.1L19,69.52H17.82L14.76,61.1Z"/><path class="cls-1" d="M22.83,61.1h1.05v1.17H22.83Zm0,2.31h1.05v6.11H22.83Z"/><path class="cls-1" d="M25.46,61.1h1v8.42h-1Z"/><path class="cls-1" d="M28.07,61.1h1v8.42h-1Z"/><path class="cls-1" d="M33.93,65.81a.58.58,0,0,0,.48-.3,1.05,1.05,0,0,0,.06-.4.85.85,0,0,0-.37-.77A2.1,2.1,0,0,0,33,64.11a1.34,1.34,0,0,0-1.14.43,1.41,1.41,0,0,0-.25.72h-1a1.78,1.78,0,0,1,.73-1.58,3,3,0,0,1,1.64-.45,3.3,3.3,0,0,1,1.76.42,1.4,1.4,0,0,1,.67,1.28v3.53a.48.48,0,0,0,.06.26.32.32,0,0,0,.28.1H36l.18,0v.77l-.37.08-.34,0a.84.84,0,0,1-.77-.38,1.28,1.28,0,0,1-.18-.57,2.51,2.51,0,0,1-.91.72,2.8,2.8,0,0,1-1.3.3,1.94,1.94,0,0,1-1.39-.51,1.74,1.74,0,0,1-.54-1.3,1.67,1.67,0,0,1,.53-1.32,2.55,2.55,0,0,1,1.4-.58Zm-2.17,2.78a1.23,1.23,0,0,0,.77.26,2.46,2.46,0,0,0,1.06-.25,1.43,1.43,0,0,0,.86-1.37V66.4a1.72,1.72,0,0,1-.49.2l-.58.12-.63.08a2.37,2.37,0,0,0-.84.23.91.91,0,0,0-.48.86A.84.84,0,0,0,31.76,68.59Z"/><path class="cls-1" d="M40.58,63.63a2.9,2.9,0,0,1,.59.58v-.77h.95V69a4.22,4.22,0,0,1-.34,1.84,2.47,2.47,0,0,1-2.42,1.25,3,3,0,0,1-1.66-.44A1.73,1.73,0,0,1,37,70.28h1a1.12,1.12,0,0,0,.29.63,1.86,1.86,0,0,0,2.64-.49,4.85,4.85,0,0,0,.2-1.76,2,2,0,0,1-.74.7,2.5,2.5,0,0,1-1.15.23,2.43,2.43,0,0,1-1.74-.71,3.14,3.14,0,0,1-.74-2.34,3.56,3.56,0,0,1,.75-2.4,2.3,2.3,0,0,1,1.81-.87A2.22,2.22,0,0,1,40.58,63.63Zm.12,1.11A1.58,1.58,0,0,0,38,65.2a4.07,4.07,0,0,0-.21,1.43,2.54,2.54,0,0,0,.42,1.58,1.34,1.34,0,0,0,1.12.54,1.58,1.58,0,0,0,1.56-1,3.39,3.39,0,0,0,.25-1.33A2.55,2.55,0,0,0,40.7,64.74Z"/><path class="cls-1" d="M47.48,63.55a2.34,2.34,0,0,1,.92.8,2.56,2.56,0,0,1,.41,1.08,7.16,7.16,0,0,1,.09,1.35H44.44a2.69,2.69,0,0,0,.44,1.5,1.46,1.46,0,0,0,1.27.57,1.63,1.63,0,0,0,1.28-.54,2.07,2.07,0,0,0,.38-.72h1a2.25,2.25,0,0,1-.27.76,2.79,2.79,0,0,1-.5.67,2.3,2.3,0,0,1-1.16.62,3.46,3.46,0,0,1-.83.09,2.54,2.54,0,0,1-1.93-.83,3.22,3.22,0,0,1-.79-2.33,3.48,3.48,0,0,1,.8-2.4,2.59,2.59,0,0,1,2.08-.92A2.84,2.84,0,0,1,47.48,63.55ZM47.85,66a2.85,2.85,0,0,0-.29-1.07,1.48,1.48,0,0,0-1.41-.74,1.55,1.55,0,0,0-1.18.51,1.92,1.92,0,0,0-.5,1.3Z"/><path class="cls-1" d="M54.27,61.1l2.42,7.17,2.39-7.17h1.27l-3.07,8.42h-1.2L53,61.1Z"/><path class="cls-1" d="M65.09,64a3.09,3.09,0,0,1,.82,2.32,4,4,0,0,1-.72,2.45,2.59,2.59,0,0,1-2.22,1,2.5,2.5,0,0,1-2-.85,3.42,3.42,0,0,1-.74-2.3A3.67,3.67,0,0,1,61,64.12a2.61,2.61,0,0,1,2.09-.91A2.72,2.72,0,0,1,65.09,64Zm-.64,4.07a3.88,3.88,0,0,0,.38-1.72,3.15,3.15,0,0,0-.27-1.4,1.53,1.53,0,0,0-1.49-.84,1.47,1.47,0,0,0-1.36.72,3.38,3.38,0,0,0-.42,1.73,2.92,2.92,0,0,0,.42,1.63,1.5,1.5,0,0,0,1.35.66A1.4,1.4,0,0,0,64.45,68.07Z"/><path class="cls-1" d="M67.17,61.1h1v1.17h-1Zm0,2.31h1v6.11h-1Z"/><path class="cls-1" d="M73.83,63.71a2.44,2.44,0,0,1,.78,1.74h-1a1.84,1.84,0,0,0-.42-1,1.33,1.33,0,0,0-1-.37,1.45,1.45,0,0,0-1.41,1,3.86,3.86,0,0,0-.27,1.54,2.9,2.9,0,0,0,.39,1.55,1.33,1.33,0,0,0,1.22.63,1.35,1.35,0,0,0,1-.39,2.2,2.2,0,0,0,.52-1.07h1a2.71,2.71,0,0,1-.86,1.78,2.65,2.65,0,0,1-1.76.56,2.35,2.35,0,0,1-1.92-.88,3.37,3.37,0,0,1-.71-2.19,3.68,3.68,0,0,1,.78-2.51,2.55,2.55,0,0,1,2-.9A2.67,2.67,0,0,1,73.83,63.71Z"/><path class="cls-1" d="M79.43,63.55a2.44,2.44,0,0,1,.93.8,2.86,2.86,0,0,1,.41,1.08,7.16,7.16,0,0,1,.09,1.35H76.4a2.69,2.69,0,0,0,.43,1.5,1.47,1.47,0,0,0,1.27.57,1.63,1.63,0,0,0,1.28-.54,1.92,1.92,0,0,0,.38-.72h1a2.06,2.06,0,0,1-.27.76A2.55,2.55,0,0,1,80,69a2.31,2.31,0,0,1-1.15.62,3.61,3.61,0,0,1-.84.09,2.54,2.54,0,0,1-1.93-.83,3.22,3.22,0,0,1-.79-2.33,3.53,3.53,0,0,1,.8-2.4,2.59,2.59,0,0,1,2.08-.92A2.84,2.84,0,0,1,79.43,63.55ZM79.8,66a2.68,2.68,0,0,0-.29-1.07,1.47,1.47,0,0,0-1.4-.74,1.57,1.57,0,0,0-1.19.51,2,2,0,0,0-.5,1.3Z"/><path class="cls-1" d="M85.56,61.1H86.9l4.2,6.8V61.1h1.08v8.42H90.9l-4.25-6.79v6.79H85.56Z"/><path class="cls-1" d="M93.38,61.1h1.33l2.41,4.05,2.42-4.05h1.34l-3.18,5v3.39H96.56V66.13Z"/><path class="cls-1" d="M107.8,61.72a3,3,0,0,1,1,1.91h-1.12a2.37,2.37,0,0,0-.73-1.29,2.31,2.31,0,0,0-1.56-.47,2.48,2.48,0,0,0-2,.87,4,4,0,0,0-.75,2.68,3.88,3.88,0,0,0,.68,2.4,2.35,2.35,0,0,0,2,.92,2.11,2.11,0,0,0,1.88-1,3.68,3.68,0,0,0,.51-1.34h1.12a3.84,3.84,0,0,1-1,2.23,3.44,3.44,0,0,1-2.67,1.08,3.48,3.48,0,0,1-2.43-.89,5.51,5.51,0,0,1-.33-6.68,3.56,3.56,0,0,1,2.91-1.29A3.39,3.39,0,0,1,107.8,61.72Z"/></g></g></svg>