<svg xmlns="http://www.w3.org/2000/svg" viewBox="0 0 297.68 102.4"><defs><style>.cls-1{fill:#231f20;}.cls-2{fill:#0956d1;}</style></defs><g id="Capa_2" data-name="Capa 2"><g id="Capa_1-2" data-name="Capa 1"><path class="cls-1" d="M0,8.26V5.16A5.31,5.31,0,0,1,1.05,1.68,5,5,0,0,1,4.12,0V1.53a3.05,3.05,0,0,0-2,1.62A2.69,2.69,0,0,0,1.88,4.4H4.19V8.26ZM11.09,1.53a3,3,0,0,0-2,1.65A2.26,2.26,0,0,0,8.85,4.4h2.31V8.26H7V5.16a5.22,5.22,0,0,1,1.08-3.5,5.19,5.19,0,0,1,3-1.66Z"/><path class="cls-1" d="M32.84,21.88H28.31L19.45,6.48v15.4H15.23V.21H20l8.64,15.13V.21h4.22Z"/><path class="cls-1" d="M47,19.62c0,.05-.14.19-.3.44a2.63,2.63,0,0,1-.56.64,5.84,5.84,0,0,1-1.9,1.21,6.36,6.36,0,0,1-2.15.32c-2.38,0-4-.85-4.8-2.56a9.77,9.77,0,0,1-.69-4.16V5.85h4.29v9.66a5,5,0,0,0,.33,2.06,2.23,2.23,0,0,0,2.25,1.22,3,3,0,0,0,2.94-1.73,6.4,6.4,0,0,0,.41-2.49V5.85h4.25v16H47Z"/><path class="cls-1" d="M62.66,9a2.93,2.93,0,0,0-2.93,1.8,6.32,6.32,0,0,0-.41,2.45v8.67H55.14v-16h4V8.22a7.16,7.16,0,0,1,1.53-1.78,5.28,5.28,0,0,1,3.28-1,6.16,6.16,0,0,1,4.06,1.3c1.06.87,1.58,2.31,1.58,4.32V21.88H65.35V12.13A4.38,4.38,0,0,0,65,10.19,2.38,2.38,0,0,0,62.66,9Z"/><path class="cls-1" d="M87.38,11.6h-4.3a3.78,3.78,0,0,0-.6-1.62,2.54,2.54,0,0,0-2.19-1,2.89,2.89,0,0,0-2.9,2.11,8.87,8.87,0,0,0-.41,3,8.25,8.25,0,0,0,.41,2.84,2.79,2.79,0,0,0,2.82,2,2.48,2.48,0,0,0,2.09-.79,4,4,0,0,0,.75-2.06h4.28A7.05,7.05,0,0,1,86,19.69a6.72,6.72,0,0,1-5.84,2.75c-2.58,0-4.47-.77-5.69-2.29a9.33,9.33,0,0,1-1.82-6,9.45,9.45,0,0,1,2-6.43,7,7,0,0,1,5.56-2.29A8.35,8.35,0,0,1,85.1,6.82Q87,8.19,87.38,11.6Z"/><path class="cls-1" d="M90.86,7.59q1.67-2.12,5.71-2.12a10.19,10.19,0,0,1,4.67,1c1.37.7,2.05,2,2.05,4v7.35c0,.51,0,1.12,0,1.85a2.33,2.33,0,0,0,.25,1.12,1.44,1.44,0,0,0,.61.48v.62H99.63a4.6,4.6,0,0,1-.27-.91c0-.29-.09-.61-.12-1a8.24,8.24,0,0,1-2,1.6,6,6,0,0,1-3.06.78,5.24,5.24,0,0,1-3.59-1.24,4.42,4.42,0,0,1-1.42-3.52,4.57,4.57,0,0,1,2.28-4.28,10,10,0,0,1,3.68-1l1.42-.18a6.37,6.37,0,0,0,1.66-.37,1.25,1.25,0,0,0,.9-1.19,1.43,1.43,0,0,0-.68-1.36,4.31,4.31,0,0,0-2-.37,2.61,2.61,0,0,0-2.1.73A3.08,3.08,0,0,0,93.73,11h-4A6.19,6.19,0,0,1,90.86,7.59ZM94,18.85a2.2,2.2,0,0,0,1.44.49,4.27,4.27,0,0,0,2.49-.8,3.38,3.38,0,0,0,1.19-2.89V14.09a5.06,5.06,0,0,1-.81.4,6.61,6.61,0,0,1-1.11.29l-.94.18a5.75,5.75,0,0,0-1.89.57,1.91,1.91,0,0,0-1,1.78A1.84,1.84,0,0,0,94,18.85Z"/><path class="cls-1" d="M126.42,6.59a5.17,5.17,0,0,1,2.16,4.14h-4.19a2.43,2.43,0,0,0-.46-1.27,2.86,2.86,0,0,0-2.35-.86,3.35,3.35,0,0,0-2,.43,1.22,1.22,0,0,0-.58,1,1.09,1.09,0,0,0,.62,1A25.36,25.36,0,0,0,124,12.23,8.21,8.21,0,0,1,127.79,14,4.06,4.06,0,0,1,129,17a4.88,4.88,0,0,1-1.77,3.89q-1.77,1.5-5.48,1.5t-5.58-1.59a5.19,5.19,0,0,1-1.8-4.07h4.25a2.82,2.82,0,0,0,.57,1.59,3.87,3.87,0,0,0,2.88.84,4.35,4.35,0,0,0,2-.37,1.23,1.23,0,0,0,.14-2.17,23.45,23.45,0,0,0-4.37-1.27A9.1,9.1,0,0,1,116,13.69a3.69,3.69,0,0,1-1.11-2.88A5,5,0,0,1,116.62,7a7,7,0,0,1,4.9-1.59A9.05,9.05,0,0,1,126.42,6.59Z"/><path class="cls-1" d="M142.4,19.62a4.55,4.55,0,0,0-.29.44,3.14,3.14,0,0,1-.56.64,6,6,0,0,1-1.9,1.21,6.46,6.46,0,0,1-2.16.32q-3.56,0-4.79-2.56a9.77,9.77,0,0,1-.69-4.16V5.85h4.29v9.66a5.14,5.14,0,0,0,.32,2.06,2.24,2.24,0,0,0,2.25,1.22,2.94,2.94,0,0,0,2.94-1.73,6.2,6.2,0,0,0,.42-2.49V5.85h4.25v16H142.4Z"/><path class="cls-1" d="M163.94,7.57c1.3,1.39,1.95,3.41,1.95,6.09s-.64,5-1.91,6.46a6.16,6.16,0,0,1-4.9,2.22,5.1,5.1,0,0,1-3.18-1,6.19,6.19,0,0,1-1.35-1.54v8.35H150.4V5.85h4V8.22a6.8,6.8,0,0,1,1.44-1.65,5.32,5.32,0,0,1,3.32-1.07A6.3,6.3,0,0,1,163.94,7.57Zm-2.38,6.3a6.33,6.33,0,0,0-.84-3.28A3,3,0,0,0,158,9.16a3.13,3.13,0,0,0-3.13,2.16,8.33,8.33,0,0,0-.44,2.91c0,1.87.5,3.18,1.49,3.93a3.36,3.36,0,0,0,2.08.66,3,3,0,0,0,2.67-1.35A6.24,6.24,0,0,0,161.56,13.87Z"/><path class="cls-1" d="M182.63,17.17a5.25,5.25,0,0,1-1.48,2.9,7.27,7.27,0,0,1-5.77,2.34,8.15,8.15,0,0,1-5.39-2q-2.34-2-2.34-6.41c0-2.78.7-4.9,2.11-6.38a7.22,7.22,0,0,1,5.48-2.22,8.4,8.4,0,0,1,3.6.75,6.3,6.3,0,0,1,2.65,2.36,8.27,8.27,0,0,1,1.22,3.31,21.19,21.19,0,0,1,.13,3.18h-11a4,4,0,0,0,1.51,3.38,3.6,3.6,0,0,0,2.09.6,3,3,0,0,0,2.11-.73,3.62,3.62,0,0,0,.78-1.11Zm-4.14-4.91a3.69,3.69,0,0,0-1-2.52,3.14,3.14,0,0,0-2.24-.86,2.87,2.87,0,0,0-2.26.91,4.61,4.61,0,0,0-1,2.47Z"/><path class="cls-1" d="M204.37,28.23V19.9a4.5,4.5,0,0,1-1.61,1.72,5.53,5.53,0,0,1-3.11.76,6.1,6.1,0,0,1-4.74-2.22A8.65,8.65,0,0,1,193,14.23a9.77,9.77,0,0,1,2-6.39,6,6,0,0,1,4.85-2.4,5,5,0,0,1,3.23,1,6.4,6.4,0,0,1,1.47,1.83V5.88h4.05V28.23Zm-6.6-11.45a3,3,0,0,0,3,2,3.17,3.17,0,0,0,3.08-1.85,7.12,7.12,0,0,0,.59-3.09,6.63,6.63,0,0,0-.5-2.63,3.19,3.19,0,0,0-3.15-2.09,3.09,3.09,0,0,0-2.55,1.22,6,6,0,0,0-1,3.71A7,7,0,0,0,197.77,16.78Z"/><path class="cls-1" d="M222.71,19.62c0,.05-.14.19-.3.44a2.86,2.86,0,0,1-.56.64,5.84,5.84,0,0,1-1.9,1.21,6.42,6.42,0,0,1-2.16.32q-3.56,0-4.79-2.56a9.77,9.77,0,0,1-.69-4.16V5.85h4.29v9.66a5,5,0,0,0,.33,2.06,2.23,2.23,0,0,0,2.25,1.22,3,3,0,0,0,2.94-1.73,6.4,6.4,0,0,0,.41-2.49V5.85h4.25v16h-4.07Z"/><path class="cls-1" d="M244.54,17.17a5.31,5.31,0,0,1-1.48,2.9,7.3,7.3,0,0,1-5.77,2.34,8.13,8.13,0,0,1-5.39-2q-2.34-2-2.34-6.41c0-2.78.7-4.9,2.11-6.38a7.22,7.22,0,0,1,5.48-2.22,8.4,8.4,0,0,1,3.6.75,6.3,6.3,0,0,1,2.65,2.36,8.27,8.27,0,0,1,1.22,3.31,22.63,22.63,0,0,1,.13,3.18h-11a4,4,0,0,0,1.51,3.38,3.6,3.6,0,0,0,2.09.6,3,3,0,0,0,2.1-.73,3.31,3.31,0,0,0,.78-1.11Zm-4.14-4.91a3.69,3.69,0,0,0-1-2.52,3.14,3.14,0,0,0-2.24-.86,2.87,2.87,0,0,0-2.26.91,4.53,4.53,0,0,0-1,2.47Z"/><path class="cls-1" d="M19.56,48.79a7.78,7.78,0,0,0,2.6-.36,2.51,2.51,0,0,0,1.9-2.51,1.84,1.84,0,0,0-.94-1.66,10.33,10.33,0,0,0-3-1l-2.29-.51a14.61,14.61,0,0,1-4.68-1.66A5.29,5.29,0,0,1,11,36.38a6.26,6.26,0,0,1,2.12-4.84c1.41-1.29,3.49-1.93,6.22-1.93a9.5,9.5,0,0,1,5.85,1.82,6.49,6.49,0,0,1,2.53,5.27H23.37a3.12,3.12,0,0,0-1.71-2.78A5.73,5.73,0,0,0,19,33.38a4.91,4.91,0,0,0-2.79.7,2.25,2.25,0,0,0-1,2,1.88,1.88,0,0,0,1,1.74,13.1,13.1,0,0,0,2.83.89l3.73.9a9.62,9.62,0,0,1,3.71,1.58,5.29,5.29,0,0,1,1.94,4.42,6.24,6.24,0,0,1-2.27,4.93,9.53,9.53,0,0,1-6.42,2,10.4,10.4,0,0,1-6.66-1.94,6.42,6.42,0,0,1-2.43-5.31H15a4.49,4.49,0,0,0,.81,2.22A4.67,4.67,0,0,0,19.56,48.79Z"/><path class="cls-1" d="M45.93,42.51v9.41H41.65V42.17a4.35,4.35,0,0,0-.44-2.09A2.23,2.23,0,0,0,39,39a3,3,0,0,0-2.52,1.11,5.11,5.11,0,0,0-.86,3.17v8.68H31.47V30.32h4.18V38A5.18,5.18,0,0,1,37.76,36a5.93,5.93,0,0,1,2.52-.55A6.91,6.91,0,0,1,43,36a4.74,4.74,0,0,1,2,1.58,4.22,4.22,0,0,1,.81,1.84A22.35,22.35,0,0,1,45.93,42.51Z"/><path class="cls-1" d="M50.44,37.63c1.11-1.42,3-2.12,5.71-2.12a10.19,10.19,0,0,1,4.67,1c1.37.7,2,2,2,3.94v7.36c0,.51,0,1.12,0,1.85a2.33,2.33,0,0,0,.25,1.12,1.52,1.52,0,0,0,.61.48v.62H59.21a4.6,4.6,0,0,1-.27-.91c0-.29-.09-.61-.12-1a8.48,8.48,0,0,1-2,1.6,6,6,0,0,1-3.06.78,5.29,5.29,0,0,1-3.59-1.24,4.44,4.44,0,0,1-1.42-3.53A4.55,4.55,0,0,1,51,43.38a10,10,0,0,1,3.68-1l1.42-.18a6.37,6.37,0,0,0,1.66-.37,1.25,1.25,0,0,0,.9-1.19A1.42,1.42,0,0,0,58,39.25a4.31,4.31,0,0,0-2-.37,2.61,2.61,0,0,0-2.1.73,3,3,0,0,0-.59,1.47H49.26A6.19,6.19,0,0,1,50.44,37.63Zm3.12,11.26a2.2,2.2,0,0,0,1.44.49,4.27,4.27,0,0,0,2.49-.8,3.39,3.39,0,0,0,1.19-2.9V44.12a4.67,4.67,0,0,1-.8.41,7.05,7.05,0,0,1-1.12.29l-.94.17a6,6,0,0,0-1.89.58,1.91,1.91,0,0,0-1,1.78A1.84,1.84,0,0,0,53.56,48.89Z"/><path class="cls-1" d="M81.29,51.92H76.23L72.4,45.07l-1.74,1.81v5H66.54V30.32h4.12V42l5.22-6h5.19l-5.6,6.14Z"/><path class="cls-1" d="M97.06,47.21a5.37,5.37,0,0,1-1.49,2.9,7.26,7.26,0,0,1-5.76,2.34,8.16,8.16,0,0,1-5.4-2c-1.56-1.32-2.34-3.45-2.34-6.41a9,9,0,0,1,2.11-6.39,7.23,7.23,0,0,1,5.48-2.22,8.4,8.4,0,0,1,3.6.75,6.33,6.33,0,0,1,2.65,2.37,8.12,8.12,0,0,1,1.22,3.31,21,21,0,0,1,.13,3.18h-11a4,4,0,0,0,1.52,3.38,3.54,3.54,0,0,0,2.08.6A3,3,0,0,0,92,48.32a3.75,3.75,0,0,0,.78-1.11ZM92.91,42.3a3.65,3.65,0,0,0-1-2.52,3.14,3.14,0,0,0-2.24-.86,2.85,2.85,0,0,0-2.26.91,4.53,4.53,0,0,0-1,2.47Z"/><path class="cls-1" d="M111.13,36.63a5.17,5.17,0,0,1,2.16,4.14H109.1a2.47,2.47,0,0,0-.46-1.28,2.85,2.85,0,0,0-2.35-.85,3.35,3.35,0,0,0-2,.43,1.23,1.23,0,0,0-.58,1,1.09,1.09,0,0,0,.62,1,26.43,26.43,0,0,0,4.37,1.16,8.21,8.21,0,0,1,3.75,1.78,4.06,4.06,0,0,1,1.23,3A4.89,4.89,0,0,1,112,51q-1.77,1.5-5.48,1.5t-5.58-1.59a5.21,5.21,0,0,1-1.8-4.07h4.25a2.82,2.82,0,0,0,.57,1.59,3.88,3.88,0,0,0,2.89.84,4.33,4.33,0,0,0,2-.37,1.18,1.18,0,0,0,.73-1.1,1.21,1.21,0,0,0-.59-1.08,24.76,24.76,0,0,0-4.37-1.26,9.23,9.23,0,0,1-3.84-1.69,3.69,3.69,0,0,1-1.11-2.88A5,5,0,0,1,101.33,37a7,7,0,0,1,4.9-1.6A9.05,9.05,0,0,1,111.13,36.63Z"/><path class="cls-1" d="M130.26,37.61q1.94,2.07,1.94,6.09,0,4.23-1.9,6.45a6.19,6.19,0,0,1-4.91,2.23,5.09,5.09,0,0,1-3.17-1,6.2,6.2,0,0,1-1.36-1.54v8.35h-4.14V35.89h4v2.37a6.61,6.61,0,0,1,1.44-1.65,5.33,5.33,0,0,1,3.33-1.07A6.3,6.3,0,0,1,130.26,37.61Zm-2.38,6.29a6.23,6.23,0,0,0-.85-3.27,2.93,2.93,0,0,0-2.74-1.43,3.12,3.12,0,0,0-3.13,2.16,8.07,8.07,0,0,0-.44,2.91c0,1.86.49,3.17,1.48,3.93a3.41,3.41,0,0,0,2.09.66A3,3,0,0,0,127,47.51,6.35,6.35,0,0,0,127.88,43.9Z"/><path class="cls-1" d="M149,47.21a5.3,5.3,0,0,1-1.49,2.9,7.26,7.26,0,0,1-5.76,2.34,8.16,8.16,0,0,1-5.4-2C134.75,49.16,134,47,134,44.07a8.92,8.92,0,0,1,2.11-6.39,7.2,7.2,0,0,1,5.47-2.22,8.42,8.42,0,0,1,3.61.75,6.3,6.3,0,0,1,2.64,2.37A8,8,0,0,1,149,41.89a22.17,22.17,0,0,1,.14,3.18h-11a4,4,0,0,0,1.51,3.38,3.58,3.58,0,0,0,2.09.6,3,3,0,0,0,2.1-.73,3.42,3.42,0,0,0,.78-1.11ZM144.8,42.3a3.65,3.65,0,0,0-1-2.52,3.16,3.16,0,0,0-2.25-.86,2.82,2.82,0,0,0-2.25.91,4.53,4.53,0,0,0-1,2.47Z"/><path class="cls-1" d="M152.58,37.63c1.11-1.42,3-2.12,5.71-2.12a10.19,10.19,0,0,1,4.67,1c1.37.7,2,2,2,3.94v7.36c0,.51,0,1.12,0,1.85a2.33,2.33,0,0,0,.25,1.12,1.52,1.52,0,0,0,.61.48v.62h-4.55a4.6,4.6,0,0,1-.27-.91c-.05-.29-.09-.61-.12-1a8.48,8.48,0,0,1-2,1.6,6,6,0,0,1-3.05.78,5.3,5.3,0,0,1-3.6-1.24,4.44,4.44,0,0,1-1.42-3.53,4.55,4.55,0,0,1,2.28-4.27,10,10,0,0,1,3.68-1l1.42-.18a6.37,6.37,0,0,0,1.66-.37,1.25,1.25,0,0,0,.9-1.19,1.42,1.42,0,0,0-.68-1.36,4.31,4.31,0,0,0-2-.37,2.61,2.61,0,0,0-2.1.73,3,3,0,0,0-.59,1.47h-4A6.11,6.11,0,0,1,152.58,37.63Zm3.12,11.26a2.2,2.2,0,0,0,1.44.49,4.27,4.27,0,0,0,2.49-.8,3.39,3.39,0,0,0,1.19-2.9V44.12a4.33,4.33,0,0,1-.8.41,7.18,7.18,0,0,1-1.11.29L158,45a6,6,0,0,0-1.89.58,1.91,1.91,0,0,0-1,1.78A1.84,1.84,0,0,0,155.7,48.89Z"/><path class="cls-1" d="M176.79,39.76c-1.69,0-2.82.55-3.4,1.65a6.39,6.39,0,0,0-.49,2.85v7.66h-4.22v-16h4v2.79a9,9,0,0,1,1.7-2.19,4.61,4.61,0,0,1,3.05-1h.2l.36,0v4.29l-.7-.06Z"/><path class="cls-1" d="M194.17,47.21a5.37,5.37,0,0,1-1.49,2.9,7.26,7.26,0,0,1-5.76,2.34,8.16,8.16,0,0,1-5.4-2c-1.56-1.32-2.34-3.45-2.34-6.41a9,9,0,0,1,2.11-6.39,7.23,7.23,0,0,1,5.48-2.22,8.4,8.4,0,0,1,3.6.75A6.33,6.33,0,0,1,193,38.58a8.12,8.12,0,0,1,1.22,3.31,21,21,0,0,1,.13,3.18h-11a4,4,0,0,0,1.52,3.38,3.58,3.58,0,0,0,2.09.6,3,3,0,0,0,2.1-.73,3.75,3.75,0,0,0,.78-1.11ZM190,42.3a3.61,3.61,0,0,0-1-2.52,3.14,3.14,0,0,0-2.24-.86,2.85,2.85,0,0,0-2.26.91,4.53,4.53,0,0,0-1,2.47Z"/><path class="cls-1" d="M219,37.61q1.94,2.07,1.94,6.09c0,2.82-.64,5-1.9,6.45a6.19,6.19,0,0,1-4.91,2.23,5.09,5.09,0,0,1-3.17-1,6,6,0,0,1-1.36-1.54v8.35h-4.14V35.89h4v2.37a6.61,6.61,0,0,1,1.44-1.65,5.32,5.32,0,0,1,3.32-1.07A6.32,6.32,0,0,1,219,37.61Zm-2.38,6.29a6.32,6.32,0,0,0-.85-3.27A2.93,2.93,0,0,0,213,39.2a3.12,3.12,0,0,0-3.13,2.16,8.07,8.07,0,0,0-.44,2.91c0,1.86.49,3.17,1.48,3.93a3.38,3.38,0,0,0,2.09.66,3,3,0,0,0,2.67-1.35A6.35,6.35,0,0,0,216.61,43.9Z"/><path class="cls-1" d="M237.33,37.92a10,10,0,0,1,0,12q-2,2.51-6.16,2.51c-2.76,0-4.81-.84-6.17-2.51a10,10,0,0,1,0-12c1.36-1.7,3.41-2.54,6.17-2.54S236,36.22,237.33,37.92Zm-6.18,1a3.33,3.33,0,0,0-2.83,1.3,6,6,0,0,0-1,3.71,6.06,6.06,0,0,0,1,3.72,3.7,3.7,0,0,0,5.65,0,6.06,6.06,0,0,0,1-3.72,6,6,0,0,0-1-3.71A3.3,3.3,0,0,0,231.15,38.92Z"/><path class="cls-1" d="M256.94,30.27V51.92h-4.07V49.7a5.94,5.94,0,0,1-2,2.07,5.79,5.79,0,0,1-2.86.65,5.94,5.94,0,0,1-4.72-2.27,8.73,8.73,0,0,1-1.92-5.83,10,10,0,0,1,1.89-6.46,6.12,6.12,0,0,1,5.05-2.35,5.09,5.09,0,0,1,2.58.64,5,5,0,0,1,1.84,1.77V30.27ZM245.65,44a6.27,6.27,0,0,0,.88,3.54,3,3,0,0,0,2.65,1.34,3.09,3.09,0,0,0,2.7-1.32,5.86,5.86,0,0,0,.93-3.43c0-2-.49-3.36-1.48-4.21a3.21,3.21,0,0,0-2.12-.76,2.93,2.93,0,0,0-2.7,1.39A6.49,6.49,0,0,0,245.65,44Z"/><path class="cls-1" d="M260.53,33.73l2.82-4.4H268l-4.47,4.4Zm.28,2.16h4.25v16h-4.25Z"/><path class="cls-1" d="M269.72,37.63c1.11-1.42,3-2.12,5.71-2.12a10.19,10.19,0,0,1,4.67,1,4,4,0,0,1,2,3.94v7.36c0,.51,0,1.12,0,1.85a2.33,2.33,0,0,0,.25,1.12,1.52,1.52,0,0,0,.61.48v.62h-4.55a4.6,4.6,0,0,1-.27-.91c-.05-.29-.09-.61-.12-1a8.69,8.69,0,0,1-2,1.6,6,6,0,0,1-3.06.78,5.27,5.27,0,0,1-3.59-1.24A4.44,4.44,0,0,1,268,47.65a4.55,4.55,0,0,1,2.28-4.27,10,10,0,0,1,3.68-1l1.42-.18a6.37,6.37,0,0,0,1.66-.37,1.25,1.25,0,0,0,.9-1.19,1.42,1.42,0,0,0-.68-1.36,4.31,4.31,0,0,0-2-.37,2.61,2.61,0,0,0-2.1.73,3,3,0,0,0-.59,1.47h-4A6.12,6.12,0,0,1,269.72,37.63Zm3.12,11.26a2.2,2.2,0,0,0,1.44.49,4.27,4.27,0,0,0,2.49-.8,3.39,3.39,0,0,0,1.19-2.9V44.12a4.41,4.41,0,0,1-.81.41,7.18,7.18,0,0,1-1.11.29l-.94.17a6,6,0,0,0-1.89.58,1.91,1.91,0,0,0-1,1.78A1.84,1.84,0,0,0,272.84,48.89Z"/><path class="cls-1" d="M22.4,66.66a5.18,5.18,0,0,1,2.16,4.15H20.37a2.44,2.44,0,0,0-.46-1.28,2.85,2.85,0,0,0-2.35-.85,3.44,3.44,0,0,0-1.95.42,1.26,1.26,0,0,0-.58,1,1.11,1.11,0,0,0,.62,1.05A27.59,27.59,0,0,0,20,72.31a8,8,0,0,1,3.75,1.78,4,4,0,0,1,1.23,3A4.86,4.86,0,0,1,23.23,81q-1.77,1.52-5.48,1.51t-5.58-1.6a5.17,5.17,0,0,1-1.8-4.06h4.25a2.89,2.89,0,0,0,.57,1.59,3.88,3.88,0,0,0,2.89.83,4.48,4.48,0,0,0,2-.36,1.23,1.23,0,0,0,.14-2.18,23.83,23.83,0,0,0-4.37-1.26A9.23,9.23,0,0,1,12,73.77a3.69,3.69,0,0,1-1.11-2.89,5,5,0,0,1,1.74-3.81,7,7,0,0,1,4.9-1.6A9.14,9.14,0,0,1,22.4,66.66Z"/><path class="cls-1" d="M41.83,77.25a5.37,5.37,0,0,1-1.49,2.9,7.26,7.26,0,0,1-5.76,2.34,8.11,8.11,0,0,1-5.4-2q-2.34-2-2.34-6.41A8.9,8.9,0,0,1,29,67.72a7.22,7.22,0,0,1,5.48-2.22,8.4,8.4,0,0,1,3.6.75,6.33,6.33,0,0,1,2.65,2.37,8.21,8.21,0,0,1,1.22,3.31A21,21,0,0,1,42,75.1h-11a4,4,0,0,0,1.52,3.39,3.54,3.54,0,0,0,2.08.6,3,3,0,0,0,2.11-.74,3.57,3.57,0,0,0,.78-1.1Zm-4.15-4.91a3.65,3.65,0,0,0-1-2.52A3.09,3.09,0,0,0,34.43,69a2.85,2.85,0,0,0-2.26.91,4.61,4.61,0,0,0-1,2.47Z"/><path class="cls-1" d="M52.91,69.79c-1.68,0-2.82.55-3.39,1.65A6.31,6.31,0,0,0,49,74.29V82H44.81v-16h4v2.79a8.86,8.86,0,0,1,1.69-2.19,4.59,4.59,0,0,1,3.06-1h.2l.36,0v4.29l-.71-.06Z"/><path class="cls-1" d="M72.28,79V82.1l-2,.08c-2,.07-3.33-.28-4.05-1a3,3,0,0,1-.71-2.22V69.06H63.29v-3h2.24V61.6h4.15v4.48h2.6v3h-2.6v8.47c0,.66.08,1.07.25,1.23a2.75,2.75,0,0,0,1.53.24h.4Z"/><path class="cls-1" d="M75.57,67.66q1.67-2.11,5.71-2.12a10.07,10.07,0,0,1,4.67,1c1.37.7,2,2,2,3.94v7.35q0,.77,0,1.86a2.25,2.25,0,0,0,.25,1.11,1.46,1.46,0,0,0,.61.49V82H84.34a4.68,4.68,0,0,1-.27-.92c0-.28-.09-.6-.12-1a8.27,8.27,0,0,1-2,1.61,6,6,0,0,1-3,.78,5.26,5.26,0,0,1-3.6-1.25,4.42,4.42,0,0,1-1.42-3.52,4.57,4.57,0,0,1,2.28-4.28,10.2,10.2,0,0,1,3.68-1l1.42-.17a6.37,6.37,0,0,0,1.66-.37,1.26,1.26,0,0,0,.9-1.19,1.42,1.42,0,0,0-.68-1.36,4.29,4.29,0,0,0-2-.38,2.61,2.61,0,0,0-2.1.74,3,3,0,0,0-.59,1.47h-4A6.17,6.17,0,0,1,75.57,67.66Zm3.12,11.27a2.2,2.2,0,0,0,1.44.48,4.26,4.26,0,0,0,2.49-.79,3.4,3.4,0,0,0,1.19-2.9V74.16a5.05,5.05,0,0,1-.8.41,6.31,6.31,0,0,1-1.11.28L81,75a6.28,6.28,0,0,0-1.89.57,1.93,1.93,0,0,0-1,1.78A1.86,1.86,0,0,0,78.69,78.93Z"/><path class="cls-1" d="M99.26,69a2.91,2.91,0,0,0-2.92,1.81,6.11,6.11,0,0,0-.42,2.44V82H91.75V66h4v2.33a7.08,7.08,0,0,1,1.53-1.77,5.3,5.3,0,0,1,3.28-1,6.2,6.2,0,0,1,4.07,1.31c1,.86,1.58,2.3,1.58,4.31V82H102V72.21a4.52,4.52,0,0,0-.33-1.94A2.39,2.39,0,0,0,99.26,69Z"/><path class="cls-2" d="M132.2,77.25a5.34,5.34,0,0,1-1.48,2.9A7.3,7.3,0,0,1,125,82.49a8.11,8.11,0,0,1-5.4-2q-2.33-2-2.33-6.41a8.9,8.9,0,0,1,2.11-6.38,7.2,7.2,0,0,1,5.47-2.22,8.42,8.42,0,0,1,3.61.75,6.25,6.25,0,0,1,2.64,2.37,7.93,7.93,0,0,1,1.22,3.31,20.71,20.71,0,0,1,.14,3.17h-11A4,4,0,0,0,123,78.49a3.6,3.6,0,0,0,2.09.6,3,3,0,0,0,2.1-.74,3.27,3.27,0,0,0,.78-1.1Zm-4.15-4.91a3.6,3.6,0,0,0-1-2.52A3.12,3.12,0,0,0,124.8,69a2.82,2.82,0,0,0-2.25.91,4.53,4.53,0,0,0-1,2.47Z"/><path class="cls-2" d="M142.77,69a2.91,2.91,0,0,0-2.92,1.81,6.12,6.12,0,0,0-.41,2.44V82h-4.18V66h4v2.33a7.08,7.08,0,0,1,1.53-1.77,5.32,5.32,0,0,1,3.28-1,6.2,6.2,0,0,1,4.07,1.31c1,.86,1.58,2.3,1.58,4.31V82h-4.3V72.21a4.52,4.52,0,0,0-.33-1.94A2.39,2.39,0,0,0,142.77,69Z"/><path class="cls-2" d="M161,79V82.1l-2,.08c-2,.07-3.33-.28-4.06-1a3.07,3.07,0,0,1-.71-2.22V69.06H152v-3h2.23V61.6h4.15v4.48H161v3h-2.6v8.47c0,.66.08,1.07.25,1.23a2.8,2.8,0,0,0,1.53.24h.4Z"/><path class="cls-2" d="M171.71,69.79c-1.68,0-2.82.55-3.39,1.65a6.31,6.31,0,0,0-.49,2.85V82h-4.22v-16h4v2.79a8.86,8.86,0,0,1,1.69-2.19,4.61,4.61,0,0,1,3.06-1h.2l.36,0v4.29l-.71-.06Z"/><path class="cls-2" d="M189.09,77.25a5.28,5.28,0,0,1-1.48,2.9,7.27,7.27,0,0,1-5.77,2.34,8.11,8.11,0,0,1-5.39-2q-2.34-2-2.34-6.41a8.9,8.9,0,0,1,2.11-6.38,7.22,7.22,0,0,1,5.48-2.22,8.4,8.4,0,0,1,3.6.75A6.33,6.33,0,0,1,188,68.62a8.21,8.21,0,0,1,1.22,3.31,21,21,0,0,1,.13,3.17h-11a4,4,0,0,0,1.51,3.39,3.6,3.6,0,0,0,2.09.6,3,3,0,0,0,2.11-.74,3.57,3.57,0,0,0,.78-1.1ZM185,72.34a3.65,3.65,0,0,0-1-2.52A3.09,3.09,0,0,0,181.7,69a2.84,2.84,0,0,0-2.26.91,4.61,4.61,0,0,0-1,2.47Z"/><path class="cls-2" d="M199.46,79V82.1l-2,.08c-2,.07-3.34-.28-4.06-1a3.07,3.07,0,0,1-.71-2.22V69.06h-2.23v-3h2.23V61.6h4.15v4.48h2.6v3h-2.6v8.47c0,.66.08,1.07.25,1.23a2.8,2.8,0,0,0,1.53.24h.4Z"/><path class="cls-2" d="M215.87,77.25a5.34,5.34,0,0,1-1.48,2.9,7.3,7.3,0,0,1-5.77,2.34,8.07,8.07,0,0,1-5.39-2q-2.34-2-2.34-6.41A8.9,8.9,0,0,1,203,67.72a7.2,7.2,0,0,1,5.48-2.22,8.4,8.4,0,0,1,3.6.75,6.25,6.25,0,0,1,2.64,2.37A8.08,8.08,0,0,1,216,71.93a22.39,22.39,0,0,1,.13,3.17h-11a4,4,0,0,0,1.51,3.39,3.6,3.6,0,0,0,2.09.6,3,3,0,0,0,2.1-.74,3.27,3.27,0,0,0,.78-1.1Zm-4.15-4.91a3.6,3.6,0,0,0-1-2.52,3.11,3.11,0,0,0-2.24-.86,2.83,2.83,0,0,0-2.26.91,4.53,4.53,0,0,0-1,2.47Z"/><path class="cls-2" d="M226.44,69a2.91,2.91,0,0,0-2.92,1.81,6.12,6.12,0,0,0-.41,2.44V82h-4.18V66h4v2.33a7.08,7.08,0,0,1,1.53-1.77,5.32,5.32,0,0,1,3.28-1,6.2,6.2,0,0,1,4.07,1.31c1.05.86,1.58,2.3,1.58,4.31V82h-4.29V72.21a4.5,4.5,0,0,0-.34-1.94A2.38,2.38,0,0,0,226.44,69Z"/><path class="cls-2" d="M241.61,60.15V64h-4.25V60.15Zm0,5.78V82h-4.25v-16Z"/><path class="cls-2" d="M260.25,60.31V82h-4.07V79.74a5.88,5.88,0,0,1-2.05,2.07,5.72,5.72,0,0,1-2.85.65,6,6,0,0,1-4.73-2.28,8.7,8.7,0,0,1-1.92-5.83,10,10,0,0,1,1.89-6.45,6.16,6.16,0,0,1,5.06-2.36,5.19,5.19,0,0,1,2.58.64A5.06,5.06,0,0,1,256,68V60.31ZM249,74a6.28,6.28,0,0,0,.88,3.55,3,3,0,0,0,2.65,1.34,3.07,3.07,0,0,0,2.7-1.33,5.81,5.81,0,0,0,.93-3.42c0-2-.5-3.37-1.49-4.21a3.16,3.16,0,0,0-2.11-.76,2.93,2.93,0,0,0-2.7,1.39A6.34,6.34,0,0,0,249,74Z"/><path class="cls-2" d="M277.43,68a10,10,0,0,1,0,12.05c-1.36,1.67-3.41,2.5-6.17,2.5s-4.8-.83-6.16-2.5a10,10,0,0,1,0-12.05q2-2.55,6.16-2.55C274,65.41,276.07,66.26,277.43,68Zm-6.18,1a3.33,3.33,0,0,0-2.83,1.3,6,6,0,0,0-1,3.71,6.06,6.06,0,0,0,1,3.72,3.7,3.7,0,0,0,5.65,0,6.06,6.06,0,0,0,1-3.72,6,6,0,0,0-1-3.71A3.3,3.3,0,0,0,271.25,69Z"/><path class="cls-1" d="M282.72,64.22V60.35h4.19v3.11a5.38,5.38,0,0,1-1.05,3.47,5,5,0,0,1-3.07,1.69V67.07a3,3,0,0,0,2-1.61,2.46,2.46,0,0,0,.24-1.24Zm10.1,2.66a4.85,4.85,0,0,1-3.09,1.74V67.07a2.92,2.92,0,0,0,2-1.67,3,3,0,0,0,.21-1.18h-2.3V60.35h4.18v3.11A5.43,5.43,0,0,1,292.82,66.88Z"/><path class="cls-1" d="M293.22,77.57h4.46V82h-4.46Z"/><path class="cls-1" d="M18.22,93v1.09H15.15v8H13.91v-8H10.84V93Z"/><path class="cls-1" d="M21.9,95.69a2.53,2.53,0,0,1,1,.86,2.94,2.94,0,0,1,.44,1.17,7.45,7.45,0,0,1,.1,1.47H18.62a2.9,2.9,0,0,0,.47,1.62,1.59,1.59,0,0,0,1.38.61,1.76,1.76,0,0,0,1.38-.58,2,2,0,0,0,.41-.77h1.1a2.42,2.42,0,0,1-.29.81,3.1,3.1,0,0,1-.55.74,2.57,2.57,0,0,1-1.25.67,4,4,0,0,1-.9.09,2.78,2.78,0,0,1-2.09-.9A3.51,3.51,0,0,1,17.42,99a3.8,3.8,0,0,1,.87-2.6,2.81,2.81,0,0,1,2.25-1A3,3,0,0,1,21.9,95.69Zm.4,2.61A2.92,2.92,0,0,0,22,97.14a1.6,1.6,0,0,0-1.52-.81,1.69,1.69,0,0,0-1.28.56,2.18,2.18,0,0,0-.55,1.41Z"/><path class="cls-1" d="M24.89,93H26v9.11H24.89Z"/><path class="cls-1" d="M31.79,95.69a2.57,2.57,0,0,1,1,.86,2.94,2.94,0,0,1,.44,1.17,7.45,7.45,0,0,1,.1,1.47H28.5a2.83,2.83,0,0,0,.48,1.62,1.56,1.56,0,0,0,1.37.61,1.73,1.73,0,0,0,1.38-.58,2,2,0,0,0,.41-.77h1.1a2.42,2.42,0,0,1-.29.81,3.1,3.1,0,0,1-.55.74,2.57,2.57,0,0,1-1.25.67,4,4,0,0,1-.9.09,2.78,2.78,0,0,1-2.09-.9A3.51,3.51,0,0,1,27.31,99a3.8,3.8,0,0,1,.86-2.6,2.82,2.82,0,0,1,2.25-1A3.07,3.07,0,0,1,31.79,95.69Zm.39,2.61a2.76,2.76,0,0,0-.31-1.16,1.6,1.6,0,0,0-1.52-.81,1.69,1.69,0,0,0-1.28.56,2.12,2.12,0,0,0-.54,1.41Z"/><path class="cls-1" d="M35.29,95.51l1.78,5.41,1.84-5.41h1.23l-2.5,6.64H36.45L34,95.51Z"/><path class="cls-1" d="M41.09,93h1.14v1.27H41.09Zm0,2.5h1.14v6.61H41.09Z"/><path class="cls-1" d="M44.58,100.07a1.61,1.61,0,0,0,.28.85,1.83,1.83,0,0,0,1.5.54,2.23,2.23,0,0,0,1.11-.27.89.89,0,0,0,.48-.83.7.7,0,0,0-.38-.65,4.83,4.83,0,0,0-1-.32l-.91-.22a4.54,4.54,0,0,1-1.27-.47,1.41,1.41,0,0,1-.73-1.26,1.89,1.89,0,0,1,.69-1.52,2.76,2.76,0,0,1,1.85-.59,2.58,2.58,0,0,1,2.19.89,1.88,1.88,0,0,1,.41,1.2h-1a1.39,1.39,0,0,0-.28-.69,1.76,1.76,0,0,0-1.36-.43,1.67,1.67,0,0,0-1,.24.74.74,0,0,0-.33.63.79.79,0,0,0,.43.7,2.86,2.86,0,0,0,.75.27l.75.18a5.8,5.8,0,0,1,1.64.56,1.5,1.5,0,0,1,.65,1.35,2,2,0,0,1-.68,1.53,2.9,2.9,0,0,1-2.07.64,2.82,2.82,0,0,1-2.13-.67,2.56,2.56,0,0,1-.67-1.66Z"/><path class="cls-1" d="M50.26,93H51.4v1.27H50.26Zm0,2.5H51.4v6.61H50.26Z"/><path class="cls-1" d="M57.89,96.17a3.35,3.35,0,0,1,.88,2.52,4.31,4.31,0,0,1-.77,2.65,2.8,2.8,0,0,1-2.41,1,2.69,2.69,0,0,1-2.16-.92,3.7,3.7,0,0,1-.8-2.49,4,4,0,0,1,.84-2.66,2.84,2.84,0,0,1,2.27-1A3,3,0,0,1,57.89,96.17Zm-.69,4.41a4.23,4.23,0,0,0,.41-1.86,3.27,3.27,0,0,0-.3-1.51,1.65,1.65,0,0,0-1.6-.92,1.57,1.57,0,0,0-1.47.78A3.61,3.61,0,0,0,53.78,99a3.15,3.15,0,0,0,.46,1.77,1.6,1.6,0,0,0,1.46.7A1.51,1.51,0,0,0,57.2,100.58Zm-.14-7.74L55.4,94.63h-.85l1.13-1.79Z"/><path class="cls-1" d="M60.14,95.51H61.2v.94a3,3,0,0,1,1-.84,2.64,2.64,0,0,1,1.17-.25,1.92,1.92,0,0,1,1.91,1,3.5,3.5,0,0,1,.28,1.54v4.26H64.42V98a2.29,2.29,0,0,0-.18-1,1.1,1.1,0,0,0-1.08-.62,2,2,0,0,0-.65.09,1.83,1.83,0,0,0-1.17,1.22,5,5,0,0,0-.08,1v3.48H60.14Z"/><path class="cls-1" d="M77.32,93.71a3.2,3.2,0,0,1,1.05,2.07h-1.2a2.28,2.28,0,0,0-2.49-1.91,2.66,2.66,0,0,0-2.13.94,4.38,4.38,0,0,0-.81,2.9,4.26,4.26,0,0,0,.73,2.6,2.56,2.56,0,0,0,2.19,1,2.31,2.31,0,0,0,2-1,4,4,0,0,0,.55-1.45h1.21a4.14,4.14,0,0,1-1.06,2.41,3.72,3.72,0,0,1-2.89,1.17,3.77,3.77,0,0,1-2.63-1,5.94,5.94,0,0,1-.35-7.23,3.81,3.81,0,0,1,3.14-1.41A3.65,3.65,0,0,1,77.32,93.71Z"/><path class="cls-1" d="M80.05,93H81.5L86,100.4V93h1.18v9.11H85.84L81.23,94.8v7.35H80.05Z"/><path class="cls-1" d="M89.22,93h1.45l4.54,7.36V93h1.18v9.11H95L90.4,94.8v7.35H89.22Z"/></g></g></svg>