<svg xmlns="http://www.w3.org/2000/svg" viewBox="0 0 87.09 101.92"><defs><style>.cls-1{fill:#fff;}</style></defs><g id="Capa_2" data-name="Capa 2"><g id="Capa_1-2" data-name="Capa 1"><g id="dl5HPI"><path class="cls-1" d="M46.24,0C48.15.37,50.08.65,52,1.12,57.26,2.46,62.17,4.81,67.13,7c2.36,1.05,4.72,2.11,7,3.33,7,3.71,11.16,9.43,12.26,17.3a75.56,75.56,0,0,1,.48,16A22,22,0,0,1,82,55.71l-.4.52c1.78,2.18,1.18,4.22-.23,6.34a56.33,56.33,0,0,1-8.09,9.67c-2.48,2.37-5.58,3.25-8.81,3.76-1.76.28-3.57.3-5.35.46a5,5,0,0,0-1.33.3C54.11,78.18,50.57,80,46.66,80.7c-1.24.24-2.49.4-3.72.67a1.78,1.78,0,0,0-1,.69,15.71,15.71,0,0,1-10.8,7.75,1.62,1.62,0,0,0-1,.7,17.86,17.86,0,0,1-7.12,7,2.32,2.32,0,0,0-1.17,2.14c-.07,1.38-.44,2.09-1.43,2.21s-1.86-.64-2.09-1.92c0-.07-.05-.12-.12-.29-.61.14-1.23.3-1.87.42-1.23.23-2.1-.27-2.3-1.3s.43-1.75,1.59-2a20.22,20.22,0,0,0,7.48-3.35A13,13,0,0,0,27.56,88a1.92,1.92,0,0,1,1.69-1.34,11.65,11.65,0,0,0,10.54-8.26,54,54,0,0,0,1.85-8.72,20.88,20.88,0,0,0,.2-4.26,3.57,3.57,0,0,0-.76-1.94,22.14,22.14,0,0,1-4.88-9.55c-.09-.42-.12-.85-.17-1.27a1.76,1.76,0,0,0-1.61,2.25c.43,1.8,1,3.56,1.57,5.32a10.53,10.53,0,0,0,.87,2,5.26,5.26,0,0,1,.5,4.26,8.9,8.9,0,0,0,.25,6,1.67,1.67,0,1,1-3.09,1.25A.93.93,0,0,0,33.46,73a7.9,7.9,0,0,0-4.28,1.42,4.1,4.1,0,0,0-1.63,3.37c-.06,1.26-.61,2-1.6,2s-1.6-.63-1.8-1.94a1.14,1.14,0,0,0-.63-.7,4.55,4.55,0,0,0-5,1A27.48,27.48,0,0,0,16,81.45c-.22.28-.34.64-.54.94a1.68,1.68,0,0,1-2.95-1.61,14.82,14.82,0,0,1,4.28-5.54,8.25,8.25,0,0,1,8.3-1.15c1.86-3,4.69-4.16,8-4.45.2,0,.38-.31.56-.48-.17-.14-.35-.41-.53-.42a19.25,19.25,0,0,0-7.07.73,2,2,0,0,1-1.71-.26,2.65,2.65,0,0,1-.52-1.76c0-.78.3-1.56.33-2.35a2.67,2.67,0,0,0-1.24-2.46,1.74,1.74,0,0,1-.74-2.23A7.27,7.27,0,0,0,22.49,59c.21-1.7-.12-2.19-1.69-2.82-1.79-.73-3.57-1.51-5.35-2.27.26,1.49.6,2.94.74,4.41a12.44,12.44,0,0,1-3,9.51c-1.33,1.61-2.57,3.29-3.81,5a10.37,10.37,0,0,0-2.17,6.78,19.89,19.89,0,0,1-1.36,7.54,68.09,68.09,0,0,0-2.28,8.83,12.72,12.72,0,0,0,.09,3.74c.12,1.17-.28,2-1.28,2.23a1.73,1.73,0,0,1-2-1.45,14.14,14.14,0,0,1,.2-7.28c.83-3.2,1.92-6.33,2.87-9.5a7.89,7.89,0,0,0,.33-1.73c.07-1,0-1.92,0-2.88a13.15,13.15,0,0,1,2.51-7.83c1.36-1.84,2.69-3.7,4.16-5.45a9.86,9.86,0,0,0,2-9.51c-.42-1.52-1.13-3-1.7-4.44a1.86,1.86,0,0,0-1.42-1.08,26.85,26.85,0,0,1-5.21-1.84c-3-1.61-3.25-4.37-.83-6.78A11.57,11.57,0,0,1,4.66,41c3-2.17,3.9-5,3.08-8.57a13.73,13.73,0,0,1-.35-4.51c.23-2.17,1.93-3.47,3.52-4.73a1.21,1.21,0,0,0,.53-1.32A13.6,13.6,0,0,1,11.58,16a5.92,5.92,0,0,1,3.49-4.06A10.15,10.15,0,0,0,18.3,9.85C23,4.92,28.82,2.37,35.31,1c1.91-.4,3.84-.68,5.76-1ZM71.6,59a22.17,22.17,0,0,0,3.56-1.61,18,18,0,0,0,8.25-13.77,82.93,82.93,0,0,0-.07-12.41,31.19,31.19,0,0,0-1.57-7.76C80,18.36,76.2,15,71.48,12.8c-5.23-2.47-10.55-4.78-15.92-7A30.05,30.05,0,0,0,40.47,3.58c-8.22,1-15.69,3.6-21.26,10.23.14.21.37.52.59.85,3,4.54.51,10-4.73,10.37-2,.13-2.87,1.57-4,2.8a.8.8,0,0,0,.47-.11,3.92,3.92,0,0,1,5,1.23,13.8,13.8,0,0,1,1.89,3.68A6.24,6.24,0,0,1,17,39.28c-1.78,1.76-3.71,2-5.63.29-.22-.2-.45-.39-.79-.67a14.46,14.46,0,0,1-4.88,5.57,2.08,2.08,0,0,0-.45.53.76.76,0,0,0-.1.46,1.79,1.79,0,0,0,2.16.69c.91-.72,1.78-1.49,2.7-2.2a1.69,1.69,0,1,1,2.17,2.58c-.35.34-.73.64-1.12,1,1.46,1,1.46,1,2.69.06.5-.39,1-.81,1.48-1.18a1.7,1.7,0,0,1,2.41.19,1.76,1.76,0,0,1-.32,2.48c-.44.39-.9.75-1.38,1.15,1.68.95,1.67.95,3-.17L21,48.46a1.76,1.76,0,0,1,2.63.07,1.72,1.72,0,0,1-.44,2.52c-.6.52-1.22,1-1.92,1.59A25.54,25.54,0,0,0,30.92,55c0-.35,0-.61,0-.87a5.4,5.4,0,0,1,4-4.83,3.35,3.35,0,0,1,4.53,3.26c0,.45.11.9.2,1.64,2-.81,3.86-1.39,5.57-2.29a9.68,9.68,0,0,0,5.07-6.68c.31-1.35,0-1.75-1.29-1.45q-3.48.78-6.89,1.86c-4.06,1.28-9.84-.43-12.44-3.77a1.67,1.67,0,0,1,0-2.19A1.65,1.65,0,0,1,32,39.41c.19.13.35.3.53.45,3,2.59,6.23,3.76,10.24,2a21.21,21.21,0,0,1,6.64-1.48c3.25-.25,5,2,4.31,5.19a13.83,13.83,0,0,1-7.95,9.94l-1.11.53c.47.1.78.18,1.1.23,3.2.58,6.22,1.5,8.74,3.74a6.71,6.71,0,0,0,2.61,1.1,1.4,1.4,0,0,0,1.19-.37c.78-.85,1.46-1.79,2.16-2.71,1.77-2.32,4-3.81,7-3.71S72,56.16,71.6,59ZM43.73,77.86l1.68-.34c4-.79,7.66-2.69,11.49-4a12,12,0,0,0,6.93-6c1.46-2.85,2.76-5.79,4.12-8.7a4.41,4.41,0,0,0,.2-.71,4.36,4.36,0,0,0-5,2,29.33,29.33,0,0,1-6.67,7,16.87,16.87,0,0,1-7.8,3.5c-1.23.19-2.48.24-3.72.36Zm20.72-5.42A10.72,10.72,0,0,0,70.63,70,44.42,44.42,0,0,0,79,59.94a4,4,0,0,0,.32-.94c-1.85.92-3.64,1.88-5.49,2.71-1.08.49-2.26.74-3.38,1.14a1.46,1.46,0,0,0-.81.61A36.28,36.28,0,0,1,64.45,72.44Zm-19-5a13.4,13.4,0,0,0,9.07-3.16c-1.16-.85-2.25-1.7-3.39-2.46-2.64-1.78-5.69-2.13-8.91-2.54A21,21,0,0,1,44.77,63,21,21,0,0,1,45.49,67.41Zm-17.92-2h6.59A4.35,4.35,0,0,0,34,64.28c-.68-1.75-1.39-3.49-2.11-5.23-.09-.21-.3-.5-.48-.52-1.82-.24-3.64-.43-5.47-.63-.07.72-.15,1.41-.18,2.1a1.28,1.28,0,0,0,.16.81A7,7,0,0,1,27.57,65.4Zm-13.46-28A8.16,8.16,0,0,0,15,36.31a4.81,4.81,0,0,0-1.35-5.48.71.71,0,0,0-.53-.09,4.15,4.15,0,0,0-1.82,2.86C11.41,35.45,12.92,36.19,14.11,37.44Zm.7-15.84c1.7-.1,2.27-.49,2.62-1.73a4,4,0,0,0-1.7-4.52C14.05,17.26,14.62,19.45,14.81,21.6Z"/><path class="cls-1" d="M20.89,28a7.79,7.79,0,0,1,5.36-7.51,4.37,4.37,0,0,1,4.05.67c.79.6,1.45,1.36,2.19,2,1.16,1,2.28,2.09,3.53,3a8,8,0,0,1,3.41,5.7,3.42,3.42,0,0,1-1.77,3.23c-5.16,3.72-9.8,3.21-14.26-1.6A7.9,7.9,0,0,1,20.89,28Zm10.34,6.38a28.72,28.72,0,0,0,2.85-1c2.49-1.17,2.45-1.83.37-4.07a.84.84,0,0,0-.24-.18,15.64,15.64,0,0,1-4.54-4,9.49,9.49,0,0,0-1.07-1,1.48,1.48,0,0,0-1.74-.22A4.15,4.15,0,0,0,25,29.94a9.3,9.3,0,0,0,3.62,3.45A23.72,23.72,0,0,0,31.23,34.34Z"/><path class="cls-1" d="M80.45,35.77c0,.48,0,.85,0,1.21a1.72,1.72,0,0,1-1.68,1.75,1.69,1.69,0,0,1-1.7-1.8A34.78,34.78,0,0,0,75.3,26.08c-1.15-3.2-2.84-6-6-7.6a1.62,1.62,0,0,1-.76-2.28,1.68,1.68,0,0,1,2.39-.67,14,14,0,0,1,6.19,6.26C79.45,26.19,80.2,31,80.45,35.77Z"/></g></g></g></svg>