<svg xmlns="http://www.w3.org/2000/svg" viewBox="0 0 247.6 71.83"><defs><style>.cls-1{fill:#1b9d82;}.cls-2{fill:#fff;}.cls-3{fill:none;stroke:#20af92;stroke-linecap:round;stroke-linejoin:round;stroke-width:4.68px;}.cls-4{fill:#20af92;}</style></defs><g id="Capa_2" data-name="Capa 2"><g id="Capa_1-2" data-name="Capa 1"><path class="cls-1" d="M73.84,22.43v1.79h-3v8.31H68.69V24.22h-3V22.43Z"/><path class="cls-1" d="M74.16,25.87a3.21,3.21,0,0,1,2.66-1,4.79,4.79,0,0,1,2.18.48,1.89,1.89,0,0,1,1,1.84v3.43c0,.23,0,.52,0,.86a1.19,1.19,0,0,0,.12.52.69.69,0,0,0,.29.23v.28H78.24a2.72,2.72,0,0,1-.12-.42c0-.13,0-.28-.05-.45a3.8,3.8,0,0,1-.94.74,2.71,2.71,0,0,1-1.42.37A2.48,2.48,0,0,1,74,32.19a2.07,2.07,0,0,1-.66-1.64,2.15,2.15,0,0,1,1.06-2,4.89,4.89,0,0,1,1.72-.48l.66-.08a2.88,2.88,0,0,0,.78-.17.57.57,0,0,0,.41-.55.67.67,0,0,0-.31-.64,2,2,0,0,0-.94-.17,1.21,1.21,0,0,0-1,.34,1.36,1.36,0,0,0-.27.68H73.61A2.9,2.9,0,0,1,74.16,25.87Zm1.45,5.25a1,1,0,0,0,.67.23A2,2,0,0,0,77.45,31,1.61,1.61,0,0,0,78,29.63V28.9a2.25,2.25,0,0,1-.38.19,3.46,3.46,0,0,1-.51.14l-.44.08a3,3,0,0,0-.89.26.9.9,0,0,0-.45.83A.86.86,0,0,0,75.61,31.12Z"/><path class="cls-1" d="M81.73,22.43h2v10.1h-2Z"/><path class="cls-1" d="M85.63,22.43h2v10.1h-2Z"/><path class="cls-1" d="M95.88,30.34a2.5,2.5,0,0,1-.69,1.35,3.39,3.39,0,0,1-2.69,1.09A3.77,3.77,0,0,1,90,31.86a3.7,3.7,0,0,1-1.09-3,4.14,4.14,0,0,1,1-3,3.34,3.34,0,0,1,2.55-1,3.83,3.83,0,0,1,1.68.35,2.88,2.88,0,0,1,1.23,1.1,3.85,3.85,0,0,1,.57,1.54A9.93,9.93,0,0,1,96,29.34H90.86a1.85,1.85,0,0,0,.71,1.58,1.63,1.63,0,0,0,1,.28,1.44,1.44,0,0,0,1-.34,1.6,1.6,0,0,0,.36-.52Zm-1.94-2.29a1.69,1.69,0,0,0-.46-1.17,1.47,1.47,0,0,0-1-.4,1.33,1.33,0,0,0-1.05.42,2.12,2.12,0,0,0-.47,1.15Z"/><path class="cls-1" d="M101,26.87a1.61,1.61,0,0,0-1.58.77A3,3,0,0,0,99.24,29v3.57h-2V25.07h1.86v1.3a4.08,4.08,0,0,1,.79-1,2.14,2.14,0,0,1,1.43-.46h.26v2l-.33,0Z"/><path class="cls-1" d="M109.14,30.34a2.5,2.5,0,0,1-.69,1.35,3.37,3.37,0,0,1-2.68,1.09,3.77,3.77,0,0,1-2.52-.92,3.67,3.67,0,0,1-1.09-3,4.18,4.18,0,0,1,1-3,3.38,3.38,0,0,1,2.56-1,3.83,3.83,0,0,1,1.68.35,2.94,2.94,0,0,1,1.23,1.1,3.85,3.85,0,0,1,.57,1.54,9.93,9.93,0,0,1,.06,1.48h-5.11a1.87,1.87,0,0,0,.7,1.58,1.66,1.66,0,0,0,1,.28,1.44,1.44,0,0,0,1-.34,1.76,1.76,0,0,0,.36-.52Zm-1.93-2.29a1.7,1.7,0,0,0-.47-1.17,1.44,1.44,0,0,0-1-.4,1.32,1.32,0,0,0-1,.42,2.12,2.12,0,0,0-.47,1.15Z"/><path class="cls-1" d="M115.7,25.41a2.4,2.4,0,0,1,1,1.93h-1.95a1.16,1.16,0,0,0-.22-.6,1.34,1.34,0,0,0-1.09-.39,1.51,1.51,0,0,0-.91.2.56.56,0,0,0-.27.46.52.52,0,0,0,.29.49,13.65,13.65,0,0,0,2,.54,3.72,3.72,0,0,1,1.75.83,1.89,1.89,0,0,1,.58,1.4,2.29,2.29,0,0,1-.83,1.82,3.92,3.92,0,0,1-2.55.7,3.81,3.81,0,0,1-2.6-.75,2.4,2.4,0,0,1-.84-1.89h2a1.35,1.35,0,0,0,.26.74,1.83,1.83,0,0,0,1.35.39,2.08,2.08,0,0,0,.91-.17.57.57,0,0,0,.07-1,10.1,10.1,0,0,0-2-.59,4.36,4.36,0,0,1-1.79-.79,1.74,1.74,0,0,1-.52-1.35,2.3,2.3,0,0,1,.82-1.77,3.23,3.23,0,0,1,2.28-.75A4.23,4.23,0,0,1,115.7,25.41Z"/><path class="cls-1" d="M125.3,30.57l1.54-5.5h2.08l-2.57,7.34a10.13,10.13,0,0,1-1.17,2.64,2.23,2.23,0,0,1-1.73.51H123l-.48,0V34h.25a3.33,3.33,0,0,0,.55,0,1,1,0,0,0,.44-.16,1.65,1.65,0,0,0,.43-.94l-2.74-7.79h2.18Z"/><path class="cls-1" d="M137.47,22.37V24l-.55,0a.64.64,0,0,0-.54.17.62.62,0,0,0-.15.4v.63h1.29v1.38h-1.29v6h-1.94v-6H133.2V25.13h1.07v-.48a2.52,2.52,0,0,1,.4-1.65c.28-.45,1-.67,2.05-.67h.34Z"/><path class="cls-1" d="M144.87,26a4.67,4.67,0,0,1,0,5.62,4.11,4.11,0,0,1-5.74,0,4.63,4.63,0,0,1,0-5.62,4.06,4.06,0,0,1,5.74,0Zm-2.88.47a1.57,1.57,0,0,0-1.32.6,2.8,2.8,0,0,0-.46,1.73,2.84,2.84,0,0,0,.46,1.74,1.73,1.73,0,0,0,2.64,0,2.91,2.91,0,0,0,.46-1.74,2.87,2.87,0,0,0-.46-1.73A1.57,1.57,0,0,0,142,26.48Z"/><path class="cls-1" d="M151,26.87a1.61,1.61,0,0,0-1.59.77,3,3,0,0,0-.22,1.32v3.57h-2V25.07h1.87v1.3a4.1,4.1,0,0,1,.78-1,2.14,2.14,0,0,1,1.43-.46h.26v2l-.33,0Z"/><path class="cls-1" d="M158.9,26a4.63,4.63,0,0,1,0,5.62,4.11,4.11,0,0,1-5.74,0,4.63,4.63,0,0,1,0-5.62,4.06,4.06,0,0,1,5.74,0Zm-2.87.47a1.55,1.55,0,0,0-1.32.6,2.8,2.8,0,0,0-.47,1.73,2.84,2.84,0,0,0,.47,1.74,1.72,1.72,0,0,0,2.63,0,2.84,2.84,0,0,0,.46-1.74,2.8,2.8,0,0,0-.46-1.73A1.55,1.55,0,0,0,156,26.48Z"/><path class="cls-1" d="M166.39,25.41a2.4,2.4,0,0,1,1,1.93h-2a1.25,1.25,0,0,0-.21-.6,1.36,1.36,0,0,0-1.1-.39,1.51,1.51,0,0,0-.91.2A.56.56,0,0,0,163,27a.52.52,0,0,0,.29.49,13.65,13.65,0,0,0,2,.54,3.72,3.72,0,0,1,1.75.83,1.85,1.85,0,0,1,.58,1.4,2.29,2.29,0,0,1-.83,1.82,3.92,3.92,0,0,1-2.55.7,3.81,3.81,0,0,1-2.6-.75,2.4,2.4,0,0,1-.84-1.89h2a1.28,1.28,0,0,0,.27.74,1.8,1.8,0,0,0,1.34.39,2.08,2.08,0,0,0,.91-.17.57.57,0,0,0,.07-1,9.86,9.86,0,0,0-2-.59,4.24,4.24,0,0,1-1.78-.79,1.71,1.71,0,0,1-.53-1.35,2.33,2.33,0,0,1,.82-1.77,3.23,3.23,0,0,1,2.28-.75A4.23,4.23,0,0,1,166.39,25.41Z"/><path class="cls-2" d="M72.6,42.71a4,4,0,0,1,.9,2.84,4.44,4.44,0,0,1-.89,3,2.87,2.87,0,0,1-2.28,1,2.37,2.37,0,0,1-1.48-.45,2.54,2.54,0,0,1-.63-.72v3.9H66.29V41.91h1.87V43a3.23,3.23,0,0,1,.67-.77,2.48,2.48,0,0,1,1.55-.5A2.93,2.93,0,0,1,72.6,42.71Zm-1.11,2.93a2.91,2.91,0,0,0-.4-1.53,1.37,1.37,0,0,0-1.27-.66,1.44,1.44,0,0,0-1.46,1,3.71,3.71,0,0,0-.21,1.35,2.16,2.16,0,0,0,.69,1.83,1.57,1.57,0,0,0,1,.31,1.41,1.41,0,0,0,1.24-.63A3,3,0,0,0,71.49,45.64Z"/><path class="cls-2" d="M75.19,42.72a3.2,3.2,0,0,1,2.66-1,4.64,4.64,0,0,1,2.18.49,1.85,1.85,0,0,1,1,1.83v3.43c0,.24,0,.52,0,.86a1,1,0,0,0,.12.52.72.72,0,0,0,.28.23v.29H79.28a2,2,0,0,1-.12-.43,2.73,2.73,0,0,1-.06-.45,4.25,4.25,0,0,1-.93.75,2.84,2.84,0,0,1-1.43.36A2.43,2.43,0,0,1,75.07,49a2.07,2.07,0,0,1-.66-1.64,2.12,2.12,0,0,1,1.06-2,4.5,4.5,0,0,1,1.71-.48l.67-.09a2.7,2.7,0,0,0,.77-.17.58.58,0,0,0,.42-.55.67.67,0,0,0-.32-.64,2.05,2.05,0,0,0-.93-.17,1.2,1.2,0,0,0-1,.34,1.45,1.45,0,0,0-.28.69H74.65A2.87,2.87,0,0,1,75.19,42.72ZM76.65,48a1,1,0,0,0,.67.23,2,2,0,0,0,1.16-.37A1.59,1.59,0,0,0,79,46.47v-.73a1.63,1.63,0,0,1-.37.19,4.08,4.08,0,0,1-.52.14l-.44.08a2.62,2.62,0,0,0-.88.27.88.88,0,0,0-.45.83A.83.83,0,0,0,76.65,48Z"/><path class="cls-2" d="M86.48,43.71a1.63,1.63,0,0,0-1.59.77,3,3,0,0,0-.22,1.33v3.57h-2V41.91h1.86v1.3a4.08,4.08,0,0,1,.79-1,2.14,2.14,0,0,1,1.43-.46H87v2l-.33,0Z"/><path class="cls-2" d="M88.46,42.72a3.19,3.19,0,0,1,2.66-1,4.64,4.64,0,0,1,2.18.49,1.84,1.84,0,0,1,1,1.83v3.43c0,.24,0,.52,0,.86a1.08,1.08,0,0,0,.11.52.76.76,0,0,0,.29.23v.29H92.55a2.93,2.93,0,0,1-.13-.43c0-.13,0-.28,0-.45a4.25,4.25,0,0,1-.93.75,2.84,2.84,0,0,1-1.43.36A2.41,2.41,0,0,1,88.34,49a2,2,0,0,1-.67-1.64,2.12,2.12,0,0,1,1.07-2,4.44,4.44,0,0,1,1.71-.48l.66-.09a2.78,2.78,0,0,0,.78-.17.58.58,0,0,0,.42-.55.67.67,0,0,0-.32-.64,2.1,2.1,0,0,0-.94-.17,1.21,1.21,0,0,0-1,.34,1.45,1.45,0,0,0-.27.69H87.91A3,3,0,0,1,88.46,42.72ZM89.92,48a1,1,0,0,0,.67.23,2,2,0,0,0,1.16-.37,1.59,1.59,0,0,0,.55-1.35v-.73a1.63,1.63,0,0,1-.37.19,4.08,4.08,0,0,1-.52.14l-.44.08a2.54,2.54,0,0,0-.88.27.89.89,0,0,0-.46.83A.83.83,0,0,0,89.92,48Z"/><path class="cls-2" d="M106.35,44.59h-2a1.84,1.84,0,0,0-.28-.76,1.18,1.18,0,0,0-1-.45,1.34,1.34,0,0,0-1.35,1,4,4,0,0,0-.2,1.38,3.76,3.76,0,0,0,.2,1.33A1.3,1.3,0,0,0,103,48a1.14,1.14,0,0,0,1-.37,1.79,1.79,0,0,0,.35-1h2a3.29,3.29,0,0,1-.65,1.69A3.14,3.14,0,0,1,103,49.64a3.19,3.19,0,0,1-2.65-1.07,4.31,4.31,0,0,1-.85-2.78,4.36,4.36,0,0,1,.94-3A3.25,3.25,0,0,1,103,41.73a3.91,3.91,0,0,1,2.3.63A2.92,2.92,0,0,1,106.35,44.59Z"/><path class="cls-2" d="M114.09,47.18a2.46,2.46,0,0,1-.7,1.35,3.37,3.37,0,0,1-2.68,1.09,3.77,3.77,0,0,1-2.52-.92,3.7,3.7,0,0,1-1.09-3,4.14,4.14,0,0,1,1-3,3.34,3.34,0,0,1,2.55-1,3.83,3.83,0,0,1,1.68.35,2.88,2.88,0,0,1,1.23,1.1,3.85,3.85,0,0,1,.57,1.54,10,10,0,0,1,.06,1.48h-5.11a1.87,1.87,0,0,0,.7,1.58,1.66,1.66,0,0,0,1,.28,1.39,1.39,0,0,0,1-.34,1.6,1.6,0,0,0,.36-.52Zm-1.94-2.28a1.71,1.71,0,0,0-.47-1.18,1.44,1.44,0,0,0-1-.4,1.33,1.33,0,0,0-1,.42,2.12,2.12,0,0,0-.47,1.16Z"/><path class="cls-2" d="M119,43.35a1.35,1.35,0,0,0-1.36.85,2.8,2.8,0,0,0-.19,1.13v4.05h-1.95V41.92h1.88V43a3.47,3.47,0,0,1,.72-.83,2.48,2.48,0,0,1,1.53-.45,2.84,2.84,0,0,1,1.89.61,2.46,2.46,0,0,1,.74,2v5h-2V44.83a2.13,2.13,0,0,0-.16-.9A1.1,1.1,0,0,0,119,43.35Z"/><path class="cls-2" d="M127.49,48v1.46l-.93,0a2.5,2.5,0,0,1-1.89-.48,1.43,1.43,0,0,1-.33-1V43.37h-1V42h1V39.89h1.94V42h1.21v1.39h-1.21v3.94a1,1,0,0,0,.11.58,1.38,1.38,0,0,0,.72.11h.18Z"/><path class="cls-2" d="M132.5,43.71a1.62,1.62,0,0,0-1.58.77,3,3,0,0,0-.23,1.33v3.57h-2V41.91h1.87v1.3a3.86,3.86,0,0,1,.79-1,2.11,2.11,0,0,1,1.42-.46h.26v2l-.33,0Z"/><path class="cls-2" d="M140.43,42.85a4.63,4.63,0,0,1,0,5.62,4.11,4.11,0,0,1-5.74,0,4.67,4.67,0,0,1,0-5.62,4.08,4.08,0,0,1,5.74,0Zm-2.87.47a1.55,1.55,0,0,0-1.32.61,2.78,2.78,0,0,0-.47,1.73,2.82,2.82,0,0,0,.47,1.73,1.55,1.55,0,0,0,1.32.61,1.52,1.52,0,0,0,1.31-.61,2.82,2.82,0,0,0,.46-1.73,2.78,2.78,0,0,0-.46-1.73A1.52,1.52,0,0,0,137.56,43.32Z"/><path class="cls-2" d="M147.93,42.25a2.39,2.39,0,0,1,1,1.93h-2a1.18,1.18,0,0,0-.21-.59,1.33,1.33,0,0,0-1.1-.4,1.53,1.53,0,0,0-.91.2.57.57,0,0,0-.27.46.51.51,0,0,0,.29.49,12.4,12.4,0,0,0,2,.54,3.72,3.72,0,0,1,1.75.83,1.85,1.85,0,0,1,.58,1.4,2.28,2.28,0,0,1-.83,1.82,5,5,0,0,1-5.15,0,2.43,2.43,0,0,1-.84-1.9h2a1.25,1.25,0,0,0,.27.74,1.8,1.8,0,0,0,1.34.39,2,2,0,0,0,.92-.17.54.54,0,0,0,.33-.51.55.55,0,0,0-.27-.5,10.61,10.61,0,0,0-2-.59,4.24,4.24,0,0,1-1.78-.79,1.7,1.7,0,0,1-.52-1.34,2.33,2.33,0,0,1,.81-1.78,3.23,3.23,0,0,1,2.28-.75A4.24,4.24,0,0,1,147.93,42.25Z"/><path class="cls-2" d="M160.88,47.18a2.44,2.44,0,0,1-.69,1.35,3.39,3.39,0,0,1-2.69,1.09A3.77,3.77,0,0,1,155,48.7a3.7,3.7,0,0,1-1.09-3,4.14,4.14,0,0,1,1-3,3.34,3.34,0,0,1,2.55-1,3.83,3.83,0,0,1,1.68.35,2.88,2.88,0,0,1,1.23,1.1,3.85,3.85,0,0,1,.57,1.54,10,10,0,0,1,.06,1.48h-5.11a1.85,1.85,0,0,0,.71,1.58,1.63,1.63,0,0,0,1,.28,1.39,1.39,0,0,0,1-.34,1.6,1.6,0,0,0,.36-.52Zm-1.94-2.28a1.7,1.7,0,0,0-.46-1.18,1.47,1.47,0,0,0-1-.4,1.33,1.33,0,0,0-1.05.42,2.12,2.12,0,0,0-.47,1.16Z"/><path class="cls-2" d="M169.09,39.29V49.38h-1.9v-1a2.85,2.85,0,0,1-.95,1,2.7,2.7,0,0,1-1.33.3,2.77,2.77,0,0,1-2.21-1.06,4.09,4.09,0,0,1-.89-2.72,4.69,4.69,0,0,1,.88-3A2.86,2.86,0,0,1,165,41.73a2.39,2.39,0,0,1,1.21.3,2.41,2.41,0,0,1,.86.82V39.29Zm-5.27,6.4a2.88,2.88,0,0,0,.42,1.65,1.34,1.34,0,0,0,1.23.62,1.44,1.44,0,0,0,1.26-.61,2.72,2.72,0,0,0,.43-1.6,2.45,2.45,0,0,0-.69-2,1.46,1.46,0,0,0-1-.35,1.38,1.38,0,0,0-1.26.64A3.07,3.07,0,0,0,163.82,45.69Z"/><path class="cls-2" d="M175.65,48.32s-.06.09-.14.21a1.48,1.48,0,0,1-.26.3,2.74,2.74,0,0,1-.88.56,3.07,3.07,0,0,1-1,.15,2.24,2.24,0,0,1-2.23-1.19,4.51,4.51,0,0,1-.32-1.94v-4.5h2v4.5a2.4,2.4,0,0,0,.15,1,1,1,0,0,0,1,.57,1.38,1.38,0,0,0,1.37-.81,2.89,2.89,0,0,0,.19-1.16V41.91h2v7.47h-1.9Z"/><path class="cls-2" d="M185.9,44.59h-2a1.84,1.84,0,0,0-.28-.76,1.19,1.19,0,0,0-1-.45,1.36,1.36,0,0,0-1.35,1,4.32,4.32,0,0,0-.19,1.38,4,4,0,0,0,.19,1.33,1.32,1.32,0,0,0,1.32.93,1.14,1.14,0,0,0,1-.37,1.87,1.87,0,0,0,.35-1h2a3.29,3.29,0,0,1-.65,1.69,3.14,3.14,0,0,1-2.72,1.28,3.19,3.19,0,0,1-2.65-1.07,4.31,4.31,0,0,1-.85-2.78,4.36,4.36,0,0,1,.94-3,3.24,3.24,0,0,1,2.59-1.07,3.91,3.91,0,0,1,2.3.63A3,3,0,0,1,185.9,44.59Z"/><path class="cls-2" d="M187.52,42.72a3.19,3.19,0,0,1,2.66-1,4.67,4.67,0,0,1,2.18.49,1.86,1.86,0,0,1,.95,1.83v3.43c0,.24,0,.52,0,.86a1.08,1.08,0,0,0,.11.52.76.76,0,0,0,.29.23v.29h-2.12a2.93,2.93,0,0,1-.13-.43c0-.13,0-.28,0-.45a4.25,4.25,0,0,1-.93.75,2.84,2.84,0,0,1-1.43.36,2.45,2.45,0,0,1-1.68-.58,2.07,2.07,0,0,1-.66-1.64,2.12,2.12,0,0,1,1.07-2,4.39,4.39,0,0,1,1.71-.48l.66-.09a2.88,2.88,0,0,0,.78-.17.58.58,0,0,0,.42-.55.67.67,0,0,0-.32-.64,2.13,2.13,0,0,0-.94-.17,1.21,1.21,0,0,0-1,.34,1.45,1.45,0,0,0-.27.69H187A2.87,2.87,0,0,1,187.52,42.72ZM189,48a1,1,0,0,0,.68.23,2,2,0,0,0,1.16-.37,1.59,1.59,0,0,0,.55-1.35v-.73a1.63,1.63,0,0,1-.37.19,4.08,4.08,0,0,1-.52.14l-.44.08a2.54,2.54,0,0,0-.88.27.87.87,0,0,0-.46.83A.85.85,0,0,0,189,48Z"/><path class="cls-2" d="M198.47,48v1.46l-.93,0a2.5,2.5,0,0,1-1.89-.48,1.43,1.43,0,0,1-.33-1V43.37h-1V42h1V39.89h1.93V42h1.22v1.39h-1.22v3.94a.9.9,0,0,0,.12.58,1.34,1.34,0,0,0,.71.11h.19Z"/><path class="cls-2" d="M201.73,39.21V41h-2V39.21Zm0,2.7v7.47h-2V41.91Z"/><path class="cls-2" d="M202.89,41.91h2.19l1.55,5.51,1.59-5.51h2.1l-2.69,7.47h-2.06Z"/><path class="cls-2" d="M217.65,42.85a4.63,4.63,0,0,1,0,5.62,4.11,4.11,0,0,1-5.74,0,4.63,4.63,0,0,1,0-5.62,4.08,4.08,0,0,1,5.74,0Zm-2.87.47a1.53,1.53,0,0,0-1.32.61,2.78,2.78,0,0,0-.47,1.73,2.82,2.82,0,0,0,.47,1.73,1.72,1.72,0,0,0,2.63,0,2.82,2.82,0,0,0,.46-1.73,2.78,2.78,0,0,0-.46-1.73A1.53,1.53,0,0,0,214.78,43.32Z"/><path class="cls-2" d="M225.14,42.25a2.4,2.4,0,0,1,1,1.93h-2a1.18,1.18,0,0,0-.21-.59,1.33,1.33,0,0,0-1.1-.4,1.51,1.51,0,0,0-.91.2.57.57,0,0,0-.27.46.51.51,0,0,0,.29.49,12.4,12.4,0,0,0,2,.54,3.72,3.72,0,0,1,1.75.83,1.85,1.85,0,0,1,.58,1.4,2.28,2.28,0,0,1-.83,1.82,5,5,0,0,1-5.15,0,2.43,2.43,0,0,1-.84-1.9h2a1.25,1.25,0,0,0,.27.74,1.8,1.8,0,0,0,1.34.39A1.94,1.94,0,0,0,224,48a.53.53,0,0,0,.34-.51.55.55,0,0,0-.27-.5,10.61,10.61,0,0,0-2-.59,4.24,4.24,0,0,1-1.78-.79,1.7,1.7,0,0,1-.53-1.34,2.34,2.34,0,0,1,.82-1.78,3.23,3.23,0,0,1,2.28-.75A4.23,4.23,0,0,1,225.14,42.25Z"/><line class="cls-3" x1="245.26" y1="2.34" x2="2.34" y2="2.34"/><line class="cls-3" x1="2.34" y1="69.49" x2="245.26" y2="69.49"/><g id="zzCq4D"><path class="cls-4" d="M37.63,55.89,37,55.75A6.15,6.15,0,0,1,32.3,51a.71.71,0,0,0-.32-.4,3.68,3.68,0,0,1-2.29-3.52c0-1.07,0-2.14-.06-3.19a9.64,9.64,0,0,0-2.46-5.55,14.73,14.73,0,0,1,5.25-23.19,14.76,14.76,0,0,1,18.65,6.22,14.18,14.18,0,0,1,1.81,9.21,14.5,14.5,0,0,1-3.37,7.63A9.86,9.86,0,0,0,47.35,42a18.31,18.31,0,0,0-.45,2.86c-.07.74,0,1.5,0,2.25a3.66,3.66,0,0,1-2.28,3.51.68.68,0,0,0-.32.37,6.12,6.12,0,0,1-5.19,4.85.47.47,0,0,0-.15.06Zm6.83-12.38c.14-.66.26-1.3.43-1.93a14.34,14.34,0,0,1,2.93-5.18,11.88,11.88,0,0,0,2.57-9.66A11.62,11.62,0,0,0,47,20.05a11.91,11.91,0,0,0-10-3.53,11.57,11.57,0,0,0-9.9,7.17A11.9,11.9,0,0,0,29,36.77a13,13,0,0,1,2.64,4.79c.17.64.29,1.3.44,1.95Zm0,2.5H32.15c0,.36,0,.7,0,1a1.25,1.25,0,0,0,1.39,1.39h9.57a1.24,1.24,0,0,0,1.32-1.3Zm-2.74,4.91H34.85a3.7,3.7,0,0,0,3.6,2.5A3.64,3.64,0,0,0,41.69,50.92Z"/><path class="cls-4" d="M38.66,18.89a9.85,9.85,0,0,1,9.25,7.87,11.81,11.81,0,0,1,.19,1.78,1.23,1.23,0,1,1-2.44.09,7.42,7.42,0,0,0-7-7.28c-.16,0-.33,0-.49,0a1.22,1.22,0,0,1,.13-2.44Z"/></g></g></g></svg>