<svg xmlns="http://www.w3.org/2000/svg" viewBox="0 0 535.8 258.2"><defs><style>.cls-1{fill:#20af92;}.cls-2{fill:#fff;}</style></defs><g id="Capa_2" data-name="Capa 2"><g id="Capa_1-2" data-name="Capa 1"><path class="cls-1" d="M0,26.68V17.19Q0,10.44,3.22,6.52T12.6,1.39V6.07Q8,7.51,6.43,11a8,8,0,0,0-.67,3.83h7.06V26.68ZM33.93,6.07a9.1,9.1,0,0,0-6.12,5,7.12,7.12,0,0,0-.72,3.74h7.06V26.68H21.33V17.19q0-6.84,3.3-10.71a16,16,0,0,1,9.3-5.09Z"/><path class="cls-2" d="M75,42.34H60.7v26H47.15V2H79.69q7,.13,10.73,1.71a16.79,16.79,0,0,1,6.36,4.64A20.54,20.54,0,0,1,100.2,14a18.16,18.16,0,0,1,1.26,7,19.84,19.84,0,0,1-2.38,9.29,13.33,13.33,0,0,1-7.88,6.46,12.44,12.44,0,0,1,6.51,5.24q1.91,3.41,1.91,10.37v4.46A34,34,0,0,0,100,62.9a5.54,5.54,0,0,0,2.52,3.78v1.67H87.24c-.42-1.47-.72-2.66-.9-3.56a32.6,32.6,0,0,1-.58-5.71l-.09-6.17q-.09-6.34-2.32-8.46C81.87,43,79.08,42.34,75,42.34Zm8.41-12.06q4.14-1.89,4.14-7.47,0-6-4-8.1a15.17,15.17,0,0,0-6.75-1.17H60.7V31.36H76.4A17.5,17.5,0,0,0,83.42,30.28Z"/><path class="cls-2" d="M139,70.19q-14.22,0-21.74-7.74Q107.22,53,107.23,35.1q0-18.23,10.07-27.36Q124.82,0,139,0t21.73,7.74q10,9.14,10,27.36,0,17.85-10,27.35Q153.26,70.19,139,70.19Zm13.09-17.82q4.81-6.07,4.81-17.27t-4.83-17.26A15.83,15.83,0,0,0,139,11.74a16,16,0,0,0-13.14,6.08Q121,23.9,121,35.1t4.91,17.27a17.18,17.18,0,0,0,26.23,0Z"/><path class="cls-2" d="M194.06,68.35H181.15V2h20.16l12.06,52.15L225.34,2h19.93V68.35H232.36V23.49c0-1.29,0-3.1,0-5.43s0-4.11,0-5.37L219.89,68.35H206.44L194,12.69c0,1.26,0,3.05,0,5.37s0,4.14,0,5.43Z"/><path class="cls-2" d="M304.3,39.37H272.09V56.42H308.8V68.35H258.54V2h48.64V13.77H272.09V27.85H304.3Z"/><path class="cls-2" d="M345.25,70.19q-14.22,0-21.73-7.74Q313.44,53,313.44,35.1q0-18.23,10.08-27.36Q331,0,345.25,0T367,7.74q10,9.14,10,27.36Q377,53,367,62.45,359.47,70.19,345.25,70.19Zm13.09-17.82q4.82-6.07,4.82-17.27t-4.84-17.26a15.81,15.81,0,0,0-13.07-6.1,16,16,0,0,0-13.14,6.08q-4.91,6.08-4.9,17.28t4.9,17.27a17.18,17.18,0,0,0,26.23,0Z"/><path class="cls-2" d="M402.06,58.82A12.81,12.81,0,0,0,404,55.37,29.64,29.64,0,0,0,405,51.66h3a37.26,37.26,0,0,1-1.71,5,17.87,17.87,0,0,1-2.88,4.63L408,68.35h-4.14L401.2,64a19.74,19.74,0,0,1-6,4.09,17.61,17.61,0,0,1-6.7,1.23,11.4,11.4,0,0,1-4.33-.79,8.7,8.7,0,0,1-3.2-2.23,7.72,7.72,0,0,1-1.74-3.46,10.44,10.44,0,0,1,.05-4.48,12.29,12.29,0,0,1,1.54-3.78,15.64,15.64,0,0,1,2.58-3.18,19.5,19.5,0,0,1,3.35-2.53A29.31,29.31,0,0,1,390.5,47c-.37-.58-.73-1.19-1.07-1.82a11.83,11.83,0,0,1-.85-2,9.93,9.93,0,0,1-.43-2.13,7.72,7.72,0,0,1,.15-2.32,8.28,8.28,0,0,1,1.31-3.1,8.83,8.83,0,0,1,2.28-2.28A9.68,9.68,0,0,1,394.83,32a11.79,11.79,0,0,1,3.3-.46,7.38,7.38,0,0,1,3,.56,5.63,5.63,0,0,1,2.1,1.54,5.15,5.15,0,0,1,1.08,2.27,6.34,6.34,0,0,1,0,2.74A9.68,9.68,0,0,1,403,41.8a10.91,10.91,0,0,1-2.08,2.41,18.77,18.77,0,0,1-2.71,1.92q-1.49.87-3.12,1.74Zm-10.17-9.67a20,20,0,0,0-3.2,1.71A17.65,17.65,0,0,0,386,53.09a14.5,14.5,0,0,0-2.1,2.64,9,9,0,0,0-1.18,2.89,7.57,7.57,0,0,0-.08,3.3,5.53,5.53,0,0,0,1.23,2.48A5.86,5.86,0,0,0,386.1,66a8.26,8.26,0,0,0,3.17.56,11.86,11.86,0,0,0,5.56-1.35,21.92,21.92,0,0,0,4.89-3.56Zm8.39-8.45a5.24,5.24,0,0,0,.82-2.17,4.4,4.4,0,0,0-.2-2.1,3.28,3.28,0,0,0-1.26-1.56,4,4,0,0,0-2.33-.62,6,6,0,0,0-1.92.31,6.42,6.42,0,0,0-1.76.87,5.78,5.78,0,0,0-1.41,1.38,4.83,4.83,0,0,0-.8,1.84,4.61,4.61,0,0,0,.06,1.8,10.57,10.57,0,0,0,.58,1.89,18.15,18.15,0,0,0,.87,1.77c.33.56.63,1,.9,1.46,1.16-.62,2.33-1.29,3.51-2A9.71,9.71,0,0,0,400.28,40.7Z"/><path class="cls-2" d="M68.26,126.39V80H82.12v46.16q0,8.46-2.92,13.41-5,8.37-17.87,8.37T44,141.17q-4.41-6.78-4.41-18.47v-1.53H52.7v1.53q.18,7.69,1.68,10.82c1,2.08,3.16,3.13,6.46,3.13s5.43-1.14,6.48-3.42Q68.27,131.2,68.26,126.39Z"/><path class="cls-2" d="M135.08,120.76V80h14.08v40.76q0,10.58-3.28,16.47Q139.76,148,122.53,148t-23.4-10.8q-3.28-5.89-3.28-16.47V80h14.08v40.76q0,6.84,1.62,10,2.52,5.58,11,5.58t10.93-5.58Q135.08,127.6,135.08,120.76Z"/><path class="cls-2" d="M162.39,80h13.86v54.4H209.1v11.92H162.39Z"/><path class="cls-2" d="M217.6,80h13.77v66.32H217.6Z"/><path class="cls-2" d="M290.45,117.34H258.23V134.4H295v11.92H244.69V80h48.64V91.74h-35.1v14.09h32.22Z"/><path class="cls-2" d="M353.94,80V91.74H334.09v54.58H320.14V91.74H300.21V80Z"/><path class="cls-2" d="M392.2,132.69H367.77l-4.59,13.63H348.69L372.36,80H388l23.49,66.32h-15Zm-3.87-11.43-8.28-26.1-8.55,26.1Z"/><path class="cls-1" d="M410.48,92.06V80.22H423.3v9.5q0,6.61-3.22,10.62t-9.38,5.17v-4.72q4.55-1.44,6.12-5a7.61,7.61,0,0,0,.72-3.78Zm30.91,8.14q-3.15,4.1-9.45,5.31v-4.72q4.63-1.4,6.17-5.13a9.21,9.21,0,0,0,.63-3.6h-7V80.22h12.77v9.5Q444.49,96.16,441.39,100.2Z"/><path class="cls-2" d="M424.06,153.49l1.2.2a8.08,8.08,0,0,0,1.31.1,3.54,3.54,0,0,0,2.28-.81,8.77,8.77,0,0,0,1.76-2,23.45,23.45,0,0,0,1.41-2.39,18.49,18.49,0,0,1,1.25-2.1l-4.6-26.73h3.43l3.68,22.78,13.31-22.78h3.33L437,146c-1,1.67-1.89,3.18-2.71,4.51a25.64,25.64,0,0,1-2.46,3.4,9.61,9.61,0,0,1-2.56,2.15,5.84,5.84,0,0,1-2.92.74,11.47,11.47,0,0,1-2.86-.35Z"/><path class="cls-1" d="M0,182.63v-9.49q0-6.75,3.22-10.67t9.38-5.13V162Q8,163.46,6.43,167a8,8,0,0,0-.67,3.83h7.06v11.83ZM33.93,162a9.1,9.1,0,0,0-6.12,5,7.12,7.12,0,0,0-.72,3.74h7.06v11.83H21.33v-9.49q0-6.84,3.3-10.71a16,16,0,0,1,9.3-5.09Z"/><path class="cls-2" d="M59.53,224.29H46.61V158H66.77l12.06,52.15L90.8,158h19.93v66.32H97.82V179.44c0-1.29,0-3.1,0-5.43s0-4.11,0-5.37L85.35,224.29H71.9L59.44,168.64c0,1.26,0,3.05,0,5.37s.05,4.14.05,5.43Z"/><path class="cls-2" d="M162.43,210.66H138l-4.59,13.63H118.92L142.59,158h15.66l23.48,66.32h-15Zm-3.87-11.43-8.28-26.09-8.55,26.09Z"/><path class="cls-2" d="M233.26,219.35q-7.42,6.79-19,6.79-14.31,0-22.5-9.18t-8.19-25.29q0-17.35,9.32-26.77,8.08-8.19,20.6-8.19,16.74,0,24.48,11a23.79,23.79,0,0,1,4.59,12.37H228.71a18.74,18.74,0,0,0-3.46-7.19q-3.78-4.32-11.21-4.32a13.89,13.89,0,0,0-11.92,6.09q-4.37,6.11-4.37,17.26t4.62,16.71a14.55,14.55,0,0,0,11.72,5.56q7.29,0,11.11-4.77a20.69,20.69,0,0,0,3.51-7.69h13.72A29.87,29.87,0,0,1,233.26,219.35Z"/><path class="cls-2" d="M283.29,224.29H253.23V158h32.22q12.19.18,17.28,7.07a16.79,16.79,0,0,1,3.06,10.12q0,6.08-3.06,9.76a15.79,15.79,0,0,1-5,3.78,14.8,14.8,0,0,1,7.67,5.85,17.57,17.57,0,0,1,2.59,9.72,19.33,19.33,0,0,1-3,10.58,18.4,18.4,0,0,1-12.26,8.55A46.55,46.55,0,0,1,283.29,224.29Zm6.57-41.84q2.7-1.62,2.7-5.8,0-4.64-3.6-6.12a25.46,25.46,0,0,0-7.92-1H266.46v14.62h16.29A13.56,13.56,0,0,0,289.86,182.45ZM283,195.09H266.46v17.69h16.29a16,16,0,0,0,6.79-1.17q4.41-2.16,4.41-8.28,0-5.18-4.27-7.11A17.14,17.14,0,0,0,283,195.09Z"/><path class="cls-2" d="M365.72,195.32H333.5v17.05h36.72v11.92H320V158H368.6v11.75H333.5V183.8h32.22Z"/><path class="cls-2" d="M429.21,158v11.75H409.36v54.57H395.42V169.72H375.48V158Z"/><path class="cls-2" d="M475,224.29v-29.6H449.1v29.6H435.37V158H449.1v25.29H475V158h13.77v66.32Z"/><path class="cls-1" d="M501.79,170V158.2h12.82v9.49q0,6.62-3.22,10.62a15.07,15.07,0,0,1-9.38,5.17v-4.72q4.55-1.44,6.12-4.95a7.61,7.61,0,0,0,.72-3.78Zm30.91,8.15q-3.15,4.09-9.45,5.3v-4.72q4.63-1.39,6.16-5.13A9.21,9.21,0,0,0,530,170h-7V158.2H535.8v9.49Q535.8,174.13,532.7,178.18Z"/><path class="cls-2" d="M46.05,252.58a1.06,1.06,0,0,1-.36-.05.18.18,0,0,1-.12-.17c0-.1.06-.17.19-.22a2.08,2.08,0,0,1,.53-.14,3.13,3.13,0,0,0,1.18-.46,2,2,0,0,0,.66-1.06l2.68-8.74a1.7,1.7,0,0,0,0-1.3c-.17-.28-.59-.45-1.25-.5a1.23,1.23,0,0,1-.4-.1.21.21,0,0,1-.1-.2c0-.08.06-.14.19-.17a1.41,1.41,0,0,1,.43-.05h1.78l.64,0,.87,0c.3,0,.53,0,.71,0a5.18,5.18,0,0,1,2.22.44,3.42,3.42,0,0,1,1.49,1.26,3.82,3.82,0,0,1,.08,3.74,4.57,4.57,0,0,1-1.22,1.38,6.43,6.43,0,0,1-1.75.9,6.69,6.69,0,0,1-2,.32,3.89,3.89,0,0,1-.52-.05c-.22,0-.32-.11-.32-.21a.19.19,0,0,1,.14-.18,1,1,0,0,1,.32-.08l.56-.09.54-.11a5.09,5.09,0,0,0,1.54-.73,3.8,3.8,0,0,0,1.09-1.26,3.87,3.87,0,0,0,.41-1.81,3.3,3.3,0,0,0-.35-1.52,2.61,2.61,0,0,0-1-1.08,3.27,3.27,0,0,0-1.68-.4.36.36,0,0,0-.26.09.6.6,0,0,0-.17.27,4.94,4.94,0,0,0-.17.48l-2.92,9.54a1.49,1.49,0,0,0,0,1.19,1.4,1.4,0,0,0,1,.55.94.94,0,0,1,.4.14.27.27,0,0,1,.1.22c0,.08-.06.13-.18.17a1.73,1.73,0,0,1-.42.05c-.34,0-.61,0-.82,0l-.58-.07a5.59,5.59,0,0,0-.62,0,8.21,8.21,0,0,0-1.21.07A10.47,10.47,0,0,1,46.05,252.58Z"/><path class="cls-2" d="M58.73,252.76a1.48,1.48,0,0,1-.9-.32,2.31,2.31,0,0,1-.67-.84,2.49,2.49,0,0,1-.25-1.1,6.2,6.2,0,0,1,.37-2,8.11,8.11,0,0,1,1-2.06,6.12,6.12,0,0,1,1.53-1.59,3.11,3.11,0,0,1,1.87-.62,1.87,1.87,0,0,1,1.55.68,2.61,2.61,0,0,1,.55,1.68,6.25,6.25,0,0,1-.36,2,8.26,8.26,0,0,1-1,2,6.16,6.16,0,0,1-1.6,1.58A3.72,3.72,0,0,1,58.73,252.76Zm.32-.6a1.51,1.51,0,0,0,1-.42,5.56,5.56,0,0,0,.94-1.1,10.65,10.65,0,0,0,.8-1.5,12.23,12.23,0,0,0,.56-1.64,6.13,6.13,0,0,0,.21-1.5,1.93,1.93,0,0,0-.17-.86.7.7,0,0,0-.69-.34,1.5,1.5,0,0,0-1,.38,4.46,4.46,0,0,0-.94,1,8.47,8.47,0,0,0-.81,1.43,9.08,9.08,0,0,0-.57,1.64,6.79,6.79,0,0,0-.21,1.65,1.51,1.51,0,0,0,.23,1A.76.76,0,0,0,59.05,252.16Z"/><path class="cls-2" d="M65.07,252.82a.51.51,0,0,1-.22-.07.7.7,0,0,1-.2-.18.36.36,0,0,1-.08-.23,1.81,1.81,0,0,1,.13-.61q.12-.37.33-.93l1.84-4.8a1.54,1.54,0,0,0,.09-.48c0-.15-.08-.22-.21-.22a2,2,0,0,0-.55.07,1.27,1.27,0,0,0-.41.15.24.24,0,0,1-.23,0,.19.19,0,0,1-.11-.19.61.61,0,0,1,.15-.36,1.52,1.52,0,0,1,.41-.38,2.19,2.19,0,0,1,.57-.3,2,2,0,0,1,.69-.12c.37,0,.61.09.71.28a1.08,1.08,0,0,1,0,.75,8.75,8.75,0,0,1-.35,1.07l-.9,2.26c-.06.09,0,.15,0,.18a.17.17,0,0,0,.19-.06,19.75,19.75,0,0,1,1.61-2.41,10.37,10.37,0,0,1,1.5-1.6,2.07,2.07,0,0,1,1.17-.57.84.84,0,0,1,.73.3,1.18,1.18,0,0,1,.21.7,2.51,2.51,0,0,1-.13.74,1.93,1.93,0,0,1-.36.63.73.73,0,0,1-.51.25.26.26,0,0,1-.24-.19,1.24,1.24,0,0,1-.08-.51,1.17,1.17,0,0,0-.08-.47.3.3,0,0,0-.3-.17.91.91,0,0,0-.53.26,5.12,5.12,0,0,0-.83.9c-.15.2-.34.47-.58.82s-.5.73-.77,1.15-.55.84-.81,1.28-.5.83-.7,1.19c-.36.64-.62,1.1-.77,1.4S65.23,252.82,65.07,252.82Z"/><path class="cls-2" d="M79,252.76a.39.39,0,0,1-.36-.29,1.88,1.88,0,0,1-.12-.71,4.76,4.76,0,0,1,.07-.84c.15-.75.3-1.53.45-2.35s.29-1.64.43-2.45.26-1.58.37-2.28.18-1.32.24-1.82a6.21,6.21,0,0,0,0-1.22.65.65,0,0,0-.35-.53,3.23,3.23,0,0,0-1-.25,1.25,1.25,0,0,1-.46-.14.3.3,0,0,1-.16-.26c0-.11.07-.18.22-.21a2,2,0,0,1,.52,0,9.09,9.09,0,0,1,1,.06,12.16,12.16,0,0,0,1.31.06h1.88a1.07,1.07,0,0,1,.39.06.19.19,0,0,1,.14.18c0,.09-.08.17-.25.24a3.58,3.58,0,0,1-.54.14,1.62,1.62,0,0,0-.73.18.82.82,0,0,0-.37.47,4.9,4.9,0,0,0-.22,1c-.19,1.24-.39,2.47-.58,3.7s-.4,2.47-.6,3.74c-.07.45,0,.68.06.68s.34-.22.71-.64l5.43-6.4a6.34,6.34,0,0,0,.76-1,1.6,1.6,0,0,0,.2-.67.87.87,0,0,0-.3-.72,2.19,2.19,0,0,0-1.07-.34,1.07,1.07,0,0,1-.44-.15.34.34,0,0,1-.15-.27c0-.1.07-.16.24-.19a2,2,0,0,1,.48,0l.77,0,1,.06.88,0q.38,0,.72,0l.65-.06q.3,0,.63,0c.3,0,.46.08.46.26s-.07.17-.21.24a2.24,2.24,0,0,1-.53.16,2.32,2.32,0,0,0-1.25.44,1.63,1.63,0,0,0-.41,1l-1.12,7.68c-.07.45,0,.68.07.68s.34-.22.69-.66l5.18-6.48a6.15,6.15,0,0,0,.93-1.44.91.91,0,0,0,0-.82.89.89,0,0,0-.66-.36,1,1,0,0,1-.41-.14.29.29,0,0,1-.09-.22c0-.1.06-.16.19-.2a1.4,1.4,0,0,1,.43-.06h.59l.88,0h.81a6.53,6.53,0,0,0,1-.06,5.13,5.13,0,0,1,.83-.06.66.66,0,0,1,.35.07.21.21,0,0,1,.11.19c0,.09-.07.18-.2.27a1.7,1.7,0,0,1-.54.19,3.42,3.42,0,0,0-1.18.46,4.37,4.37,0,0,0-1.16,1.08l-7.4,9-.75.93c-.28.34-.52.63-.74.87s-.38.36-.47.36a.36.36,0,0,1-.37-.25,1.6,1.6,0,0,1-.07-.65A8.38,8.38,0,0,1,86,251c.06-.29.11-.55.14-.79.14-.8.28-1.64.43-2.5s.29-1.74.44-2.6.28-1.7.42-2.5l-6.6,7.9a8.53,8.53,0,0,0-.54.7c-.19.25-.37.49-.53.73l-.44.57C79.17,252.68,79.07,252.76,79,252.76Z"/><path class="cls-2" d="M96.7,252.76a.8.8,0,0,1-.56-.22.68.68,0,0,1-.22-.46c0-.06,0-.11,0-.16a.75.75,0,0,1,0-.16c.55-1.11,1-2.15,1.38-3.13s.71-1.84,1-2.57c.06-.16,0-.24-.1-.24a1.19,1.19,0,0,0-.38.11,4.24,4.24,0,0,0-.62.29,5.46,5.46,0,0,0-.56.36.21.21,0,0,1-.2,0,.16.16,0,0,1-.1-.14.53.53,0,0,1,.15-.29,3.3,3.3,0,0,1,.42-.43,8.26,8.26,0,0,1,.65-.51c.26-.18.53-.36.83-.54a7.73,7.73,0,0,1,1-.49.34.34,0,0,1,.36,0,.92.92,0,0,1,.29.3c.08.12.1.21.07.28l-2.44,5.78a1.28,1.28,0,0,0-.11.31,1.39,1.39,0,0,0,0,.27.2.2,0,0,0,.11.19.63.63,0,0,0,.21.05,1.11,1.11,0,0,0,.64-.27,8.3,8.3,0,0,0,.77-.66c.28-.26.54-.52.79-.77a.12.12,0,0,1,.08,0,.11.11,0,0,1,.08,0,.08.08,0,0,1,0,.07,1.44,1.44,0,0,1-.38.81,7.18,7.18,0,0,1-.95,1,8.09,8.09,0,0,1-1.17.83A2.28,2.28,0,0,1,96.7,252.76Zm4-10.54a.63.63,0,0,1-.5-.24.84.84,0,0,1-.2-.54,1.27,1.27,0,0,1,.32-.85,1,1,0,0,1,.8-.37.56.56,0,0,1,.5.27,1,1,0,0,1,.18.59,1.13,1.13,0,0,1-.32.79A1,1,0,0,1,100.74,242.22Z"/><path class="cls-2" d="M101.58,252.76a1,1,0,0,1-.58-.28.81.81,0,0,1-.31-.6,1,1,0,0,1,0-.24l3.8-10.82a3.16,3.16,0,0,0,.15-.54,2.35,2.35,0,0,0,0-.52.43.43,0,0,0-.19-.34,1,1,0,0,0-.47-.22,1.48,1.48,0,0,1-.32-.11c-.07-.05-.12-.1-.12-.15s0-.08,0-.1a.2.2,0,0,1,0-.08.09.09,0,0,1,.07,0,9.38,9.38,0,0,1,.93-.19l1-.16a4.91,4.91,0,0,1,.63-.07.21.21,0,0,1,.17.07.29.29,0,0,1,.07.23.93.93,0,0,1,0,.27c0,.1,0,.19-.08.29l-4,11.52a1.77,1.77,0,0,0-.08.31c0,.1,0,.19,0,.27s.07.32.2.32a1.27,1.27,0,0,0,.69-.31,5.63,5.63,0,0,0,.81-.75,9.81,9.81,0,0,0,.64-.78,4.12,4.12,0,0,1,.28-.31c.11-.1.19-.15.25-.15s.08,0,.08.07a1,1,0,0,1,0,.19,1.65,1.65,0,0,1-.27.84,4.53,4.53,0,0,1-.71.87,7,7,0,0,1-.94.77,6.75,6.75,0,0,1-1,.54A2,2,0,0,1,101.58,252.76Z"/><path class="cls-2" d="M106.71,252.76a1,1,0,0,1-.59-.28.81.81,0,0,1-.31-.6,1,1,0,0,1,0-.24l3.81-10.82a4.32,4.32,0,0,0,.14-.54,2.35,2.35,0,0,0,0-.52.43.43,0,0,0-.19-.34,1,1,0,0,0-.46-.22,1.4,1.4,0,0,1-.33-.11c-.07-.05-.11-.1-.11-.15v-.1a.2.2,0,0,1,0-.08.09.09,0,0,1,.07,0,9.38,9.38,0,0,1,.93-.19l1-.16a4.91,4.91,0,0,1,.63-.07.21.21,0,0,1,.17.07.29.29,0,0,1,.08.23,1,1,0,0,1,0,.27c0,.1-.05.19-.08.29l-4,11.52a1.77,1.77,0,0,0-.08.31c0,.1,0,.19,0,.27s.07.32.2.32a1.27,1.27,0,0,0,.69-.31,5.63,5.63,0,0,0,.81-.75c.27-.3.48-.56.65-.78a2.61,2.61,0,0,1,.27-.31c.11-.1.19-.15.25-.15s.08,0,.08.07a1,1,0,0,1,0,.19,1.65,1.65,0,0,1-.27.84,4.18,4.18,0,0,1-.71.87,7,7,0,0,1-.94.77,6.75,6.75,0,0,1-1,.54A2,2,0,0,1,106.71,252.76Z"/><path class="cls-2" d="M112.32,252.76a.8.8,0,0,1-.56-.22.68.68,0,0,1-.22-.46c0-.06,0-.11,0-.16a.75.75,0,0,1,0-.16c.55-1.11,1-2.15,1.38-3.13s.71-1.84,1-2.57c.06-.16,0-.24-.1-.24a1.29,1.29,0,0,0-.39.11,4.7,4.7,0,0,0-.61.29,5.46,5.46,0,0,0-.56.36.21.21,0,0,1-.2,0,.16.16,0,0,1-.1-.14.53.53,0,0,1,.15-.29,3.3,3.3,0,0,1,.42-.43,8.26,8.26,0,0,1,.65-.51c.26-.18.53-.36.83-.54a7.73,7.73,0,0,1,1-.49.34.34,0,0,1,.36,0,.92.92,0,0,1,.29.3c.08.12.1.21.07.28l-2.44,5.78a1.28,1.28,0,0,0-.11.31,1.39,1.39,0,0,0,0,.27.2.2,0,0,0,.11.19.63.63,0,0,0,.21.05,1.11,1.11,0,0,0,.64-.27,8.3,8.3,0,0,0,.77-.66c.28-.26.54-.52.79-.77a.12.12,0,0,1,.08,0,.11.11,0,0,1,.08,0,.08.08,0,0,1,0,.07,1.44,1.44,0,0,1-.38.81,7.18,7.18,0,0,1-1,1,8.09,8.09,0,0,1-1.17.83A2.28,2.28,0,0,1,112.32,252.76Zm4-10.54a.63.63,0,0,1-.5-.24.84.84,0,0,1-.2-.54,1.27,1.27,0,0,1,.32-.85,1,1,0,0,1,.8-.37.56.56,0,0,1,.5.27,1,1,0,0,1,.18.59,1.13,1.13,0,0,1-.32.79A1,1,0,0,1,116.36,242.22Z"/><path class="cls-2" d="M117.48,252.76a1.08,1.08,0,0,1-.48-.13,1.27,1.27,0,0,1-.39-.33.72.72,0,0,1-.15-.42,3.79,3.79,0,0,1,.48-1.67,11.08,11.08,0,0,1,1.34-2,18,18,0,0,1,2-2,20.57,20.57,0,0,1,1.76-1.41,2.12,2.12,0,0,1,1-.47.7.7,0,0,1,.56.28,3.49,3.49,0,0,1,.25.33s0,0,0,0a.09.09,0,0,0,.07,0,.19.19,0,0,0,0-.09l.34-.58c0-.07,0-.08,0,0,.08-.14.16-.2.24-.2a1.13,1.13,0,0,1,.36.06.73.73,0,0,1,.29.16.24.24,0,0,1,.11.2,2,2,0,0,1-.14.5l-2.24,5.94c-.17.45-.08.68.26.68a1.67,1.67,0,0,0,.87-.35,4,4,0,0,0,.89-.85l.09-.07.09,0c.06,0,.09,0,.11.05a.34.34,0,0,1,0,.17,1.4,1.4,0,0,1-.28.55,4.69,4.69,0,0,1-.58.71,5,5,0,0,1-1.13.8,2.5,2.5,0,0,1-1,.28.8.8,0,0,1-.4-.12,1.18,1.18,0,0,1-.33-.3.66.66,0,0,1-.13-.36,1,1,0,0,1,.12-.46c0,.12,0,.12,0,0l.24-.56.37-.8c.14-.28.25-.53.34-.74a.67.67,0,0,0,.09-.33c0-.08,0-.07-.13,0-.81.9-1.51,1.62-2.09,2.16a7.66,7.66,0,0,1-1.53,1.14A2.84,2.84,0,0,1,117.48,252.76Zm1.12-1.26a2.56,2.56,0,0,0,1.31-.73,17.64,17.64,0,0,0,2-2,11.5,11.5,0,0,0,1.2-1.62,2.48,2.48,0,0,0,.44-1.1c0-.11-.08-.24-.26-.38a.87.87,0,0,0-.26-.16.6.6,0,0,0-.24-.06,2.22,2.22,0,0,0-1,.36,5.66,5.66,0,0,0-1.15.86,11.2,11.2,0,0,0-1.26,1.44,10,10,0,0,0-1,1.54,3,3,0,0,0-.37,1.2.78.78,0,0,0,.16.49A.55.55,0,0,0,118.6,251.5Z"/><path class="cls-2" d="M127.2,252.82a.28.28,0,0,1-.18-.1,1.36,1.36,0,0,1-.13-.24.91.91,0,0,1,0-.26,2.5,2.5,0,0,1,.13-.48l.33-.94,1.84-4.82a.48.48,0,0,0,0-.44.35.35,0,0,0-.34-.18,1.5,1.5,0,0,0-.63.14,2.34,2.34,0,0,0-.81.78.23.23,0,0,1-.17.07c-.06,0-.1-.06-.13-.15a2.19,2.19,0,0,1,0-.31,2,2,0,0,1,.13-.39,1.26,1.26,0,0,1,.17-.3,2.91,2.91,0,0,1,.82-.7,2.35,2.35,0,0,1,1.16-.3,1.71,1.71,0,0,1,.55.09.66.66,0,0,1,.4.33.77.77,0,0,1,0,.66l-1.14,3c0,.09,0,.14,0,.16a.15.15,0,0,0,.15-.08,23,23,0,0,1,1.65-2.24,7.6,7.6,0,0,1,1.52-1.4,2.55,2.55,0,0,1,1.37-.48,1.12,1.12,0,0,1,.69.22,1,1,0,0,1,.42.65,1.82,1.82,0,0,1-.11,1.07l-.72,2.1c0,.09,0,.14,0,.16a.15.15,0,0,0,.15-.08A15.5,15.5,0,0,1,136,246a7,7,0,0,1,1.57-1.37,2.74,2.74,0,0,1,1.4-.46,1,1,0,0,1,.68.24,1.13,1.13,0,0,1,.39.71,2.13,2.13,0,0,1-.19,1.17l-1.72,4.44c-.2.48-.16.72.1.72a1.17,1.17,0,0,0,.58-.22,6.23,6.23,0,0,0,.69-.52c.24-.2.44-.39.61-.55l.34-.33,0,0h0a.13.13,0,0,1,.11,0,.14.14,0,0,1,0,.13.85.85,0,0,1-.07.33,1.21,1.21,0,0,1-.29.39,11.5,11.5,0,0,1-1.48,1.38,2.83,2.83,0,0,1-1.76.64.63.63,0,0,1-.33-.13.92.92,0,0,1-.26-.35.61.61,0,0,1,0-.44l2.32-6c.11-.27.11-.47,0-.6a.53.53,0,0,0-.39-.22,1.48,1.48,0,0,0-.86.33,5.35,5.35,0,0,0-1.2,1.17c-.2.25-.47.63-.83,1.14s-.71,1-1.08,1.63-.68,1.11-.95,1.61a9.2,9.2,0,0,1-.64,1.06,3.74,3.74,0,0,1-.54.63.67.67,0,0,1-.4.21.26.26,0,0,1-.18-.09,1.07,1.07,0,0,1-.13-.21.69.69,0,0,1,0-.24,3,3,0,0,1,.13-.51c.09-.28.2-.6.33-1l1.86-5c.12-.31.11-.52,0-.63a.7.7,0,0,0-.36-.19,1.35,1.35,0,0,0-.86.33,5.76,5.76,0,0,0-1.2,1.19,8.61,8.61,0,0,0-.6.8c-.24.34-.49.73-.77,1.15s-.54.84-.8,1.28-.49.83-.69,1.19c-.34.64-.61,1.11-.8,1.43S127.36,252.82,127.2,252.82Z"/><path class="cls-2" d="M148.52,252.78a5.73,5.73,0,0,1-2.06-.38l-.43-.17a.66.66,0,0,0-.23-.07.59.59,0,0,0-.21,0l-.21.08-.22.14a.32.32,0,0,1-.18.06.5.5,0,0,1-.23-.13.36.36,0,0,1-.15-.25,2,2,0,0,1,.18-.54c.12-.28.26-.64.41-1.07a6.24,6.24,0,0,0,.33-1.43c0-.27.15-.4.32-.4s.18.06.2.19a2.81,2.81,0,0,1,0,.59,3.9,3.9,0,0,0,.25,1.39,2.14,2.14,0,0,0,.78,1,2.38,2.38,0,0,0,1.35.36,3.33,3.33,0,0,0,2.17-.73,2.52,2.52,0,0,0,.89-2.07,2.93,2.93,0,0,0-.15-1,3.11,3.11,0,0,0-.51-.91,8.43,8.43,0,0,0-1-1.07,11,11,0,0,1-1.47-1.62,3.5,3.5,0,0,1-.06-3.86,3.78,3.78,0,0,1,1.5-1.29,4.69,4.69,0,0,1,2.13-.47,3.27,3.27,0,0,1,.68.07,5.11,5.11,0,0,1,.7.17,5.68,5.68,0,0,1,.67.23,1.32,1.32,0,0,0,.41.11.74.74,0,0,0,.38-.1l.16-.07a.57.57,0,0,1,.18,0c.11,0,.18,0,.2.12a.54.54,0,0,1,0,.2,2,2,0,0,1-.13.25,5.38,5.38,0,0,0-.3.78,12.43,12.43,0,0,0-.33,1.59,1,1,0,0,1-.15.47c-.07.11-.13.17-.17.17a.2.2,0,0,1-.19-.15,1.32,1.32,0,0,1-.05-.37,3.1,3.1,0,0,0-.64-2.13,2.12,2.12,0,0,0-1.7-.73,2.31,2.31,0,0,0-1.29.38,2.79,2.79,0,0,0-.93,1,2.48,2.48,0,0,0-.34,1.23,3,3,0,0,0,.18,1,3.78,3.78,0,0,0,.59,1,13.52,13.52,0,0,0,1.09,1.15,9.29,9.29,0,0,1,1.53,1.68,2.81,2.81,0,0,1,.51,1.6,3.9,3.9,0,0,1-.52,2,3.68,3.68,0,0,1-1.53,1.44A5.21,5.21,0,0,1,148.52,252.78Z"/><path class="cls-2" d="M155,252.84a.29.29,0,0,1-.18-.08.67.67,0,0,1-.12-.2,1,1,0,0,1,0-.24,3.07,3.07,0,0,1,.07-.6c0-.2.11-.45.19-.74l2.82-9.66c.07-.23.14-.48.2-.75a2.75,2.75,0,0,0,.1-.61.31.31,0,0,0-.25-.3,4.84,4.84,0,0,0-.49-.18l-.25-.09c-.07,0-.11-.08-.11-.13a.2.2,0,0,1,.06-.15.69.69,0,0,1,.28-.15l.45-.16.62-.21a4.86,4.86,0,0,1,.6-.18,1.65,1.65,0,0,1,.37-.07.86.86,0,0,1,.22,0q.12,0,.12.18a1.2,1.2,0,0,1,0,.28c0,.08,0,.16-.07.26l-2.72,9.4c0,.09,0,.14,0,.14s.07,0,.11-.08a19.57,19.57,0,0,1,1.82-2.31,10.69,10.69,0,0,1,1.78-1.59,2.67,2.67,0,0,1,1.44-.58,1.19,1.19,0,0,1,1,.44,1.54,1.54,0,0,1,.35,1,6.91,6.91,0,0,1-.37,2.16,11.16,11.16,0,0,1-1,2.18,9.62,9.62,0,0,1-1.3,1.78c-.08.08-.2.18-.36.31a4.53,4.53,0,0,1-.56.37,5.51,5.51,0,0,1-.65.31,1.81,1.81,0,0,1-.61.13.67.67,0,0,1-.33-.12,1.3,1.3,0,0,1-.32-.3.64.64,0,0,1-.13-.32.52.52,0,0,1,.08-.24.8.8,0,0,1,.2-.24.36.36,0,0,1,.24-.1.59.59,0,0,1,.31.07.66.66,0,0,1,.23.17l.24.18a.54.54,0,0,0,.28.08,1.06,1.06,0,0,0,.72-.4,4.56,4.56,0,0,0,.73-1.06,9.6,9.6,0,0,0,.63-1.45,11.84,11.84,0,0,0,.45-1.59,6.79,6.79,0,0,0,.17-1.48,1.11,1.11,0,0,0-.19-.71.65.65,0,0,0-.57-.25,1.68,1.68,0,0,0-1,.43,8,8,0,0,0-1.14,1.13c-.39.46-.77,1-1.15,1.5s-.71,1.05-1,1.56-.55.94-.74,1.3l-.75,1.44C155.37,252.68,155.2,252.84,155,252.84Z"/><path class="cls-2" d="M164.28,252.76a1.08,1.08,0,0,1-.48-.13,1.27,1.27,0,0,1-.39-.33.72.72,0,0,1-.15-.42,3.79,3.79,0,0,1,.48-1.67,11.08,11.08,0,0,1,1.34-2,18,18,0,0,1,2-2,20.57,20.57,0,0,1,1.76-1.41,2.12,2.12,0,0,1,1-.47.7.7,0,0,1,.56.28,3.49,3.49,0,0,1,.25.33s0,0,0,0a.09.09,0,0,0,.07,0,.19.19,0,0,0,.05-.09l.34-.58c0-.07,0-.08,0,0,.08-.14.16-.2.24-.2a1.13,1.13,0,0,1,.36.06.73.73,0,0,1,.29.16.24.24,0,0,1,.11.2,2,2,0,0,1-.14.5l-2.24,5.94c-.17.45-.08.68.26.68a1.67,1.67,0,0,0,.87-.35,4,4,0,0,0,.89-.85l.09-.07.09,0c.06,0,.09,0,.11.05a.34.34,0,0,1,0,.17,1.4,1.4,0,0,1-.28.55,4.69,4.69,0,0,1-.58.71,5,5,0,0,1-1.13.8,2.5,2.5,0,0,1-1.05.28.8.8,0,0,1-.4-.12,1.18,1.18,0,0,1-.33-.3.66.66,0,0,1-.13-.36,1,1,0,0,1,.12-.46c0,.12,0,.12,0,0l.24-.56.37-.8c.14-.28.25-.53.34-.74a.67.67,0,0,0,.09-.33c0-.08,0-.07-.13,0-.81.9-1.51,1.62-2.09,2.16a7.66,7.66,0,0,1-1.53,1.14A2.84,2.84,0,0,1,164.28,252.76Zm1.12-1.26a2.56,2.56,0,0,0,1.31-.73,17.64,17.64,0,0,0,2-2,11.5,11.5,0,0,0,1.2-1.62,2.48,2.48,0,0,0,.44-1.1c0-.11-.08-.24-.26-.38a.87.87,0,0,0-.26-.16.6.6,0,0,0-.24-.06,2.22,2.22,0,0,0-1,.36,5.66,5.66,0,0,0-1.15.86,11.2,11.2,0,0,0-1.26,1.44,10,10,0,0,0-1,1.54,3,3,0,0,0-.37,1.2.78.78,0,0,0,.16.49A.55.55,0,0,0,165.4,251.5Z"/><path class="cls-2" d="M178.28,252.9a1.14,1.14,0,0,1-.76-.25,2.38,2.38,0,0,1-.5-.73l-.76-2.12a1.77,1.77,0,0,0-.35-.61.71.71,0,0,0-.57-.27c-.09,0-.19.1-.29.31s-.18.38-.25.53l-.19.47c-.08.22-.18.46-.29.73s-.2.51-.28.73-.14.37-.18.47a3.44,3.44,0,0,1-.2.47.33.33,0,0,1-.32.15.7.7,0,0,1-.33-.13.39.39,0,0,1-.19-.31,3,3,0,0,1,0-.32c0-.15.07-.32.12-.52l3.34-10.36a3.94,3.94,0,0,0,.16-.64,3,3,0,0,0,0-.5c0-.16-.14-.3-.44-.4l-.36-.15c-.1,0-.16-.09-.16-.13a.29.29,0,0,1,0-.14.14.14,0,0,1,.09-.08,4.27,4.27,0,0,1,.55-.24l.68-.24c.24-.08.45-.15.63-.19a1.74,1.74,0,0,1,.4-.07.75.75,0,0,1,.21,0c.08,0,.11.07.11.18a1.63,1.63,0,0,1,0,.24.91.91,0,0,1-.05.22l-2.7,8.22c-.05.14-.05.21,0,.2a.38.38,0,0,0,.17-.12,10.39,10.39,0,0,1,1.45-1.66,7,7,0,0,1,1.55-1.09,3.25,3.25,0,0,1,1.44-.39,1.55,1.55,0,0,1,.79.22.72.72,0,0,1,.39.68,1.83,1.83,0,0,1-.44,1.1,6.28,6.28,0,0,1-1.09,1.1,10.55,10.55,0,0,1-1.34.91,5.65,5.65,0,0,1-1.21.53c-.12,0-.15.1-.1.22l.92,2.18a2.28,2.28,0,0,0,.27.39.56.56,0,0,0,.39.19,1.1,1.1,0,0,0,.76-.36,3.47,3.47,0,0,0,.64-.8.65.65,0,0,1,.17-.22.28.28,0,0,1,.15,0s.06,0,.08.08a.29.29,0,0,1,0,.16,1.32,1.32,0,0,1-.26.72,4.88,4.88,0,0,1-.64.78,5.22,5.22,0,0,1-.75.63A1.22,1.22,0,0,1,178.28,252.9Zm-2.1-4.48a3,3,0,0,0,1.27-.3,5.94,5.94,0,0,0,1.21-.74,4.53,4.53,0,0,0,.9-.91,1.46,1.46,0,0,0,.34-.79.61.61,0,0,0-.18-.47.73.73,0,0,0-.54-.17,1.74,1.74,0,0,0-1,.38,6.91,6.91,0,0,0-1.07.93,10.19,10.19,0,0,0-.86,1,1.56,1.56,0,0,0-.34.7.49.49,0,0,0,.06.23A.2.2,0,0,0,176.18,248.42Z"/><path class="cls-2" d="M183.42,252.78a1.45,1.45,0,0,1-.85-.32,2.92,2.92,0,0,1-.71-.81,2,2,0,0,1-.28-1,6.31,6.31,0,0,1,.41-2.13,8.65,8.65,0,0,1,1.13-2.12,6.57,6.57,0,0,1,1.67-1.62,3.61,3.61,0,0,1,2-.63,1.74,1.74,0,0,1,1.09.29.94.94,0,0,1,.39.81,1.63,1.63,0,0,1-.39,1.08,3.37,3.37,0,0,1-1,.79,8.17,8.17,0,0,1-1.47.55c-.54.14-1.09.27-1.65.38a.74.74,0,0,0-.19.05.27.27,0,0,0-.11.15c-.09.29-.18.61-.28,1a3.86,3.86,0,0,0-.14,1,1.88,1.88,0,0,0,.27,1.08.92.92,0,0,0,.79.38,2,2,0,0,0,1.22-.36,4.62,4.62,0,0,0,.82-.72.55.55,0,0,1,.36-.22c.14,0,.2.06.2.2v.07a.12.12,0,0,1,0,.09,4.55,4.55,0,0,1-.9,1.11,3.72,3.72,0,0,1-1.07.68A3.32,3.32,0,0,1,183.42,252.78Zm.44-5.14a4.15,4.15,0,0,0,.75-.13,5.44,5.44,0,0,0,1.11-.42,3.71,3.71,0,0,0,1-.72,1.42,1.42,0,0,0,.41-1,.67.67,0,0,0-.14-.45.45.45,0,0,0-.4-.19,1.56,1.56,0,0,0-.91.35,6,6,0,0,0-.93.84,7.33,7.33,0,0,0-.73,1,1.52,1.52,0,0,0-.29.68C183.72,247.6,183.77,247.64,183.86,247.64Z"/><path class="cls-2" d="M188.34,252.76a1.26,1.26,0,0,1-.76-.25.79.79,0,0,1-.32-.63,1,1,0,0,1,.21-.69c.14-.16.26-.23.35-.23a.44.44,0,0,1,.29.11,3.3,3.3,0,0,1,.33.27c.15.1.31.21.49.31a1.47,1.47,0,0,0,.71.15,1.05,1.05,0,0,0,.86-.39,1.34,1.34,0,0,0,.34-.83,3.34,3.34,0,0,0-.15-1,4.65,4.65,0,0,0-.43-1c-.17-.32-.31-.63-.43-.91a2.15,2.15,0,0,1-.17-.73,2.12,2.12,0,0,1,.31-1.09,3.62,3.62,0,0,1,.76-.89,4,4,0,0,1,.89-.59,1.81,1.81,0,0,1,.7-.21,1,1,0,0,1,.52.15,1.51,1.51,0,0,1,.43.34.48.48,0,0,1,.17.33.56.56,0,0,1-.12.29,2,2,0,0,1-.28.31.46.46,0,0,1-.28.14.34.34,0,0,1-.2-.1l-.22-.22a1.11,1.11,0,0,0-.29-.22.83.83,0,0,0-.45-.1.73.73,0,0,0-.56.27,1,1,0,0,0-.24.71,2.08,2.08,0,0,0,.11.5c.08.22.16.46.26.7s.2.45.29.64a4.68,4.68,0,0,1,.41,1,3.51,3.51,0,0,1,.19,1.07,1.85,1.85,0,0,1-.35,1.1,3.3,3.3,0,0,1-.91.87,5,5,0,0,1-1.21.57A4.34,4.34,0,0,1,188.34,252.76Z"/><path class="cls-2" d="M190.9,258.2a1,1,0,0,1-.21,0,.16.16,0,0,1-.11-.14q0-.16.21-.27a.94.94,0,0,1,.39-.13,2.41,2.41,0,0,0,.66-.22,1,1,0,0,0,.38-.52l3.86-10.78a2,2,0,0,0,.12-.42c0-.1,0-.16-.06-.19s-.14,0-.28,0c-.32.05-.59.11-.83.17a3.93,3.93,0,0,0-.77.29.37.37,0,0,1-.29,0,.19.19,0,0,1-.13-.17.36.36,0,0,1,.09-.26.65.65,0,0,1,.21-.16c.22-.11.52-.26.92-.44a7.38,7.38,0,0,1,1.4-.48.82.82,0,0,0,.23-.11.38.38,0,0,0,.13-.21,7.09,7.09,0,0,1,.52-1.36.75.75,0,0,1,.68-.42.4.4,0,0,1,.28.1.25.25,0,0,1,.08.28L198,243.9a.5.5,0,0,0,0,.29.1.1,0,0,0,.12.07l.47-.06a2.88,2.88,0,0,1,.41,0,3.13,3.13,0,0,1,1.57.33,1.79,1.79,0,0,1,.8.9,3.23,3.23,0,0,1,.23,1.27,5.08,5.08,0,0,1-.44,2,8.08,8.08,0,0,1-1.19,2,6.81,6.81,0,0,1-1.68,1.51,3.65,3.65,0,0,1-1.93.58.86.86,0,0,1-.4-.12l-.42-.24c-.12-.08-.21-.11-.29-.07s-.15.17-.25.43l-1.32,3.9a.57.57,0,0,0,.09.63,1.26,1.26,0,0,0,.73.25,1.77,1.77,0,0,1,.4.08c.14,0,.2.11.2.22s-.06.13-.18.17a1.62,1.62,0,0,1-.4.05h-1.21a3,3,0,0,0-.45,0l-1,.1C191.6,258.18,191.26,258.2,190.9,258.2Zm5.86-6.12a1.65,1.65,0,0,0,1-.51,6.42,6.42,0,0,0,1.11-1.31,8.57,8.57,0,0,0,.88-1.7,4.57,4.57,0,0,0,.35-1.7,2.13,2.13,0,0,0-.4-1.52,1.54,1.54,0,0,0-1.12-.42h-.36a2,2,0,0,0-.4,0l-1.84,5.4a2.47,2.47,0,0,0-.13.67,1.7,1.7,0,0,0,.07.53.91.91,0,0,0,.29.39A1,1,0,0,0,196.76,252.08Z"/><path class="cls-2" d="M203.64,252.78a1.45,1.45,0,0,1-.85-.32,2.92,2.92,0,0,1-.71-.81,2,2,0,0,1-.28-1,6.31,6.31,0,0,1,.41-2.13,8.65,8.65,0,0,1,1.13-2.12,6.57,6.57,0,0,1,1.67-1.62,3.61,3.61,0,0,1,2-.63,1.74,1.74,0,0,1,1.09.29.94.94,0,0,1,.39.81,1.63,1.63,0,0,1-.39,1.08,3.37,3.37,0,0,1-1.05.79,8.17,8.17,0,0,1-1.47.55c-.54.14-1.09.27-1.65.38a.74.74,0,0,0-.19.05.27.27,0,0,0-.11.15c-.09.29-.18.61-.28,1a3.86,3.86,0,0,0-.14,1,1.88,1.88,0,0,0,.27,1.08.92.92,0,0,0,.79.38,2,2,0,0,0,1.22-.36,4.62,4.62,0,0,0,.82-.72.55.55,0,0,1,.36-.22c.14,0,.2.06.2.2v.07a.12.12,0,0,1,0,.09,4.55,4.55,0,0,1-.9,1.11,3.72,3.72,0,0,1-1.07.68A3.32,3.32,0,0,1,203.64,252.78Zm.44-5.14a4.15,4.15,0,0,0,.75-.13,5.44,5.44,0,0,0,1.11-.42,3.71,3.71,0,0,0,1-.72,1.42,1.42,0,0,0,.41-1,.67.67,0,0,0-.14-.45.45.45,0,0,0-.4-.19,1.56,1.56,0,0,0-.91.35,6,6,0,0,0-.93.84,7.33,7.33,0,0,0-.73,1,1.52,1.52,0,0,0-.29.68C203.94,247.6,204,247.64,204.08,247.64Z"/><path class="cls-2" d="M208.94,252.76a1.08,1.08,0,0,1-.48-.13,1.27,1.27,0,0,1-.39-.33.72.72,0,0,1-.15-.42,3.79,3.79,0,0,1,.48-1.67,11.08,11.08,0,0,1,1.34-2,18,18,0,0,1,2-2,20.57,20.57,0,0,1,1.76-1.41,2.12,2.12,0,0,1,1-.47.7.7,0,0,1,.56.28,3.49,3.49,0,0,1,.25.33s0,0,0,0a.09.09,0,0,0,.07,0,.19.19,0,0,0,.05-.09l.34-.58c0-.07,0-.08,0,0,.08-.14.16-.2.24-.2a1.13,1.13,0,0,1,.36.06.73.73,0,0,1,.29.16.24.24,0,0,1,.11.2,2,2,0,0,1-.14.5l-2.24,5.94c-.17.45-.08.68.26.68a1.67,1.67,0,0,0,.87-.35,4,4,0,0,0,.89-.85l.09-.07.09,0c.06,0,.09,0,.11.05a.34.34,0,0,1,0,.17,1.4,1.4,0,0,1-.28.55,4.69,4.69,0,0,1-.58.71,5,5,0,0,1-1.13.8,2.5,2.5,0,0,1-1.05.28.8.8,0,0,1-.4-.12,1.18,1.18,0,0,1-.33-.3.66.66,0,0,1-.13-.36,1,1,0,0,1,.12-.46c0,.12,0,.12,0,0l.24-.56.37-.8c.14-.28.25-.53.34-.74a.67.67,0,0,0,.09-.33c0-.08,0-.07-.13,0-.81.9-1.51,1.62-2.09,2.16a7.66,7.66,0,0,1-1.53,1.14A2.84,2.84,0,0,1,208.94,252.76Zm1.12-1.26a2.56,2.56,0,0,0,1.31-.73,17.64,17.64,0,0,0,2-2,11.5,11.5,0,0,0,1.2-1.62A2.48,2.48,0,0,0,215,246c0-.11-.08-.24-.26-.38a.87.87,0,0,0-.26-.16.6.6,0,0,0-.24-.06,2.22,2.22,0,0,0-1,.36,5.66,5.66,0,0,0-1.15.86,11.2,11.2,0,0,0-1.26,1.44,10,10,0,0,0-1,1.54,3,3,0,0,0-.37,1.2.78.78,0,0,0,.16.49A.55.55,0,0,0,210.06,251.5Z"/><path class="cls-2" d="M218.36,252.82a.55.55,0,0,1-.22-.07.86.86,0,0,1-.2-.18.43.43,0,0,1-.08-.23,2.09,2.09,0,0,1,.13-.61l.33-.93,1.84-4.8a1.12,1.12,0,0,0,.09-.48c0-.15-.07-.22-.21-.22a2.08,2.08,0,0,0-.55.07,1.36,1.36,0,0,0-.41.15.24.24,0,0,1-.23,0,.2.2,0,0,1-.11-.19.61.61,0,0,1,.15-.36,1.68,1.68,0,0,1,.41-.38,2.19,2.19,0,0,1,.57-.3,2,2,0,0,1,.69-.12c.38,0,.61.09.71.28a1,1,0,0,1,0,.75,7.31,7.31,0,0,1-.35,1.07l-.9,2.26c-.05.09,0,.15.05.18a.16.16,0,0,0,.19-.06,21,21,0,0,1,1.61-2.41,10.37,10.37,0,0,1,1.51-1.6,2.07,2.07,0,0,1,1.16-.57.83.83,0,0,1,.73.3,1.18,1.18,0,0,1,.21.7,2.22,2.22,0,0,1-.13.74,1.63,1.63,0,0,1-.36.63.7.7,0,0,1-.51.25c-.1,0-.18-.07-.24-.19a1.43,1.43,0,0,1-.08-.51,1,1,0,0,0-.08-.47.29.29,0,0,0-.3-.17.94.94,0,0,0-.53.26,5.53,5.53,0,0,0-.83.9c-.14.2-.34.47-.58.82s-.49.73-.77,1.15-.54.84-.81,1.28-.5.83-.7,1.19c-.36.64-.61,1.1-.77,1.4S218.52,252.82,218.36,252.82Z"/><path class="cls-2" d="M226.56,252.78a1.45,1.45,0,0,1-.85-.32,2.92,2.92,0,0,1-.71-.81,2,2,0,0,1-.28-1,6.31,6.31,0,0,1,.41-2.13,8.65,8.65,0,0,1,1.13-2.12,6.57,6.57,0,0,1,1.67-1.62,3.61,3.61,0,0,1,2-.63,1.74,1.74,0,0,1,1.09.29.94.94,0,0,1,.39.81,1.63,1.63,0,0,1-.39,1.08,3.37,3.37,0,0,1-1.05.79,8.17,8.17,0,0,1-1.47.55c-.54.14-1.09.27-1.65.38a.74.74,0,0,0-.19.05.27.27,0,0,0-.11.15c-.09.29-.18.61-.28,1a3.86,3.86,0,0,0-.14,1,1.88,1.88,0,0,0,.27,1.08.92.92,0,0,0,.79.38,2,2,0,0,0,1.22-.36,4.62,4.62,0,0,0,.82-.72.55.55,0,0,1,.36-.22c.14,0,.2.06.2.2v.07a.12.12,0,0,1,0,.09,4.55,4.55,0,0,1-.9,1.11,3.72,3.72,0,0,1-1.07.68A3.32,3.32,0,0,1,226.56,252.78Zm.44-5.14a4.15,4.15,0,0,0,.75-.13,5.44,5.44,0,0,0,1.11-.42,3.71,3.71,0,0,0,1-.72,1.42,1.42,0,0,0,.41-1,.67.67,0,0,0-.14-.45.45.45,0,0,0-.4-.19,1.56,1.56,0,0,0-.91.35,6,6,0,0,0-.93.84,7.33,7.33,0,0,0-.73,1,1.52,1.52,0,0,0-.29.68C226.86,247.6,226.91,247.64,227,247.64Z"/></g></g></svg>