<?xml version="1.0" encoding="utf-8"?>
<!-- Generator: Adobe Illustrator 25.3.1, SVG Export Plug-In . SVG Version: 6.00 Build 0)  -->
<svg version="1.1" id="Capa_1" xmlns="http://www.w3.org/2000/svg" xmlns:xlink="http://www.w3.org/1999/xlink" x="0px" y="0px"
	 viewBox="0 0 535.8 147.7" style="enable-background:new 0 0 535.8 147.7;" xml:space="preserve">
<style type="text/css">
	.st0{fill:#FFFFFF;}
</style>
<g>
	<g>
		<path class="st0" d="M42.2,18.3h-27v12.4h23.6v9.2H15.2v22.5H4.1V8.8h38.1C42.2,8.8,42.2,18.3,42.2,18.3z"/>
		<path class="st0" d="M84.1,39H58v13.8h29.7v9.7H47V8.7h39.4v9.5H58v11.4h26.1V39z"/>
		<path class="st0" d="M113,54.7c2.6,0,4.8-0.3,6.5-0.9c3.1-1.1,4.7-3.2,4.7-6.2c0-1.8-0.8-3.1-2.3-4.1c-1.6-0.9-4-1.8-7.3-2.5
			l-5.7-1.3c-5.6-1.3-9.5-2.6-11.6-4.1c-3.6-2.5-5.4-6.4-5.4-11.6c0-4.8,1.7-8.8,5.2-12s8.6-4.8,15.4-4.8c5.7,0,10.5,1.5,14.5,4.5
			c4,3,6.1,7.4,6.3,13.1h-10.8c-0.2-3.2-1.6-5.5-4.2-6.9c-1.7-0.9-3.9-1.3-6.5-1.3c-2.9,0-5.2,0.6-6.9,1.7c-1.7,1.2-2.6,2.8-2.6,4.9
			c0,1.9,0.9,3.4,2.6,4.3c1.1,0.6,3.4,1.4,7,2.2l9.1,2.2c4.1,1,7.1,2.3,9.2,3.9c3.2,2.5,4.8,6.2,4.8,11c0,4.9-1.9,9-5.6,12.2
			c-3.8,3.2-9.1,4.9-15.9,4.9c-7,0-12.5-1.6-16.5-4.8c-4-3.2-6-7.6-6-13.2h10.7c0.3,2.5,1,4.3,2,5.5C105.4,53.6,108.6,54.7,113,54.7
			z"/>
		<path class="st0" d="M179.3,8.7v9.5h-16.1v44.2H152V18.3h-16.1V8.8L179.3,8.7L179.3,8.7z"/>
		<path class="st0" d="M182,8.7h11.2v53.7H182V8.7z"/>
		<path class="st0" d="M196.7,8.7h12l11.7,40.8l11.8-40.8h11.7l-18.3,53.7H215L196.7,8.7z"/>
		<path class="st0" d="M273.4,51.4h-19.8l-3.7,11h-11.7l19.2-53.7H270l19,53.7h-12.2L273.4,51.4z M270.3,42.2l-6.7-21.1l-6.9,21.1
			H270.3z"/>
		<path class="st0" d="M292.9,8.7h11.2v44.1h26.6v9.7h-37.8L292.9,8.7L292.9,8.7z"/>
		<path class="st0" d="M23.6,123.5c2.6,0,4.8-0.3,6.5-0.9c3.1-1.1,4.7-3.2,4.7-6.2c0-1.8-0.8-3.1-2.3-4.1c-1.6-0.9-4-1.8-7.3-2.5
			l-5.7-1.3c-5.6-1.3-9.5-2.6-11.6-4.1c-3.6-2.5-5.4-6.4-5.4-11.6c0-4.8,1.7-8.8,5.2-12S16.3,76,23.1,76c5.7,0,10.5,1.5,14.5,4.5
			s6.1,7.4,6.3,13.1H33c-0.2-3.2-1.6-5.5-4.2-6.9c-1.7-0.9-3.9-1.3-6.5-1.3c-2.9,0-5.2,0.6-6.9,1.7c-1.7,1.2-2.6,2.8-2.6,4.9
			c0,1.9,0.9,3.4,2.6,4.3c1.1,0.6,3.4,1.4,7,2.2l9.3,2.2c4.1,1,7.1,2.3,9.2,3.9c3.2,2.5,4.8,6.2,4.8,11c0,4.9-1.9,9-5.6,12.2
			c-3.8,3.2-9.1,4.9-15.9,4.9c-7,0-12.5-1.6-16.5-4.8c-4-3.2-6-7.6-6-13.2h10.7c0.3,2.5,1,4.3,2,5.5C16,122.4,19.1,123.5,23.6,123.5
			z"/>
		<path class="st0" d="M82.9,131.2v-24h-21v24H50.8V77.6h11.1v20.5h21V77.6h11.2v53.7H82.9z"/>
		<path class="st0" d="M133.3,120.2h-19.8l-3.7,11H98l19.2-53.7h12.7l19,53.7h-12.2L133.3,120.2z M130.1,111l-6.7-21.1l-6.9,21.1
			H130.1z"/>
		<path class="st0" d="M200.3,131.2h-14.4l-16.6-23.5l-5.4,5.5v18h-11V77.6h11v22.1l20.7-22.1h14.5l-22,22.1L200.3,131.2z"/>
		<path class="st0" d="M241.1,107.8H215v13.8h29.7v9.7H204V77.6h39.4v9.5H215v11.4h26.1V107.8z"/>
		<path class="st0" d="M270,123.5c2.6,0,4.8-0.3,6.5-0.9c3.1-1.1,4.7-3.2,4.7-6.2c0-1.8-0.8-3.1-2.3-4.1c-1.6-0.9-4-1.8-7.3-2.5
			l-5.7-1.3c-5.6-1.3-9.5-2.6-11.6-4.1c-3.6-2.5-5.4-6.4-5.4-11.6c0-4.8,1.7-8.8,5.2-12c3.5-3.2,8.6-4.8,15.4-4.8
			c5.7,0,10.5,1.5,14.5,4.5s6.1,7.4,6.3,13.1h-10.8c-0.2-3.2-1.6-5.5-4.2-6.9c-1.7-0.9-3.9-1.3-6.5-1.3c-2.9,0-5.2,0.6-6.9,1.7
			c-1.7,1.2-2.6,2.8-2.6,4.9c0,1.9,0.9,3.4,2.6,4.3c1.1,0.6,3.4,1.4,7,2.2l9.3,2.2c4.1,1,7.1,2.3,9.2,3.9c3.2,2.5,4.8,6.2,4.8,11
			c0,4.9-1.9,9-5.6,12.2c-3.8,3.2-9.1,4.9-15.9,4.9c-7,0-12.5-1.6-16.5-4.8c-4-3.2-6-7.6-6-13.2h10.7c0.3,2.5,1,4.3,2,5.5
			C262.4,122.4,265.5,123.5,270,123.5z"/>
		<path class="st0" d="M320.1,111.9h-11.4v19.3h-11.2V77.5h23.4c5.4,0,9.7,1.4,12.9,4.2c3.2,2.8,4.8,7.1,4.8,12.9
			c0,6.3-1.6,10.8-4.8,13.5S326.1,111.9,320.1,111.9z M325.3,100.7c1.5-1.3,2.2-3.3,2.2-6.1s-0.7-4.8-2.2-6s-3.5-1.8-6.2-1.8h-10.5
			v15.8h10.5C321.8,102.7,323.9,102,325.3,100.7z"/>
		<path class="st0" d="M381.5,107.8h-26.1v13.8h29.7v9.7h-40.7V77.6h39.4v9.5h-28.4v11.4h26.1V107.8z"/>
		<path class="st0" d="M422.4,120.2h-19.8l-3.7,11h-11.7l19.2-53.7H419l19,53.7h-12.2L422.4,120.2z M419.2,111l-6.7-21.1l-6.9,21.1
			H419.2z"/>
		<path class="st0" d="M464.6,110.2H453v21.1h-11V77.6h26.4c3.8,0.1,6.7,0.5,8.7,1.4s3.7,2.1,5.2,3.8c1.2,1.4,2.1,2.9,2.8,4.5
			c0.7,1.7,1,3.5,1,5.7c0,2.6-0.6,5.1-1.9,7.5c-1.3,2.5-3.4,4.2-6.4,5.2c2.5,1,4.2,2.4,5.3,4.2c1,1.8,1.5,4.6,1.5,8.4v3.6
			c0,2.5,0.1,4.1,0.3,5c0.3,1.4,1,2.4,2,3.1v1.3h-12.4c-0.3-1.2-0.6-2.2-0.7-2.9c-0.3-1.5-0.5-3-0.5-4.6l-0.1-5
			c0-3.4-0.7-5.7-1.9-6.9C470.2,110.8,468,110.2,464.6,110.2z M471.5,100.4c2.2-1,3.4-3,3.4-6.1c0-3.3-1.1-5.4-3.2-6.6
			c-1.2-0.6-3-0.9-5.5-0.9h-13.1v14.4h12.7C468.3,101.3,470.2,101,471.5,100.4z"/>
		<path class="st0" d="M530.2,107.8h-26.1v13.8h29.7v9.7h-40.7V77.6h39.4v9.5h-28.4v11.4h26.1V107.8z"/>
	</g>
</g>
</svg>
