<svg xmlns="http://www.w3.org/2000/svg" viewBox="0 0 292.54 144.69"><defs><style>.cls-1{fill:#008a77;}.cls-2{fill:none;stroke:#54b480;stroke-linecap:round;stroke-linejoin:round;stroke-width:3px;}</style></defs><g id="Capa_2" data-name="Capa 2"><g id="Capa_1-2" data-name="Capa 1"><path class="cls-1" d="M158.9,0H292.54a0,0,0,0,1,0,0V0a95.46,95.46,0,0,1-95.46,95.46H63.45a0,0,0,0,1,0,0v0A95.46,95.46,0,0,1,158.9,0Z"/><path class="cls-2" d="M97,47.73H230.6a0,0,0,0,1,0,0v0a95.46,95.46,0,0,1-95.46,95.46H1.5a0,0,0,0,1,0,0v0A95.46,95.46,0,0,1,97,47.73Z" transform="translate(232.1 190.91) rotate(180)"/></g></g></svg>