<svg xmlns="http://www.w3.org/2000/svg" viewBox="0 0 142.43 162.48"><defs><style>.cls-1{fill:#20ab8e;}.cls-2{fill:#002d6c;}</style></defs><g id="Capa_2" data-name="Capa 2"><g id="Capa_1-2" data-name="Capa 1"><rect class="cls-1" y="41.88" width="123.12" height="120.6" rx="48.95"/><path class="cls-2" d="M76.22,57.08a1.92,1.92,0,0,1-1.92-1.92V48.63a1.92,1.92,0,0,1,3.84,0v6.53A1.92,1.92,0,0,1,76.22,57.08Z"/><path class="cls-2" d="M99.32,67.79a1.92,1.92,0,0,1-1.92-1.92V48.63a1.92,1.92,0,0,1,3.84,0V65.87A1.91,1.91,0,0,1,99.32,67.79Z"/><path class="cls-2" d="M87.77,26.29c-6.91,0-12.53-5.9-12.53-13.15S80.86,0,87.77,0s12.54,5.9,12.54,13.14S94.68,26.29,87.77,26.29Zm0-22.45c-4.79,0-8.69,4.17-8.69,9.3s3.9,9.31,8.69,9.31,8.69-4.18,8.69-9.31S92.56,3.84,87.77,3.84Z"/><path class="cls-2" d="M87.77,121a1.92,1.92,0,0,1-1.92-1.92V79.91a1.92,1.92,0,1,1,3.84,0v39.16A1.92,1.92,0,0,1,87.77,121Z"/><path class="cls-2" d="M84.22,67.79h-8A12.65,12.65,0,0,1,63.59,55.16a1.92,1.92,0,0,1,3.84,0,8.79,8.79,0,0,0,8.79,8.78h8a3.43,3.43,0,1,0,0-6.86h-8a1.92,1.92,0,0,1,0-3.84h8a7.28,7.28,0,1,1,0,14.55Z"/><path class="cls-2" d="M99.32,121H76.22a1.92,1.92,0,0,1-1.92-1.92V65.87a1.92,1.92,0,1,1,3.84,0v51.28H97.4V65.87a1.92,1.92,0,1,1,3.84,0,3.2,3.2,0,0,0,3.2,3.19h.47a3.19,3.19,0,0,0,3.2-3.19V40.51a8.19,8.19,0,0,0-8.18-8.18H75.61a8.19,8.19,0,0,0-8.18,8.18V55.16a1.92,1.92,0,1,1-3.84,0V40.51a12,12,0,0,1,12-12H99.93a12,12,0,0,1,12,12V65.87a7,7,0,0,1-7,7h-.47a7,7,0,0,1-3.2-.76v46.93A1.91,1.91,0,0,1,99.32,121Z"/><path class="cls-2" d="M88.06,58.71a1.92,1.92,0,0,1-1.92-1.93V46.18a1.92,1.92,0,0,1,3.84,0v10.6A1.92,1.92,0,0,1,88.06,58.71Z"/><path class="cls-2" d="M88.06,48.1a6.34,6.34,0,1,1,6.34-6.34A6.34,6.34,0,0,1,88.06,48.1Zm0-8.84a2.5,2.5,0,1,0,2.5,2.5A2.5,2.5,0,0,0,88.06,39.26Z"/><path class="cls-2" d="M110,121H65.51a1.92,1.92,0,0,1,0-3.84H110a1.92,1.92,0,1,1,0,3.84Z"/><path class="cls-2" d="M120.24,36.18a1.92,1.92,0,0,1-1.36-3.28l16.51-16.51a1.92,1.92,0,0,1,3.27,1.23l.68,9.92a1.92,1.92,0,1,1-3.83.27l-.39-5.72L121.6,35.62A2,2,0,0,1,120.24,36.18Z"/><path class="cls-2" d="M120.24,36.18a2,2,0,0,1-1.36-.56,1.93,1.93,0,0,1,0-2.72L132.4,19.38,126.69,19a1.92,1.92,0,1,1,.26-3.83l9.93.67a1.92,1.92,0,0,1,1.23,3.28L121.6,35.62A2,2,0,0,1,120.24,36.18Z"/><path class="cls-2" d="M136.75,109.64a1.92,1.92,0,0,1-1.36-.57L118.88,92.56a1.92,1.92,0,0,1,2.72-2.71l13.52,13.52.39-5.71a1.92,1.92,0,1,1,3.83.26l-.68,9.93a1.9,1.9,0,0,1-1.24,1.66A1.77,1.77,0,0,1,136.75,109.64Z"/><path class="cls-2" d="M126.82,110.31a1.92,1.92,0,0,1-.13-3.84l5.71-.39L118.88,92.56a1.92,1.92,0,0,1,2.72-2.72l16.51,16.52a1.92,1.92,0,0,1-1.23,3.27l-9.93.68Z"/><path class="cls-2" d="M140.51,64.65H117.16a1.92,1.92,0,1,1,0-3.84h19.12l-3.76-4.31A1.92,1.92,0,1,1,135.41,54l6.54,7.5a1.92,1.92,0,0,1-1.44,3.18Z"/><path class="cls-2" d="M134,72.15a1.93,1.93,0,0,1-1.26-.48,1.91,1.91,0,0,1-.18-2.7l3.76-4.32H117.16a1.92,1.92,0,1,1,0-3.84h23.35A1.92,1.92,0,0,1,142,64l-6.54,7.5A1.9,1.9,0,0,1,134,72.15Z"/></g></g></svg>