<svg xmlns="http://www.w3.org/2000/svg" viewBox="0 0 24.27 17.12"><defs><style>.cls-1{fill:#20af92;}</style></defs><g id="Capa_2" data-name="Capa 2"><g id="Capa_1-2" data-name="Capa 1"><path class="cls-1" d="M12.17,0h9.46a2.38,2.38,0,0,1,2.64,2.63V14.48a2.4,2.4,0,0,1-2.64,2.64h-19A2.39,2.39,0,0,1,0,14.48V2.64A2.39,2.39,0,0,1,2.64,0ZM2,3c0,.19,0,.28,0,.38V14.52c0,.56.11.65.72.65H21.61c.62,0,.71-.09.71-.7V3.4c0-.13,0-.25,0-.43l-.35.26-9,7.13a1.07,1.07,0,0,1-1.65,0L4,4.53Zm18.4-1H3.89a1.45,1.45,0,0,0,.18.13l7.81,6.21a.34.34,0,0,0,.52,0c1-.85,2.11-1.68,3.17-2.53Z"/></g></g></svg>