<svg xmlns="http://www.w3.org/2000/svg" viewBox="0 0 60.98 93.58"><defs><style>.cls-1{fill:#20af92;}</style></defs><g id="Capa_2" data-name="Capa 2"><g id="Capa_1-2" data-name="Capa 1"><path class="cls-1" d="M9.77,44.15a1.49,1.49,0,0,1-1.49-1.49v-5a1.49,1.49,0,0,1,3,0v5A1.49,1.49,0,0,1,9.77,44.15Z"/><path class="cls-1" d="M27.64,52.43a1.49,1.49,0,0,1-1.49-1.49V37.61a1.49,1.49,0,0,1,3,0V50.94A1.49,1.49,0,0,1,27.64,52.43Z"/><path class="cls-1" d="M18.7,20.33A10,10,0,0,1,9,10.17,10,10,0,0,1,18.7,0a10,10,0,0,1,9.7,10.17A10,10,0,0,1,18.7,20.33ZM18.7,3A7,7,0,0,0,12,10.17a7,7,0,0,0,6.72,7.19,7,7,0,0,0,6.73-7.19A7,7,0,0,0,18.7,3Z"/><path class="cls-1" d="M18.7,93.58a1.48,1.48,0,0,1-1.48-1.48V61.8a1.49,1.49,0,0,1,3,0V92.1A1.49,1.49,0,0,1,18.7,93.58Z"/><path class="cls-1" d="M16,52.43H9.77A9.78,9.78,0,0,1,0,42.66a1.49,1.49,0,0,1,3,0,6.81,6.81,0,0,0,6.8,6.8H16a2.66,2.66,0,0,0,0-5.31H9.77a1.49,1.49,0,1,1,0-3H16a5.63,5.63,0,0,1,0,11.25Z"/><path class="cls-1" d="M27.64,93.58H9.77A1.49,1.49,0,0,1,8.28,92.1V50.94a1.49,1.49,0,0,1,3,0V90.61h14.9V50.94a1.49,1.49,0,0,1,3,0,2.48,2.48,0,0,0,2.48,2.48H32a2.48,2.48,0,0,0,2.47-2.48V31.33A6.32,6.32,0,0,0,28.11,25H9.29A6.33,6.33,0,0,0,3,31.33V42.66a1.49,1.49,0,1,1-3,0V31.33A9.3,9.3,0,0,1,9.29,22H28.11a9.29,9.29,0,0,1,9.29,9.29V50.94A5.45,5.45,0,0,1,32,56.39H31.6a5.47,5.47,0,0,1-2.48-.6V92.1A1.48,1.48,0,0,1,27.64,93.58Z"/><path class="cls-1" d="M18.93,45.41a1.49,1.49,0,0,1-1.49-1.49v-8.2a1.49,1.49,0,1,1,3,0v8.2A1.49,1.49,0,0,1,18.93,45.41Z"/><path class="cls-1" d="M18.93,37.2a4.9,4.9,0,1,1,4.9-4.9A4.9,4.9,0,0,1,18.93,37.2Zm0-6.83a1.93,1.93,0,1,0,1.93,1.93A1.93,1.93,0,0,0,18.93,30.37Z"/><path class="cls-1" d="M35.92,93.58H1.49a1.49,1.49,0,1,1,0-3H35.92a1.49,1.49,0,0,1,0,3Z"/><path class="cls-1" d="M43.81,28a1.48,1.48,0,0,1-1.05-2.53L55.53,12.68a1.48,1.48,0,0,1,2.54.94l.52,7.68a1.48,1.48,0,1,1-3,.21l-.31-4.42L44.86,27.55A1.48,1.48,0,0,1,43.81,28Z"/><path class="cls-1" d="M43.81,28a1.48,1.48,0,0,1-1.05-2.53L53.22,15l-4.42-.3a1.49,1.49,0,1,1,.21-3l7.68.52a1.5,1.5,0,0,1,1.29,1,1.48,1.48,0,0,1-.35,1.57L44.86,27.55A1.48,1.48,0,0,1,43.81,28Z"/><path class="cls-1" d="M56.58,84.8a1.49,1.49,0,0,1-1-.44L42.76,71.59a1.48,1.48,0,1,1,2.1-2.1L55.32,80l.31-4.42a1.48,1.48,0,1,1,3,.2l-.52,7.68a1.48,1.48,0,0,1-1,1.29A1.39,1.39,0,0,1,56.58,84.8Z"/><path class="cls-1" d="M48.9,85.32a1.49,1.49,0,0,1-.1-3l4.42-.3L42.76,71.59a1.48,1.48,0,1,1,2.1-2.1L57.63,82.26a1.48,1.48,0,0,1-.94,2.53L49,85.32Z"/><path class="cls-1" d="M59.49,50H41.43a1.49,1.49,0,0,1,0-3H56.22L53.31,43.7a1.49,1.49,0,0,1,2.24-2l5.06,5.8A1.49,1.49,0,0,1,59.49,50Z"/><path class="cls-1" d="M54.43,55.8a1.52,1.52,0,0,1-1-.36,1.5,1.5,0,0,1-.14-2.1L56.22,50H41.43a1.49,1.49,0,1,1,0-3H59.49a1.48,1.48,0,0,1,1.35.87,1.51,1.51,0,0,1-.23,1.6l-5.06,5.79A1.47,1.47,0,0,1,54.43,55.8Z"/></g></g></svg>