<svg xmlns="http://www.w3.org/2000/svg" viewBox="0 0 131.52 154.35"><defs><style>.cls-1{fill:#20ab8e;}.cls-2{fill:#002d6c;}</style></defs><g id="Capa_2" data-name="Capa 2"><g id="Capa_1-2" data-name="Capa 1"><rect class="cls-1" y="33.75" width="123.12" height="120.6" rx="48.95"/><path class="cls-2" d="M90.63,112.24h-3a1.87,1.87,0,1,1,0-3.74h3a1.87,1.87,0,1,1,0,3.74Z"/><path class="cls-2" d="M112.24,112.24H105a1.87,1.87,0,1,1,0-3.74h7.2a1.87,1.87,0,1,1,0,3.74Z"/><path class="cls-2" d="M129.65,112.24h-3a1.87,1.87,0,0,1,0-3.74h3a1.87,1.87,0,1,1,0,3.74Z"/><path class="cls-2" d="M87.63,112.24H47.84a1.87,1.87,0,0,1-1.53-3l66.47-93.22a1.87,1.87,0,1,1,3,2.17L51.47,108.5H87.63a1.87,1.87,0,1,1,0,3.74Z"/><path class="cls-2" d="M115.72,31.58a1.23,1.23,0,0,1-.27,0l-9.39-1.37a1.87,1.87,0,1,1,.54-3.7L116,27.86a1.87,1.87,0,0,1-.27,3.72Z"/><path class="cls-2" d="M113.29,45.5l-.27,0L96.84,43.12a1.87,1.87,0,1,1,.54-3.7l16.18,2.36a1.87,1.87,0,0,1-.27,3.72Z"/><path class="cls-2" d="M103.46,58.34l-.28,0L87.62,56.05a1.87,1.87,0,1,1,.54-3.7l15.56,2.26a1.87,1.87,0,0,1-.26,3.73Z"/><path class="cls-2" d="M87.63,70.31l-.27,0L78.4,69a1.87,1.87,0,0,1,.54-3.7l9,1.3a1.88,1.88,0,0,1-.27,3.73Z"/><path class="cls-2" d="M83.78,84l-.27,0L69.18,81.91a1.87,1.87,0,0,1,.54-3.7l14.33,2.08A1.88,1.88,0,0,1,83.78,84Z"/><path class="cls-2" d="M102.06,36.2a1.85,1.85,0,0,1-1.66-1L92.79,20.45a1.87,1.87,0,1,1,3.33-1.71l7.6,14.73a1.87,1.87,0,0,1-.8,2.52A1.91,1.91,0,0,1,102.06,36.2Z"/><path class="cls-2" d="M92.84,49.13a1.85,1.85,0,0,1-1.66-1l-3.29-6.37a1.87,1.87,0,0,1,.8-2.52,1.89,1.89,0,0,1,2.53.81l3.29,6.36a1.88,1.88,0,0,1-1.67,2.74Z"/><path class="cls-2" d="M111.28,23.27a1.85,1.85,0,0,1-1.66-1L102,7.53a1.87,1.87,0,1,1,3.32-1.72l7.6,14.73a1.87,1.87,0,0,1-.8,2.52A1.91,1.91,0,0,1,111.28,23.27Z"/><path class="cls-2" d="M83.62,62.06A1.85,1.85,0,0,1,82,61L74.86,47.3a1.87,1.87,0,0,1,3.33-1.72l7.1,13.74a1.88,1.88,0,0,1-1.67,2.74Z"/><path class="cls-2" d="M74.4,75a1.87,1.87,0,0,1-1.66-1L65.93,60.79a1.87,1.87,0,1,1,3.33-1.72l6.81,13.18A1.86,1.86,0,0,1,74.4,75Z"/><path class="cls-2" d="M65.18,87.91a1.87,1.87,0,0,1-1.66-1L60,80a1.87,1.87,0,0,1,3.33-1.72l3.55,6.87a1.86,1.86,0,0,1-1.67,2.73Z"/><path class="cls-2" d="M69.84,98.54a7.59,7.59,0,0,1-4.42-1.42l-10.8-7.71A7.56,7.56,0,0,1,52.7,79l16-24.11A1.86,1.86,0,0,1,71,54.23l.73.31L71,52.88a1.85,1.85,0,0,1,.17-1.75L96.59,12.77A1.88,1.88,0,0,1,97.81,12l.44,0-.1-.35A1.9,1.9,0,0,1,98.4,10l1.32-2C105,.09,115.63-2.39,123.45,2.52a17,17,0,0,1,8.06,15,1.87,1.87,0,0,1-1.16,1.69L126.8,20.7l2.15.71A1.87,1.87,0,0,1,127.78,25l-7-2.3a1.87,1.87,0,0,1-.13-3.51l7.06-2.9a13.35,13.35,0,0,0-6.29-10.57c-6.11-3.84-14.46-1.85-18.62,4.42L102,11.4l1.15,4.18a1.87,1.87,0,0,1-2.89,2l-1.61-1.15L74.85,52.37l2.05,5a1.87,1.87,0,0,1-2.46,2.44l-3.51-1.49L55.82,81.1a3.82,3.82,0,0,0,1,5.26L67.6,94.07a3.85,3.85,0,0,0,5.3-.8l.06-.08-1.85-3.51a1.86,1.86,0,0,1,.15-2A1.9,1.9,0,0,1,73.14,87l4,.82,27.14-35.42-2-2.06a1.9,1.9,0,0,1-.33-2.08,1.87,1.87,0,0,1,1.82-1.07l4.25.27,11.54-15.06a1.87,1.87,0,1,1,3,2.27L110.38,50.51a1.91,1.91,0,0,1-1.61.73l-.5,0a1.88,1.88,0,0,1-.08,2.17L79.36,91a1.86,1.86,0,0,1-1.86.69l-1.23-.25.56,1.06a1.88,1.88,0,0,1-.17,2l-.79,1A7.57,7.57,0,0,1,69.84,98.54Z"/></g></g></svg>