<svg xmlns="http://www.w3.org/2000/svg" viewBox="0 0 13.26 16.81"><defs><style>.cls-1{fill:#20ae91;fill-rule:evenodd;}</style></defs><g id="Capa_2" data-name="Capa 2"><g id="Capa_1-2" data-name="Capa 1"><path class="cls-1" d="M6.26,9.12c1.08,2.16,3,6.15,5.11,5.56a.14.14,0,0,1,.14.23C5.8,20.75-1.11,11.86.15,5.54a1.35,1.35,0,0,1,.93-1.06c1-.28,2.89.06,5.18,4.64"/><path class="cls-1" d="M7,7.69c-1.1-2.2-3.1-6.3-5.23-5.51A.11.11,0,0,1,1.66,2c5.71-6,12.69,2.89,11.46,9.23a1.37,1.37,0,0,1-1,1.11c-1,.26-2.89-.13-5.14-4.65"/></g></g></svg>