<svg xmlns="http://www.w3.org/2000/svg" viewBox="0 0 65.86 86.41"><defs><style>.cls-1{fill:#20af92;}</style></defs><g id="Capa_2" data-name="Capa 2"><g id="Capa_1-2" data-name="Capa 1"><path class="cls-1" d="M34.38,86.41h-2.3a1.45,1.45,0,0,1,0-2.89h2.3a1.45,1.45,0,1,1,0,2.89Z"/><path class="cls-1" d="M51,86.41H45.48a1.45,1.45,0,0,1,0-2.89H51a1.45,1.45,0,0,1,0,2.89Z"/><path class="cls-1" d="M64.42,86.41h-2.3a1.45,1.45,0,1,1,0-2.89h2.3a1.45,1.45,0,0,1,0,2.89Z"/><path class="cls-1" d="M32.08,86.41H1.44a1.45,1.45,0,0,1-1.28-.79,1.41,1.41,0,0,1,.11-1.49L51.44,12.36A1.44,1.44,0,0,1,53.79,14L4.24,83.52H32.08a1.45,1.45,0,0,1,0,2.89Z"/><path class="cls-1" d="M53.7,24.31h-.21l-7.23-1.06A1.44,1.44,0,0,1,45,21.61a1.45,1.45,0,0,1,1.64-1.22l7.23,1.06a1.44,1.44,0,0,1-.21,2.86Z"/><path class="cls-1" d="M51.83,35l-.21,0L39.16,33.2a1.45,1.45,0,0,1,.42-2.86L52,32.16A1.44,1.44,0,0,1,51.83,35Z"/><path class="cls-1" d="M44.26,44.91h-.21l-12-1.75a1.44,1.44,0,0,1,.41-2.85l12,1.74a1.44,1.44,0,0,1-.2,2.87Z"/><path class="cls-1" d="M32.08,54.12h-.21l-6.9-1a1.44,1.44,0,1,1,.41-2.85l6.9,1a1.44,1.44,0,0,1-.2,2.86Z"/><path class="cls-1" d="M29.11,64.68l-.21,0-11-1.6a1.45,1.45,0,1,1,.42-2.86l11,1.61a1.44,1.44,0,0,1-.21,2.87Z"/><path class="cls-1" d="M43.19,27.87a1.45,1.45,0,0,1-1.29-.79L36.05,15.75a1.44,1.44,0,1,1,2.56-1.33l5.86,11.34a1.45,1.45,0,0,1-.62,1.94A1.47,1.47,0,0,1,43.19,27.87Z"/><path class="cls-1" d="M36.09,37.82A1.44,1.44,0,0,1,34.81,37l-2.53-4.91a1.44,1.44,0,1,1,2.56-1.32l2.53,4.91a1.44,1.44,0,0,1-.62,1.94A1.43,1.43,0,0,1,36.09,37.82Z"/><path class="cls-1" d="M50.28,17.91A1.44,1.44,0,0,1,49,17.13L43.15,5.8a1.44,1.44,0,1,1,2.56-1.32l5.85,11.33a1.43,1.43,0,0,1-.62,1.94A1.4,1.4,0,0,1,50.28,17.91Z"/><path class="cls-1" d="M29,47.77A1.44,1.44,0,0,1,27.71,47L22.25,36.41a1.44,1.44,0,0,1,2.56-1.32l5.46,10.58A1.44,1.44,0,0,1,29,47.77Z"/><path class="cls-1" d="M21.89,57.72a1.44,1.44,0,0,1-1.28-.78L15.37,46.79a1.44,1.44,0,0,1,2.56-1.32l5.24,10.15a1.43,1.43,0,0,1-.62,1.94A1.4,1.4,0,0,1,21.89,57.72Z"/><path class="cls-1" d="M14.8,67.68a1.44,1.44,0,0,1-1.28-.78l-2.73-5.29a1.44,1.44,0,0,1,2.56-1.32l2.73,5.28a1.45,1.45,0,0,1-.62,2A1.43,1.43,0,0,1,14.8,67.68Z"/><path class="cls-1" d="M18.38,75.86a5.86,5.86,0,0,1-3.4-1.1L6.66,68.83a5.82,5.82,0,0,1-1.48-8l12.3-18.57a1.46,1.46,0,0,1,1.77-.53l.56.24-.53-1.27a1.44,1.44,0,0,1,.13-1.35L39,9.83a1.44,1.44,0,0,1,.94-.62,1.32,1.32,0,0,1,.34,0l-.07-.28a1.45,1.45,0,0,1,.18-1.18l1-1.54A13.5,13.5,0,0,1,59.65,1.94a13.15,13.15,0,0,1,6.21,11.57,1.47,1.47,0,0,1-.89,1.3l-2.74,1.12,1.66.55A1.44,1.44,0,0,1,63,19.22l-5.36-1.77a1.44,1.44,0,0,1-.09-2.7L63,12.51a10.26,10.26,0,0,0-4.84-8.13,10.62,10.62,0,0,0-14.33,3.4l-.66,1L44,12a1.44,1.44,0,0,1-2.23,1.56l-1.24-.88L22.24,40.32l1.58,3.81a1.47,1.47,0,0,1-.32,1.58,1.45,1.45,0,0,1-1.58.3l-2.7-1.14L7.59,62.43a3,3,0,0,0,.75,4.05l8.31,5.94a3,3,0,0,0,4.08-.62l.05-.06L19.36,69a1.42,1.42,0,0,1,.12-1.54A1.45,1.45,0,0,1,20.92,67l3,.63L44.86,40.31l-1.5-1.58A1.44,1.44,0,0,1,44.5,36.3l3.27.22,8.89-11.6a1.44,1.44,0,1,1,2.28,1.75L49.59,38.88a1.44,1.44,0,0,1-1.24.56l-.39,0a1.43,1.43,0,0,1-.06,1.66l-22.19,29a1.44,1.44,0,0,1-1.43.54l-1-.2.43.82a1.41,1.41,0,0,1-.13,1.55l-.61.8A5.84,5.84,0,0,1,18.38,75.86Z"/></g></g></svg>