<?xml version="1.0" encoding="utf-8"?>
<!-- Generator: Adobe Illustrator 25.3.1, SVG Export Plug-In . SVG Version: 6.00 Build 0)  -->
<svg version="1.1" id="Capa_1" xmlns="http://www.w3.org/2000/svg" xmlns:xlink="http://www.w3.org/1999/xlink" x="0px" y="0px"
	 viewBox="0 0 394.2 33.2" style="enable-background:new 0 0 394.2 33.2;" xml:space="preserve">
<style type="text/css">
	.st0{fill:#FFFFFF;}
	.st1{fill:none;stroke:#FFFFFF;stroke-miterlimit:10;}
</style>
<g>
	<g>
		<g>
			<path class="st0" d="M125.1,12.8v2.2h-3.7V25h-2.6V14.9h-3.7v-2.2H125.1z"/>
			<path class="st0" d="M136.4,25h-2.6l-5-8.7V25h-2.4V12.8h2.7l4.9,8.5v-8.5h2.4V25z"/>
			<path class="st0" d="M147.7,12.8v2.2H144V25h-2.6V14.9h-3.7v-2.2H147.7z"/>
			<path class="st0" d="M162.8,12.8v2.2h-3.7V25h-2.6V14.9h-3.7v-2.2H162.8z"/>
			<path class="st0" d="M172.2,19.7V25h-2.4v-5.5c0-0.5-0.1-0.9-0.2-1.2c-0.2-0.4-0.6-0.6-1.2-0.6c-0.6,0-1.1,0.2-1.4,0.6
				c-0.3,0.4-0.5,1-0.5,1.8V25h-2.4V12.8h2.4v4.3c0.3-0.5,0.7-0.9,1.2-1.1c0.5-0.2,0.9-0.3,1.4-0.3c0.6,0,1.1,0.1,1.5,0.3
				c0.5,0.2,0.8,0.5,1.1,0.9c0.2,0.3,0.4,0.7,0.5,1C172.2,18.3,172.2,18.9,172.2,19.7z"/>
			<path class="st0" d="M182.2,22.3c-0.1,0.5-0.3,1.1-0.8,1.6c-0.8,0.9-1.9,1.3-3.2,1.3c-1.1,0-2.2-0.4-3-1.1
				c-0.9-0.7-1.3-1.9-1.3-3.6c0-1.6,0.4-2.8,1.2-3.6c0.8-0.8,1.8-1.3,3.1-1.3c0.8,0,1.4,0.1,2,0.4c0.6,0.3,1.1,0.7,1.5,1.3
				c0.4,0.5,0.6,1.2,0.7,1.9c0.1,0.4,0.1,1,0.1,1.8h-6.2c0,0.9,0.3,1.5,0.9,1.9c0.3,0.2,0.7,0.3,1.2,0.3c0.5,0,0.9-0.1,1.2-0.4
				c0.2-0.1,0.3-0.4,0.4-0.6H182.2z M179.8,19.6c0-0.6-0.2-1.1-0.6-1.4s-0.8-0.5-1.3-0.5c-0.5,0-1,0.2-1.3,0.5
				c-0.3,0.3-0.5,0.8-0.6,1.4H179.8z"/>
			<path class="st0" d="M184.2,16.9c0.6-0.8,1.7-1.2,3.2-1.2c1,0,1.9,0.2,2.6,0.6c0.8,0.4,1.2,1.1,1.2,2.2v4.1c0,0.3,0,0.6,0,1
				c0,0.3,0.1,0.5,0.1,0.6s0.2,0.2,0.3,0.3V25h-2.6c-0.1-0.2-0.1-0.4-0.1-0.5c0-0.2,0-0.3-0.1-0.5c-0.3,0.4-0.7,0.7-1.1,0.9
				c-0.5,0.3-1.1,0.4-1.7,0.4c-0.8,0-1.5-0.2-2-0.7c-0.5-0.5-0.8-1.1-0.8-2c0-1.1,0.4-1.9,1.3-2.4c0.5-0.3,1.2-0.5,2.1-0.6l0.8-0.1
				c0.4-0.1,0.7-0.1,0.9-0.2c0.3-0.1,0.5-0.4,0.5-0.7c0-0.4-0.1-0.6-0.4-0.8c-0.3-0.1-0.6-0.2-1.1-0.2c-0.6,0-1,0.1-1.2,0.4
				c-0.2,0.2-0.3,0.5-0.3,0.8h-2.3C183.6,18.1,183.8,17.4,184.2,16.9z M186,23.3c0.2,0.2,0.5,0.3,0.8,0.3c0.5,0,1-0.1,1.4-0.4
				c0.4-0.3,0.7-0.8,0.7-1.6v-0.9c-0.1,0.1-0.3,0.2-0.5,0.2c-0.2,0.1-0.4,0.1-0.6,0.2l-0.5,0.1c-0.5,0.1-0.9,0.2-1.1,0.3
				c-0.4,0.2-0.5,0.6-0.5,1C185.6,22.8,185.7,23.1,186,23.3z"/>
			<path class="st0" d="M197.4,23.3v1.8l-1.1,0c-1.1,0-1.9-0.2-2.3-0.6c-0.3-0.3-0.4-0.7-0.4-1.3v-5.6h-1.3V16h1.3v-2.5h2.3V16h1.5
				v1.7H196v4.8c0,0.4,0,0.6,0.1,0.7c0.1,0.1,0.4,0.1,0.9,0.1c0.1,0,0.1,0,0.2,0C197.3,23.3,197.4,23.3,197.4,23.3z"/>
			<path class="st0" d="M203.5,18.1c-1,0-1.6,0.3-1.9,0.9c-0.2,0.3-0.3,0.9-0.3,1.6V25h-2.4v-9h2.3v1.6c0.4-0.6,0.7-1,1-1.2
				c0.4-0.4,1-0.6,1.7-0.6c0,0,0.1,0,0.1,0c0,0,0.1,0,0.2,0v2.4c-0.1,0-0.3,0-0.4,0C203.7,18.1,203.6,18.1,203.5,18.1z"/>
			<path class="st0" d="M213.3,22.3c-0.1,0.5-0.3,1.1-0.8,1.6c-0.8,0.9-1.9,1.3-3.2,1.3c-1.1,0-2.2-0.4-3-1.1
				c-0.9-0.7-1.3-1.9-1.3-3.6c0-1.6,0.4-2.8,1.2-3.6c0.8-0.8,1.8-1.3,3.1-1.3c0.8,0,1.4,0.1,2,0.4c0.6,0.3,1.1,0.7,1.5,1.3
				c0.4,0.5,0.6,1.2,0.7,1.9c0.1,0.4,0.1,1,0.1,1.8h-6.2c0,0.9,0.3,1.5,0.9,1.9c0.3,0.2,0.7,0.3,1.2,0.3c0.5,0,0.9-0.1,1.2-0.4
				c0.2-0.1,0.3-0.4,0.4-0.6H213.3z M211,19.6c0-0.6-0.2-1.1-0.6-1.4c-0.3-0.3-0.8-0.5-1.3-0.5c-0.5,0-1,0.2-1.3,0.5
				c-0.3,0.3-0.5,0.8-0.6,1.4H211z"/>
			<path class="st0" d="M225.5,25h-5.5V12.8h5.9c1.5,0,2.6,0.5,3.2,1.3c0.4,0.5,0.6,1.1,0.6,1.9c0,0.7-0.2,1.3-0.6,1.8
				c-0.2,0.3-0.5,0.5-0.9,0.7c0.6,0.2,1.1,0.6,1.4,1.1c0.3,0.5,0.5,1.1,0.5,1.8c0,0.7-0.2,1.4-0.5,1.9c-0.2,0.4-0.5,0.7-0.9,1
				c-0.4,0.3-0.9,0.5-1.4,0.6C226.7,24.9,226.1,25,225.5,25z M226.7,17.3c0.3-0.2,0.5-0.6,0.5-1.1c0-0.6-0.2-0.9-0.7-1.1
				c-0.4-0.1-0.9-0.2-1.5-0.2h-2.7v2.7h3C225.9,17.6,226.4,17.5,226.7,17.3z M225.4,19.6h-3v3.3h3c0.5,0,1-0.1,1.3-0.2
				c0.5-0.3,0.8-0.8,0.8-1.5c0-0.6-0.3-1.1-0.8-1.3C226.4,19.7,226,19.6,225.4,19.6z"/>
			<path class="st0" d="M236.5,18.1c-1,0-1.6,0.3-1.9,0.9c-0.2,0.3-0.3,0.9-0.3,1.6V25h-2.4v-9h2.3v1.6c0.4-0.6,0.7-1,1-1.2
				c0.4-0.4,1-0.6,1.7-0.6c0,0,0.1,0,0.1,0c0,0,0.1,0,0.2,0v2.4c-0.1,0-0.3,0-0.4,0C236.7,18.1,236.6,18.1,236.5,18.1z"/>
			<path class="st0" d="M241,12.7v2.2h-2.4v-2.2H241z M241,16v9h-2.4v-9H241z"/>
			<path class="st0" d="M247.4,23.3v1.8l-1.1,0c-1.1,0-1.9-0.2-2.3-0.6c-0.3-0.3-0.4-0.7-0.4-1.3v-5.6h-1.3V16h1.3v-2.5h2.3V16h1.5
				v1.7H246v4.8c0,0.4,0,0.6,0.1,0.7c0.1,0.1,0.4,0.1,0.9,0.1c0.1,0,0.1,0,0.2,0C247.3,23.3,247.3,23.3,247.4,23.3z"/>
			<path class="st0" d="M249.3,16.9c0.6-0.8,1.7-1.2,3.2-1.2c1,0,1.9,0.2,2.6,0.6c0.8,0.4,1.2,1.1,1.2,2.2v4.1c0,0.3,0,0.6,0,1
				c0,0.3,0.1,0.5,0.1,0.6c0.1,0.1,0.2,0.2,0.3,0.3V25h-2.6c-0.1-0.2-0.1-0.4-0.1-0.5c0-0.2,0-0.3-0.1-0.5c-0.3,0.4-0.7,0.7-1.1,0.9
				c-0.5,0.3-1.1,0.4-1.7,0.4c-0.8,0-1.5-0.2-2-0.7c-0.5-0.5-0.8-1.1-0.8-2c0-1.1,0.4-1.9,1.3-2.4c0.5-0.3,1.2-0.5,2.1-0.6l0.8-0.1
				c0.4-0.1,0.7-0.1,0.9-0.2c0.3-0.1,0.5-0.4,0.5-0.7c0-0.4-0.1-0.6-0.4-0.8c-0.3-0.1-0.6-0.2-1.1-0.2c-0.6,0-1,0.1-1.2,0.4
				c-0.2,0.2-0.3,0.5-0.3,0.8h-2.3C248.7,18.1,248.9,17.4,249.3,16.9z M251,23.3c0.2,0.2,0.5,0.3,0.8,0.3c0.5,0,1-0.1,1.4-0.4
				c0.4-0.3,0.7-0.8,0.7-1.6v-0.9c-0.1,0.1-0.3,0.2-0.5,0.2c-0.2,0.1-0.4,0.1-0.6,0.2l-0.5,0.1c-0.5,0.1-0.9,0.2-1.1,0.3
				c-0.4,0.2-0.5,0.6-0.5,1C250.7,22.8,250.8,23.1,251,23.3z"/>
			<path class="st0" d="M260.8,12.7v2.2h-2.4v-2.2H260.8z M260.8,16v9h-2.4v-9H260.8z"/>
			<path class="st0" d="M267.3,17.7c-0.8,0-1.4,0.3-1.6,1c-0.2,0.4-0.2,0.8-0.2,1.4V25h-2.4v-9h2.3v1.3c0.3-0.5,0.6-0.8,0.9-1
				c0.5-0.4,1.1-0.5,1.8-0.5c0.9,0,1.7,0.2,2.3,0.7c0.6,0.5,0.9,1.3,0.9,2.4V25h-2.4v-5.5c0-0.5-0.1-0.8-0.2-1.1
				C268.4,17.9,268,17.7,267.3,17.7z"/>
		</g>
	</g>
	<g>
		<g>
			<path class="st0" d="M300.1,22.5h-4.5l-0.8,2.5h-2.7l4.4-12.2h2.9l4.3,12.2h-2.8L300.1,22.5z M299.4,20.4l-1.5-4.8l-1.6,4.8
				H299.4z"/>
			<path class="st0" d="M310.5,25h-5.3V12.8h5.3c0.8,0,1.4,0.1,1.9,0.3c0.9,0.3,1.5,0.8,2.1,1.5c0.4,0.6,0.7,1.3,0.9,2
				c0.2,0.7,0.2,1.4,0.2,2c0,1.6-0.3,3-1,4.1C313.7,24.2,312.4,25,310.5,25z M312.4,15.9c-0.4-0.7-1.2-1-2.3-1h-2.4v8h2.4
				c1.2,0,2-0.6,2.5-1.8c0.3-0.7,0.4-1.4,0.4-2.3C313,17.5,312.8,16.6,312.4,15.9z"/>
			<path class="st0" d="M325,24.7c-0.7,0.4-1.5,0.6-2.5,0.6c-1.6,0-2.9-0.6-4-1.7c-1.1-1.1-1.6-2.7-1.6-4.6c0-2,0.5-3.6,1.6-4.8
				s2.5-1.8,4.3-1.8c1.6,0,2.8,0.4,3.7,1.2s1.5,1.8,1.6,2.9h-2.5c-0.2-0.8-0.7-1.4-1.4-1.7c-0.4-0.2-0.9-0.3-1.4-0.3
				c-1,0-1.8,0.4-2.4,1.1c-0.6,0.7-0.9,1.9-0.9,3.4c0,1.5,0.3,2.6,1,3.2c0.7,0.6,1.5,0.9,2.3,0.9c0.9,0,1.6-0.2,2.1-0.7
				c0.5-0.5,0.9-1.1,1-1.9h-2.8v-2h5.1V25h-1.7l-0.3-1.5C325.8,24,325.4,24.5,325,24.7z"/>
			<path class="st0" d="M343.9,19.7H338v3.1h6.8V25h-9.3V12.8h9v2.2H338v2.6h5.9V19.7z"/>
			<path class="st0" d="M352.3,23.7c0,0-0.1,0.1-0.2,0.2c-0.1,0.1-0.2,0.3-0.3,0.4c-0.4,0.3-0.7,0.6-1.1,0.7
				c-0.3,0.1-0.8,0.2-1.2,0.2c-1.3,0-2.2-0.5-2.7-1.4c-0.3-0.5-0.4-1.3-0.4-2.3V16h2.4v5.4c0,0.5,0.1,0.9,0.2,1.2
				c0.2,0.5,0.6,0.7,1.3,0.7c0.8,0,1.4-0.3,1.7-1c0.2-0.4,0.2-0.8,0.2-1.4V16h2.4v9h-2.3V23.7z"/>
			<path class="st0" d="M361.5,18.1c-1,0-1.6,0.3-1.9,0.9c-0.2,0.3-0.3,0.9-0.3,1.6V25h-2.4v-9h2.3v1.6c0.4-0.6,0.7-1,1-1.2
				c0.4-0.4,1-0.6,1.7-0.6c0,0,0.1,0,0.1,0c0,0,0.1,0,0.2,0v2.4c-0.1,0-0.3,0-0.4,0C361.6,18.1,361.5,18.1,361.5,18.1z"/>
			<path class="st0" d="M371,17.1c0.8,1,1.1,2.1,1.1,3.4c0,1.3-0.4,2.5-1.1,3.4c-0.8,0.9-1.9,1.4-3.5,1.4c-1.6,0-2.7-0.5-3.5-1.4
				c-0.8-0.9-1.1-2.1-1.1-3.4c0-1.3,0.4-2.4,1.1-3.4c0.8-1,1.9-1.4,3.5-1.4C369.1,15.7,370.3,16.1,371,17.1z M367.6,17.7
				c-0.7,0-1.2,0.2-1.6,0.7c-0.4,0.5-0.6,1.2-0.6,2.1c0,0.9,0.2,1.6,0.6,2.1c0.4,0.5,0.9,0.7,1.6,0.7c0.7,0,1.2-0.2,1.6-0.7
				c0.4-0.5,0.6-1.2,0.6-2.1c0-0.9-0.2-1.6-0.6-2.1C368.8,17.9,368.3,17.7,367.6,17.7z"/>
			<path class="st0" d="M381.4,16.9c0.7,0.8,1.1,1.9,1.1,3.4c0,1.6-0.4,2.8-1.1,3.6c-0.7,0.8-1.6,1.3-2.8,1.3
				c-0.7,0-1.3-0.2-1.8-0.5c-0.3-0.2-0.5-0.5-0.8-0.9v4.7h-2.3V16h2.3v1.3c0.3-0.4,0.5-0.7,0.8-0.9c0.5-0.4,1.1-0.6,1.9-0.6
				C379.8,15.8,380.7,16.1,381.4,16.9z M380.1,20.5c0-0.7-0.2-1.3-0.5-1.8c-0.3-0.5-0.8-0.8-1.5-0.8c-0.9,0-1.4,0.4-1.8,1.2
				c-0.2,0.4-0.2,1-0.2,1.6c0,1,0.3,1.8,0.8,2.2c0.3,0.2,0.7,0.4,1.2,0.4c0.7,0,1.2-0.3,1.5-0.8C379.9,22,380.1,21.3,380.1,20.5z"/>
			<path class="st0" d="M392,22.3c-0.1,0.5-0.3,1.1-0.8,1.6c-0.8,0.9-1.9,1.3-3.2,1.3c-1.1,0-2.2-0.4-3-1.1
				c-0.9-0.7-1.3-1.9-1.3-3.6c0-1.6,0.4-2.8,1.2-3.6c0.8-0.8,1.8-1.3,3.1-1.3c0.8,0,1.4,0.1,2,0.4c0.6,0.3,1.1,0.7,1.5,1.3
				c0.4,0.5,0.6,1.2,0.7,1.9c0.1,0.4,0.1,1,0.1,1.8h-6.2c0,0.9,0.3,1.5,0.9,1.9c0.3,0.2,0.7,0.3,1.2,0.3c0.5,0,0.9-0.1,1.2-0.4
				c0.2-0.1,0.3-0.4,0.4-0.6H392z M389.6,19.6c0-0.6-0.2-1.1-0.6-1.4s-0.8-0.5-1.3-0.5c-0.5,0-1,0.2-1.3,0.5
				c-0.3,0.3-0.5,0.8-0.6,1.4H389.6z"/>
		</g>
	</g>
	<g>
		<g>
			<path class="st0" d="M9.3,15.4l6.3,0V1.4l-14.7,0l0,11.7c0,6.7,3.9,11.4,7.9,13.6c3.5,1.9,6.8,1.9,6.8,1.9v-5.8
				C11.3,22.5,9.6,19.1,9.3,15.4 M8.3,11.4c-1.4,0-2.5-1.1-2.5-2.5c0-1.4,1.1-2.5,2.5-2.5c1.4,0,2.5,1.1,2.5,2.5
				C10.7,10.3,9.6,11.4,8.3,11.4"/>
			<path class="st0" d="M17.1,33.2c0,0,3.2,0,6.8-1.9c4-2.2,7.9-6.9,7.9-13.6l0-11.7l-14.7,0V20c4.3,0.3,6,2.9,6.3,6.6
				c0,0-1.6-0.7-3.5-0.7c-1.4,0-2.8,0.7-2.8,0.7L17.1,33.2z M24.5,16c-1.4,0-2.5-1.1-2.5-2.5c0-1.4,1.1-2.5,2.5-2.5
				c1.4,0,2.5,1.1,2.5,2.5C26.9,14.9,25.8,16,24.5,16"/>
			<path class="st0" d="M45.1,22h-6.7l-1.5,3.5h-1.7L41,12.1h1.4l5.8,13.4h-1.7L45.1,22z M44.5,20.6l-2.1-5
				c-0.3-0.7-0.6-1.6-0.6-1.6h0c0,0-0.3,0.9-0.6,1.6l-2.1,5H44.5z"/>
			<path class="st0" d="M59.7,15.8c-0.9-1.5-2.6-2.4-4.5-2.4c-3.1,0-5.3,2.2-5.3,5.4c0,3.2,2.3,5.4,5.3,5.4c2,0,3.8-1.1,4.7-2.8
				l1.6,0.4c-1.1,2.4-3.5,3.9-6.3,3.9c-3.8,0-7-2.9-7-7c0-4,3.1-7,7-7c2.6,0,4.9,1.4,6.1,3.5L59.7,15.8z"/>
			<polygon class="st0" points="72.6,12.1 72.6,13.6 68.1,13.6 68.1,25.5 66.5,25.5 66.5,13.6 62,13.6 62,12.1 			"/>
			<polygon class="st0" points="83.8,24 83.8,25.5 74.8,25.5 74.8,12.1 83.7,12.1 83.7,13.6 76.4,13.6 76.4,17.7 82.3,17.7 
				82.3,19.1 76.4,19.1 76.4,24 			"/>
		</g>
	</g>
	<line class="st1" x1="101.8" y1="4.4" x2="101.8" y2="30"/>
	<line class="st1" x1="282.1" y1="4.4" x2="282.1" y2="30"/>
</g>
</svg>
