<svg xmlns="http://www.w3.org/2000/svg" viewBox="0 0 464.1 33.18"><defs><style>.cls-1,.cls-2,.cls-3{fill:#9a9a9a;}.cls-2{fill-rule:evenodd;}.cls-3{opacity:0.2;}</style></defs><g id="Capa_2" data-name="Capa 2"><g id="Capa_1-2" data-name="Capa 1"><path class="cls-1" d="M66.64,6.86a8.62,8.62,0,0,0-2.38,2.22,5.12,5.12,0,0,0-1.08,3,8.71,8.71,0,0,0,1.44,3.61A17.59,17.59,0,0,1,65.78,18a5.45,5.45,0,0,1,.08,2.76,6.5,6.5,0,0,1-1.36,2.36H61.15q2.26-1.89,2.27-3.87c0-.89-.65-1.61-1.94-4a6.86,6.86,0,0,1-.9-3.11,6.89,6.89,0,0,1,2.47-5.24Z"/><path class="cls-1" d="M11.44,23.11h-4q-3.61,0-3.62-2.72v-.66H1.58L0,18.06H3.83V6.86h7.61V8.62h-5v9.44h5v1.67h-5v1c0,.43.33.64,1,.64h4Z"/><path class="cls-1" d="M30.63,13.42q0,4.41-6.08,6.62v3.07H21.87v-17a10,10,0,0,1,2.27.58q6.48,2.15,6.49,6.71m-2.68.2a4.64,4.64,0,0,0-1.7-3.46A9.6,9.6,0,0,0,24.55,9v9a9.47,9.47,0,0,0,1.7-1.1A4.32,4.32,0,0,0,28,13.62"/><path class="cls-1" d="M42.31,23.11H39.69V20.56a.88.88,0,0,0-.17-.64,1.84,1.84,0,0,0-.93-.19H36.32v3.38H33.68V19.73H31.41l-1.57-1.67h3.84V6.13a10.05,10.05,0,0,1,2.22.58q6.42,2.13,6.41,6.71a5.62,5.62,0,0,1-2.7,4.64,3.07,3.07,0,0,1,2,.56,2.47,2.47,0,0,1,.66,1.94Zm-2.63-9.49A4.69,4.69,0,0,0,38,10.18,9,9,0,0,0,36.32,9v9A9.37,9.37,0,0,0,38,17a4.43,4.43,0,0,0,1.68-3.37"/><path class="cls-1" d="M52,23.11H48q-3.61,0-3.62-2.72V6.86H52V8.62H47v9.44h5v1.67H47v1c0,.43.33.64,1,.64h4Z"/><path class="cls-1" d="M59.56,6.86a8.62,8.62,0,0,0-2.38,2.22,5.06,5.06,0,0,0-1.08,3,8.71,8.71,0,0,0,1.44,3.61A17.32,17.32,0,0,1,58.69,18a5.34,5.34,0,0,1,.08,2.76,6.36,6.36,0,0,1-1.36,2.36H54.07c1.5-1.26,2.26-2.55,2.26-3.87,0-.89-.65-1.61-1.93-4a6.76,6.76,0,0,1-.91-3.11A6.9,6.9,0,0,1,56,6.86Z"/><path class="cls-1" d="M19.68,6.86A8.62,8.62,0,0,0,17.3,9.08a5.06,5.06,0,0,0-1.08,3,8.71,8.71,0,0,0,1.44,3.61A19,19,0,0,1,18.82,18a5.43,5.43,0,0,1,.07,2.76,6.36,6.36,0,0,1-1.36,2.36H14.19c1.5-1.26,2.26-2.55,2.26-3.87,0-.89-.64-1.61-1.93-4a6.89,6.89,0,0,1-.91-3.11,6.9,6.9,0,0,1,2.48-5.24Z"/><rect class="cls-1" x="69.75" y="6.86" width="2.68" height="16.25"/><polygon class="cls-1" points="85.52 6.83 80.55 24.24 75.57 6.83 78.32 6.83 80.55 15.62 82.85 6.83 85.52 6.83"/><path class="cls-2" d="M92.66,16.24c1.08,2.16,3,6.15,5.1,5.56a.14.14,0,0,1,.14.23C92.19,27.87,85.28,19,86.55,12.66a1.33,1.33,0,0,1,.93-1.06c1-.28,2.89.06,5.18,4.64"/><path class="cls-2" d="M93.39,14.81c-1.1-2.2-3.09-6.3-5.23-5.51-.1,0-.18-.1-.11-.18,5.72-6,12.69,2.89,11.46,9.23a1.37,1.37,0,0,1-1,1.11c-1,.26-2.88-.13-5.14-4.65"/><path class="cls-1" d="M125.16,9.12H120.8v15.5h-1.51V9.12h-4.36V7.67h10.23Z"/><path class="cls-1" d="M127.72,9.09v6.78h6.09V17.3h-6.09v5.9h8.14v1.42h-9.62v-17h9.62V9.09Z"/><path class="cls-1" d="M146.3,20.9H139l-1.15,3.72h-1.51l5.36-16.86,2-.12,5.33,17h-1.51Zm-.43-1.39L142.63,9.18l-3.21,10.33Z"/><path class="cls-1" d="M157.43,9.12h-4.36v15.5h-1.52V9.12h-4.36V7.67h10.24Z"/><path class="cls-1" d="M165.44,18.51l3.17,6.11h-1.75l-3-5.72a2.58,2.58,0,0,1-.48,0h-3.36v5.69H158.5V7.7c1.64-.09,2.94-.12,4.57-.15,2.37,0,5.54,1.24,5.54,5.75A5.3,5.3,0,0,1,165.44,18.51Zm1.66-5.27c0-3-1.79-4.21-4.12-4.21l-2.93.09v8.39h3.12C165.16,17.51,167.1,16.15,167.1,13.24Z"/><path class="cls-1" d="M170.33,16.42v-.55c0-5.63,3.42-8.35,6.9-8.35s6.9,2.72,6.9,8.35v.55c0,5.63-3.45,8.35-6.9,8.35S170.33,22.05,170.33,16.42Zm12.29,0v-.55c0-4.9-2.76-6.93-5.39-6.93s-5.39,2-5.39,6.93v.55c0,4.87,2.76,6.9,5.36,6.9S182.62,21.29,182.62,16.42Z"/><line class="cls-3" x1="109.21" x2="109.21" y2="33.18"/><path class="cls-1" d="M248,7.74v2.95h-5V24.41h-3.51V10.69h-5V7.74Z"/><path class="cls-1" d="M264.4,24.41h-3.49l-6.8-11.84V24.41h-3.25V7.74h3.66l6.63,11.63V7.74h3.25Z"/><path class="cls-1" d="M280.67,7.74v2.95h-5V24.41h-3.51V10.69h-5V7.74Z"/><path class="cls-1" d="M303.1,7.74v2.95h-5V24.41h-3.5V10.69h-5V7.74Z"/><path class="cls-1" d="M316.93,17.17v7.24h-3.29v-7.5a3.34,3.34,0,0,0-.33-1.6,1.71,1.71,0,0,0-1.68-.86,2.3,2.3,0,0,0-1.94.85,3.92,3.92,0,0,0-.66,2.44v6.67h-3.21V7.8H309v5.89a4,4,0,0,1,1.62-1.5,4.67,4.67,0,0,1,1.94-.42,5.35,5.35,0,0,1,2.08.39,3.71,3.71,0,0,1,1.53,1.21,3.13,3.13,0,0,1,.62,1.42A16.89,16.89,0,0,1,316.93,17.17Z"/><path class="cls-1" d="M331.41,20.79A4,4,0,0,1,330.27,23a5.58,5.58,0,0,1-4.43,1.8,6.25,6.25,0,0,1-4.15-1.51c-1.2-1-1.8-2.66-1.8-4.93a6.88,6.88,0,0,1,1.63-4.91,5.52,5.52,0,0,1,4.21-1.7,6.53,6.53,0,0,1,2.77.57,4.85,4.85,0,0,1,2,1.82,6.19,6.19,0,0,1,.94,2.55,16.08,16.08,0,0,1,.1,2.44h-8.43a3.06,3.06,0,0,0,1.16,2.6,2.75,2.75,0,0,0,1.61.46,2.32,2.32,0,0,0,1.61-.56,2.68,2.68,0,0,0,.6-.85ZM328.23,17a2.82,2.82,0,0,0-.78-1.94,2.4,2.4,0,0,0-1.72-.66,2.22,2.22,0,0,0-1.74.7,3.47,3.47,0,0,0-.77,1.9Z"/><path class="cls-1" d="M335.13,13.42c.85-1.09,2.32-1.63,4.39-1.63a7.81,7.81,0,0,1,3.59.8,3.09,3.09,0,0,1,1.57,3v5.65c0,.4,0,.87,0,1.43a1.72,1.72,0,0,0,.19.86,1.13,1.13,0,0,0,.47.37v.48h-3.5a3.07,3.07,0,0,1-.2-.71,6.52,6.52,0,0,1-.09-.74A6.83,6.83,0,0,1,340,24.19a4.64,4.64,0,0,1-2.35.6,4,4,0,0,1-2.77-1,3.4,3.4,0,0,1-1.09-2.7,3.52,3.52,0,0,1,1.75-3.29,7.65,7.65,0,0,1,2.83-.79l1.1-.14a4.87,4.87,0,0,0,1.27-.28,1,1,0,0,0,.69-.92,1.08,1.08,0,0,0-.52-1,3.21,3.21,0,0,0-1.55-.29,2,2,0,0,0-1.61.56,2.28,2.28,0,0,0-.45,1.13h-3.11A4.77,4.77,0,0,1,335.13,13.42Zm2.4,8.66a1.73,1.73,0,0,0,1.11.37,3.24,3.24,0,0,0,1.91-.61,2.59,2.59,0,0,0,.91-2.23v-1.2a2.93,2.93,0,0,1-.61.31A5.39,5.39,0,0,1,340,19l-.72.13a4.81,4.81,0,0,0-1.46.44,1.48,1.48,0,0,0-.74,1.37A1.42,1.42,0,0,0,337.53,22.08Z"/><path class="cls-1" d="M354.11,22.11v2.41l-1.53.05a4.07,4.07,0,0,1-3.12-.79,2.36,2.36,0,0,1-.54-1.7V14.49H347.2V12.2h1.72V8.76h3.19V12.2h2v2.29h-2V21a1.48,1.48,0,0,0,.19.95,2.2,2.2,0,0,0,1.18.18h.31Z"/><path class="cls-1" d="M363.3,15.06a2.67,2.67,0,0,0-2.61,1.26,5,5,0,0,0-.37,2.2v5.89h-3.25V12.08h3.08v2.15a6.58,6.58,0,0,1,1.3-1.68,3.5,3.5,0,0,1,2.35-.76h.43v3.3l-.55,0Z"/><path class="cls-1" d="M377.59,20.79A4.16,4.16,0,0,1,376.45,23a5.61,5.61,0,0,1-4.44,1.8,6.22,6.22,0,0,1-4.14-1.51c-1.2-1-1.8-2.66-1.8-4.93a6.87,6.87,0,0,1,1.62-4.91,5.54,5.54,0,0,1,4.21-1.7,6.5,6.5,0,0,1,2.77.57,4.93,4.93,0,0,1,2,1.82,6.18,6.18,0,0,1,.93,2.55,15.82,15.82,0,0,1,.11,2.44h-8.44a3.09,3.09,0,0,0,1.17,2.6,2.72,2.72,0,0,0,1.6.46,2.35,2.35,0,0,0,1.62-.56,3,3,0,0,0,.6-.85ZM374.4,17a2.81,2.81,0,0,0-.77-1.94,2.43,2.43,0,0,0-1.73-.66,2.21,2.21,0,0,0-1.73.7,3.55,3.55,0,0,0-.78,1.9Z"/><path class="cls-1" d="M396.07,24.41h-7.55V7.74h8.09q3.06,0,4.34,1.78a4.23,4.23,0,0,1,.77,2.54,3.71,3.71,0,0,1-.77,2.45,3.92,3.92,0,0,1-1.26,1,3.7,3.7,0,0,1,1.92,1.47,4.36,4.36,0,0,1,.65,2.44,4.91,4.91,0,0,1-.74,2.66,4.66,4.66,0,0,1-3.08,2.15A11.76,11.76,0,0,1,396.07,24.41Zm1.65-10.52a1.56,1.56,0,0,0,.68-1.46,1.48,1.48,0,0,0-.91-1.53,6.19,6.19,0,0,0-2-.26h-3.66v3.67h4.09A3.41,3.41,0,0,0,397.72,13.89ZM396,17.07h-4.15v4.44h4.09a4.15,4.15,0,0,0,1.71-.29,2.09,2.09,0,0,0,1.11-2.08,1.79,1.79,0,0,0-1.08-1.79A4.36,4.36,0,0,0,396,17.07Z"/><path class="cls-1" d="M412,15.06a2.67,2.67,0,0,0-2.61,1.26,5,5,0,0,0-.37,2.2v5.89h-3.25V12.08h3.08v2.15a6.58,6.58,0,0,1,1.3-1.68,3.5,3.5,0,0,1,2.35-.76H413v3.3l-.55,0Z"/><path class="cls-1" d="M419.09,7.64v3h-3.26v-3Zm0,4.44V24.41h-3.26V12.08Z"/><path class="cls-1" d="M428.78,22.11v2.41l-1.53.05a4.07,4.07,0,0,1-3.12-.79,2.36,2.36,0,0,1-.54-1.7V14.49h-1.72V12.2h1.72V8.76h3.19V12.2h2v2.29h-2V21A1.48,1.48,0,0,0,427,22a2.2,2.2,0,0,0,1.18.18h.31Z"/><path class="cls-1" d="M432.24,13.42q1.27-1.63,4.38-1.63a7.88,7.88,0,0,1,3.6.8,3.09,3.09,0,0,1,1.57,3v5.65c0,.4,0,.87,0,1.43a1.84,1.84,0,0,0,.19.86,1.23,1.23,0,0,0,.48.37v.48H439a4.53,4.53,0,0,1-.2-.71,6.52,6.52,0,0,1-.09-.74,6.62,6.62,0,0,1-1.54,1.23,4.59,4.59,0,0,1-2.35.6,4,4,0,0,1-2.76-1,3.37,3.37,0,0,1-1.09-2.7,3.51,3.51,0,0,1,1.75-3.29,7.59,7.59,0,0,1,2.83-.79l1.09-.14a5,5,0,0,0,1.28-.28,1,1,0,0,0,.69-.92,1.08,1.08,0,0,0-.53-1,3.17,3.17,0,0,0-1.54-.29,2,2,0,0,0-1.62.56,2.48,2.48,0,0,0-.45,1.13h-3.11A4.7,4.7,0,0,1,432.24,13.42Zm2.39,8.66a1.75,1.75,0,0,0,1.11.37,3.27,3.27,0,0,0,1.92-.61,2.61,2.61,0,0,0,.91-2.23v-1.2a3,3,0,0,1-.62.31,5.22,5.22,0,0,1-.85.23l-.73.13a4.73,4.73,0,0,0-1.45.44,1.48,1.48,0,0,0-.75,1.37A1.42,1.42,0,0,0,434.63,22.08Z"/><path class="cls-1" d="M448.89,7.64v3h-3.27v-3Zm0,4.44V24.41h-3.27V12.08Z"/><path class="cls-1" d="M458.73,14.47a2.24,2.24,0,0,0-2.25,1.39,4.79,4.79,0,0,0-.31,1.88v6.67H453V12.11h3.11V13.9a5.2,5.2,0,0,1,1.17-1.36,4.06,4.06,0,0,1,2.52-.75,4.76,4.76,0,0,1,3.13,1,4.07,4.07,0,0,1,1.21,3.32v8.3h-3.3v-7.5a3.43,3.43,0,0,0-.26-1.49A1.84,1.84,0,0,0,458.73,14.47Z"/><path class="cls-1" d="M209.34,24.79a4.9,4.9,0,0,1-3.73-1.41,4.41,4.41,0,0,1-1.34-3.12,4.12,4.12,0,0,1,.7-2.43,7.7,7.7,0,0,1,2.3-2l.33-.2a6.53,6.53,0,0,1-1-1.57,3.84,3.84,0,0,1-.38-1.66,3.31,3.31,0,0,1,1.15-2.68,4.48,4.48,0,0,1,3-1,4,4,0,0,1,2.77,1,3.24,3.24,0,0,1,1.09,2.52,3.62,3.62,0,0,1-.66,2.25,6.19,6.19,0,0,1-1.92,1.6l2.23,2.75a4.78,4.78,0,0,0,.59-1.2,4.86,4.86,0,0,0,.22-1.38h2.7a8.34,8.34,0,0,1-.69,2.89A7.56,7.56,0,0,1,215.53,21l2.86,3.44H214.7l-1.08-1.34a6.69,6.69,0,0,1-1.48,1.09A6,6,0,0,1,209.34,24.79Zm-.17-7.23a5.51,5.51,0,0,0-1.51,1.33,2.38,2.38,0,0,0-.37,1.27,2,2,0,0,0,.64,1.43,2.17,2.17,0,0,0,1.62.65,3,3,0,0,0,1.42-.35,4.15,4.15,0,0,0,1.08-.77Zm-.2-5.28a1.66,1.66,0,0,0,.3.9,12.23,12.23,0,0,0,.83,1.1,5.42,5.42,0,0,0,.91-.76,1.79,1.79,0,0,0,.54-1.25,1.34,1.34,0,0,0-.32-.87,1.19,1.19,0,0,0-1-.39,1.38,1.38,0,0,0-.76.23A1.13,1.13,0,0,0,209,12.28Z"/></g></g></svg>