<svg xmlns="http://www.w3.org/2000/svg" viewBox="0 0 82.96 16.18"><defs><style>.cls-1{fill:#64a88d;}</style></defs><g id="Capa_2" data-name="Capa 2"><g id="Capa_1-2" data-name="Capa 1"><path class="cls-1" d="M3.06,15.79H0V0H4.79L7.62,12.33,10.45,0h4.71V15.71H12.1V2.59l-3,13.2H5.89l-3-13.2v13.2Z"/><path class="cls-1" d="M18,5.42c.79-1,2.2-1.57,4.17-1.57a6.69,6.69,0,0,1,3.37.79A2.83,2.83,0,0,1,27,7.46v6.68a1.49,1.49,0,0,0,.15.79.77.77,0,0,0,.47.31v.47H24.36a2.32,2.32,0,0,1-.16-.63c0-.23-.08-.47-.08-.7a5.22,5.22,0,0,1-1.41,1.18,4.21,4.21,0,0,1-2.2.55,4.13,4.13,0,0,1-2.6-.87,3.18,3.18,0,0,1-1-2.59,3.45,3.45,0,0,1,1.65-3.14,8.27,8.27,0,0,1,2.67-.79l1-.16a6.54,6.54,0,0,0,1.18-.23A.83.83,0,0,0,24,7.46a1.18,1.18,0,0,0-.47-1,3.57,3.57,0,0,0-1.49-.23c-.71,0-1.26.15-1.5.55a1.57,1.57,0,0,0-.39,1.1H17.28A3.65,3.65,0,0,1,18,5.42Zm2.28,8.17a1.55,1.55,0,0,0,1,.32,3.08,3.08,0,0,0,1.81-.55A2.47,2.47,0,0,0,24,11.23v-1.1a1.83,1.83,0,0,1-.55.32,4,4,0,0,1-.78.23l-.71.16a4.6,4.6,0,0,0-1.41.39,1.41,1.41,0,0,0-.71,1.26A1.32,1.32,0,0,0,20.27,13.59Z"/><path class="cls-1" d="M39.36,8.33H36.22a2.74,2.74,0,0,0-.47-1.18,1.8,1.8,0,0,0-1.57-.71,2.1,2.1,0,0,0-2.13,1.5,5.58,5.58,0,0,0-.31,2.12,4.94,4.94,0,0,0,.31,2,2,2,0,0,0,2.05,1.41A1.73,1.73,0,0,0,35.59,13a2.86,2.86,0,0,0,.55-1.49h3.14a4.63,4.63,0,0,1-1,2.59A4.82,4.82,0,0,1,34,16a5.13,5.13,0,0,1-4.17-1.65,6.79,6.79,0,0,1-1.33-4.32A6.59,6.59,0,0,1,30,5.42a5.1,5.1,0,0,1,4-1.65,6.38,6.38,0,0,1,3.61.94A4.87,4.87,0,0,1,39.36,8.33Z"/><path class="cls-1" d="M47.3,16.11A3.93,3.93,0,0,1,45,15.56a5.36,5.36,0,0,1-1.1-1.18v1.49h-3V.16H44V5.74a4.68,4.68,0,0,1,1.25-1.26,3.58,3.58,0,0,1,2.12-.55A4.41,4.41,0,0,1,51,5.58a6.69,6.69,0,0,1,1.33,4.24,7.39,7.39,0,0,1-1.25,4.48A4.72,4.72,0,0,1,47.3,16.11Zm1.65-6a5.24,5.24,0,0,0-.32-2,2.29,2.29,0,0,0-2.28-1.57A2.21,2.21,0,0,0,44.08,8a5.26,5.26,0,0,0-.32,2.05,5,5,0,0,0,.63,2.51,2.08,2.08,0,0,0,2,.94,2,2,0,0,0,1.81-.94A4.49,4.49,0,0,0,49,10.13Z"/><path class="cls-1" d="M63.87,12.33a4,4,0,0,1-1.1,2.13,5.36,5.36,0,0,1-4.16,1.72,6.06,6.06,0,0,1-3.93-1.41A5.86,5.86,0,0,1,53,10.13a6.41,6.41,0,0,1,1.5-4.63,5.2,5.2,0,0,1,4-1.65,5.75,5.75,0,0,1,2.6.55,4.41,4.41,0,0,1,1.88,1.73,5,5,0,0,1,.86,2.43,18.25,18.25,0,0,1,.08,2.28H56a2.89,2.89,0,0,0,1.1,2.44,2.43,2.43,0,0,0,1.49.47,2,2,0,0,0,1.49-.55,1.89,1.89,0,0,0,.55-.79h3.22Zm-3-3.53A3,3,0,0,0,60.18,7a2.39,2.39,0,0,0-1.65-.63A2.25,2.25,0,0,0,56.88,7a3.17,3.17,0,0,0-.71,1.81Z"/><path class="cls-1" d="M70.94,13.59v2.28L69.53,16a3.6,3.6,0,0,1-2.91-.79,2.3,2.3,0,0,1-.55-1.65V6.36H64.42V4.16h1.65V.94h3V4.16h1.88v2.2H69.06v6.21a1.54,1.54,0,0,0,.16.86,2.27,2.27,0,0,0,1.1.16h.62Z"/><path class="cls-1" d="M83,9v6.83H79.82V8.72a2.85,2.85,0,0,0-.31-1.49,1.6,1.6,0,0,0-1.57-.79,2.08,2.08,0,0,0-1.81.79,3.93,3.93,0,0,0-.63,2.28v6.28h-3V.08h3.06V5.66a3.61,3.61,0,0,1,1.49-1.42,4.77,4.77,0,0,1,1.81-.39,5.52,5.52,0,0,1,2,.39,2.68,2.68,0,0,1,1.42,1.18,2.48,2.48,0,0,1,.55,1.34C82.81,7.23,83,7.86,83,9Z"/></g></g></svg>