<svg xmlns="http://www.w3.org/2000/svg" viewBox="0 0 294.15 49.12"><defs><style>.cls-1{fill:#000d30;}.cls-2{fill:#20af92;}</style></defs><g id="Capa_2" data-name="Capa 2"><g id="Capa_1-2" data-name="Capa 1"><path class="cls-1" d="M18.78,35.6V47.1H11.44V35.6H0V28.32H11.44V16.88h7.34V28.32H30.21V35.6Z"/><path class="cls-1" d="M45.42,27a7.83,7.83,0,0,0-2.51.36,5,5,0,0,0-2.82,2.48L33,29.52,35.79,7.17h22.3v6.76H41.54l-1.45,8.84A17,17,0,0,1,43,21.18a12.17,12.17,0,0,1,4.22-.64,12.68,12.68,0,0,1,8.76,3.37q3.73,3.38,3.74,9.82a15.41,15.41,0,0,1-3.6,10q-3.6,4.41-10.77,4.41a14.35,14.35,0,0,1-9.49-3.1,12,12,0,0,1-4.13-8.79h7.93a7.6,7.6,0,0,0,1.81,4,5.13,5.13,0,0,0,3.91,1.41,5.27,5.27,0,0,0,4.5-2.07,8.55,8.55,0,0,0,1.55-5.24,9.09,9.09,0,0,0-1.45-5.23A5.08,5.08,0,0,0,45.42,27Z"/><path class="cls-2" d="M85.13,13.66H80.88v7.2H76.72V.84h8.72a7.13,7.13,0,0,1,4.81,1.55A6,6,0,0,1,92,7.19c0,2.36-.59,4-1.79,5A8,8,0,0,1,85.13,13.66Zm2-4.17a2.9,2.9,0,0,0,.81-2.28A2.72,2.72,0,0,0,87.08,5a3.6,3.6,0,0,0-2.3-.66h-3.9v5.89h3.9A3.44,3.44,0,0,0,87.09,9.49Z"/><path class="cls-2" d="M94.87,7.66q1.53-1.95,5.27-1.95a9.41,9.41,0,0,1,4.32,1,3.7,3.7,0,0,1,1.89,3.64V17.1c0,.47,0,1,0,1.71a2.25,2.25,0,0,0,.23,1,1.47,1.47,0,0,0,.57.45v.57H103a4.52,4.52,0,0,1-.24-.84c0-.26-.08-.56-.11-.9a7.63,7.63,0,0,1-1.85,1.48,5.53,5.53,0,0,1-2.82.72,4.87,4.87,0,0,1-3.32-1.14,4.09,4.09,0,0,1-1.31-3.26,4.23,4.23,0,0,1,2.1-4,9.41,9.41,0,0,1,3.4-1l1.31-.16a6.3,6.3,0,0,0,1.54-.34,1.17,1.17,0,0,0,.83-1.1,1.31,1.31,0,0,0-.63-1.26A4,4,0,0,0,100,8.82a2.42,2.42,0,0,0-1.94.67,2.86,2.86,0,0,0-.54,1.36H93.78A5.69,5.69,0,0,1,94.87,7.66Zm2.88,10.4a2,2,0,0,0,1.33.45,3.93,3.93,0,0,0,2.3-.73,3.12,3.12,0,0,0,1.09-2.68V13.66a4,4,0,0,1-.74.38,6.42,6.42,0,0,1-1,.26l-.87.16a5.57,5.57,0,0,0-1.75.54,1.77,1.77,0,0,0-.9,1.64A1.69,1.69,0,0,0,97.75,18.06Z"/><path class="cls-2" d="M109,4.06,111.63,0H116l-4.13,4.06Zm.26,2h3.93v14.8h-3.93Z"/><path class="cls-2" d="M126.6,6.74a4.75,4.75,0,0,1,2,3.83h-3.87a2.21,2.21,0,0,0-.42-1.18,2.62,2.62,0,0,0-2.17-.79,3.16,3.16,0,0,0-1.8.39,1.13,1.13,0,0,0-.54.93,1,1,0,0,0,.57,1,24,24,0,0,0,4,1.07,7.31,7.31,0,0,1,3.46,1.65A3.73,3.73,0,0,1,129,16.38,4.47,4.47,0,0,1,127.36,20a7.65,7.65,0,0,1-5,1.4c-2.33,0-4-.5-5.16-1.48a4.78,4.78,0,0,1-1.66-3.75h3.92a2.59,2.59,0,0,0,.53,1.46,3.57,3.57,0,0,0,2.66.78,4.19,4.19,0,0,0,1.82-.34,1.14,1.14,0,0,0,.13-2,21.78,21.78,0,0,0-4-1.17A8.53,8.53,0,0,1,117,13.3a3.4,3.4,0,0,1-1-2.67,4.62,4.62,0,0,1,1.6-3.52,6.5,6.5,0,0,1,4.53-1.47A8.35,8.35,0,0,1,126.6,6.74Z"/><path class="cls-2" d="M144,16.52a4.87,4.87,0,0,1-1.37,2.67,6.72,6.72,0,0,1-5.32,2.16,7.48,7.48,0,0,1-5-1.82c-1.44-1.21-2.16-3.19-2.16-5.92a8.25,8.25,0,0,1,2-5.9,6.7,6.7,0,0,1,5.06-2,7.67,7.67,0,0,1,3.33.7,5.79,5.79,0,0,1,2.44,2.18,7.45,7.45,0,0,1,1.13,3.06,19.48,19.48,0,0,1,.12,2.93H134a3.7,3.7,0,0,0,1.4,3.13,3.3,3.3,0,0,0,1.93.55,2.78,2.78,0,0,0,1.94-.67,3.41,3.41,0,0,0,.72-1ZM140.15,12a3.35,3.35,0,0,0-.93-2.33,2.86,2.86,0,0,0-2.07-.79,2.61,2.61,0,0,0-2.08.84,4.09,4.09,0,0,0-.93,2.28Z"/><path class="cls-2" d="M156.42,6.74a4.76,4.76,0,0,1,2,3.83h-3.87a2.21,2.21,0,0,0-.42-1.18A2.64,2.64,0,0,0,152,8.6a3.11,3.11,0,0,0-1.8.39,1.13,1.13,0,0,0-.54.93,1,1,0,0,0,.57,1,24,24,0,0,0,4,1.07,7.35,7.35,0,0,1,3.47,1.65,3.73,3.73,0,0,1,1.14,2.78A4.5,4.5,0,0,1,157.19,20,9.77,9.77,0,0,1,147,19.89a4.78,4.78,0,0,1-1.67-3.75h3.93a2.59,2.59,0,0,0,.53,1.46,3.57,3.57,0,0,0,2.66.78,4.11,4.11,0,0,0,1.81-.34,1.1,1.1,0,0,0,.68-1,1.07,1.07,0,0,0-.55-1,21.28,21.28,0,0,0-4-1.17,8.52,8.52,0,0,1-3.55-1.56,3.44,3.44,0,0,1-1-2.67,4.63,4.63,0,0,1,1.61-3.52,6.48,6.48,0,0,1,4.53-1.47A8.29,8.29,0,0,1,156.42,6.74Z"/><path class="cls-2" d="M166.86,6.06h4.34L174.29,17l3.15-10.92h4.15l-5.33,14.8h-4.09Z"/><path class="cls-2" d="M187.2.72V4.29h-3.92V.72Zm0,5.34v14.8h-3.92V6.06Z"/><path class="cls-2" d="M200.6,6.74a4.78,4.78,0,0,1,2,3.83h-3.87a2.21,2.21,0,0,0-.42-1.18,2.62,2.62,0,0,0-2.17-.79,3.16,3.16,0,0,0-1.8.39,1.13,1.13,0,0,0-.54.93,1,1,0,0,0,.57,1,24,24,0,0,0,4,1.07,7.31,7.31,0,0,1,3.46,1.65A3.73,3.73,0,0,1,203,16.38,4.5,4.5,0,0,1,201.36,20a9.77,9.77,0,0,1-10.21-.08,4.78,4.78,0,0,1-1.66-3.75h3.92a2.59,2.59,0,0,0,.53,1.46,3.57,3.57,0,0,0,2.66.78,4.19,4.19,0,0,0,1.82-.34,1.11,1.11,0,0,0,.67-1,1.07,1.07,0,0,0-.55-1,21.28,21.28,0,0,0-4-1.17A8.46,8.46,0,0,1,191,13.3a3.41,3.41,0,0,1-1-2.67,4.63,4.63,0,0,1,1.61-3.52,6.5,6.5,0,0,1,4.53-1.47A8.35,8.35,0,0,1,200.6,6.74Z"/><path class="cls-2" d="M209.29.72V4.29h-3.93V.72Zm0,5.34v14.8h-3.93V6.06Z"/><path class="cls-2" d="M219.26,18.11V21l-1.83.07c-1.83.06-3.08-.26-3.75-.95a2.83,2.83,0,0,1-.66-2.06V9H211V6.19H213V2.06h3.83V6.19h2.41V9h-2.41v7.82a1.72,1.72,0,0,0,.24,1.14c.15.15.62.22,1.41.22h.37Z"/><path class="cls-2" d="M221.75,7.66c1-1.3,2.77-1.95,5.27-1.95a9.34,9.34,0,0,1,4.31,1,3.7,3.7,0,0,1,1.89,3.64V17.1q0,.7,0,1.71a2.13,2.13,0,0,0,.23,1,1.47,1.47,0,0,0,.57.45v.57h-4.21a3.86,3.86,0,0,1-.24-.84,6.92,6.92,0,0,1-.11-.9,7.82,7.82,0,0,1-1.85,1.48,5.57,5.57,0,0,1-2.83.72,4.89,4.89,0,0,1-3.32-1.14,4.12,4.12,0,0,1-1.31-3.26,4.22,4.22,0,0,1,2.11-4,9.41,9.41,0,0,1,3.39-1l1.32-.16a6.3,6.3,0,0,0,1.54-.34,1.16,1.16,0,0,0,.82-1.1,1.31,1.31,0,0,0-.63-1.26,4,4,0,0,0-1.85-.34,2.41,2.41,0,0,0-1.94.67,2.87,2.87,0,0,0-.55,1.36h-3.73A5.62,5.62,0,0,1,221.75,7.66Zm2.87,10.4a2,2,0,0,0,1.34.45,3.93,3.93,0,0,0,2.3-.73,3.14,3.14,0,0,0,1.09-2.68V13.66a4,4,0,0,1-.74.38,6.73,6.73,0,0,1-1,.26l-.87.16A5.74,5.74,0,0,0,225,15a1.78,1.78,0,0,0-.89,1.64A1.69,1.69,0,0,0,224.62,18.06Z"/><path class="cls-2" d="M249.58.87v20h-3.77V18.81a5.49,5.49,0,0,1-1.88,1.92,5.42,5.42,0,0,1-2.64.59,5.52,5.52,0,0,1-4.37-2.09,8.08,8.08,0,0,1-1.77-5.39,9.22,9.22,0,0,1,1.75-6,5.65,5.65,0,0,1,4.66-2.17A4.71,4.71,0,0,1,244,6.3a4.66,4.66,0,0,1,1.7,1.63V.87ZM239.14,13.55a5.88,5.88,0,0,0,.82,3.28,2.71,2.71,0,0,0,2.44,1.23,2.84,2.84,0,0,0,2.5-1.22,5.39,5.39,0,0,0,.86-3.16,4.88,4.88,0,0,0-1.37-3.89,3,3,0,0,0-2-.7,2.71,2.71,0,0,0-2.49,1.28A6,6,0,0,0,239.14,13.55Z"/><path class="cls-2" d="M264.88,7.93a8.66,8.66,0,0,1,1.88,5.56,8.57,8.57,0,0,1-1.88,5.57c-1.25,1.55-3.14,2.32-5.69,2.32a6.88,6.88,0,0,1-5.69-2.32,8.56,8.56,0,0,1-1.87-5.57,8.65,8.65,0,0,1,1.87-5.56,8.06,8.06,0,0,1,11.38,0Zm-5.7.93a3.12,3.12,0,0,0-2.62,1.2,5.56,5.56,0,0,0-.91,3.43,5.58,5.58,0,0,0,.91,3.43,3.1,3.1,0,0,0,2.62,1.21,3.07,3.07,0,0,0,2.61-1.21,5.65,5.65,0,0,0,.91-3.43,5.63,5.63,0,0,0-.91-3.43A3.09,3.09,0,0,0,259.18,8.86Z"/><path class="cls-2" d="M279.17,6.74a4.76,4.76,0,0,1,2,3.83H277.3a2.39,2.39,0,0,0-.42-1.18,2.65,2.65,0,0,0-2.18-.79,3.16,3.16,0,0,0-1.8.39,1.14,1.14,0,0,0-.53.93,1,1,0,0,0,.57,1A23.73,23.73,0,0,0,277,12a7.27,7.27,0,0,1,3.46,1.65,3.7,3.7,0,0,1,1.15,2.78A4.5,4.5,0,0,1,279.94,20a7.68,7.68,0,0,1-5.06,1.4c-2.33,0-4.05-.5-5.15-1.48a4.78,4.78,0,0,1-1.67-3.75H272a2.52,2.52,0,0,0,.53,1.46,3.55,3.55,0,0,0,2.66.78A4.14,4.14,0,0,0,277,18a1.14,1.14,0,0,0,.13-2,21.55,21.55,0,0,0-4-1.17,8.52,8.52,0,0,1-3.55-1.56,3.4,3.4,0,0,1-1-2.67,4.63,4.63,0,0,1,1.61-3.52,6.47,6.47,0,0,1,4.53-1.47A8.32,8.32,0,0,1,279.17,6.74Z"/><path class="cls-2" d="M89,44.26a5,5,0,0,1-1.37,2.68,6.74,6.74,0,0,1-5.33,2.16,7.52,7.52,0,0,1-5-1.82c-1.44-1.22-2.16-3.19-2.16-5.93a8.22,8.22,0,0,1,1.95-5.89,6.65,6.65,0,0,1,5.06-2.05,7.73,7.73,0,0,1,3.32.69,5.84,5.84,0,0,1,2.45,2.19,7.39,7.39,0,0,1,1.12,3.05,20.71,20.71,0,0,1,.13,2.94H79a3.72,3.72,0,0,0,1.4,3.12,3.33,3.33,0,0,0,1.93.56,2.76,2.76,0,0,0,1.94-.68,3.09,3.09,0,0,0,.72-1Zm-3.83-4.54a3.44,3.44,0,0,0-.93-2.33,2.89,2.89,0,0,0-2.07-.79,2.63,2.63,0,0,0-2.09.84,4.24,4.24,0,0,0-.93,2.28Z"/><path class="cls-2" d="M98.2,36.67a2.69,2.69,0,0,0-2.71,1.67,5.8,5.8,0,0,0-.38,2.25v8H91.26V33.83H95V36a6.85,6.85,0,0,1,1.41-1.65,5,5,0,0,1,3-.89,5.75,5.75,0,0,1,3.76,1.2,4.9,4.9,0,0,1,1.46,4v10h-4v-9a4.08,4.08,0,0,0-.31-1.79A2.2,2.2,0,0,0,98.2,36.67Z"/><path class="cls-2" d="M115.15,28.59h4.18V45h9.92v3.6h-14.1Z"/><path class="cls-2" d="M131.83,35.4q1.53-1.95,5.27-1.95a9.41,9.41,0,0,1,4.32,1,3.72,3.72,0,0,1,1.88,3.64v6.79c0,.48,0,1,0,1.72a2.29,2.29,0,0,0,.23,1,1.47,1.47,0,0,0,.57.45v.57h-4.21a3.78,3.78,0,0,1-.24-.85c-.05-.26-.08-.56-.11-.89a8.08,8.08,0,0,1-1.85,1.48,5.53,5.53,0,0,1-2.82.72,4.83,4.83,0,0,1-3.32-1.15,4.06,4.06,0,0,1-1.31-3.25,4.24,4.24,0,0,1,2.1-4,9.62,9.62,0,0,1,3.4-1l1.31-.16a5.86,5.86,0,0,0,1.54-.34,1.16,1.16,0,0,0,.83-1.1,1.29,1.29,0,0,0-.64-1.25,3.8,3.8,0,0,0-1.85-.35,2.43,2.43,0,0,0-1.94.68,2.82,2.82,0,0,0-.54,1.36h-3.74A5.65,5.65,0,0,1,131.83,35.4Zm2.88,10.41a2,2,0,0,0,1.33.45,3.94,3.94,0,0,0,2.3-.74,3.11,3.11,0,0,0,1.09-2.67V41.41a3.93,3.93,0,0,1-.74.37,6.57,6.57,0,0,1-1,.27l-.87.16a5.35,5.35,0,0,0-1.75.53,1.77,1.77,0,0,0-.9,1.64A1.69,1.69,0,0,0,134.71,45.81Z"/><path class="cls-2" d="M153,45.85v2.89l-1.83.07c-1.83.06-3.08-.25-3.75-1a2.8,2.8,0,0,1-.65-2V36.7h-2.07V33.94h2.07V29.81h3.83v4.13H153V36.7h-2.4v7.82c0,.6.07,1,.23,1.13a2.49,2.49,0,0,0,1.41.23h.37Z"/><path class="cls-2" d="M158.87,28.46V32h-3.93V28.46Zm0,5.34V48.61h-3.93V33.8Z"/><path class="cls-2" d="M169,36.67a2.69,2.69,0,0,0-2.7,1.67,5.62,5.62,0,0,0-.38,2.25v8h-3.86V33.83h3.73V36a6.64,6.64,0,0,1,1.42-1.65,4.93,4.93,0,0,1,3-.89,5.7,5.7,0,0,1,3.75,1.2,4.9,4.9,0,0,1,1.46,4v10h-4v-9a4.06,4.06,0,0,0-.32-1.79A2.19,2.19,0,0,0,169,36.67Z"/><path class="cls-2" d="M190.84,35.68a9.18,9.18,0,0,1,0,11.13,8.16,8.16,0,0,1-11.38,0,8.61,8.61,0,0,1-1.87-5.58,8.6,8.6,0,0,1,1.87-5.55,8.06,8.06,0,0,1,11.38,0Zm-5.7.92a3.12,3.12,0,0,0-2.62,1.2,5.58,5.58,0,0,0-.91,3.43,5.61,5.61,0,0,0,.91,3.44,3.13,3.13,0,0,0,2.62,1.21,3.09,3.09,0,0,0,2.61-1.21,5.68,5.68,0,0,0,.91-3.44,5.65,5.65,0,0,0-.91-3.43A3.09,3.09,0,0,0,185.14,36.6Z"/><path class="cls-2" d="M195.49,35.4q1.53-1.95,5.27-1.95a9.41,9.41,0,0,1,4.32,1A3.71,3.71,0,0,1,207,38.05v6.79c0,.48,0,1,0,1.72a2.29,2.29,0,0,0,.23,1,1.47,1.47,0,0,0,.57.45v.57h-4.21a4.4,4.4,0,0,1-.24-.85c-.05-.26-.08-.56-.11-.89a7.87,7.87,0,0,1-1.85,1.48,5.53,5.53,0,0,1-2.82.72,4.83,4.83,0,0,1-3.32-1.15,4.06,4.06,0,0,1-1.31-3.25,4.24,4.24,0,0,1,2.1-4,9.62,9.62,0,0,1,3.4-1l1.32-.16a5.87,5.87,0,0,0,1.53-.34,1.16,1.16,0,0,0,.83-1.1,1.3,1.3,0,0,0-.63-1.25,3.84,3.84,0,0,0-1.86-.35,2.43,2.43,0,0,0-1.94.68,2.82,2.82,0,0,0-.54,1.36H194.4A5.73,5.73,0,0,1,195.49,35.4Zm2.88,10.41a2,2,0,0,0,1.33.45,3.94,3.94,0,0,0,2.3-.74,3.14,3.14,0,0,0,1.1-2.67V41.41a4.34,4.34,0,0,1-.75.37,6.27,6.27,0,0,1-1,.27l-.87.16a5.44,5.44,0,0,0-1.75.53,1.77,1.77,0,0,0-.9,1.64A1.71,1.71,0,0,0,198.37,45.81Z"/><path class="cls-2" d="M218.16,37.88a1.91,1.91,0,0,0-1.92-1.08A2.27,2.27,0,0,0,214,37.88a4.06,4.06,0,0,0-.32,1.82v8.91h-3.92V33.83h3.76V36a6.26,6.26,0,0,1,1.36-1.65,5.41,5.41,0,0,1,5.66-.12A4.39,4.39,0,0,1,221.84,36a4.89,4.89,0,0,1,1.89-1.91,5.69,5.69,0,0,1,2.66-.61,5.06,5.06,0,0,1,1.93.38A4.19,4.19,0,0,1,230,35.19a4.13,4.13,0,0,1,.84,1.9,12.16,12.16,0,0,1,.14,2.19l0,9.33h-4V39.18a3.16,3.16,0,0,0-.27-1.39,2,2,0,0,0-1.91-1,2.24,2.24,0,0,0-2.21,1.33,4.16,4.16,0,0,0-.31,1.7v8.82h-3.9V39.79A5,5,0,0,0,218.16,37.88Z"/><path class="cls-2" d="M246.69,44.26a4.83,4.83,0,0,1-1.37,2.68A6.7,6.7,0,0,1,240,49.1a7.55,7.55,0,0,1-5-1.82c-1.44-1.22-2.16-3.19-2.16-5.93a8.22,8.22,0,0,1,2-5.89,6.66,6.66,0,0,1,5.06-2.05,7.81,7.81,0,0,1,3.33.69,5.84,5.84,0,0,1,2.45,2.19,7.54,7.54,0,0,1,1.12,3.05,19.56,19.56,0,0,1,.12,2.94H236.75a3.69,3.69,0,0,0,1.4,3.12,3.33,3.33,0,0,0,1.93.56,2.78,2.78,0,0,0,1.94-.68,3.41,3.41,0,0,0,.72-1Zm-3.83-4.54a3.35,3.35,0,0,0-.93-2.33,2.86,2.86,0,0,0-2.07-.79,2.63,2.63,0,0,0-2.08.84,4.09,4.09,0,0,0-.93,2.28Zm-5-7.91,2.61-4.07h4.32l-4.13,4.07Z"/><path class="cls-2" d="M256.38,37.37a3.21,3.21,0,0,0-3.14,1.53,5.86,5.86,0,0,0-.45,2.63v7.08H248.9V33.8h3.69v2.58a8.4,8.4,0,0,1,1.56-2,4.26,4.26,0,0,1,2.83-.91h.18l.33,0v4l-.65,0Z"/><path class="cls-2" d="M263.18,28.46V32h-3.92V28.46Zm0,5.34V48.61h-3.92V33.8Z"/><path class="cls-2" d="M279.18,39.11h-4a3.37,3.37,0,0,0-.56-1.49,2.32,2.32,0,0,0-2-.9A2.67,2.67,0,0,0,270,38.66a8.26,8.26,0,0,0-.38,2.75A7.56,7.56,0,0,0,270,44a2.59,2.59,0,0,0,2.61,1.85,2.3,2.3,0,0,0,1.93-.74,3.63,3.63,0,0,0,.69-1.9h3.95a6.45,6.45,0,0,1-1.27,3.34,6.2,6.2,0,0,1-5.39,2.54c-2.39,0-4.14-.7-5.26-2.12a8.57,8.57,0,0,1-1.69-5.5,8.64,8.64,0,0,1,1.87-5.93,6.48,6.48,0,0,1,5.13-2.12,7.77,7.77,0,0,1,4.56,1.25Q278.86,35.95,279.18,39.11Z"/><path class="cls-2" d="M281.85,35.4q1.53-1.95,5.27-1.95a9.41,9.41,0,0,1,4.32,1,3.71,3.71,0,0,1,1.88,3.64v6.79c0,.48,0,1,0,1.72a2.29,2.29,0,0,0,.23,1,1.47,1.47,0,0,0,.57.45v.57h-4.21a3.78,3.78,0,0,1-.24-.85c-.05-.26-.08-.56-.11-.89a7.87,7.87,0,0,1-1.85,1.48,5.53,5.53,0,0,1-2.82.72,4.83,4.83,0,0,1-3.32-1.15,4.06,4.06,0,0,1-1.31-3.25,4.24,4.24,0,0,1,2.1-4,9.62,9.62,0,0,1,3.4-1l1.31-.16a5.86,5.86,0,0,0,1.54-.34,1.16,1.16,0,0,0,.83-1.1,1.3,1.3,0,0,0-.63-1.25,3.87,3.87,0,0,0-1.86-.35,2.43,2.43,0,0,0-1.94.68,2.82,2.82,0,0,0-.54,1.36h-3.74A5.65,5.65,0,0,1,281.85,35.4Zm2.88,10.41a2,2,0,0,0,1.33.45,3.94,3.94,0,0,0,2.3-.74,3.11,3.11,0,0,0,1.09-2.67V41.41a3.93,3.93,0,0,1-.74.37,6.57,6.57,0,0,1-1,.27l-.87.16a5.35,5.35,0,0,0-1.75.53,1.77,1.77,0,0,0-.9,1.64A1.71,1.71,0,0,0,284.73,45.81Z"/></g></g></svg>