<svg xmlns="http://www.w3.org/2000/svg" viewBox="0 0 355.11 78.46"><defs><style>.cls-1{fill:#20ab8e;}.cls-2{fill:#008677;}.cls-3{fill:#231f20;}</style></defs><g id="Capa_2" data-name="Capa 2"><g id="Capa_1-2" data-name="Capa 1"><path class="cls-1" d="M39.77,78.4a10.06,10.06,0,0,1-1.63-.14,8.51,8.51,0,0,1-1.67-.47l-.69-.27a1.31,1.31,0,0,0-.37-.11,1.05,1.05,0,0,0-.33.06l-.34.13-.35.22a.53.53,0,0,1-.29.1.74.74,0,0,1-.37-.21.56.56,0,0,1-.24-.4,3.23,3.23,0,0,1,.29-.86c.2-.45.41-1,.66-1.71A11.83,11.83,0,0,0,35,72.45c.06-.43.23-.64.51-.64s.28.1.32.3a5.46,5.46,0,0,1,.06,1,5.89,5.89,0,0,0,.4,2.22,3.4,3.4,0,0,0,1.25,1.58,3.72,3.72,0,0,0,2.16.58,5.28,5.28,0,0,0,3.47-1.17A4,4,0,0,0,44.57,73a4.78,4.78,0,0,0-.24-1.54A5.14,5.14,0,0,0,43.51,70a14.69,14.69,0,0,0-1.6-1.71,17.05,17.05,0,0,1-2.35-2.6,5.23,5.23,0,0,1-1-3.16,5.32,5.32,0,0,1,.88-3,6.14,6.14,0,0,1,2.4-2.07,7.62,7.62,0,0,1,3.41-.75,6.1,6.1,0,0,1,1.09.11c.38.08.76.17,1.12.28s.78.25,1.07.36a1.93,1.93,0,0,0,.66.18,1.13,1.13,0,0,0,.61-.16l.25-.11a.84.84,0,0,1,.29,0c.17,0,.28.06.32.19a1.16,1.16,0,0,1,.06.32,2.56,2.56,0,0,1-.21.4,7,7,0,0,0-.47,1.25A17.79,17.79,0,0,0,49.53,62a2.12,2.12,0,0,1-.24.76c-.12.18-.21.27-.28.27a.3.3,0,0,1-.3-.24,2,2,0,0,1-.08-.59,5,5,0,0,0-1-3.41,3.45,3.45,0,0,0-2.72-1.17,3.71,3.71,0,0,0-2.07.61,4.51,4.51,0,0,0-1.49,1.55,3.93,3.93,0,0,0-.54,2,4.67,4.67,0,0,0,.29,1.61,5.48,5.48,0,0,0,.94,1.6,17.72,17.72,0,0,0,1.75,1.84,16.19,16.19,0,0,1,2.45,2.69A4.56,4.56,0,0,1,47,72a6.31,6.31,0,0,1-.83,3.2,6.08,6.08,0,0,1-2.45,2.31A8.45,8.45,0,0,1,39.77,78.4Z"/><path class="cls-1" d="M51.86,78.37a2.35,2.35,0,0,1-1.44-.51,3.71,3.71,0,0,1-1.07-1.35,4,4,0,0,1-.4-1.76,10.33,10.33,0,0,1,.59-3.25,13.89,13.89,0,0,1,1.65-3.29,10.12,10.12,0,0,1,2.45-2.55,5.06,5.06,0,0,1,3-1,3,3,0,0,1,2.48,1.09A4.13,4.13,0,0,1,60,68.45a9.78,9.78,0,0,1-.58,3.15,12.9,12.9,0,0,1-1.64,3.25,9.77,9.77,0,0,1-2.56,2.53A5.93,5.93,0,0,1,51.86,78.37Zm.51-1a2.46,2.46,0,0,0,1.56-.67A8.68,8.68,0,0,0,55.43,75a15.16,15.16,0,0,0,1.28-2.4,19.47,19.47,0,0,0,.9-2.63,9.85,9.85,0,0,0,.33-2.4,3.07,3.07,0,0,0-.27-1.37,1.1,1.1,0,0,0-1.1-.55,2.51,2.51,0,0,0-1.52.61,7.49,7.49,0,0,0-1.51,1.63,14.35,14.35,0,0,0-1.29,2.29,15.08,15.08,0,0,0-.92,2.62A11.22,11.22,0,0,0,51,75.42a2.4,2.4,0,0,0,.37,1.52A1.21,1.21,0,0,0,52.37,77.41Z"/><path class="cls-1" d="M63.8,78.18a2.71,2.71,0,0,1-2-.72,2.52,2.52,0,0,1-.74-1.91,9.69,9.69,0,0,1,.19-1.81,15.39,15.39,0,0,1,.55-2.06l4-12.19a7.72,7.72,0,0,0,.24-.88,5,5,0,0,0,.08-.85.36.36,0,0,0-.18-.29,2.28,2.28,0,0,0-.62-.25c-.66-.17-1-.33-1-.48a.31.31,0,0,1,.12-.26,1.14,1.14,0,0,1,.4-.19c.23-.09.53-.19.91-.31l1.13-.33c.39-.11.73-.19,1-.26a4,4,0,0,1,.59-.09c.34,0,.51.1.51.32a2.31,2.31,0,0,1,0,.49,3.84,3.84,0,0,1-.18.56c-.17.43-.4,1.06-.7,1.91s-.62,1.78-1,2.81-.7,2.08-1.07,3.14-.7,2-1,3l-.72,2.21c-.08.21-.08.34,0,.38s.22,0,.37-.22A20.93,20.93,0,0,1,68.34,66a5,5,0,0,1,2.88-1.35,2.35,2.35,0,0,1,1.7.67,2.31,2.31,0,0,1,.67,1.7,8.52,8.52,0,0,1-.59,3,14.33,14.33,0,0,1-1.6,3,15.09,15.09,0,0,1-2.29,2.61,11.26,11.26,0,0,1-2.64,1.82A6,6,0,0,1,63.8,78.18Zm.83-1a2.16,2.16,0,0,0,1.09-.45,8.72,8.72,0,0,0,1.45-1.23,14.94,14.94,0,0,0,1.52-1.77,16.32,16.32,0,0,0,1.41-2.26,14.63,14.63,0,0,0,1-2.37,6.22,6.22,0,0,0,.37-1.9,1.49,1.49,0,0,0-.27-.91.8.8,0,0,0-.66-.37A3.66,3.66,0,0,0,68.28,67a21.91,21.91,0,0,0-3,3.42,21.48,21.48,0,0,0-1.69,2.72A4.63,4.63,0,0,0,63,75a2.37,2.37,0,0,0,.49,1.5A1.44,1.44,0,0,0,64.63,77.15Z"/><path class="cls-1" d="M75.25,78.46a.67.67,0,0,1-.35-.11,1,1,0,0,1-.32-.29.63.63,0,0,1-.13-.36,3.09,3.09,0,0,1,.21-1l.53-1.49,2.94-7.68a1.85,1.85,0,0,0,.15-.77.32.32,0,0,0-.34-.35,3.72,3.72,0,0,0-.88.11,3.24,3.24,0,0,0-.65.24.34.34,0,0,1-.37,0,.29.29,0,0,1-.18-.3A1,1,0,0,1,76.1,66a3,3,0,0,1,.66-.61,3.55,3.55,0,0,1,.91-.48,3.39,3.39,0,0,1,1.1-.19q.9,0,1.14.45a1.69,1.69,0,0,1,.06,1.2A10.86,10.86,0,0,1,79.41,68L78,71.65c-.08.15-.06.24.08.29a.25.25,0,0,0,.31-.1A33.55,33.55,0,0,1,80.93,68a17,17,0,0,1,2.42-2.56,3.34,3.34,0,0,1,1.86-.91,1.31,1.31,0,0,1,1.16.48,1.88,1.88,0,0,1,.34,1.12,3.64,3.64,0,0,1-.21,1.19,2.85,2.85,0,0,1-.57,1,1.09,1.09,0,0,1-.82.4.41.41,0,0,1-.38-.3,2,2,0,0,1-.13-.82,1.71,1.71,0,0,0-.13-.75.47.47,0,0,0-.48-.27,1.56,1.56,0,0,0-.85.42,8.22,8.22,0,0,0-1.32,1.44c-.24.32-.55.75-.93,1.31s-.8,1.17-1.24,1.84-.87,1.35-1.29,2.05-.8,1.32-1.12,1.9c-.58,1-1,1.77-1.23,2.24S75.51,78.46,75.25,78.46Z"/><path class="cls-1" d="M88.37,78.4A2.31,2.31,0,0,1,87,77.89a4.2,4.2,0,0,1-1.13-1.3,3,3,0,0,1-.45-1.52,10.24,10.24,0,0,1,.65-3.41,14.2,14.2,0,0,1,1.81-3.39,10.44,10.44,0,0,1,2.68-2.59,5.72,5.72,0,0,1,3.21-1,2.89,2.89,0,0,1,1.75.47,1.53,1.53,0,0,1,.62,1.29,2.62,2.62,0,0,1-.62,1.73,5.29,5.29,0,0,1-1.68,1.26,11.92,11.92,0,0,1-2.36.88c-.86.24-1.74.44-2.64.61a1.41,1.41,0,0,0-.3.08.4.4,0,0,0-.18.24c-.15.47-.3,1-.44,1.54a6,6,0,0,0-.23,1.57,3,3,0,0,0,.43,1.72,1.45,1.45,0,0,0,1.27.61,3.28,3.28,0,0,0,1.95-.57,8.1,8.1,0,0,0,1.31-1.16.88.88,0,0,1,.58-.35.29.29,0,0,1,.32.32V75a.18.18,0,0,1-.07.15,7.52,7.52,0,0,1-1.44,1.77A5.63,5.63,0,0,1,90.34,78,5.12,5.12,0,0,1,88.37,78.4Zm.71-8.22a6,6,0,0,0,1.2-.21,8.67,8.67,0,0,0,1.77-.67,5.72,5.72,0,0,0,1.59-1.16,2.3,2.3,0,0,0,.65-1.64,1.16,1.16,0,0,0-.22-.72.73.73,0,0,0-.64-.31A2.61,2.61,0,0,0,92,66a9.33,9.33,0,0,0-1.49,1.35,12.06,12.06,0,0,0-1.16,1.52A2.46,2.46,0,0,0,88.85,70C88.85,70.11,88.93,70.18,89.08,70.18Z"/><path class="cls-1" d="M103.13,78.37a1.48,1.48,0,0,1-.93-.45,1.3,1.3,0,0,1-.52-1,1.22,1.22,0,0,1,.07-.38l6.08-17.32a4.83,4.83,0,0,0,.24-.86,4.67,4.67,0,0,0,.08-.83.73.73,0,0,0-.31-.55,1.74,1.74,0,0,0-.75-.35,1.79,1.79,0,0,1-.51-.17c-.13-.08-.19-.16-.19-.24a.71.71,0,0,1,0-.16.33.33,0,0,1,.07-.13.15.15,0,0,1,.11-.07q.61-.15,1.47-.3l1.62-.26a9.55,9.55,0,0,1,1-.11.4.4,0,0,1,.27.11.54.54,0,0,1,.11.37,1.77,1.77,0,0,1-.06.43c0,.16-.09.32-.13.47L104.4,75a2.42,2.42,0,0,0-.12.5,3.62,3.62,0,0,0,0,.43q0,.51.33.51a2,2,0,0,0,1.1-.5,9.52,9.52,0,0,0,1.3-1.2,14.22,14.22,0,0,0,1-1.24,4.15,4.15,0,0,1,.45-.5c.17-.16.29-.24.38-.24a.14.14,0,0,1,.15.11,2.73,2.73,0,0,1,0,.31,2.57,2.57,0,0,1-.43,1.34A7.42,7.42,0,0,1,107.41,76a10.89,10.89,0,0,1-1.5,1.23,8.72,8.72,0,0,1-1.54.87A3.28,3.28,0,0,1,103.13,78.37Z"/><path class="cls-1" d="M111.45,78.37a1.57,1.57,0,0,1-.77-.21,1.82,1.82,0,0,1-.63-.53,1.08,1.08,0,0,1-.24-.67,6.1,6.1,0,0,1,.77-2.67,17.74,17.74,0,0,1,2.15-3.2,27.48,27.48,0,0,1,3.16-3.25c1.16-1,2.09-1.75,2.82-2.26a3.43,3.43,0,0,1,1.6-.75,1.16,1.16,0,0,1,.9.45,4.07,4.07,0,0,1,.39.53s0,0,0,0a.16.16,0,0,0,.11-.05.37.37,0,0,0,.08-.14l.54-.93q.11-.17,0,0c.13-.21.26-.32.39-.32a2,2,0,0,1,.58.09,1.35,1.35,0,0,1,.46.26.43.43,0,0,1,.17.32,3.47,3.47,0,0,1-.22.8l-3.58,9.5c-.28.73-.14,1.09.41,1.09a2.53,2.53,0,0,0,1.39-.56,6,6,0,0,0,1.43-1.36l.14-.11a.33.33,0,0,1,.15,0,.19.19,0,0,1,.17.08.62.62,0,0,1,0,.27,2.16,2.16,0,0,1-.45.88,6.88,6.88,0,0,1-2.73,2.42,3.85,3.85,0,0,1-1.68.45,1.28,1.28,0,0,1-.64-.19,1.75,1.75,0,0,1-.53-.48,1,1,0,0,1-.21-.58,1.66,1.66,0,0,1,.19-.74c-.08.2-.09.2,0,0s.2-.49.38-.89.38-.83.59-1.28.4-.84.55-1.19a1.25,1.25,0,0,0,.14-.52c0-.12-.08-.1-.21,0q-1.95,2.19-3.34,3.46a12,12,0,0,1-2.45,1.82A4.33,4.33,0,0,1,111.45,78.37Zm1.79-2a4,4,0,0,0,2.09-1.17,26.67,26.67,0,0,0,3.15-3.24,17.3,17.3,0,0,0,1.92-2.6,4,4,0,0,0,.71-1.76q0-.26-.42-.6a1.36,1.36,0,0,0-.41-.26,1.12,1.12,0,0,0-.39-.1,3.61,3.61,0,0,0-1.58.58,8.85,8.85,0,0,0-1.84,1.38,19,19,0,0,0-2,2.3,17,17,0,0,0-1.55,2.46,4.67,4.67,0,0,0-.59,1.92,1.14,1.14,0,0,0,.26.79A.82.82,0,0,0,113.24,76.35Z"/><path class="cls-1" d="M134.61,78.37a2.35,2.35,0,0,1-1.44-.51,3.71,3.71,0,0,1-1.07-1.35,4,4,0,0,1-.4-1.76,10.33,10.33,0,0,1,.59-3.25,13.89,13.89,0,0,1,1.65-3.29,10.12,10.12,0,0,1,2.45-2.55,5.08,5.08,0,0,1,3-1,3,3,0,0,1,2.48,1.09,4.13,4.13,0,0,1,.88,2.69,9.78,9.78,0,0,1-.58,3.15,12.9,12.9,0,0,1-1.64,3.25A9.77,9.77,0,0,1,138,77.38,5.91,5.91,0,0,1,134.61,78.37Zm.52-1a2.46,2.46,0,0,0,1.55-.67,8.68,8.68,0,0,0,1.5-1.76,15.16,15.16,0,0,0,1.28-2.4,19.47,19.47,0,0,0,.9-2.63,9.85,9.85,0,0,0,.33-2.4,3.07,3.07,0,0,0-.27-1.37,1.1,1.1,0,0,0-1.1-.55,2.54,2.54,0,0,0-1.52.61,7.49,7.49,0,0,0-1.51,1.63A14.35,14.35,0,0,0,135,70.16a15.08,15.08,0,0,0-.92,2.62,11.22,11.22,0,0,0-.33,2.64,2.4,2.4,0,0,0,.37,1.52A1.21,1.21,0,0,0,135.13,77.41Z"/><path class="cls-1" d="M146.55,78.18a2.71,2.71,0,0,1-2-.72,2.52,2.52,0,0,1-.74-1.91,9.69,9.69,0,0,1,.19-1.81,15.39,15.39,0,0,1,.55-2.06l4-12.19a7.72,7.72,0,0,0,.24-.88,5,5,0,0,0,.08-.85.36.36,0,0,0-.18-.29,2.15,2.15,0,0,0-.62-.25q-1-.26-1-.48a.3.3,0,0,1,.11-.26,1.24,1.24,0,0,1,.4-.19c.23-.09.54-.19.91-.31l1.14-.33c.38-.11.73-.19,1-.26a4,4,0,0,1,.59-.09c.34,0,.51.1.51.32a2.31,2.31,0,0,1-.05.49,5.18,5.18,0,0,1-.17.56c-.18.43-.41,1.06-.71,1.91s-.62,1.78-1,2.81-.7,2.08-1.07,3.14-.7,2-1,3-.55,1.65-.72,2.21c-.09.21-.08.34,0,.38s.22,0,.37-.22A20.93,20.93,0,0,1,151.09,66,5,5,0,0,1,154,64.67a2.33,2.33,0,0,1,1.7.67,2.31,2.31,0,0,1,.67,1.7,8.52,8.52,0,0,1-.59,3,14.33,14.33,0,0,1-1.6,3,15.09,15.09,0,0,1-2.29,2.61,11.26,11.26,0,0,1-2.64,1.82A6,6,0,0,1,146.55,78.18Zm.83-1a2.16,2.16,0,0,0,1.09-.45,8.72,8.72,0,0,0,1.45-1.23,16,16,0,0,0,1.53-1.77,16.27,16.27,0,0,0,1.4-2.26,14.63,14.63,0,0,0,1-2.37,6.22,6.22,0,0,0,.37-1.9,1.49,1.49,0,0,0-.27-.91.79.79,0,0,0-.66-.37A3.66,3.66,0,0,0,151,67a22.45,22.45,0,0,0-3,3.42,21.48,21.48,0,0,0-1.69,2.72,4.63,4.63,0,0,0-.64,1.86,2.37,2.37,0,0,0,.49,1.5A1.44,1.44,0,0,0,147.38,77.15Z"/><path class="cls-1" d="M158,78.46a.67.67,0,0,1-.35-.11,1.1,1.1,0,0,1-.32-.29.62.62,0,0,1-.12-.36,3,3,0,0,1,.2-1l.53-1.49,2.95-7.68a2,2,0,0,0,.14-.77c0-.23-.12-.35-.34-.35a3.72,3.72,0,0,0-.88.11,3.5,3.5,0,0,0-.65.24.34.34,0,0,1-.37,0,.29.29,0,0,1-.18-.3,1,1,0,0,1,.24-.58,3,3,0,0,1,.66-.61,3.55,3.55,0,0,1,.91-.48,3.4,3.4,0,0,1,1.11-.19c.59,0,1,.15,1.13.45a1.74,1.74,0,0,1,.07,1.2,12.18,12.18,0,0,1-.57,1.71l-1.43,3.62c-.09.15-.06.24.08.29a.23.23,0,0,0,.3-.1A33.55,33.55,0,0,1,163.68,68a17,17,0,0,1,2.42-2.56,3.34,3.34,0,0,1,1.86-.91,1.34,1.34,0,0,1,1.17.48,1.94,1.94,0,0,1,.33,1.12,3.64,3.64,0,0,1-.21,1.19,2.85,2.85,0,0,1-.57,1,1.09,1.09,0,0,1-.82.4.41.41,0,0,1-.38-.3,2,2,0,0,1-.13-.82,1.71,1.71,0,0,0-.13-.75.47.47,0,0,0-.48-.27,1.56,1.56,0,0,0-.85.42,8.22,8.22,0,0,0-1.32,1.44c-.24.32-.55.75-.93,1.31s-.8,1.17-1.24,1.84-.86,1.35-1.29,2.05-.8,1.32-1.12,1.9c-.58,1-1,1.77-1.23,2.24S158.26,78.46,158,78.46Z"/><path class="cls-1" d="M167.89,78.37a1.56,1.56,0,0,1-.76-.21,1.82,1.82,0,0,1-.63-.53,1.08,1.08,0,0,1-.24-.67,6.1,6.1,0,0,1,.77-2.67,18.19,18.19,0,0,1,2.14-3.2,28.4,28.4,0,0,1,3.17-3.25,35.76,35.76,0,0,1,2.82-2.26,3.43,3.43,0,0,1,1.6-.75,1.13,1.13,0,0,1,.89.45,5.8,5.8,0,0,1,.4.53s0,0,0,0a.16.16,0,0,0,.11-.05.37.37,0,0,0,.08-.14l.54-.93q.1-.17,0,0c.13-.21.26-.32.39-.32a1.88,1.88,0,0,1,.57.09,1.4,1.4,0,0,1,.47.26.43.43,0,0,1,.17.32,3.47,3.47,0,0,1-.22.8l-3.58,9.5c-.28.73-.14,1.09.41,1.09a2.53,2.53,0,0,0,1.39-.56,6,6,0,0,0,1.43-1.36l.14-.11a.3.3,0,0,1,.14,0,.19.19,0,0,1,.18.08.62.62,0,0,1,.05.27,2.16,2.16,0,0,1-.45.88,7.9,7.9,0,0,1-.93,1.14,7.49,7.49,0,0,1-1.8,1.28,3.85,3.85,0,0,1-1.68.45,1.28,1.28,0,0,1-.64-.19,1.75,1.75,0,0,1-.53-.48,1,1,0,0,1-.21-.58,1.66,1.66,0,0,1,.19-.74c-.08.2-.09.2,0,0s.21-.49.39-.89.38-.83.59-1.28.4-.84.54-1.19a1.16,1.16,0,0,0,.15-.52c0-.12-.08-.1-.21,0q-1.95,2.19-3.34,3.46a12,12,0,0,1-2.45,1.82A4.33,4.33,0,0,1,167.89,78.37Zm1.8-2a4.08,4.08,0,0,0,2.09-1.17,26.67,26.67,0,0,0,3.15-3.24,18.81,18.81,0,0,0,1.92-2.6,4,4,0,0,0,.71-1.76q0-.26-.42-.6a1.66,1.66,0,0,0-.41-.26,1.17,1.17,0,0,0-.39-.1,3.61,3.61,0,0,0-1.58.58,8.6,8.6,0,0,0-1.84,1.38,19,19,0,0,0-2,2.3,16.17,16.17,0,0,0-1.55,2.46,4.52,4.52,0,0,0-.59,1.92,1.19,1.19,0,0,0,.25.79A.85.85,0,0,0,169.69,76.35Z"/><path class="cls-2" d="M0,16.77V10.63a10.54,10.54,0,0,1,2.08-6.9A10,10,0,0,1,8.15.41v3a6,6,0,0,0-4,3.2,5.16,5.16,0,0,0-.43,2.47H8.3v7.66ZM22,3.44A5.82,5.82,0,0,0,18,6.7a4.54,4.54,0,0,0-.47,2.41H22.1v7.66H13.8V10.63A10.37,10.37,0,0,1,15.94,3.7,10.29,10.29,0,0,1,22,.41Z"/><path class="cls-3" d="M41.29,43.74H32.94V.82H46l7.81,33.74L61.53.82h12.9V43.74H66.08v-29c0-.84,0-2,0-3.51s0-2.67,0-3.48L58,43.74H49.3l-8.06-36q0,1.21,0,3.48c0,1.5,0,2.67,0,3.51Z"/><path class="cls-3" d="M107.89,34.91H92.08l-3,8.83H79.73L95.05.82h10.13l15.2,42.92h-9.72Zm-2.5-7.39L100,10.63,94.5,27.52Z"/><path class="cls-3" d="M156.11,40.53a17.46,17.46,0,0,1-12.29,4.4q-9.25,0-14.56-5.94T124,22.63q0-11.25,6-17.33A18,18,0,0,1,143.33,0q10.83,0,15.84,7.11a15.34,15.34,0,0,1,3,8h-9a12.19,12.19,0,0,0-2.24-4.66q-2.44-2.79-7.25-2.79A9,9,0,0,0,136,11.6q-2.82,4-2.82,11.17t3,10.82a9.43,9.43,0,0,0,7.59,3.6,8.67,8.67,0,0,0,7.19-3.09,13.47,13.47,0,0,0,2.27-5h8.88A19.21,19.21,0,0,1,156.11,40.53Z"/><path class="cls-3" d="M188.49,43.74H169V.82h20.85q7.89.11,11.18,4.57a10.87,10.87,0,0,1,2,6.55,9.58,9.58,0,0,1-2,6.32,10,10,0,0,1-3.26,2.44,9.59,9.59,0,0,1,5,3.79,11.39,11.39,0,0,1,1.67,6.29,12.51,12.51,0,0,1-1.92,6.84,11.92,11.92,0,0,1-7.94,5.54A30.6,30.6,0,0,1,188.49,43.74Zm4.26-27.08a4,4,0,0,0,1.74-3.76c0-2-.77-3.32-2.33-4A16.38,16.38,0,0,0,187,8.27H177.6v9.46h10.54A8.89,8.89,0,0,0,192.75,16.66Zm-4.46,8.18H177.6V36.28h10.54a10.43,10.43,0,0,0,4.4-.75c1.9-.94,2.86-2.72,2.86-5.36a4.61,4.61,0,0,0-2.77-4.6A11,11,0,0,0,188.29,24.84Z"/><path class="cls-3" d="M241.84,25H221V36h23.76v7.72H212.23V.82H243.7v7.6H221v9.11h20.85Z"/><path class="cls-3" d="M282.93.82v7.6H270.09V43.74h-9V8.42h-12.9V.82Z"/><path class="cls-3" d="M313.77,43.74V24.58H297V43.74h-8.88V.82H297V17.18h16.78V.82h8.91V43.74Z"/><path class="cls-2" d="M333.09,8.62V1h8.3V7.11A10.64,10.64,0,0,1,339.31,14a9.81,9.81,0,0,1-6.07,3.35V14.27a6,6,0,0,0,4-3.2,5,5,0,0,0,.47-2.45Zm20,5.27A9.7,9.7,0,0,1,347,17.33V14.27A5.79,5.79,0,0,0,351,11a6,6,0,0,0,.41-2.33h-4.54V1h8.27V7.11A10.84,10.84,0,0,1,353.1,13.89Z"/></g></g></svg>