<svg xmlns="http://www.w3.org/2000/svg" viewBox="0 0 222.89 44.43"><defs><style>.cls-1{fill:#008677;}.cls-2{fill:#fff;}</style></defs><g id="Capa_2" data-name="Capa 2"><g id="Capa_1-2" data-name="Capa 1"><path class="cls-1" d="M0,10.53V6.67A6.62,6.62,0,0,1,1.31,2.34,6.25,6.25,0,0,1,5.12.26v1.9a3.79,3.79,0,0,0-2.51,2,3.19,3.19,0,0,0-.27,1.55H5.21v4.81ZM13.78,2.16a3.66,3.66,0,0,0-2.48,2A2.84,2.84,0,0,0,11,5.72h2.87v4.81H8.66V6.67A6.47,6.47,0,0,1,10,2.32,6.38,6.38,0,0,1,13.78.26Z"/><path class="cls-2" d="M27.18,27.45H21.93V.51h8.19L35,21.7,39.88.51H48V27.45H42.73V9.23c0-.52,0-1.26,0-2.2s0-1.67,0-2.19l-5.1,22.61H32.2L27.14,4.84c0,.52,0,1.24,0,2.19s0,1.68,0,2.2Z"/><path class="cls-2" d="M69,21.91H59.05l-1.86,5.54H51.3L60.92.51h6.36l9.54,26.94H70.71ZM67.4,17.27,64,6.67l-3.47,10.6Z"/><path class="cls-2" d="M99.24,25.44a11,11,0,0,1-7.71,2.76,11.61,11.61,0,0,1-9.14-3.73q-3.33-3.73-3.33-10.27,0-7,3.79-10.87A11.26,11.26,0,0,1,91.22,0q6.8,0,9.94,4.46a9.67,9.67,0,0,1,1.87,5H97.4A7.69,7.69,0,0,0,96,6.56a5.71,5.71,0,0,0-4.55-1.75,5.66,5.66,0,0,0-4.85,2.47,11.92,11.92,0,0,0-1.77,7c0,3,.63,5.29,1.88,6.79a5.89,5.89,0,0,0,4.76,2.26A5.45,5.45,0,0,0,96,21.4a8.42,8.42,0,0,0,1.43-3.12H103A12.13,12.13,0,0,1,99.24,25.44Z"/><path class="cls-2" d="M119.57,27.45H107.36V.51h13.08q5,.08,7,2.87a6.84,6.84,0,0,1,1.25,4.11,6,6,0,0,1-1.25,4,6.48,6.48,0,0,1-2,1.54,6,6,0,0,1,3.11,2.37,7.14,7.14,0,0,1,1.05,4,7.83,7.83,0,0,1-1.2,4.29,7.52,7.52,0,0,1-1.92,2.12,7.62,7.62,0,0,1-3.06,1.36A19.24,19.24,0,0,1,119.57,27.45Zm2.66-17a2.49,2.49,0,0,0,1.1-2.35,2.41,2.41,0,0,0-1.46-2.49,10.35,10.35,0,0,0-3.22-.42h-5.92v5.94h6.62A5.39,5.39,0,0,0,122.23,10.45Zm-2.79,5.14h-6.71v7.18h6.62a6.47,6.47,0,0,0,2.76-.47,3.4,3.4,0,0,0,1.79-3.36,2.88,2.88,0,0,0-1.74-2.89A6.91,6.91,0,0,0,119.44,15.59Z"/><path class="cls-2" d="M153.05,15.68H140v6.93h14.92v4.84H134.46V.51h19.76V5.28H140V11h13.09Z"/><path class="cls-2" d="M178.84.51V5.28h-8.06V27.45h-5.67V5.28H157V.51Z"/><path class="cls-2" d="M198.2,27.45v-12H187.67v12h-5.58V.51h5.58V10.78H198.2V.51h5.59V27.45Z"/><path class="cls-1" d="M209.07,5.41V.6h5.21V4.46A6.67,6.67,0,0,1,213,8.77a6.14,6.14,0,0,1-3.81,2.11V9a3.8,3.8,0,0,0,2.49-2,3.09,3.09,0,0,0,.29-1.54Zm12.56,3.31a6.11,6.11,0,0,1-3.84,2.16V9a3.64,3.64,0,0,0,2.5-2.09,3.74,3.74,0,0,0,.26-1.46H217.7V.6h5.19V4.46A6.82,6.82,0,0,1,221.63,8.72Z"/><path class="cls-2" d="M17.74,41.39a.49.49,0,0,1-.2,0,.08.08,0,0,1-.06-.09c0-.05,0-.09.1-.12a1.26,1.26,0,0,1,.28-.07,1.65,1.65,0,0,0,.64-.25,1.08,1.08,0,0,0,.36-.57l1.45-4.73a.88.88,0,0,0,0-.7c-.09-.15-.31-.24-.67-.27l-.22-.06a.12.12,0,0,1-.05-.11s0-.07.1-.09a.86.86,0,0,1,.23,0H21l.47,0h.39a2.86,2.86,0,0,1,1.2.24,1.91,1.91,0,0,1,.8.68,1.94,1.94,0,0,1,.29,1.07,1.89,1.89,0,0,1-.24,1,2.62,2.62,0,0,1-.66.75,3.42,3.42,0,0,1-.95.49,3.67,3.67,0,0,1-1.1.17l-.28,0c-.12,0-.18-.05-.18-.11a.11.11,0,0,1,.08-.1l.17,0,.3-.05.3-.06a2.88,2.88,0,0,0,.83-.39,2.15,2.15,0,0,0,.59-.68,2.05,2.05,0,0,0,.22-1,1.75,1.75,0,0,0-.19-.83,1.42,1.42,0,0,0-.56-.58,1.76,1.76,0,0,0-.9-.22.25.25,0,0,0-.15,0,.66.66,0,0,0-.09.15l-.09.26-1.58,5.16a.83.83,0,0,0,0,.64.77.77,0,0,0,.54.3.56.56,0,0,1,.22.07.17.17,0,0,1,.05.12s0,.08-.1.09a.73.73,0,0,1-.22,0l-.45,0-.31,0h-.33a6.12,6.12,0,0,0-.66,0A4.22,4.22,0,0,1,17.74,41.39Z"/><path class="cls-2" d="M24.59,41.49a.86.86,0,0,1-.49-.17,1.27,1.27,0,0,1-.36-.46,1.34,1.34,0,0,1-.13-.59,3.25,3.25,0,0,1,.2-1.1,4.85,4.85,0,0,1,.55-1.12,3.54,3.54,0,0,1,.83-.85,1.66,1.66,0,0,1,1-.34,1,1,0,0,1,.84.37,1.39,1.39,0,0,1,.3.91,3.34,3.34,0,0,1-.2,1.06,4.36,4.36,0,0,1-.55,1.1,3.34,3.34,0,0,1-.87.85A1.93,1.93,0,0,1,24.59,41.49Zm.17-.33a.81.81,0,0,0,.53-.22,2.86,2.86,0,0,0,.51-.6,5.14,5.14,0,0,0,.43-.81,4.91,4.91,0,0,0,.3-.89,3.06,3.06,0,0,0,.12-.81,1,1,0,0,0-.1-.46.37.37,0,0,0-.37-.19.8.8,0,0,0-.51.21,2.48,2.48,0,0,0-.51.55,5.16,5.16,0,0,0-.44.77,5.51,5.51,0,0,0-.31.89,4.08,4.08,0,0,0-.11.89.89.89,0,0,0,.12.52A.43.43,0,0,0,24.76,41.16Z"/><path class="cls-2" d="M28,41.52a.19.19,0,0,1-.12,0,.31.31,0,0,1-.11-.09.22.22,0,0,1,0-.13.93.93,0,0,1,.07-.33c.05-.13.1-.3.18-.5l1-2.6a.63.63,0,0,0,.05-.26c0-.08,0-.12-.11-.12a1.54,1.54,0,0,0-.3,0,1,1,0,0,0-.22.08.13.13,0,0,1-.13,0,.1.1,0,0,1-.06-.1.32.32,0,0,1,.09-.2.72.72,0,0,1,.22-.2,1.24,1.24,0,0,1,.3-.17,1.21,1.21,0,0,1,.38-.06c.2,0,.33,0,.38.15a.56.56,0,0,1,0,.41,3.87,3.87,0,0,1-.19.58l-.48,1.22c0,.05,0,.08,0,.09s.09,0,.11,0a11.26,11.26,0,0,1,.87-1.3,5.87,5.87,0,0,1,.81-.87,1.17,1.17,0,0,1,.63-.3.46.46,0,0,1,.4.16.68.68,0,0,1,.11.38,1.16,1.16,0,0,1-.07.4,1,1,0,0,1-.2.34.35.35,0,0,1-.27.13.13.13,0,0,1-.13-.1.72.72,0,0,1,0-.28.58.58,0,0,0-.05-.25A.16.16,0,0,0,31,37.5a.5.5,0,0,0-.29.14,2.92,2.92,0,0,0-.44.49c-.08.1-.19.25-.32.44s-.27.39-.41.62-.3.46-.44.69-.27.45-.38.65-.33.59-.42.75S28.1,41.52,28,41.52Z"/><path class="cls-2" d="M35.56,41.49a.21.21,0,0,1-.2-.16A1,1,0,0,1,35.3,41a2.38,2.38,0,0,1,0-.46c.08-.4.16-.82.24-1.27s.15-.88.23-1.32.14-.85.2-1.23.1-.71.13-1a3.3,3.3,0,0,0,0-.66.33.33,0,0,0-.19-.28,1.78,1.78,0,0,0-.52-.14.53.53,0,0,1-.25-.08.15.15,0,0,1-.09-.14c0-.05,0-.09.12-.11a1.2,1.2,0,0,1,.28,0,3.46,3.46,0,0,1,.52,0c.2,0,.43,0,.71,0h1a.58.58,0,0,1,.21,0c.06,0,.08.05.08.1s0,.09-.14.13a1.37,1.37,0,0,1-.29.07,1.09,1.09,0,0,0-.39.1A.43.43,0,0,0,37,35a2.21,2.21,0,0,0-.12.53c-.1.67-.21,1.34-.32,2s-.21,1.34-.32,2c0,.25,0,.37,0,.37s.19-.12.39-.35l2.93-3.46a3,3,0,0,0,.41-.55.93.93,0,0,0,.11-.37.47.47,0,0,0-.16-.39,1.35,1.35,0,0,0-.57-.18.53.53,0,0,1-.25-.08.19.19,0,0,1-.08-.15s0-.08.13-.1a1.15,1.15,0,0,1,.26,0l.42,0,.52,0,.48,0,.39,0,.35,0,.34,0c.16,0,.25,0,.25.14a.16.16,0,0,1-.11.13.9.9,0,0,1-.29.09,1.27,1.27,0,0,0-.68.24,1,1,0,0,0-.22.54l-.61,4.15c0,.25,0,.37,0,.37s.19-.12.37-.36L43.53,36a4.13,4.13,0,0,0,.5-.78.41.41,0,0,0-.34-.64.61.61,0,0,1-.22-.07.13.13,0,0,1,0-.12s0-.09.1-.11a.85.85,0,0,1,.23,0H45a3.7,3.7,0,0,0,.53,0,2,2,0,0,1,.45,0,.41.41,0,0,1,.19,0,.12.12,0,0,1,.06.1s0,.1-.11.15a.7.7,0,0,1-.29.1,2.08,2.08,0,0,0-.64.25,2.58,2.58,0,0,0-.63.59l-4,4.85-.4.5c-.15.19-.28.34-.4.47s-.21.2-.26.2a.2.2,0,0,1-.2-.14.91.91,0,0,1,0-.35,4,4,0,0,1,.06-.45c0-.15.06-.29.09-.42.07-.44.14-.89.22-1.36l.24-1.4c.08-.47.16-.92.23-1.35l-3.57,4.27-.29.38-.29.39a3.43,3.43,0,0,1-.24.31Q35.61,41.49,35.56,41.49Z"/><path class="cls-2" d="M45.13,41.49a.41.41,0,0,1-.31-.12.35.35,0,0,1-.12-.25s0-.06,0-.09a.16.16,0,0,1,0-.08c.29-.6.54-1.16.74-1.69s.38-1,.54-1.39c0-.09,0-.13-.05-.13a.69.69,0,0,0-.21.06l-.33.15a2,2,0,0,0-.3.2.12.12,0,0,1-.11,0s-.06,0-.06-.08a.31.31,0,0,1,.08-.15,2.43,2.43,0,0,1,.23-.24l.35-.27a5,5,0,0,1,.45-.29,4.25,4.25,0,0,1,.52-.27.19.19,0,0,1,.19,0,.61.61,0,0,1,.16.16.22.22,0,0,1,0,.16l-1.32,3.12a.58.58,0,0,0-.06.17.78.78,0,0,0,0,.14.11.11,0,0,0,.06.11.23.23,0,0,0,.11,0,.59.59,0,0,0,.35-.14q.19-.15.42-.36l.42-.41s0,0,.05,0l0,0a.05.05,0,0,1,0,0,.86.86,0,0,1-.2.44,4.27,4.27,0,0,1-.52.53,3.76,3.76,0,0,1-.63.44A1.16,1.16,0,0,1,45.13,41.49Zm2.18-5.7a.32.32,0,0,1-.27-.13.46.46,0,0,1-.11-.29.69.69,0,0,1,.17-.46.54.54,0,0,1,.44-.2.33.33,0,0,1,.27.14.62.62,0,0,1,.09.32.6.6,0,0,1-.17.43A.52.52,0,0,1,47.31,35.79Z"/><path class="cls-2" d="M47.76,41.49a.52.52,0,0,1-.31-.15.45.45,0,0,1-.17-.33.32.32,0,0,1,0-.13L49.35,35a1.15,1.15,0,0,0,.08-.29,1.33,1.33,0,0,0,0-.28.21.21,0,0,0-.1-.18.53.53,0,0,0-.25-.12l-.18-.06s-.06-.06-.06-.08V34s0,0,0,0,0,0,0,0l.5-.11.55-.08a2.05,2.05,0,0,1,.34,0,.12.12,0,0,1,.09,0,.17.17,0,0,1,0,.12.44.44,0,0,1,0,.15,1.24,1.24,0,0,1,0,.16L48.2,40.36a1.54,1.54,0,0,0-.05.17c0,.06,0,.1,0,.15s0,.17.11.17a.66.66,0,0,0,.37-.17,2.7,2.7,0,0,0,.44-.4,4.82,4.82,0,0,0,.35-.42.8.8,0,0,1,.15-.17c.06-.06.1-.08.13-.08a0,0,0,0,1,.05,0v.11a.94.94,0,0,1-.14.45,2.37,2.37,0,0,1-.39.47,2.92,2.92,0,0,1-.51.42,3.41,3.41,0,0,1-.51.29A1.18,1.18,0,0,1,47.76,41.49Z"/><path class="cls-2" d="M50.53,41.49a.49.49,0,0,1-.31-.15.42.42,0,0,1-.17-.33.32.32,0,0,1,0-.13l2-5.85a1.15,1.15,0,0,0,.08-.29,1.33,1.33,0,0,0,0-.28.21.21,0,0,0-.1-.18.57.57,0,0,0-.26-.12l-.17-.06s-.06-.06-.06-.08V34l0,0a0,0,0,0,1,0,0l.5-.11.54-.08a2.3,2.3,0,0,1,.34,0,.13.13,0,0,1,.1,0,.17.17,0,0,1,0,.12.41.41,0,0,1,0,.15c0,.05,0,.1,0,.16L51,40.36a.64.64,0,0,0,0,.17.81.81,0,0,0,0,.15c0,.11,0,.17.11.17a.69.69,0,0,0,.37-.17,2.7,2.7,0,0,0,.44-.4c.14-.16.26-.3.35-.42a.8.8,0,0,1,.15-.17c.06-.06.1-.08.13-.08a0,0,0,0,1,0,0v.11a.94.94,0,0,1-.14.45,2.37,2.37,0,0,1-.39.47,3.35,3.35,0,0,1-.51.42,3,3,0,0,1-.52.29A1.09,1.09,0,0,1,50.53,41.49Z"/><path class="cls-2" d="M53.57,41.49a.41.41,0,0,1-.3-.12.35.35,0,0,1-.12-.25V41l0-.08a18.06,18.06,0,0,0,.75-1.69c.2-.53.38-1,.54-1.39,0-.09,0-.13-.06-.13l-.21.06-.33.15c-.11.07-.21.13-.3.2a.11.11,0,0,1-.11,0,.09.09,0,0,1-.05-.08.31.31,0,0,1,.08-.15,1.64,1.64,0,0,1,.23-.24,4.4,4.4,0,0,1,.35-.27,5,5,0,0,1,.45-.29,4.11,4.11,0,0,1,.51-.27.21.21,0,0,1,.2,0,.75.75,0,0,1,.15.16.22.22,0,0,1,0,.16L54.1,40.33a.58.58,0,0,0-.06.17.71.71,0,0,0,0,.14.12.12,0,0,0,0,.11.25.25,0,0,0,.12,0,.56.56,0,0,0,.34-.14q.2-.15.42-.36l.43-.41a.05.05,0,0,1,0,0,.05.05,0,0,1,0,0s0,0,0,0a.81.81,0,0,1-.21.44,5,5,0,0,1-.51.53,4.3,4.3,0,0,1-.64.44A1.1,1.1,0,0,1,53.57,41.49Zm2.19-5.7a.32.32,0,0,1-.27-.13.41.41,0,0,1-.11-.29.64.64,0,0,1,.17-.46.53.53,0,0,1,.43-.2.31.31,0,0,1,.27.14.55.55,0,0,1,.1.32.65.65,0,0,1-.17.43A.55.55,0,0,1,55.76,35.79Z"/><path class="cls-2" d="M56.36,41.49a.63.63,0,0,1-.26-.07.63.63,0,0,1-.21-.18.4.4,0,0,1-.08-.23,2.08,2.08,0,0,1,.26-.9A6,6,0,0,1,56.79,39a9.2,9.2,0,0,1,1.07-1.1,10.59,10.59,0,0,1,1-.76,1.14,1.14,0,0,1,.54-.26.38.38,0,0,1,.3.16c.1.13.15.18.13.17s0,0,0,0l0,0a.08.08,0,0,0,0-.05l.19-.31s0,0,0,0,.08-.11.13-.11a.63.63,0,0,1,.19,0,.35.35,0,0,1,.16.09.15.15,0,0,1,.06.11,1.69,1.69,0,0,1-.08.27l-1.21,3.21c-.09.24,0,.37.14.37a.93.93,0,0,0,.47-.19,1.91,1.91,0,0,0,.48-.46l0,0,0,0a.06.06,0,0,1,.06,0,.2.2,0,0,1,0,.09.77.77,0,0,1-.15.3,2.55,2.55,0,0,1-.32.38,2.4,2.4,0,0,1-.61.44,1.28,1.28,0,0,1-.57.15.35.35,0,0,1-.21-.07.46.46,0,0,1-.18-.16.3.3,0,0,1-.07-.19.57.57,0,0,1,.06-.25h0a2.7,2.7,0,0,1,.13-.3l.2-.44.18-.4a.41.41,0,0,0,0-.18s0,0-.07,0c-.44.49-.82.88-1.13,1.17a3.67,3.67,0,0,1-.83.61A1.4,1.4,0,0,1,56.36,41.49Zm.61-.68a1.31,1.31,0,0,0,.7-.4,8.74,8.74,0,0,0,1.07-1.1,6.11,6.11,0,0,0,.65-.87,1.39,1.39,0,0,0,.24-.6c0-.05-.05-.12-.14-.2a.55.55,0,0,0-.14-.09l-.13,0a1.2,1.2,0,0,0-.54.19,3.16,3.16,0,0,0-.62.47,5.76,5.76,0,0,0-.68.78,5.7,5.7,0,0,0-.53.83,1.61,1.61,0,0,0-.2.65.36.36,0,0,0,.09.26A.28.28,0,0,0,57,40.81Z"/><path class="cls-2" d="M61.62,41.52a.14.14,0,0,1-.1-.05.54.54,0,0,1-.07-.13.39.39,0,0,1,0-.14,1.47,1.47,0,0,1,.07-.26l.18-.51,1-2.61a.33.33,0,0,0,0-.24.21.21,0,0,0-.19-.09.86.86,0,0,0-.34.07,1.35,1.35,0,0,0-.44.42s-.06.05-.09,0-.06,0-.07-.08a1.49,1.49,0,0,1,0-.17c0-.06,0-.13.07-.21s.07-.12.09-.16a1.65,1.65,0,0,1,.45-.38,1.32,1.32,0,0,1,.62-.16,1,1,0,0,1,.3,0,.36.36,0,0,1,.22.18.4.4,0,0,1,0,.35L62.68,39c0,.06,0,.08,0,.09a.07.07,0,0,0,.08,0,10.29,10.29,0,0,1,.9-1.21,3.53,3.53,0,0,1,.82-.76,1.38,1.38,0,0,1,.74-.26.63.63,0,0,1,.37.12.62.62,0,0,1,.23.35,1,1,0,0,1-.06.58L65.38,39c0,.06,0,.08,0,.09a.07.07,0,0,0,.08,0,8.51,8.51,0,0,1,.89-1.24,3.48,3.48,0,0,1,.85-.74,1.42,1.42,0,0,1,.75-.25.56.56,0,0,1,.37.13.6.6,0,0,1,.21.38,1.13,1.13,0,0,1-.1.64l-.93,2.4c-.11.26-.09.39,0,.39a.61.61,0,0,0,.32-.12,4.5,4.5,0,0,0,.37-.28l.33-.3.19-.18a0,0,0,0,1,0,0h0l.06,0a.12.12,0,0,1,0,.07.67.67,0,0,1,0,.18.83.83,0,0,1-.16.21,7.08,7.08,0,0,1-.8.74,1.53,1.53,0,0,1-1,.35.34.34,0,0,1-.18-.07.45.45,0,0,1-.14-.19.33.33,0,0,1,0-.24l1.26-3.23a.34.34,0,0,0,0-.33.33.33,0,0,0-.21-.12,1,1,0,0,0-.46.18,3,3,0,0,0-.65.64c-.11.13-.26.34-.45.61s-.39.57-.59.88-.37.61-.51.87a6.45,6.45,0,0,1-.34.58,2.17,2.17,0,0,1-.3.34.39.39,0,0,1-.21.11.14.14,0,0,1-.1-.05.41.41,0,0,1-.07-.11.31.31,0,0,1,0-.13A2.08,2.08,0,0,1,64,41l.18-.52,1-2.7c.06-.17.05-.28,0-.35a.44.44,0,0,0-.19-.1.77.77,0,0,0-.46.18,3,3,0,0,0-.65.64,4.51,4.51,0,0,0-.33.44c-.13.18-.27.39-.41.62s-.3.46-.44.69-.26.45-.37.64c-.19.35-.33.61-.43.78S61.7,41.52,61.62,41.52Z"/><path class="cls-2" d="M73.14,41.5a3.51,3.51,0,0,1-.55,0,2.36,2.36,0,0,1-.56-.16l-.23-.09-.13,0-.11,0-.11,0-.12.07a.16.16,0,0,1-.1,0,.26.26,0,0,1-.12-.07.21.21,0,0,1-.09-.14,1.37,1.37,0,0,1,.1-.29,5.62,5.62,0,0,0,.22-.58,3,3,0,0,0,.18-.77c0-.15.08-.22.17-.22a.11.11,0,0,1,.11.1,1.38,1.38,0,0,1,0,.32,2,2,0,0,0,.14.75,1.14,1.14,0,0,0,.42.54,1.28,1.28,0,0,0,.73.19,1.8,1.8,0,0,0,1.17-.39,1.35,1.35,0,0,0,.49-1.12,1.46,1.46,0,0,0-.09-.52,1.61,1.61,0,0,0-.27-.49,5.31,5.31,0,0,0-.54-.58,5.85,5.85,0,0,1-.8-.87,1.8,1.8,0,0,1-.33-1.08,1.74,1.74,0,0,1,.3-1,2,2,0,0,1,.81-.7A2.55,2.55,0,0,1,75,34.16l.37,0,.38.1.36.12a.66.66,0,0,0,.22.06.46.46,0,0,0,.21,0l.09,0,.09,0c.06,0,.1,0,.11.07a.23.23,0,0,1,0,.11.92.92,0,0,1-.07.13,2.7,2.7,0,0,0-.16.42,7.25,7.25,0,0,0-.18.86.61.61,0,0,1-.08.26q-.06.09-.09.09a.1.1,0,0,1-.1-.08.6.6,0,0,1,0-.2,1.73,1.73,0,0,0-.35-1.16,1.16,1.16,0,0,0-.92-.39,1.22,1.22,0,0,0-.69.21,1.49,1.49,0,0,0-.51.52,1.32,1.32,0,0,0-.18.67,1.47,1.47,0,0,0,.1.54,1.71,1.71,0,0,0,.32.54,4.66,4.66,0,0,0,.59.62,5.71,5.71,0,0,1,.82.91,1.5,1.5,0,0,1,.28.87,2.23,2.23,0,0,1-.28,1.08,2.16,2.16,0,0,1-.83.78A2.87,2.87,0,0,1,73.14,41.5Z"/><path class="cls-2" d="M76.67,41.53a.13.13,0,0,1-.1,0,.24.24,0,0,1-.06-.11.31.31,0,0,1,0-.13,1.65,1.65,0,0,1,0-.32c0-.11.06-.25.11-.4l1.52-5.23c0-.12.07-.25.11-.4a2,2,0,0,0,0-.33.17.17,0,0,0-.13-.16l-.27-.1-.13-.05s-.06,0-.06-.07a.11.11,0,0,1,0-.08s.07,0,.15-.08l.24-.09.34-.11.32-.1.2,0h.12s.07,0,.07.1a.61.61,0,0,1,0,.15,1,1,0,0,1,0,.14l-1.47,5.08s0,.08,0,.08a.07.07,0,0,0,.06,0,10.06,10.06,0,0,1,1-1.25,6,6,0,0,1,1-.86,1.51,1.51,0,0,1,.78-.32A.66.66,0,0,1,81,37a.84.84,0,0,1,.19.55,3.89,3.89,0,0,1-.2,1.17,5.68,5.68,0,0,1-.53,1.18,4.58,4.58,0,0,1-.7,1,1.81,1.81,0,0,1-.19.17,1.84,1.84,0,0,1-.31.2,2.26,2.26,0,0,1-.35.17,1.09,1.09,0,0,1-.33.07.32.32,0,0,1-.18-.07.64.64,0,0,1-.17-.16.27.27,0,0,1-.07-.17.38.38,0,0,1,0-.13.47.47,0,0,1,.11-.13.22.22,0,0,1,.13-.06.43.43,0,0,1,.17,0l.12.09.13.1A.29.29,0,0,0,79,41a.55.55,0,0,0,.38-.21,3,3,0,0,0,.4-.57,5.21,5.21,0,0,0,.34-.79,6.46,6.46,0,0,0,.24-.86,3.92,3.92,0,0,0,.09-.8.61.61,0,0,0-.1-.38.37.37,0,0,0-.31-.14.91.91,0,0,0-.53.24,3.9,3.9,0,0,0-.62.61c-.21.25-.42.52-.62.81s-.39.57-.55.84-.3.51-.4.7l-.41.78C76.84,41.45,76.76,41.53,76.67,41.53Z"/><path class="cls-2" d="M81.66,41.49a.68.68,0,0,1-.26-.07.91.91,0,0,1-.21-.18.4.4,0,0,1-.08-.23,2.08,2.08,0,0,1,.26-.9A6.63,6.63,0,0,1,82.1,39a8.49,8.49,0,0,1,1.07-1.1,10.71,10.71,0,0,1,1-.76,1.14,1.14,0,0,1,.54-.26.35.35,0,0,1,.3.16l.14.17s0,0,0,0l0,0,0-.05.18-.31s0,0,0,0,.09-.11.13-.11a.69.69,0,0,1,.2,0,.38.38,0,0,1,.15.09.15.15,0,0,1,.06.11,1.25,1.25,0,0,1-.07.27l-1.22,3.21c-.09.24,0,.37.15.37a1,1,0,0,0,.47-.19,2.32,2.32,0,0,0,.48-.46.1.1,0,0,1,0,0l0,0a.06.06,0,0,1,.06,0,.2.2,0,0,1,0,.09.77.77,0,0,1-.15.3,2.53,2.53,0,0,1-.31.38,2.63,2.63,0,0,1-.62.44,1.27,1.27,0,0,1-.56.15.36.36,0,0,1-.22-.07.55.55,0,0,1-.18-.16.3.3,0,0,1-.07-.19.47.47,0,0,1,.07-.25c0,.06,0,.06,0,0l.13-.3.2-.44.18-.4a.3.3,0,0,0,.05-.18s0,0-.07,0c-.44.49-.81.88-1.13,1.17a3.89,3.89,0,0,1-.82.61A1.44,1.44,0,0,1,81.66,41.49Zm.61-.68a1.36,1.36,0,0,0,.71-.4A8.75,8.75,0,0,0,84,39.31a5.43,5.43,0,0,0,.65-.87,1.39,1.39,0,0,0,.24-.6c0-.05-.05-.12-.14-.2a.42.42,0,0,0-.14-.09l-.13,0a1.2,1.2,0,0,0-.54.19,3.49,3.49,0,0,0-.62.47,6.56,6.56,0,0,0-.68.78,4.87,4.87,0,0,0-.52.83,1.46,1.46,0,0,0-.2.65.4.4,0,0,0,.08.26A.3.3,0,0,0,82.27,40.81Z"/><path class="cls-2" d="M89.23,41.56a.59.59,0,0,1-.41-.13,1.16,1.16,0,0,1-.27-.4l-.41-1.14a.92.92,0,0,0-.19-.33.37.37,0,0,0-.31-.15s-.1.06-.15.17-.1.21-.14.29l-.1.25-.16.4c0,.14-.11.27-.15.39a1.4,1.4,0,0,1-.1.25c0,.12-.08.2-.1.26a.19.19,0,0,1-.18.08.32.32,0,0,1-.18-.07.22.22,0,0,1-.1-.17s0-.09,0-.17l.07-.28,1.8-5.6a1.64,1.64,0,0,0,.09-.35,1.23,1.23,0,0,0,0-.27c0-.09-.08-.16-.24-.22l-.19-.08c-.06,0-.09,0-.09-.07a.14.14,0,0,1,0-.07.08.08,0,0,1,0,0l.3-.13.36-.13.34-.1.22,0h.11s.06,0,.06.1v.13a1,1,0,0,0,0,.12L87.73,38.5c0,.08,0,.12,0,.11a.24.24,0,0,0,.09-.06,5,5,0,0,1,.78-.9,3.91,3.91,0,0,1,.84-.59,1.76,1.76,0,0,1,.78-.21.88.88,0,0,1,.43.12.39.39,0,0,1,.21.37,1,1,0,0,1-.24.59,3.7,3.7,0,0,1-.59.6,6.54,6.54,0,0,1-.72.49,2.87,2.87,0,0,1-.66.28.08.08,0,0,0,0,.12l.49,1.18a1.37,1.37,0,0,0,.15.21.28.28,0,0,0,.21.11.61.61,0,0,0,.41-.2,2.06,2.06,0,0,0,.35-.43q0-.1.09-.12a.12.12,0,0,1,.08,0s0,0,0,0a.16.16,0,0,1,0,.09.81.81,0,0,1-.14.39,3.24,3.24,0,0,1-.35.42,2.46,2.46,0,0,1-.41.34A.61.61,0,0,1,89.23,41.56ZM88.1,39.14a1.65,1.65,0,0,0,.69-.16,3.34,3.34,0,0,0,.65-.4,2.83,2.83,0,0,0,.49-.49.79.79,0,0,0,.18-.43.3.3,0,0,0-.1-.25.4.4,0,0,0-.29-.1.92.92,0,0,0-.52.21,3.77,3.77,0,0,0-.58.5,6.66,6.66,0,0,0-.47.56A.81.81,0,0,0,88,39a.27.27,0,0,0,0,.12A.11.11,0,0,0,88.1,39.14Z"/><path class="cls-2" d="M92,41.5a.82.82,0,0,1-.46-.17,1.61,1.61,0,0,1-.38-.44,1.06,1.06,0,0,1-.15-.52,3.33,3.33,0,0,1,.22-1.15,4.64,4.64,0,0,1,.61-1.14,3.57,3.57,0,0,1,.9-.88,1.94,1.94,0,0,1,1.09-.34.94.94,0,0,1,.59.16.5.5,0,0,1,.21.43.89.89,0,0,1-.21.59,1.86,1.86,0,0,1-.57.43,5.2,5.2,0,0,1-.79.29c-.29.08-.59.15-.89.21a.29.29,0,0,0-.11,0,.14.14,0,0,0-.06.08c-.05.16-.1.33-.15.52a2,2,0,0,0-.07.53,1,1,0,0,0,.14.58.49.49,0,0,0,.43.21,1.1,1.1,0,0,0,.66-.2,2.48,2.48,0,0,0,.44-.39.29.29,0,0,1,.2-.12c.07,0,.1,0,.1.11v0a.06.06,0,0,1,0,0,2.88,2.88,0,0,1-.48.6,2,2,0,0,1-.58.36A1.67,1.67,0,0,1,92,41.5Zm.24-2.78a1.8,1.8,0,0,0,.41-.07,2.82,2.82,0,0,0,.6-.23,1.74,1.74,0,0,0,.53-.39.75.75,0,0,0,.22-.55.41.41,0,0,0-.07-.25.25.25,0,0,0-.22-.1.85.85,0,0,0-.49.19,3,3,0,0,0-.5.45,4.28,4.28,0,0,0-.4.52.82.82,0,0,0-.15.37S92.2,38.72,92.25,38.72Z"/><path class="cls-2" d="M94.67,41.49a.66.66,0,0,1-.41-.14.42.42,0,0,1-.17-.34.56.56,0,0,1,.11-.37c.08-.08.14-.12.19-.12a.37.37,0,0,1,.16,0l.18.15.26.17a.87.87,0,0,0,.39.08.56.56,0,0,0,.46-.21.68.68,0,0,0,.18-.45,1.59,1.59,0,0,0-.08-.51,2.38,2.38,0,0,0-.23-.55,5.23,5.23,0,0,1-.23-.49,1.17,1.17,0,0,1-.09-.4,1.14,1.14,0,0,1,.16-.59,2.13,2.13,0,0,1,.42-.48,2.67,2.67,0,0,1,.48-.32,1,1,0,0,1,.37-.11.63.63,0,0,1,.29.08,1.11,1.11,0,0,1,.23.19.26.26,0,0,1,.09.17.29.29,0,0,1-.06.16,1.29,1.29,0,0,1-.16.17.21.21,0,0,1-.15.07.15.15,0,0,1-.11-.05l-.11-.12-.16-.12a.54.54,0,0,0-.24,0,.43.43,0,0,0-.31.14.61.61,0,0,0-.13.39,1,1,0,0,0,.06.27c0,.12.09.25.14.38l.16.34a3.3,3.3,0,0,1,.22.55,1.91,1.91,0,0,1,.1.58,1,1,0,0,1-.18.59,1.88,1.88,0,0,1-.5.47,2.29,2.29,0,0,1-.65.31A2.41,2.41,0,0,1,94.67,41.49Z"/><path class="cls-2" d="M96.06,44.43l-.12,0s-.06,0-.06-.08,0-.1.12-.14a.44.44,0,0,1,.21-.07,1.26,1.26,0,0,0,.36-.12.56.56,0,0,0,.2-.28l2.09-5.83a1.12,1.12,0,0,0,.06-.23s0-.08,0-.1a.23.23,0,0,0-.15,0l-.45.09-.42.16a.17.17,0,0,1-.15,0,.09.09,0,0,1-.07-.09.2.2,0,0,1,0-.15l.11-.08.5-.24a3.85,3.85,0,0,1,.75-.26.26.26,0,0,0,.13-.06.23.23,0,0,0,.07-.11,3.51,3.51,0,0,1,.28-.74.41.41,0,0,1,.37-.22.21.21,0,0,1,.15.05.14.14,0,0,1,0,.15l-.18.63c0,.07,0,.12,0,.15s0,0,.06,0l.26,0h.22a1.7,1.7,0,0,1,.85.18,1,1,0,0,1,.43.48,1.92,1.92,0,0,1,.12.69,3,3,0,0,1-.23,1.09,4.57,4.57,0,0,1-.65,1.07,3.47,3.47,0,0,1-.91.81,1.92,1.92,0,0,1-1,.32.43.43,0,0,1-.22-.07l-.22-.13c-.07,0-.12,0-.16,0s-.08.09-.14.23l-.71,2.11a.31.31,0,0,0,.05.34.64.64,0,0,0,.39.13.79.79,0,0,1,.22,0c.07,0,.11.06.11.11s0,.08-.1.1l-.21,0h-.9l-.53.06Zm3.17-3.31a.89.89,0,0,0,.56-.28,3.54,3.54,0,0,0,.6-.7,4.7,4.7,0,0,0,.47-.92,2.48,2.48,0,0,0,.19-.92,1.17,1.17,0,0,0-.21-.82.86.86,0,0,0-.61-.23H100l-.22,0-1,2.92a1,1,0,0,0-.07.36.67.67,0,0,0,0,.29.49.49,0,0,0,.16.21A.47.47,0,0,0,99.23,41.12Z"/><path class="cls-2" d="M103,41.5a.77.77,0,0,1-.46-.17,1.49,1.49,0,0,1-.39-.44,1.06,1.06,0,0,1-.15-.52,3.33,3.33,0,0,1,.22-1.15,4.64,4.64,0,0,1,.61-1.14,3.45,3.45,0,0,1,.91-.88,1.89,1.89,0,0,1,1.08-.34.92.92,0,0,1,.59.16.5.5,0,0,1,.21.43.89.89,0,0,1-.21.59,1.86,1.86,0,0,1-.57.43,4.83,4.83,0,0,1-.79.29c-.29.08-.59.15-.89.21a.29.29,0,0,0-.11,0,.1.1,0,0,0,0,.08,5.36,5.36,0,0,0-.16.52,2,2,0,0,0-.07.53,1.06,1.06,0,0,0,.14.58.49.49,0,0,0,.43.21,1.1,1.1,0,0,0,.66-.2,2.48,2.48,0,0,0,.44-.39c.08-.08.14-.12.2-.12a.1.1,0,0,1,.11.11v0s0,0,0,0a3.28,3.28,0,0,1-.49.6,1.87,1.87,0,0,1-.58.36A1.65,1.65,0,0,1,103,41.5Zm.23-2.78a1.8,1.8,0,0,0,.41-.07,2.82,2.82,0,0,0,.6-.23,1.62,1.62,0,0,0,.53-.39.76.76,0,0,0,.23-.55.41.41,0,0,0-.08-.25.25.25,0,0,0-.22-.1.85.85,0,0,0-.49.19,4.15,4.15,0,0,0-.5.45,4.28,4.28,0,0,0-.4.52.82.82,0,0,0-.15.37S103.13,38.72,103.18,38.72Z"/><path class="cls-2" d="M105.81,41.49a.63.63,0,0,1-.26-.07.63.63,0,0,1-.21-.18.4.4,0,0,1-.08-.23,2.08,2.08,0,0,1,.26-.9,6,6,0,0,1,.72-1.08,9.2,9.2,0,0,1,1.07-1.1,10.59,10.59,0,0,1,1-.76,1.14,1.14,0,0,1,.54-.26.38.38,0,0,1,.3.16l.13.17s0,0,0,0l0,0a.08.08,0,0,0,0-.05l.19-.31s0,0,0,0,.08-.11.13-.11a.63.63,0,0,1,.19,0,.35.35,0,0,1,.16.09A.15.15,0,0,1,110,37a1.69,1.69,0,0,1-.08.27l-1.21,3.21c-.09.24,0,.37.14.37a.93.93,0,0,0,.47-.19,1.91,1.91,0,0,0,.48-.46l0,0,.05,0a.06.06,0,0,1,.06,0,.2.2,0,0,1,0,.09.71.71,0,0,1-.16.3,2,2,0,0,1-.31.38,2.4,2.4,0,0,1-.61.44,1.31,1.31,0,0,1-.57.15.35.35,0,0,1-.21-.07.4.4,0,0,1-.18-.16.3.3,0,0,1-.07-.19.57.57,0,0,1,.06-.25h0a2.7,2.7,0,0,1,.13-.3c.06-.14.12-.29.2-.44l.18-.4a.41.41,0,0,0,0-.18s0,0-.07,0c-.44.49-.82.88-1.13,1.17a3.67,3.67,0,0,1-.83.61A1.4,1.4,0,0,1,105.81,41.49Zm.61-.68a1.34,1.34,0,0,0,.7-.4,8.74,8.74,0,0,0,1.07-1.1,6.11,6.11,0,0,0,.65-.87,1.39,1.39,0,0,0,.24-.6c0-.05,0-.12-.14-.2a.55.55,0,0,0-.14-.09l-.13,0a1.2,1.2,0,0,0-.54.19,3.16,3.16,0,0,0-.62.47,5.76,5.76,0,0,0-.68.78,5.7,5.7,0,0,0-.53.83,1.61,1.61,0,0,0-.2.65.36.36,0,0,0,.09.26A.28.28,0,0,0,106.42,40.81Z"/><path class="cls-2" d="M110.9,41.52a.19.19,0,0,1-.11,0,.24.24,0,0,1-.11-.09.24.24,0,0,1-.05-.13,1.22,1.22,0,0,1,.07-.33l.18-.5,1-2.6a.85.85,0,0,0,.05-.26q0-.12-.12-.12a1.35,1.35,0,0,0-.29,0,1.18,1.18,0,0,0-.23.08.11.11,0,0,1-.12,0,.1.1,0,0,1-.06-.1.37.37,0,0,1,.08-.2.86.86,0,0,1,.22-.2,1.31,1.31,0,0,1,.31-.17,1.15,1.15,0,0,1,.37-.06c.21,0,.33,0,.39.15a.61.61,0,0,1,0,.41,3.87,3.87,0,0,1-.19.58l-.49,1.22q0,.08,0,.09c.05,0,.08,0,.1,0a11.26,11.26,0,0,1,.87-1.3,6.45,6.45,0,0,1,.82-.87,1.11,1.11,0,0,1,.63-.3.44.44,0,0,1,.39.16.62.62,0,0,1,.12.38,1.46,1.46,0,0,1-.07.4,1.13,1.13,0,0,1-.2.34.35.35,0,0,1-.28.13.12.12,0,0,1-.12-.1.7.7,0,0,1,0-.28.6.6,0,0,0,0-.25.16.16,0,0,0-.16-.09.47.47,0,0,0-.29.14,2.51,2.51,0,0,0-.45.49c-.08.1-.18.25-.31.44l-.42.62-.44.69c-.14.24-.27.45-.38.65s-.33.59-.41.75S111,41.52,110.9,41.52Z"/><path class="cls-2" d="M115.34,41.5a.79.79,0,0,1-.46-.17,1.65,1.65,0,0,1-.39-.44,1.06,1.06,0,0,1-.15-.52,3.58,3.58,0,0,1,.22-1.15,4.68,4.68,0,0,1,.62-1.14,3.57,3.57,0,0,1,.9-.88,1.9,1.9,0,0,1,1.09-.34.91.91,0,0,1,.58.16.49.49,0,0,1,.22.43.85.85,0,0,1-.22.59,1.93,1.93,0,0,1-.56.43,5.34,5.34,0,0,1-.8.29c-.29.08-.59.15-.89.21,0,0-.08,0-.1,0s-.05,0-.06.08-.1.33-.15.52a2,2,0,0,0-.08.53,1,1,0,0,0,.15.58.47.47,0,0,0,.42.21,1.1,1.1,0,0,0,.66-.2,3,3,0,0,0,.45-.39.27.27,0,0,1,.19-.12.1.1,0,0,1,.11.11v0s0,0,0,0a3.28,3.28,0,0,1-.49.6,1.87,1.87,0,0,1-.58.36A1.59,1.59,0,0,1,115.34,41.5Zm.24-2.78a1.82,1.82,0,0,0,.4-.07,2.82,2.82,0,0,0,.6-.23,1.78,1.78,0,0,0,.54-.39.8.8,0,0,0,.22-.55.41.41,0,0,0-.08-.25.24.24,0,0,0-.21-.1.85.85,0,0,0-.5.19,4.15,4.15,0,0,0-.5.45,3.35,3.35,0,0,0-.39.52.76.76,0,0,0-.16.37S115.53,38.72,115.58,38.72Z"/></g></g></svg>