<svg xmlns="http://www.w3.org/2000/svg" viewBox="0 0 187.7 76.41"><defs><style>.cls-1{fill:#008677;}.cls-2{fill:#fff;}</style></defs><g id="Capa_2" data-name="Capa 2"><g id="Capa_1-2" data-name="Capa 1"><path class="cls-1" d="M0,10.84V7A6.62,6.62,0,0,1,1.31,2.65,6.3,6.3,0,0,1,5.12.57v1.9a3.79,3.79,0,0,0-2.51,2A3.21,3.21,0,0,0,2.34,6H5.21v4.81ZM13.78,2.47a3.69,3.69,0,0,0-2.48,2A2.84,2.84,0,0,0,11,6h2.87v4.81H8.66V7A6.47,6.47,0,0,1,10,2.63,6.43,6.43,0,0,1,13.78.57Z"/><path class="cls-1" d="M173.88,37.39v-4.8h5.21v3.85a6.7,6.7,0,0,1-1.3,4.32,6.23,6.23,0,0,1-3.82,2.1V40.94a3.8,3.8,0,0,0,2.49-2,3.07,3.07,0,0,0,.29-1.54Zm12.56,3.31a6.06,6.06,0,0,1-3.84,2.16V40.94a3.65,3.65,0,0,0,2.51-2.08,3.8,3.8,0,0,0,.25-1.47h-2.85v-4.8h5.19v3.85A6.79,6.79,0,0,1,186.44,40.7Z"/><path class="cls-2" d="M33.46,17.2H27.65V27.76h-5.5V.82H35.36a12.26,12.26,0,0,1,4.36.7A6.74,6.74,0,0,1,42.31,3.4,8.4,8.4,0,0,1,43.7,5.67a7.36,7.36,0,0,1,.51,2.83,8,8,0,0,1-1,3.77A5.42,5.42,0,0,1,40,14.9,5,5,0,0,1,42.68,17a8.82,8.82,0,0,1,.78,4.21v1.81a13.46,13.46,0,0,0,.15,2.5,2.21,2.21,0,0,0,1,1.54v.67h-6.2c-.17-.59-.29-1.08-.36-1.44A12.77,12.77,0,0,1,37.83,24l0-2.51c0-1.71-.33-2.86-.94-3.43A5,5,0,0,0,33.46,17.2Zm3.42-4.9a3,3,0,0,0,1.68-3c0-1.64-.54-2.73-1.62-3.29a6.13,6.13,0,0,0-2.75-.48H27.65v7.24H34A7.12,7.12,0,0,0,36.88,12.3Z"/><path class="cls-2" d="M59.47,28.51q-5.78,0-8.83-3.14-4.08-3.86-4.09-11.11,0-7.41,4.09-11.12Q53.7,0,59.47,0c3.85,0,6.8,1.05,8.83,3.14q4.08,3.72,4.08,11.12,0,7.24-4.08,11.11C66.27,27.46,63.32,28.51,59.47,28.51Zm5.32-7.24q2-2.46,2-7c0-3-.66-5.36-2-7a7,7,0,0,0-10.64,0q-2,2.46-2,7t2,7a7,7,0,0,0,10.65,0Z"/><path class="cls-2" d="M81.83,27.76H76.58V.82h8.19L89.67,22,94.53.82h8.1V27.76H97.38V9.54c0-.52,0-1.26,0-2.2s0-1.67,0-2.19l-5.1,22.61H86.85L81.79,5.15c0,.52,0,1.24,0,2.19s0,1.68,0,2.2Z"/><path class="cls-2" d="M126.6,16H113.52v6.93h14.91v4.84H108V.82h19.75V5.59H113.52v5.72H126.6Z"/><path class="cls-2" d="M143.24,28.51q-5.78,0-8.83-3.14-4.09-3.86-4.09-11.11,0-7.41,4.09-11.12Q137.47,0,143.24,0t8.83,3.14q4.06,3.72,4.07,11.12,0,7.24-4.07,11.11Q149,28.51,143.24,28.51Zm5.32-7.24q2-2.46,1.95-7c0-3-.65-5.36-2-7a6.43,6.43,0,0,0-5.31-2.48,6.5,6.5,0,0,0-5.34,2.47q-2,2.46-2,7t2,7a7,7,0,0,0,10.66,0Z"/><path class="cls-2" d="M11.35,55.57a5.25,5.25,0,0,0,.78-1.4,13.6,13.6,0,0,0,.43-1.51h1.23a16.27,16.27,0,0,1-.7,2,7.18,7.18,0,0,1-1.17,1.88l1.82,2.87H12.06L11,57.67a8,8,0,0,1-2.45,1.66,7.06,7.06,0,0,1-2.73.5,4.68,4.68,0,0,1-1.76-.32,3.59,3.59,0,0,1-1.3-.91,3,3,0,0,1-.7-1.4,4.15,4.15,0,0,1,0-1.82,4.93,4.93,0,0,1,.62-1.54,6.45,6.45,0,0,1,1-1.29,8.68,8.68,0,0,1,1.36-1,15.89,15.89,0,0,1,1.54-.78c-.15-.23-.3-.48-.43-.73a5.11,5.11,0,0,1-.35-.8,3.62,3.62,0,0,1-.17-.87,3,3,0,0,1,.06-.94,3.38,3.38,0,0,1,.53-1.26,3.7,3.7,0,0,1,.92-.93,4.25,4.25,0,0,1,1.2-.56,5,5,0,0,1,1.34-.19,3,3,0,0,1,1.21.23,2.24,2.24,0,0,1,.86.63,2.13,2.13,0,0,1,.44.92,2.77,2.77,0,0,1,0,1.11,4,4,0,0,1-.51,1.3,4.44,4.44,0,0,1-.85,1,6.38,6.38,0,0,1-1.1.78c-.4.24-.82.47-1.27.71ZM7.21,51.64a7,7,0,0,0-1.29.7,7.61,7.61,0,0,0-1.12.9A6.15,6.15,0,0,0,4,54.31a3.42,3.42,0,0,0-.48,1.18,3.05,3.05,0,0,0,0,1.34,2.34,2.34,0,0,0,.5,1,2.45,2.45,0,0,0,.92.64,3.49,3.49,0,0,0,1.29.23,4.75,4.75,0,0,0,2.26-.55,8.94,8.94,0,0,0,2-1.45Zm3.42-3.43a2.24,2.24,0,0,0,.33-.89,1.71,1.71,0,0,0-.09-.85,1.23,1.23,0,0,0-.5-.63,1.64,1.64,0,0,0-.95-.25,2.64,2.64,0,0,0-.78.12,2.7,2.7,0,0,0-.72.36,2.33,2.33,0,0,0-.57.56,1.8,1.8,0,0,0-.32.75,1.76,1.76,0,0,0,0,.72,3.44,3.44,0,0,0,.24.77,6,6,0,0,0,.35.72c.13.23.25.43.36.59.48-.25.95-.52,1.43-.82A4,4,0,0,0,10.63,48.21Z"/><path class="cls-2" d="M30.37,51.34V32.5H36V51.25a10.75,10.75,0,0,1-1.19,5.45q-2,3.39-7.25,3.39c-3.5,0-5.85-.91-7-2.75a13.56,13.56,0,0,1-1.79-7.5v-.62h5.32v.62a11.76,11.76,0,0,0,.68,4.4,2.62,2.62,0,0,0,2.62,1.27A2.62,2.62,0,0,0,30,54.12,7.31,7.31,0,0,0,30.37,51.34Z"/><path class="cls-2" d="M57.51,49.06V32.5h5.72V49.06a13.82,13.82,0,0,1-1.33,6.68q-2.49,4.4-9.49,4.39t-9.5-4.39a13.81,13.81,0,0,1-1.34-6.68V32.5H47.3V49.06a9.31,9.31,0,0,0,.65,4c.69,1.51,2.17,2.27,4.46,2.27s3.76-.76,4.44-2.27A9.28,9.28,0,0,0,57.51,49.06Z"/><path class="cls-2" d="M68.61,32.5h5.63V54.59H87.58v4.85h-19Z"/><path class="cls-2" d="M91,32.5h5.6V59.44H91Z"/><path class="cls-2" d="M120.62,47.67H107.54v6.92h14.91v4.85H102V32.5h19.75v4.77H107.54V43h13.08Z"/><path class="cls-2" d="M146.41,32.5v4.77h-8.06V59.44h-5.66V37.27h-8.1V32.5Z"/><path class="cls-2" d="M162.72,53.9h-9.93l-1.86,5.54H145l9.62-26.94H161l9.54,26.94h-6.11Zm-1.58-4.64-3.36-10.6-3.47,10.6Z"/><path class="cls-2" d="M17.74,73.38a.49.49,0,0,1-.2,0,.1.1,0,0,1-.06-.09c0-.05,0-.09.1-.12a1.2,1.2,0,0,1,.28-.08,1.5,1.5,0,0,0,.64-.25,1,1,0,0,0,.36-.57l1.45-4.73a.89.89,0,0,0,0-.7c-.09-.15-.32-.24-.68-.27a.64.64,0,0,1-.22-.05.13.13,0,0,1-.05-.11s0-.07.1-.09a.85.85,0,0,1,.23,0H21l.47,0h.39a2.86,2.86,0,0,1,1.2.24,1.78,1.78,0,0,1,.8.68,1.92,1.92,0,0,1,.29,1.07,1.94,1.94,0,0,1-.24,1,2.46,2.46,0,0,1-.66.74,3.17,3.17,0,0,1-.95.49,3.38,3.38,0,0,1-1.1.18l-.28,0q-.18,0-.18-.12s0-.07.08-.09l.17,0,.3-.05.3,0a2.66,2.66,0,0,0,.83-.4,2,2,0,0,0,.59-.68,2,2,0,0,0,.22-1,1.71,1.71,0,0,0-.19-.82,1.36,1.36,0,0,0-.56-.58,1.67,1.67,0,0,0-.9-.22.2.2,0,0,0-.14,0,.39.39,0,0,0-.1.14c0,.07-.05.15-.09.26l-1.58,5.16a.83.83,0,0,0,0,.64.74.74,0,0,0,.54.3.53.53,0,0,1,.22.08.17.17,0,0,1,.05.12s0,.07-.1.09a.73.73,0,0,1-.22,0,2.81,2.81,0,0,1-.45,0l-.31,0-.33,0a4.16,4.16,0,0,0-.66,0A5.88,5.88,0,0,1,17.74,73.38Z"/><path class="cls-2" d="M24.59,73.47a.79.79,0,0,1-.49-.17,1.33,1.33,0,0,1-.36-.45,1.38,1.38,0,0,1-.13-.6,3.29,3.29,0,0,1,.2-1.1A4.78,4.78,0,0,1,24.36,70a3.41,3.41,0,0,1,.83-.86,1.73,1.73,0,0,1,1-.34,1,1,0,0,1,.84.37,1.4,1.4,0,0,1,.3.91,3.44,3.44,0,0,1-.2,1.07,4.3,4.3,0,0,1-.55,1.09,3.38,3.38,0,0,1-.87.86A2,2,0,0,1,24.59,73.47Zm.17-.32a.83.83,0,0,0,.53-.23,3.05,3.05,0,0,0,.51-.59,6.2,6.2,0,0,0,.43-.81,5.49,5.49,0,0,0,.3-.89,3.18,3.18,0,0,0,.12-.81,1,1,0,0,0-.1-.47.37.37,0,0,0-.37-.18.85.85,0,0,0-.51.2,2.54,2.54,0,0,0-.51.56,4.7,4.7,0,0,0-.44.77,5.2,5.2,0,0,0-.31.89,3.94,3.94,0,0,0-.11.89.83.83,0,0,0,.12.51A.41.41,0,0,0,24.76,73.15Z"/><path class="cls-2" d="M28,73.51a.28.28,0,0,1-.12,0,.52.52,0,0,1-.11-.1.19.19,0,0,1,0-.12.93.93,0,0,1,.07-.33c.05-.14.1-.31.18-.51l1-2.59a.66.66,0,0,0,.05-.26c0-.08,0-.12-.11-.12a1,1,0,0,0-.3,0,.68.68,0,0,0-.22.08.12.12,0,0,1-.13,0,.09.09,0,0,1-.06-.1.3.3,0,0,1,.09-.19.89.89,0,0,1,.22-.21,1.13,1.13,0,0,1,.31-.16,1.11,1.11,0,0,1,.37-.07c.2,0,.33.06.38.16a.53.53,0,0,1,0,.4,3.87,3.87,0,0,1-.19.58l-.48,1.22s0,.09,0,.1a.1.1,0,0,0,.11,0A12.4,12.4,0,0,1,29.94,70a5.29,5.29,0,0,1,.81-.86,1.12,1.12,0,0,1,.63-.31.46.46,0,0,1,.4.16.7.7,0,0,1,.11.38,1.16,1.16,0,0,1-.07.4,1,1,0,0,1-.19.34.4.4,0,0,1-.28.14c-.06,0-.1,0-.13-.11a.67.67,0,0,1,0-.27.63.63,0,0,0-.05-.26.16.16,0,0,0-.16-.09.57.57,0,0,0-.29.14,4.05,4.05,0,0,0-.44.49l-.32.44-.41.62c-.15.23-.3.46-.44.7s-.27.45-.38.64c-.2.35-.33.6-.42.76S28.11,73.51,28,73.51Z"/><path class="cls-2" d="M35.56,73.47a.21.21,0,0,1-.2-.15,1.14,1.14,0,0,1-.06-.39,2.28,2.28,0,0,1,0-.45c.08-.41.16-.83.24-1.27s.15-.89.23-1.33S36,69,36,68.65s.1-.71.13-1a2.7,2.7,0,0,0,0-.66.34.34,0,0,0-.19-.29,2.17,2.17,0,0,0-.52-.14.53.53,0,0,1-.25-.07.16.16,0,0,1-.09-.14c0-.06,0-.1.12-.11a1.2,1.2,0,0,1,.28,0l.52,0c.2,0,.43,0,.71,0h1a.58.58,0,0,1,.21,0c.06,0,.08.06.08.1s0,.1-.14.13a1.38,1.38,0,0,1-.29.08.93.93,0,0,0-.39.09A.45.45,0,0,0,37,67a2.11,2.11,0,0,0-.12.52c-.1.67-.21,1.34-.32,2s-.21,1.34-.32,2q-.06.36,0,.36c.06,0,.19-.11.39-.34l2.93-3.46a3,3,0,0,0,.41-.56.85.85,0,0,0,.11-.36.45.45,0,0,0-.16-.39,1.21,1.21,0,0,0-.57-.19.53.53,0,0,1-.25-.08.17.17,0,0,1-.08-.14s0-.09.13-.1a1.15,1.15,0,0,1,.26,0h.42l.52,0h.87l.35,0H42c.16,0,.25,0,.25.14s0,.09-.11.13a1.3,1.3,0,0,1-.29.08,1.37,1.37,0,0,0-.68.24,1,1,0,0,0-.22.54l-.61,4.16c0,.24,0,.36,0,.36s.19-.12.37-.35L43.53,68a3.23,3.23,0,0,0,.5-.78.4.4,0,0,0-.34-.63.56.56,0,0,1-.22-.08.13.13,0,0,1,0-.12s0-.09.1-.11a.85.85,0,0,1,.23,0H45a3.7,3.7,0,0,0,.53,0,3,3,0,0,1,.45,0,.32.32,0,0,1,.19,0,.1.1,0,0,1,.06.1s0,.1-.11.14a.7.7,0,0,1-.29.11,1.68,1.68,0,0,0-.64.25,2.52,2.52,0,0,0-.63.58l-4,4.85c-.12.16-.26.32-.4.51s-.28.34-.4.47-.21.19-.26.19a.19.19,0,0,1-.2-.13.93.93,0,0,1,0-.35,3.47,3.47,0,0,1,.06-.45c0-.16.06-.3.09-.43.07-.43.14-.88.22-1.35l.24-1.41c.08-.47.16-.92.23-1.35l-3.57,4.27-.29.38-.29.4-.24.3Q35.61,73.47,35.56,73.47Z"/><path class="cls-2" d="M45.13,73.47a.41.41,0,0,1-.31-.12.35.35,0,0,1-.12-.24s0-.06,0-.09a.16.16,0,0,1,0-.09c.29-.6.54-1.16.74-1.69s.38-1,.54-1.39c0-.09,0-.13-.05-.13a.69.69,0,0,0-.21.06,1.66,1.66,0,0,0-.33.16,2,2,0,0,0-.3.19s-.08,0-.11,0a.07.07,0,0,1-.06-.07.33.33,0,0,1,.08-.16,1.66,1.66,0,0,1,.23-.23c.1-.09.22-.18.35-.28l.45-.29a4.2,4.2,0,0,1,.52-.26.17.17,0,0,1,.19,0,.41.41,0,0,1,.16.16.19.19,0,0,1,0,.15l-1.32,3.13a.52.52,0,0,0-.06.16,1,1,0,0,0,0,.15.1.1,0,0,0,.06.1l.11,0a.61.61,0,0,0,.35-.15,3.88,3.88,0,0,0,.42-.35c.14-.14.29-.28.42-.42l.05,0h0s0,0,0,0a.83.83,0,0,1-.2.44,3.68,3.68,0,0,1-.52.53,3.32,3.32,0,0,1-.63.45A1.24,1.24,0,0,1,45.13,73.47Zm2.18-5.7a.32.32,0,0,1-.27-.13.44.44,0,0,1-.11-.29.73.73,0,0,1,.17-.46.57.57,0,0,1,.44-.2.32.32,0,0,1,.27.15.6.6,0,0,1,.1.32.58.58,0,0,1-.18.42A.52.52,0,0,1,47.31,67.77Z"/><path class="cls-2" d="M47.76,73.47a.52.52,0,0,1-.31-.15.45.45,0,0,1-.17-.32.27.27,0,0,1,0-.13L49.35,67a1.9,1.9,0,0,0,.09-.29,2.83,2.83,0,0,0,0-.29.24.24,0,0,0-.1-.18.53.53,0,0,0-.25-.12.42.42,0,0,1-.18-.06.09.09,0,0,1-.06-.08v0l0,0,0,0,.5-.1.55-.09.34,0a.18.18,0,0,1,.09,0,.22.22,0,0,1,0,.13.39.39,0,0,1,0,.14.75.75,0,0,1,0,.16L48.2,72.35a1.09,1.09,0,0,0-.05.17s0,.1,0,.14,0,.17.11.17a.64.64,0,0,0,.37-.16,2.78,2.78,0,0,0,.44-.41,4.82,4.82,0,0,0,.35-.42,1.14,1.14,0,0,1,.15-.17c.06,0,.1-.08.13-.08s0,0,.05,0v.1a.94.94,0,0,1-.14.46,3.12,3.12,0,0,1-.39.47,3.89,3.89,0,0,1-.5.41,3.12,3.12,0,0,1-.52.29A1,1,0,0,1,47.76,73.47Z"/><path class="cls-2" d="M50.53,73.47a.49.49,0,0,1-.31-.15.41.41,0,0,1-.17-.32.27.27,0,0,1,0-.13l2-5.85a1.15,1.15,0,0,0,.08-.29,1.43,1.43,0,0,0,0-.29.24.24,0,0,0-.1-.18.57.57,0,0,0-.26-.12.38.38,0,0,1-.17-.06.09.09,0,0,1-.06-.08v0s0,0,0,0l0,0,.5-.1.54-.09.34,0a.18.18,0,0,1,.1,0,.23.23,0,0,1,0,.13.36.36,0,0,1,0,.14c0,.06,0,.11,0,.16L51,72.35a.55.55,0,0,0,0,.17.71.71,0,0,0,0,.14c0,.12,0,.17.11.17a.67.67,0,0,0,.37-.16,2.78,2.78,0,0,0,.44-.41c.14-.16.26-.3.35-.42a1.14,1.14,0,0,1,.15-.17c.06,0,.1-.08.13-.08s0,0,0,0v.1a.94.94,0,0,1-.14.46,3.12,3.12,0,0,1-.39.47,4,4,0,0,1-.51.41,2.49,2.49,0,0,1-.52.29A.94.94,0,0,1,50.53,73.47Z"/><path class="cls-2" d="M53.57,73.47a.41.41,0,0,1-.3-.12.35.35,0,0,1-.12-.24.28.28,0,0,1,0-.09.29.29,0,0,1,0-.09,18.06,18.06,0,0,0,.75-1.69c.2-.53.38-1,.54-1.39,0-.09,0-.13-.06-.13l-.21.06a2.45,2.45,0,0,0-.33.16l-.3.19a.09.09,0,0,1-.11,0,.08.08,0,0,1-.05-.07.33.33,0,0,1,.08-.16,1.24,1.24,0,0,1,.23-.23,2.85,2.85,0,0,1,.35-.28l.45-.29a4.06,4.06,0,0,1,.51-.26.18.18,0,0,1,.2,0,.46.46,0,0,1,.15.16.19.19,0,0,1,0,.15L54.1,72.32a.52.52,0,0,0-.06.16.86.86,0,0,0,0,.15.11.11,0,0,0,0,.1.27.27,0,0,0,.12,0,.58.58,0,0,0,.34-.15,3.88,3.88,0,0,0,.42-.35l.43-.42,0,0h0s0,0,0,0a.78.78,0,0,1-.21.44,4.17,4.17,0,0,1-.51.53,3.73,3.73,0,0,1-.64.45A1.17,1.17,0,0,1,53.57,73.47Zm2.19-5.7a.32.32,0,0,1-.27-.13.39.39,0,0,1-.11-.29.67.67,0,0,1,.17-.46.57.57,0,0,1,.43-.2.29.29,0,0,1,.27.15.53.53,0,0,1,.1.32.61.61,0,0,1-.17.42A.55.55,0,0,1,55.76,67.77Z"/><path class="cls-2" d="M56.36,73.47a.51.51,0,0,1-.26-.07.52.52,0,0,1-.21-.18.37.37,0,0,1-.08-.22,2.15,2.15,0,0,1,.26-.91A6,6,0,0,1,56.79,71a10,10,0,0,1,1.07-1.1c.39-.33.71-.59,1-.76a1.1,1.1,0,0,1,.54-.25.4.4,0,0,1,.3.15c.1.13.15.19.13.18s0,0,0,0h0a.08.08,0,0,0,0,0c.1-.18.17-.28.19-.32s0,0,0,0,.08-.11.13-.11a.65.65,0,0,1,.19,0,.48.48,0,0,1,.16.08.17.17,0,0,1,.06.11,1.24,1.24,0,0,1-.08.27l-1.21,3.21c-.09.25,0,.37.14.37a.84.84,0,0,0,.47-.19,1.75,1.75,0,0,0,.48-.46l0,0a.06.06,0,0,1,0,0,.06.06,0,0,1,.06,0,.14.14,0,0,1,0,.09.77.77,0,0,1-.15.3,4.26,4.26,0,0,1-.32.38,2.35,2.35,0,0,1-.61.43,1.28,1.28,0,0,1-.57.15.42.42,0,0,1-.21-.06.71.71,0,0,1-.18-.16.32.32,0,0,1-.07-.2.61.61,0,0,1,.06-.25h0c0-.06.07-.16.13-.3s.13-.28.2-.43l.18-.4a.41.41,0,0,0,0-.18s0,0-.07,0c-.44.5-.82.88-1.13,1.17a3.76,3.76,0,0,1-.83.62A1.5,1.5,0,0,1,56.36,73.47Zm.61-.68a1.34,1.34,0,0,0,.7-.39,9.49,9.49,0,0,0,1.07-1.1,6.76,6.76,0,0,0,.65-.88,1.32,1.32,0,0,0,.24-.59c0-.06-.05-.13-.14-.21l-.14-.08-.13,0a1.24,1.24,0,0,0-.54.2,3.12,3.12,0,0,0-.62.46,6.58,6.58,0,0,0-1.21,1.62,1.57,1.57,0,0,0-.2.64.4.4,0,0,0,.09.27A.28.28,0,0,0,57,72.79Z"/><path class="cls-2" d="M61.62,73.51a.12.12,0,0,1-.1-.06.4.4,0,0,1-.07-.13.39.39,0,0,1,0-.14,1.75,1.75,0,0,1,.07-.26l.18-.51,1-2.6a.33.33,0,0,0,0-.24.2.2,0,0,0-.19-.1.88.88,0,0,0-.34.08,1.35,1.35,0,0,0-.44.42.12.12,0,0,1-.09,0s0,0-.07-.08a1.28,1.28,0,0,1,0-.17,1.72,1.72,0,0,1,.07-.21l.09-.16a1.5,1.5,0,0,1,.45-.38,1.33,1.33,0,0,1,.63-.17.93.93,0,0,1,.29,0,.44.44,0,0,1,.22.18.42.42,0,0,1,0,.36L62.68,71s0,.08,0,.09a.08.08,0,0,0,.08-.05,11.2,11.2,0,0,1,.9-1.21,4,4,0,0,1,.82-.76,1.38,1.38,0,0,1,.74-.26.61.61,0,0,1,.37.12.61.61,0,0,1,.23.36,1,1,0,0,1-.06.57L65.38,71s0,.08,0,.09a.08.08,0,0,0,.08-.05,9.09,9.09,0,0,1,.89-1.24,4,4,0,0,1,.85-.74,1.51,1.51,0,0,1,.75-.25.58.58,0,0,1,.58.52,1.09,1.09,0,0,1-.1.63l-.93,2.4c-.11.26-.09.39,0,.39a.61.61,0,0,0,.32-.12,3,3,0,0,0,.37-.28l.33-.3.19-.18h0a.09.09,0,0,1,.06,0,.14.14,0,0,1,0,.07.57.57,0,0,1,0,.18.83.83,0,0,1-.16.21,6.34,6.34,0,0,1-.8.75,1.52,1.52,0,0,1-1,.34.27.27,0,0,1-.18-.07.4.4,0,0,1-.14-.19.31.31,0,0,1,0-.23l1.26-3.24a.3.3,0,0,0,0-.32.33.33,0,0,0-.21-.12.79.79,0,0,0-.46.18,2.67,2.67,0,0,0-.65.63c-.11.14-.26.34-.45.62s-.39.56-.59.88-.36.6-.51.87a6.12,6.12,0,0,1-.34.57,1.79,1.79,0,0,1-.3.34.35.35,0,0,1-.21.12.14.14,0,0,1-.1-.05.47.47,0,0,1-.07-.12.28.28,0,0,1,0-.13,2.67,2.67,0,0,1,.07-.27l.18-.53,1-2.7c.06-.17.05-.28,0-.34a.41.41,0,0,0-.2-.1.69.69,0,0,0-.46.17,3,3,0,0,0-.65.65,4.18,4.18,0,0,0-.33.43l-.41.62c-.15.23-.3.46-.44.69l-.37.65-.43.77C61.8,73.42,61.7,73.51,61.62,73.51Z"/><path class="cls-2" d="M73.14,73.48a3.48,3.48,0,0,1-.55,0,3.92,3.92,0,0,1-.56-.16l-.23-.09a.34.34,0,0,0-.13,0l-.11,0-.11,0-.12.08-.1,0a.19.19,0,0,1-.12-.07c-.06,0-.09-.09-.09-.13a1.38,1.38,0,0,1,.1-.3c.07-.15.14-.34.22-.57a3.18,3.18,0,0,0,.18-.78c0-.14.08-.21.17-.21a.1.1,0,0,1,.11.1,1.33,1.33,0,0,1,0,.32,2,2,0,0,0,.14.75,1.11,1.11,0,0,0,.42.53,1.28,1.28,0,0,0,.73.2,1.75,1.75,0,0,0,1.17-.4,1.33,1.33,0,0,0,.49-1.11,1.46,1.46,0,0,0-.09-.52,1.65,1.65,0,0,0-.27-.5,4.53,4.53,0,0,0-.54-.57,6.44,6.44,0,0,1-.8-.88,1.77,1.77,0,0,1-.33-1.07,1.8,1.8,0,0,1,.3-1,2,2,0,0,1,.81-.69A2.56,2.56,0,0,1,75,66.14a1.61,1.61,0,0,1,.37,0c.13,0,.26.06.38.09a3.58,3.58,0,0,1,.36.13.66.66,0,0,0,.22.06.37.37,0,0,0,.21-.06l.09,0h.09c.06,0,.1,0,.11.06a.26.26,0,0,1,0,.11.55.55,0,0,1-.07.13,3.47,3.47,0,0,0-.16.43,6.45,6.45,0,0,0-.18.86.57.57,0,0,1-.08.25q-.06.09-.09.09a.09.09,0,0,1-.1-.08.56.56,0,0,1,0-.2,1.7,1.7,0,0,0-.35-1.15,1.16,1.16,0,0,0-.92-.39,1.21,1.21,0,0,0-.69.2,1.58,1.58,0,0,0-.51.52,1.38,1.38,0,0,0-.18.67,1.49,1.49,0,0,0,.1.55,2,2,0,0,0,.32.54,5.36,5.36,0,0,0,.59.62,5,5,0,0,1,.82.91,1.47,1.47,0,0,1,.28.86,2.17,2.17,0,0,1-.28,1.08,2,2,0,0,1-.83.78A2.75,2.75,0,0,1,73.14,73.48Z"/><path class="cls-2" d="M76.67,73.52a.14.14,0,0,1-.1,0,.2.2,0,0,1-.06-.11.25.25,0,0,1,0-.12,1.84,1.84,0,0,1,0-.33c0-.11.06-.24.11-.4l1.52-5.22c0-.12.07-.26.11-.41a2,2,0,0,0,0-.33c0-.07,0-.12-.13-.16l-.27-.1-.13-.05a.07.07,0,0,1-.06-.07.13.13,0,0,1,0-.08A.47.47,0,0,1,77.9,66l.24-.08.34-.12.32-.1.2,0h.12s.07,0,.07.09a.78.78,0,0,1,0,.16,1,1,0,0,1,0,.14l-1.47,5.08s0,.07,0,.07a.07.07,0,0,0,.06,0,10.86,10.86,0,0,1,1-1.25,6.05,6.05,0,0,1,1-.86,1.43,1.43,0,0,1,.77-.31A.66.66,0,0,1,81,69a.84.84,0,0,1,.19.55,3.89,3.89,0,0,1-.2,1.17,5.6,5.6,0,0,1-.53,1.17,4.94,4.94,0,0,1-.7,1l-.19.16a2.77,2.77,0,0,1-.31.21,2.21,2.21,0,0,1-.35.16.85.85,0,0,1-.33.07.38.38,0,0,1-.18-.06,1.29,1.29,0,0,1-.17-.16.32.32,0,0,1-.07-.18.46.46,0,0,1,0-.13.69.69,0,0,1,.11-.13.27.27,0,0,1,.13,0,.31.31,0,0,1,.17,0,.27.27,0,0,1,.12.09l.13.1A.29.29,0,0,0,79,73a.53.53,0,0,0,.38-.22,2.46,2.46,0,0,0,.4-.57,5.56,5.56,0,0,0,.34-.78,7.42,7.42,0,0,0,.24-.86,4.06,4.06,0,0,0,.1-.8.62.62,0,0,0-.11-.39.36.36,0,0,0-.31-.13.88.88,0,0,0-.53.23,5,5,0,0,0-.62.61c-.21.25-.42.52-.62.81s-.38.57-.55.85-.3.5-.4.7l-.41.78C76.84,73.43,76.76,73.52,76.67,73.52Z"/><path class="cls-2" d="M81.66,73.47a.47.47,0,0,1-.25-.07.55.55,0,0,1-.22-.18.37.37,0,0,1-.08-.22,2.15,2.15,0,0,1,.26-.91A6.63,6.63,0,0,1,82.1,71a9.18,9.18,0,0,1,1.07-1.1c.39-.33.7-.59,1-.76a1.1,1.1,0,0,1,.54-.25.37.37,0,0,1,.3.15l.14.18a0,0,0,0,1,0,0h0l0,0,.18-.32s0,0,0,0,.09-.11.13-.11a.71.71,0,0,1,.2,0,.53.53,0,0,1,.15.08.17.17,0,0,1,.06.11,1,1,0,0,1-.07.27l-1.22,3.21c-.09.25,0,.37.15.37a.87.87,0,0,0,.47-.19,2.09,2.09,0,0,0,.48-.46l0,0a0,0,0,0,1,0,0,.06.06,0,0,1,.06,0,.14.14,0,0,1,0,.09.77.77,0,0,1-.15.3,4.23,4.23,0,0,1-.31.38,2.57,2.57,0,0,1-.62.43,1.27,1.27,0,0,1-.56.15.43.43,0,0,1-.22-.06.93.93,0,0,1-.18-.16.4.4,0,0,1-.07-.2.5.5,0,0,1,.07-.25c0,.07,0,.07,0,0l.13-.3c.06-.14.13-.28.2-.43l.18-.4a.3.3,0,0,0,.05-.18s0,0-.07,0a14.64,14.64,0,0,1-1.13,1.17,4,4,0,0,1-.82.62A1.54,1.54,0,0,1,81.66,73.47Zm.61-.68A1.39,1.39,0,0,0,83,72.4,9.51,9.51,0,0,0,84,71.3a6,6,0,0,0,.65-.88,1.32,1.32,0,0,0,.24-.59c0-.06-.05-.13-.14-.21l-.14-.08a.38.38,0,0,0-.13,0,1.24,1.24,0,0,0-.54.2,3.43,3.43,0,0,0-.62.46,6.56,6.56,0,0,0-.68.78,4.93,4.93,0,0,0-.52.84,1.43,1.43,0,0,0-.2.64.46.46,0,0,0,.08.27A.29.29,0,0,0,82.27,72.79Z"/><path class="cls-2" d="M89.23,73.55a.6.6,0,0,1-.41-.14,1.21,1.21,0,0,1-.27-.39l-.41-1.15a.92.92,0,0,0-.19-.33.4.4,0,0,0-.31-.14s-.1,0-.15.16l-.14.29c0,.05,0,.14-.1.26s-.1.25-.16.39-.1.28-.15.39a1.58,1.58,0,0,1-.1.26l-.1.25c0,.06-.09.08-.18.08a.32.32,0,0,1-.18-.07.2.2,0,0,1-.1-.16s0-.1,0-.18l.07-.28,1.8-5.6a1.5,1.5,0,0,0,.09-.35,1.23,1.23,0,0,0,0-.27q0-.12-.24-.21l-.19-.08c-.06,0-.09,0-.09-.07a.19.19,0,0,1,0-.08.07.07,0,0,1,0,0,1.42,1.42,0,0,1,.3-.13,3.82,3.82,0,0,1,.36-.13,2.05,2.05,0,0,1,.34-.1.85.85,0,0,1,.22,0h.11a.08.08,0,0,1,.06.09v.14s0,.06,0,.11l-1.46,4.45c0,.08,0,.11,0,.11a.18.18,0,0,0,.09-.07,5.74,5.74,0,0,1,.78-.9,4.3,4.3,0,0,1,.84-.59,1.76,1.76,0,0,1,.78-.21.88.88,0,0,1,.43.12.39.39,0,0,1,.21.37,1,1,0,0,1-.24.59,3.7,3.7,0,0,1-.59.6,5.39,5.39,0,0,1-.72.49,3,3,0,0,1-.66.29c-.06,0-.08,0,0,.12l.49,1.18a1.37,1.37,0,0,0,.15.21.26.26,0,0,0,.21.1.62.62,0,0,0,.41-.19,2.12,2.12,0,0,0,.35-.44.31.31,0,0,1,.09-.12l.08,0s0,0,0,.05a.11.11,0,0,1,0,.08.74.74,0,0,1-.14.39,2.3,2.3,0,0,1-.35.42,2.46,2.46,0,0,1-.41.34A.64.64,0,0,1,89.23,73.55ZM88.1,71.13a1.67,1.67,0,0,0,.69-.17,2.92,2.92,0,0,0,.65-.4,2.52,2.52,0,0,0,.49-.49.79.79,0,0,0,.18-.43.32.32,0,0,0-.1-.25.4.4,0,0,0-.29-.09,1,1,0,0,0-.52.2,3.85,3.85,0,0,0-.58.51,6.66,6.66,0,0,0-.47.55.85.85,0,0,0-.18.38.28.28,0,0,0,0,.13A.11.11,0,0,0,88.1,71.13Z"/><path class="cls-2" d="M92,73.48a.75.75,0,0,1-.46-.17,1.36,1.36,0,0,1-.38-.44,1,1,0,0,1-.15-.51,3.29,3.29,0,0,1,.22-1.15,4.71,4.71,0,0,1,.61-1.15,3.37,3.37,0,0,1,.9-.87,2,2,0,0,1,1.09-.35,1,1,0,0,1,.59.16.52.52,0,0,1,.21.44.86.86,0,0,1-.21.58,1.71,1.71,0,0,1-.57.43,4.32,4.32,0,0,1-.79.3,8.82,8.82,0,0,1-.89.2l-.11,0a.18.18,0,0,0-.06.08c-.05.16-.1.33-.15.52a2,2,0,0,0-.07.53,1,1,0,0,0,.14.58.49.49,0,0,0,.43.21,1.17,1.17,0,0,0,.66-.19,2.48,2.48,0,0,0,.44-.39.29.29,0,0,1,.2-.12c.07,0,.1,0,.1.1v0s0,0,0,0a2.44,2.44,0,0,1-.48.6,2,2,0,0,1-.58.37A1.85,1.85,0,0,1,92,73.48Zm.24-2.78a1.8,1.8,0,0,0,.41-.07,2.76,2.76,0,0,0,.6-.22,2.14,2.14,0,0,0,.53-.39.78.78,0,0,0,.22-.56.4.4,0,0,0-.07-.24.25.25,0,0,0-.22-.1.9.9,0,0,0-.49.18,3.06,3.06,0,0,0-.5.46,5.18,5.18,0,0,0-.4.51.87.87,0,0,0-.15.37S92.2,70.7,92.25,70.7Z"/><path class="cls-2" d="M94.67,73.47a.65.65,0,0,1-.41-.13.44.44,0,0,1-.17-.34.59.59,0,0,1,.11-.38c.08-.08.14-.12.19-.12a.29.29,0,0,1,.16.06l.18.15a3,3,0,0,0,.26.16.75.75,0,0,0,.39.08.56.56,0,0,0,.46-.21.68.68,0,0,0,.18-.45,1.63,1.63,0,0,0-.08-.51,2.58,2.58,0,0,0-.23-.55,4.26,4.26,0,0,1-.23-.49,1.08,1.08,0,0,1-.09-.39,1.11,1.11,0,0,1,.16-.59,1.77,1.77,0,0,1,.42-.48,1.91,1.91,0,0,1,.48-.32.9.9,0,0,1,.38-.12.54.54,0,0,1,.28.09.84.84,0,0,1,.23.18.3.3,0,0,1,.09.18.29.29,0,0,1-.06.15.87.87,0,0,1-.16.17.22.22,0,0,1-.15.08.17.17,0,0,1-.11-.06l-.11-.11a.61.61,0,0,0-.16-.12.43.43,0,0,0-.24-.06.4.4,0,0,0-.31.15.58.58,0,0,0-.13.38,1,1,0,0,0,.06.27c0,.12.09.25.14.38l.16.35a2.86,2.86,0,0,1,.22.54,2,2,0,0,1,.1.58,1.06,1.06,0,0,1-.18.6,1.88,1.88,0,0,1-.5.47,2.56,2.56,0,0,1-.65.3A2.1,2.1,0,0,1,94.67,73.47Z"/><path class="cls-2" d="M96.06,76.41a.25.25,0,0,1-.12,0,.07.07,0,0,1-.06-.07q0-.09.12-.15a.58.58,0,0,1,.21-.07,1.26,1.26,0,0,0,.36-.12.52.52,0,0,0,.2-.28l2.09-5.83a1,1,0,0,0,.06-.23s0-.08,0-.1a.19.19,0,0,0-.15,0l-.45.09a1.86,1.86,0,0,0-.42.16.2.2,0,0,1-.15,0,.09.09,0,0,1-.07-.09.17.17,0,0,1,0-.14.31.31,0,0,1,.11-.09l.5-.24a3.87,3.87,0,0,1,.75-.25l.13-.06a.35.35,0,0,0,.07-.12,3.38,3.38,0,0,1,.28-.73.42.42,0,0,1,.37-.23.27.27,0,0,1,.15.05.15.15,0,0,1,0,.16l-.18.62a.23.23,0,0,0,0,.16.05.05,0,0,0,.06,0l.26,0h.22a1.7,1.7,0,0,1,.85.18,1,1,0,0,1,.43.49,1.85,1.85,0,0,1,.12.69,3,3,0,0,1-.23,1.08,4.38,4.38,0,0,1-.65,1.07,3.51,3.51,0,0,1-.91.82,1.91,1.91,0,0,1-1,.31.52.52,0,0,1-.22-.06l-.22-.13c-.07,0-.12-.06-.16,0s-.08.1-.14.23l-.71,2.11a.3.3,0,0,0,.05.34.64.64,0,0,0,.39.14.78.78,0,0,1,.22,0c.07,0,.11.06.11.12s0,.07-.1.09a.71.71,0,0,1-.21,0h-.9l-.53,0A4.7,4.7,0,0,1,96.06,76.41Zm3.17-3.3a1,1,0,0,0,.56-.28,3.34,3.34,0,0,0,.6-.71,4.43,4.43,0,0,0,.47-.92,2.44,2.44,0,0,0,.19-.92,1.21,1.21,0,0,0-.21-.82.91.91,0,0,0-.61-.23H100l-.22,0-1,2.92a1,1,0,0,0-.07.36.62.62,0,0,0,0,.28A.39.39,0,0,0,99,73,.47.47,0,0,0,99.23,73.11Z"/><path class="cls-2" d="M103,73.48a.71.71,0,0,1-.46-.17,1.28,1.28,0,0,1-.39-.44,1,1,0,0,1-.15-.51,3.29,3.29,0,0,1,.22-1.15,4.71,4.71,0,0,1,.61-1.15,3.26,3.26,0,0,1,.91-.87,1.9,1.9,0,0,1,1.08-.35,1,1,0,0,1,.59.16.52.52,0,0,1,.21.44.86.86,0,0,1-.21.58,1.71,1.71,0,0,1-.57.43,4.06,4.06,0,0,1-.79.3,8.82,8.82,0,0,1-.89.2L103,71a.12.12,0,0,0,0,.08c0,.16-.11.33-.16.52a2,2,0,0,0-.07.53,1,1,0,0,0,.14.58.49.49,0,0,0,.43.21,1.17,1.17,0,0,0,.66-.19,2.48,2.48,0,0,0,.44-.39c.08-.08.14-.12.2-.12s.11,0,.11.1v0a.08.08,0,0,1,0,0,2.72,2.72,0,0,1-.49.6,1.9,1.9,0,0,1-.58.37A1.8,1.8,0,0,1,103,73.48Zm.23-2.78a1.8,1.8,0,0,0,.41-.07,2.76,2.76,0,0,0,.6-.22,2,2,0,0,0,.53-.39.79.79,0,0,0,.23-.56.41.41,0,0,0-.08-.24.25.25,0,0,0-.22-.1.9.9,0,0,0-.49.18,3.54,3.54,0,0,0-.5.46,5.18,5.18,0,0,0-.4.51.87.87,0,0,0-.15.37S103.13,70.7,103.18,70.7Z"/><path class="cls-2" d="M105.81,73.47a.51.51,0,0,1-.26-.07.46.46,0,0,1-.21-.18.37.37,0,0,1-.08-.22,2.15,2.15,0,0,1,.26-.91,6,6,0,0,1,.72-1.08,10,10,0,0,1,1.07-1.1c.39-.33.71-.59,1-.76a1.1,1.1,0,0,1,.54-.25.4.4,0,0,1,.3.15c.1.13.15.19.13.18s0,0,0,0h0a.08.08,0,0,0,0,0c.1-.18.17-.28.19-.32s0,0,0,0,.08-.11.13-.11a.65.65,0,0,1,.19,0,.48.48,0,0,1,.16.08.17.17,0,0,1,.06.11,1.24,1.24,0,0,1-.08.27l-1.21,3.21c-.09.25,0,.37.14.37a.84.84,0,0,0,.47-.19,1.75,1.75,0,0,0,.48-.46l0,0a.06.06,0,0,1,.05,0,.06.06,0,0,1,.06,0,.14.14,0,0,1,0,.09.77.77,0,0,1-.15.3,4.26,4.26,0,0,1-.32.38,2.35,2.35,0,0,1-.61.43,1.28,1.28,0,0,1-.57.15.42.42,0,0,1-.21-.06.71.71,0,0,1-.18-.16.32.32,0,0,1-.07-.2.61.61,0,0,1,.06-.25h0c0-.06.07-.16.13-.3s.12-.28.2-.43l.18-.4a.41.41,0,0,0,0-.18s0,0-.07,0c-.44.5-.82.88-1.13,1.17a3.76,3.76,0,0,1-.83.62A1.5,1.5,0,0,1,105.81,73.47Zm.61-.68a1.34,1.34,0,0,0,.7-.39,9.49,9.49,0,0,0,1.07-1.1,6.76,6.76,0,0,0,.65-.88,1.32,1.32,0,0,0,.24-.59c0-.06,0-.13-.14-.21l-.14-.08-.13,0a1.24,1.24,0,0,0-.54.2,3.12,3.12,0,0,0-.62.46,6.58,6.58,0,0,0-1.21,1.62,1.57,1.57,0,0,0-.2.64.4.4,0,0,0,.09.27A.28.28,0,0,0,106.42,72.79Z"/><path class="cls-2" d="M110.9,73.51a.3.3,0,0,1-.11,0,.36.36,0,0,1-.11-.1.21.21,0,0,1-.05-.12,1.22,1.22,0,0,1,.07-.33l.18-.51,1-2.59a.91.91,0,0,0,.05-.26q0-.12-.12-.12a.92.92,0,0,0-.29,0,.76.76,0,0,0-.23.08.11.11,0,0,1-.12,0,.09.09,0,0,1-.06-.1.34.34,0,0,1,.08-.19,1.12,1.12,0,0,1,.22-.21,1.29,1.29,0,0,1,.31-.16,1.16,1.16,0,0,1,.37-.07.41.41,0,0,1,.39.16.58.58,0,0,1,0,.4,3.87,3.87,0,0,1-.19.58l-.49,1.22s0,.09,0,.1.08,0,.1,0a12.4,12.4,0,0,1,.87-1.31,5.76,5.76,0,0,1,.82-.86,1.07,1.07,0,0,1,.63-.31.44.44,0,0,1,.39.16.64.64,0,0,1,.12.38,1.46,1.46,0,0,1-.07.4,1,1,0,0,1-.2.34.37.37,0,0,1-.28.14.14.14,0,0,1-.12-.11.65.65,0,0,1,0-.27.65.65,0,0,0,0-.26.16.16,0,0,0-.16-.09.54.54,0,0,0-.29.14,3.3,3.3,0,0,0-.45.49l-.31.44-.42.62-.44.7-.38.64c-.19.35-.33.6-.41.76S111,73.51,110.9,73.51Z"/><path class="cls-2" d="M115.34,73.48a.73.73,0,0,1-.46-.17,1.39,1.39,0,0,1-.39-.44,1,1,0,0,1-.15-.51,3.53,3.53,0,0,1,.22-1.15,4.74,4.74,0,0,1,.62-1.15,3.37,3.37,0,0,1,.9-.87,1.91,1.91,0,0,1,1.09-.35,1,1,0,0,1,.58.16.51.51,0,0,1,.22.44.82.82,0,0,1-.22.58,1.77,1.77,0,0,1-.56.43,4.43,4.43,0,0,1-.8.3,8.82,8.82,0,0,1-.89.2l-.1,0a.1.1,0,0,0-.06.08c0,.16-.1.33-.15.52a2.07,2.07,0,0,0-.08.53,1,1,0,0,0,.15.58.47.47,0,0,0,.42.21,1.17,1.17,0,0,0,.66-.19,3,3,0,0,0,.45-.39.27.27,0,0,1,.19-.12c.07,0,.11,0,.11.1v0a.08.08,0,0,1,0,0,2.72,2.72,0,0,1-.49.6,1.9,1.9,0,0,1-.58.37A1.76,1.76,0,0,1,115.34,73.48Zm.24-2.78a1.74,1.74,0,0,0,.4-.07,2.76,2.76,0,0,0,.6-.22,2.2,2.2,0,0,0,.54-.39.82.82,0,0,0,.22-.56.41.41,0,0,0-.08-.24.24.24,0,0,0-.21-.1.93.93,0,0,0-.5.18,3.54,3.54,0,0,0-.5.46,3.86,3.86,0,0,0-.39.51.8.8,0,0,0-.16.37S115.53,70.7,115.58,70.7Z"/></g></g></svg>