<svg xmlns="http://www.w3.org/2000/svg" viewBox="0 0 299.05 133.04"><defs><style>.cls-1{fill:#20ab8e;}.cls-2{fill:#008677;}.cls-3{fill:#231f20;}</style></defs><g id="Capa_2" data-name="Capa 2"><g id="Capa_1-2" data-name="Capa 1"><path class="cls-1" d="M35.66,133a9.15,9.15,0,0,1-1.63-.15,8.57,8.57,0,0,1-1.66-.46l-.69-.27a1.21,1.21,0,0,0-.37-.12,1.09,1.09,0,0,0-.34.07,3.24,3.24,0,0,0-.33.13l-.35.22a.45.45,0,0,1-.66-.11.56.56,0,0,1-.24-.4,3.25,3.25,0,0,1,.29-.87c.19-.44.41-1,.65-1.71a10.84,10.84,0,0,0,.53-2.29c.07-.42.24-.64.51-.64s.28.11.32.31a4.36,4.36,0,0,1,.07.94,6,6,0,0,0,.4,2.23,3.28,3.28,0,0,0,1.25,1.58,3.76,3.76,0,0,0,2.15.58A5.3,5.3,0,0,0,39,130.85a4,4,0,0,0,1.42-3.31,4.74,4.74,0,0,0-.24-1.54,5.38,5.38,0,0,0-.81-1.46,15.62,15.62,0,0,0-1.6-1.71,16.62,16.62,0,0,1-2.36-2.59,5.63,5.63,0,0,1-.09-6.18,6,6,0,0,1,2.4-2.06,7.59,7.59,0,0,1,3.41-.75,6,6,0,0,1,1.08.11c.39.08.76.17,1.12.27s.79.25,1.08.37a1.83,1.83,0,0,0,.65.18,1.18,1.18,0,0,0,.61-.16l.26-.12a.82.82,0,0,1,.28,0c.17,0,.28.06.32.19a.88.88,0,0,1,.07.32,3.2,3.2,0,0,1-.21.4A6.55,6.55,0,0,0,46,114a18.61,18.61,0,0,0-.53,2.54,1.74,1.74,0,0,1-.24.75q-.18.27-.27.27a.3.3,0,0,1-.3-.24,1.68,1.68,0,0,1-.08-.59,5.05,5.05,0,0,0-1-3.41,3.46,3.46,0,0,0-2.72-1.16,3.78,3.78,0,0,0-2.06.6,4.53,4.53,0,0,0-1.49,1.56,3.89,3.89,0,0,0-.54,2,4.68,4.68,0,0,0,.28,1.62,5.9,5.9,0,0,0,1,1.6,18.54,18.54,0,0,0,1.74,1.84,15.39,15.39,0,0,1,2.45,2.69,4.55,4.55,0,0,1,.82,2.56,6.24,6.24,0,0,1-.84,3.2,5.93,5.93,0,0,1-2.45,2.3A8.28,8.28,0,0,1,35.66,133Z"/><path class="cls-1" d="M47.76,132.94a2.35,2.35,0,0,1-1.44-.51,3.56,3.56,0,0,1-1.07-1.34,4,4,0,0,1-.4-1.76,10,10,0,0,1,.59-3.25,13.41,13.41,0,0,1,1.65-3.3,10,10,0,0,1,2.44-2.54,5.08,5.08,0,0,1,3-1A3,3,0,0,1,55,120.34a4.15,4.15,0,0,1,.88,2.68,10.11,10.11,0,0,1-.58,3.16,12.39,12.39,0,0,1-1.65,3.24A9.47,9.47,0,0,1,51.1,132,5.9,5.9,0,0,1,47.76,132.94Zm.51-1a2.38,2.38,0,0,0,1.55-.67,8.44,8.44,0,0,0,1.51-1.76,15.1,15.1,0,0,0,1.28-2.4,18,18,0,0,0,.89-2.62,9.55,9.55,0,0,0,.34-2.4,3,3,0,0,0-.28-1.38,1.1,1.1,0,0,0-1.1-.54,2.47,2.47,0,0,0-1.52.61,7.48,7.48,0,0,0-1.5,1.63,14.27,14.27,0,0,0-1.3,2.29,14.76,14.76,0,0,0-.91,2.62,11.25,11.25,0,0,0-.34,2.64,2.51,2.51,0,0,0,.37,1.52A1.22,1.22,0,0,0,48.27,132Z"/><path class="cls-1" d="M59.69,132.75a2.71,2.71,0,0,1-2-.72,2.54,2.54,0,0,1-.74-1.9,9.69,9.69,0,0,1,.2-1.81,15.31,15.31,0,0,1,.54-2.06l4-12.2a4.8,4.8,0,0,0,.24-.88,4,4,0,0,0,.08-.84.36.36,0,0,0-.17-.29,2.19,2.19,0,0,0-.63-.26q-1-.26-1-.48a.33.33,0,0,1,.11-.25,1.33,1.33,0,0,1,.4-.2l.91-.3,1.14-.34c.38-.1.73-.19,1-.25a3.56,3.56,0,0,1,.59-.1c.34,0,.51.11.51.32a2.47,2.47,0,0,1,0,.5c0,.14-.1.32-.18.56-.17.43-.41,1.06-.7,1.9s-.63,1.78-1,2.82L62,119.1l-1,3c-.31.92-.55,1.66-.72,2.21-.09.22-.08.34,0,.39s.21,0,.36-.23a21.62,21.62,0,0,1,3.59-3.84,5.07,5.07,0,0,1,2.88-1.34,2.29,2.29,0,0,1,2.36,2.37,8.31,8.31,0,0,1-.59,3,13.46,13.46,0,0,1-1.6,3A15,15,0,0,1,65,130.26a12.37,12.37,0,0,1-2.64,1.82A6,6,0,0,1,59.69,132.75Zm.84-1a2.13,2.13,0,0,0,1.08-.45,9.83,9.83,0,0,0,1.46-1.23,16.07,16.07,0,0,0,1.52-1.78A16.68,16.68,0,0,0,67,123.65a6.54,6.54,0,0,0,.36-1.91,1.51,1.51,0,0,0-.27-.91.81.81,0,0,0-.65-.37,3.74,3.74,0,0,0-2.28,1.12,22.15,22.15,0,0,0-3,3.43,21.65,21.65,0,0,0-1.7,2.72,4.65,4.65,0,0,0-.64,1.85,2.41,2.41,0,0,0,.5,1.51A1.44,1.44,0,0,0,60.53,131.73Z"/><path class="cls-1" d="M71.15,133a.74.74,0,0,1-.35-.11,1,1,0,0,1-.32-.29.6.6,0,0,1-.13-.37,3,3,0,0,1,.21-1c.14-.4.31-.89.53-1.49L74,122.13a1.86,1.86,0,0,0,.14-.77c0-.23-.12-.35-.33-.35a3.66,3.66,0,0,0-.88.11,3.38,3.38,0,0,0-.66.24.36.36,0,0,1-.37,0,.31.31,0,0,1-.17-.31,1,1,0,0,1,.24-.57,3,3,0,0,1,.65-.61,3.72,3.72,0,0,1,.91-.48,3.24,3.24,0,0,1,1.11-.19c.6,0,1,.15,1.14.45a1.69,1.69,0,0,1,.06,1.2,13.44,13.44,0,0,1-.56,1.71l-1.44,3.61c-.09.15-.06.25.08.29a.23.23,0,0,0,.3-.09,34,34,0,0,1,2.58-3.86A16.48,16.48,0,0,1,79.24,120a3.27,3.27,0,0,1,1.86-.91,1.32,1.32,0,0,1,1.17.48,1.93,1.93,0,0,1,.34,1.12,3.59,3.59,0,0,1-.21,1.18,2.76,2.76,0,0,1-.58,1,1.08,1.08,0,0,1-.81.4.42.42,0,0,1-.39-.3,2.31,2.31,0,0,1-.13-.82,1.89,1.89,0,0,0-.12-.75.49.49,0,0,0-.48-.27,1.57,1.57,0,0,0-.85.41A9,9,0,0,0,77.71,123c-.23.32-.55.76-.93,1.31s-.79,1.17-1.23,1.84-.87,1.36-1.3,2-.8,1.33-1.12,1.91c-.57,1-1,1.77-1.23,2.24S71.4,133,71.15,133Z"/><path class="cls-1" d="M84.27,133a2.24,2.24,0,0,1-1.36-.52,4.18,4.18,0,0,1-1.14-1.29,3,3,0,0,1-.45-1.52,10,10,0,0,1,.66-3.41,13.68,13.68,0,0,1,1.81-3.39,10.4,10.4,0,0,1,2.67-2.59,5.67,5.67,0,0,1,3.22-1,2.88,2.88,0,0,1,1.74.46,1.52,1.52,0,0,1,.63,1.3,2.58,2.58,0,0,1-.63,1.73A5.18,5.18,0,0,1,89.74,124a12.48,12.48,0,0,1-2.35.88c-.86.24-1.75.44-2.64.61a1.26,1.26,0,0,0-.3.08.34.34,0,0,0-.18.24q-.22.7-.45,1.53a6,6,0,0,0-.22,1.57,2.93,2.93,0,0,0,.43,1.73,1.44,1.44,0,0,0,1.26.61,3.2,3.2,0,0,0,1.95-.58,7.77,7.77,0,0,0,1.32-1.15.86.86,0,0,1,.57-.35.28.28,0,0,1,.32.32v.11a.2.2,0,0,1-.06.14A7.89,7.89,0,0,1,88,131.52a6.1,6.1,0,0,1-1.71,1.09A5.35,5.35,0,0,1,84.27,133Zm.7-8.23a5.73,5.73,0,0,0,1.2-.21,8,8,0,0,0,1.78-.67,5.5,5.5,0,0,0,1.58-1.15,2.3,2.3,0,0,0,.66-1.65,1.28,1.28,0,0,0-.22-.72.78.78,0,0,0-.65-.3,2.58,2.58,0,0,0-1.45.56A9.26,9.26,0,0,0,86.38,122a12,12,0,0,0-1.17,1.52,2.44,2.44,0,0,0-.46,1.09C84.75,124.69,84.82,124.75,85,124.75Z"/><path class="cls-1" d="M99,132.94a1.46,1.46,0,0,1-.93-.44,1.29,1.29,0,0,1-.51-1,1.32,1.32,0,0,1,.06-.39l6.09-17.31A8.72,8.72,0,0,0,104,113a4.78,4.78,0,0,0,.08-.84.73.73,0,0,0-.31-.54,1.63,1.63,0,0,0-.75-.35,1.44,1.44,0,0,1-.51-.18c-.13-.07-.2-.15-.2-.24a.78.78,0,0,1,0-.16.49.49,0,0,1,.06-.13.16.16,0,0,1,.12-.06,13.41,13.41,0,0,1,1.47-.3l1.61-.26a9.55,9.55,0,0,1,1-.11.37.37,0,0,1,.27.11.5.5,0,0,1,.12.37,1.82,1.82,0,0,1-.07.43c0,.16-.08.32-.13.46l-6.46,18.44a2.38,2.38,0,0,0-.13.49,3.59,3.59,0,0,0,0,.43c0,.35.11.52.32.52a2,2,0,0,0,1.1-.5,9.52,9.52,0,0,0,1.3-1.2,12.85,12.85,0,0,0,1-1.25,3.3,3.3,0,0,1,.44-.49.72.72,0,0,1,.39-.24c.08,0,.13,0,.14.11a2.11,2.11,0,0,1,0,.3,2.59,2.59,0,0,1-.44,1.35,7,7,0,0,1-1.13,1.39,10.89,10.89,0,0,1-1.5,1.23,9.73,9.73,0,0,1-1.54.86A3.15,3.15,0,0,1,99,132.94Z"/><path class="cls-1" d="M107.34,132.94a1.58,1.58,0,0,1-.77-.2,2,2,0,0,1-.62-.53,1.1,1.1,0,0,1-.24-.67,6.17,6.17,0,0,1,.77-2.68,17.65,17.65,0,0,1,2.14-3.2,26.78,26.78,0,0,1,3.17-3.24,33.28,33.28,0,0,1,2.81-2.26,3.48,3.48,0,0,1,1.6-.75,1.15,1.15,0,0,1,.9.45c.3.38.43.56.4.52s0,0,0,0a.18.18,0,0,0,.12,0,.5.5,0,0,0,.08-.15l.54-.92c.06-.11.06-.12,0,0,.13-.21.26-.32.38-.32a1.91,1.91,0,0,1,.58.1,1.13,1.13,0,0,1,.46.26.43.43,0,0,1,.18.32,4.34,4.34,0,0,1-.22.8l-3.59,9.5c-.28.73-.14,1.09.42,1.09a2.64,2.64,0,0,0,1.39-.56,6.11,6.11,0,0,0,1.42-1.36.83.83,0,0,1,.15-.11.22.22,0,0,1,.14-.05.19.19,0,0,1,.18.08.56.56,0,0,1,.05.27,2.22,2.22,0,0,1-.45.88,6.83,6.83,0,0,1-2.74,2.42,3.79,3.79,0,0,1-1.68.44,1.24,1.24,0,0,1-.64-.19,1.72,1.72,0,0,1-.52-.48.9.9,0,0,1-.21-.57,1.63,1.63,0,0,1,.19-.74c-.09.19-.09.19,0,0s.2-.49.39-.9l.59-1.28c.21-.44.39-.84.54-1.18a1.16,1.16,0,0,0,.15-.53c0-.11-.08-.1-.21.05-1.3,1.45-2.42,2.6-3.34,3.46a12,12,0,0,1-2.45,1.82A4.47,4.47,0,0,1,107.34,132.94Zm1.79-2a4.06,4.06,0,0,0,2.1-1.17,26.85,26.85,0,0,0,3.15-3.25,18.78,18.78,0,0,0,1.92-2.59,4,4,0,0,0,.7-1.76c0-.17-.13-.37-.41-.61a1.79,1.79,0,0,0-.42-.25.93.93,0,0,0-.38-.1,3.51,3.51,0,0,0-1.59.58,9.47,9.47,0,0,0-1.84,1.37,20,20,0,0,0-2,2.31,15.7,15.7,0,0,0-1.55,2.46,4.57,4.57,0,0,0-.6,1.92,1.17,1.17,0,0,0,.26.78A.81.81,0,0,0,109.13,130.93Z"/><path class="cls-1" d="M130.51,132.94a2.35,2.35,0,0,1-1.44-.51,3.56,3.56,0,0,1-1.07-1.34,4,4,0,0,1-.4-1.76,10,10,0,0,1,.59-3.25,13.41,13.41,0,0,1,1.65-3.3,9.9,9.9,0,0,1,2.45-2.54,5,5,0,0,1,3-1,3,3,0,0,1,2.48,1.09,4.15,4.15,0,0,1,.88,2.68,10.11,10.11,0,0,1-.58,3.16,12.39,12.39,0,0,1-1.65,3.24,9.47,9.47,0,0,1-2.56,2.53A5.88,5.88,0,0,1,130.51,132.94Zm.51-1a2.38,2.38,0,0,0,1.55-.67,8.15,8.15,0,0,0,1.51-1.76,15.1,15.1,0,0,0,1.28-2.4,18,18,0,0,0,.89-2.62,9.55,9.55,0,0,0,.34-2.4,3.11,3.11,0,0,0-.27-1.38,1.12,1.12,0,0,0-1.11-.54,2.5,2.5,0,0,0-1.52.61,7.48,7.48,0,0,0-1.5,1.63,14.27,14.27,0,0,0-1.3,2.29,15.6,15.6,0,0,0-.91,2.62,11.25,11.25,0,0,0-.34,2.64,2.51,2.51,0,0,0,.37,1.52A1.22,1.22,0,0,0,131,132Z"/><path class="cls-1" d="M142.44,132.75a2.71,2.71,0,0,1-2-.72,2.53,2.53,0,0,1-.73-1.9,9.61,9.61,0,0,1,.19-1.81,17,17,0,0,1,.54-2.06l4-12.2a4.8,4.8,0,0,0,.24-.88,4,4,0,0,0,.08-.84.36.36,0,0,0-.17-.29,2.19,2.19,0,0,0-.63-.26q-1-.26-1-.48a.33.33,0,0,1,.11-.25,1.33,1.33,0,0,1,.4-.2l.91-.3,1.14-.34c.39-.1.73-.19,1-.25a3.56,3.56,0,0,1,.59-.1c.34,0,.52.11.52.32a2.41,2.41,0,0,1,0,.5c0,.14-.09.32-.18.56-.17.43-.4,1.06-.7,1.9s-.63,1.78-1,2.82l-1.07,3.13-1,3c-.31.92-.55,1.66-.72,2.21-.08.22-.08.34,0,.39s.21,0,.36-.23a21.62,21.62,0,0,1,3.59-3.84,5.07,5.07,0,0,1,2.88-1.34,2.27,2.27,0,0,1,1.69.67,2.3,2.3,0,0,1,.68,1.7,8.32,8.32,0,0,1-.6,3,13.83,13.83,0,0,1-1.59,3,15.52,15.52,0,0,1-2.29,2.61,12.37,12.37,0,0,1-2.64,1.82A6,6,0,0,1,142.44,132.75Zm.84-1a2.19,2.19,0,0,0,1.09-.45,10.34,10.34,0,0,0,1.45-1.23,16.07,16.07,0,0,0,1.52-1.78,16.68,16.68,0,0,0,2.42-4.62,6.6,6.6,0,0,0,.37-1.91,1.51,1.51,0,0,0-.28-.91.81.81,0,0,0-.65-.37,3.76,3.76,0,0,0-2.28,1.12,22.15,22.15,0,0,0-3,3.43,21.65,21.65,0,0,0-1.7,2.72,4.82,4.82,0,0,0-.64,1.85,2.41,2.41,0,0,0,.5,1.51A1.44,1.44,0,0,0,143.28,131.73Z"/><path class="cls-1" d="M153.9,133a.74.74,0,0,1-.35-.11,1,1,0,0,1-.32-.29.6.6,0,0,1-.13-.37,3,3,0,0,1,.21-1c.14-.4.31-.89.53-1.49l2.94-7.68a1.86,1.86,0,0,0,.14-.77c0-.23-.12-.35-.33-.35a3.72,3.72,0,0,0-.88.11,3.38,3.38,0,0,0-.66.24.36.36,0,0,1-.37,0,.31.31,0,0,1-.17-.31,1,1,0,0,1,.24-.57,3,3,0,0,1,.65-.61,3.8,3.8,0,0,1,.92-.48,3.14,3.14,0,0,1,1.1-.19q.9,0,1.14.45a1.69,1.69,0,0,1,.06,1.2,12,12,0,0,1-.56,1.71l-1.44,3.61c-.08.15-.06.25.08.29a.23.23,0,0,0,.3-.09,34,34,0,0,1,2.58-3.86A16,16,0,0,1,162,120a3.22,3.22,0,0,1,1.85-.91,1.32,1.32,0,0,1,1.17.48,1.93,1.93,0,0,1,.34,1.12,3.59,3.59,0,0,1-.21,1.18,2.76,2.76,0,0,1-.58,1,1.06,1.06,0,0,1-.81.4.43.43,0,0,1-.39-.3,2.31,2.31,0,0,1-.13-.82,1.89,1.89,0,0,0-.12-.75.49.49,0,0,0-.48-.27,1.57,1.57,0,0,0-.85.41,9,9,0,0,0-1.33,1.44l-.93,1.31c-.38.56-.79,1.17-1.23,1.84s-.87,1.36-1.3,2-.8,1.33-1.11,1.91c-.58,1-1,1.77-1.24,2.24S154.16,133,153.9,133Z"/><path class="cls-1" d="M163.79,132.94a1.58,1.58,0,0,1-.77-.2,1.9,1.9,0,0,1-.62-.53,1.1,1.1,0,0,1-.24-.67,6.14,6.14,0,0,1,.76-2.68,18.29,18.29,0,0,1,2.15-3.2,26.05,26.05,0,0,1,3.17-3.24,33.28,33.28,0,0,1,2.81-2.26,3.48,3.48,0,0,1,1.6-.75,1.16,1.16,0,0,1,.9.45c.3.38.43.56.4.52s0,0,0,0a.18.18,0,0,0,.12,0,.5.5,0,0,0,.08-.15c.29-.51.47-.82.54-.92s.06-.12,0,0c.13-.21.25-.32.38-.32a2,2,0,0,1,.58.1,1.13,1.13,0,0,1,.46.26.43.43,0,0,1,.18.32,4.34,4.34,0,0,1-.22.8l-3.59,9.5c-.28.73-.14,1.09.42,1.09a2.64,2.64,0,0,0,1.39-.56,6.11,6.11,0,0,0,1.42-1.36.58.58,0,0,1,.15-.11.22.22,0,0,1,.14-.05.21.21,0,0,1,.18.08.56.56,0,0,1,.05.27,2.22,2.22,0,0,1-.45.88A6.83,6.83,0,0,1,173,132.5a3.82,3.82,0,0,1-1.68.44,1.21,1.21,0,0,1-.64-.19,1.88,1.88,0,0,1-.53-.48.94.94,0,0,1-.2-.57,1.63,1.63,0,0,1,.19-.74c-.09.19-.1.19,0,0s.2-.49.38-.9.38-.83.6-1.28.39-.84.54-1.18a1.3,1.3,0,0,0,.15-.53c0-.11-.08-.1-.21.05q-1.95,2.17-3.35,3.46a12,12,0,0,1-2.44,1.82A4.47,4.47,0,0,1,163.79,132.94Zm1.79-2a4.06,4.06,0,0,0,2.1-1.17,28.45,28.45,0,0,0,3.15-3.25,18.78,18.78,0,0,0,1.92-2.59,4,4,0,0,0,.7-1.76c0-.17-.14-.37-.41-.61a1.79,1.79,0,0,0-.42-.25.93.93,0,0,0-.38-.1,3.48,3.48,0,0,0-1.59.58,9.47,9.47,0,0,0-1.84,1.37,20,20,0,0,0-2,2.31,16.58,16.58,0,0,0-1.56,2.46,4.67,4.67,0,0,0-.59,1.92,1.17,1.17,0,0,0,.26.78A.81.81,0,0,0,165.58,130.93Z"/><path class="cls-2" d="M0,17.27V11.12a10.54,10.54,0,0,1,2.08-6.9A10.08,10.08,0,0,1,8.15.9v3a6,6,0,0,0-4,3.2,5.2,5.2,0,0,0-.43,2.48H8.3v7.66ZM22,3.93a5.87,5.87,0,0,0-4,3.26,4.58,4.58,0,0,0-.47,2.42H22.1v7.66H13.8V11.12a10.37,10.37,0,0,1,2.14-6.93A10.34,10.34,0,0,1,22,.9Z"/><path class="cls-3" d="M53.31,27.4H44.05V44.23H35.29V1.31H56.34a19.65,19.65,0,0,1,6.95,1.11,10.9,10.9,0,0,1,4.12,3A13.13,13.13,0,0,1,69.62,9a11.81,11.81,0,0,1,.82,4.51,12.84,12.84,0,0,1-1.55,6,8.6,8.6,0,0,1-5.09,4.18A8,8,0,0,1,68,27.12q1.25,2.2,1.24,6.72v2.88a21.44,21.44,0,0,0,.24,4,3.53,3.53,0,0,0,1.63,2.44v1.08H61.23c-.27-.95-.46-1.72-.58-2.3a21.38,21.38,0,0,1-.38-3.7l-.06-4c0-2.73-.53-4.56-1.49-5.47S56,27.4,53.31,27.4Zm5.45-7.8c1.78-.82,2.68-2.43,2.68-4.84,0-2.6-.87-4.34-2.59-5.24a9.87,9.87,0,0,0-4.37-.76H44.05V20.3H54.22A11.41,11.41,0,0,0,58.76,19.6Z"/><path class="cls-3" d="M94.75,45.43q-9.19,0-14.06-5-6.52-6.15-6.52-17.71,0-11.79,6.52-17.7,4.86-5,14.06-5t14.07,5q6.5,5.91,6.49,17.7,0,11.57-6.49,17.71Q104,45.43,94.75,45.43Zm8.48-11.53c2.07-2.63,3.11-6.35,3.11-11.19s-1-8.53-3.13-11.16a10.23,10.23,0,0,0-8.46-4,10.37,10.37,0,0,0-8.5,3.93q-3.18,3.93-3.17,11.18c0,4.84,1,8.56,3.17,11.19a11.14,11.14,0,0,0,17,0Z"/><path class="cls-3" d="M130.37,44.23H122V1.31h13l7.81,33.75L150.6,1.31h12.9V44.23h-8.35v-29q0-1.25,0-3.51c0-1.5,0-2.66,0-3.48l-8.12,36h-8.71l-8.06-36q0,1.23,0,3.48t0,3.51Z"/><path class="cls-3" d="M201.71,25.48H180.86v11h23.76v7.71H172.09V1.31h31.48v7.6H180.86V18h20.85Z"/><path class="cls-3" d="M228.21,45.43q-9.19,0-14.06-5-6.53-6.15-6.53-17.71,0-11.79,6.53-17.7Q219,0,228.21,0t14.06,5q6.49,5.91,6.5,17.7,0,11.57-6.5,17.71Q237.41,45.43,228.21,45.43Zm8.47-11.53c2.08-2.63,3.12-6.35,3.12-11.19s-1-8.53-3.13-11.16a10.24,10.24,0,0,0-8.46-4,10.36,10.36,0,0,0-8.5,3.93q-3.18,3.93-3.18,11.18c0,4.84,1.06,8.56,3.18,11.19a11.12,11.12,0,0,0,17,0Z"/><path class="cls-3" d="M18.08,88.53a8.48,8.48,0,0,0,1.24-2.23A20.09,20.09,0,0,0,20,83.89H22a22.56,22.56,0,0,1-1.11,3.24,11.3,11.3,0,0,1-1.86,3L21.9,94.7H19.22l-1.7-2.82a12.6,12.6,0,0,1-3.91,2.65,11.41,11.41,0,0,1-4.34.8,7.35,7.35,0,0,1-2.8-.52A5.67,5.67,0,0,1,4.4,93.37a5,5,0,0,1-1.12-2.24,6.72,6.72,0,0,1,0-2.89,7.82,7.82,0,0,1,1-2.46,10.2,10.2,0,0,1,1.67-2,11.78,11.78,0,0,1,2.17-1.64,18.16,18.16,0,0,1,2.45-1.24c-.24-.38-.48-.77-.7-1.18a7.22,7.22,0,0,1-.54-1.28A5.75,5.75,0,0,1,9.08,77a4.63,4.63,0,0,1,.1-1.51,5.19,5.19,0,0,1,.84-2A5.91,5.91,0,0,1,11.49,72a6.68,6.68,0,0,1,1.91-.89,7.73,7.73,0,0,1,2.14-.3,4.68,4.68,0,0,1,1.93.37,3.55,3.55,0,0,1,1.36,1,3.35,3.35,0,0,1,.7,1.47,4.28,4.28,0,0,1,0,1.78,6.4,6.4,0,0,1-.81,2.07,6.87,6.87,0,0,1-1.35,1.55,11.45,11.45,0,0,1-1.75,1.25c-.64.37-1.31.75-2,1.12Zm-6.59-6.26a13.27,13.27,0,0,0-2.07,1.11,11.35,11.35,0,0,0-1.77,1.44,9.55,9.55,0,0,0-1.36,1.71,5.85,5.85,0,0,0-.76,1.87,4.88,4.88,0,0,0,0,2.14,3.51,3.51,0,0,0,.8,1.6,3.65,3.65,0,0,0,1.47,1,5.3,5.3,0,0,0,2.06.37,7.69,7.69,0,0,0,3.59-.88,14.14,14.14,0,0,0,3.16-2.3Zm5.44-5.47a3.53,3.53,0,0,0,.53-1.4A2.9,2.9,0,0,0,17.33,74a2.12,2.12,0,0,0-.82-1,2.56,2.56,0,0,0-1.5-.4,4.13,4.13,0,0,0-1.25.2,4.47,4.47,0,0,0-1.14.56,3.7,3.7,0,0,0-.91.9,3,3,0,0,0-.51,1.19,2.86,2.86,0,0,0,0,1.16,7.6,7.6,0,0,0,.38,1.23A12,12,0,0,0,12.17,79c.21.36.41.68.58.94.75-.4,1.51-.83,2.27-1.31A6.1,6.1,0,0,0,16.93,76.8Z"/><path class="cls-3" d="M48.39,81.8v-30h9V81.65a17.06,17.06,0,0,1-1.9,8.68q-3.19,5.42-11.56,5.41T32.69,91.36q-2.85-4.38-2.85-12v-1h8.47v1q.12,5,1.09,7c.65,1.35,2.05,2,4.18,2s3.52-.74,4.2-2.22A11.53,11.53,0,0,0,48.39,81.8Z"/><path class="cls-3" d="M91.63,78.16V51.77h9.11V78.16q0,6.84-2.12,10.65-4,7-15.11,7t-15.15-7Q66.25,85,66.24,78.16V51.77h9.11V78.16a14.86,14.86,0,0,0,1.05,6.46q1.63,3.61,7.11,3.61c3.63,0,6-1.2,7.07-3.61A14.86,14.86,0,0,0,91.63,78.16Z"/><path class="cls-3" d="M109.3,51.77h9V87h21.26V94.7H109.3Z"/><path class="cls-3" d="M145,51.77H154V94.7H145Z"/><path class="cls-3" d="M192.18,75.94H171.33V87h23.76V94.7H162.56V51.77H194v7.6H171.33v9.12h20.85Z"/><path class="cls-3" d="M233.27,51.77v7.6H220.43V94.7h-9V59.37H198.5v-7.6Z"/><path class="cls-3" d="M259.24,85.87H243.43l-3,8.83h-9.38L246.4,51.77h10.13l15.2,42.93H262Zm-2.5-7.39-5.36-16.89-5.53,16.89Z"/><path class="cls-2" d="M277,59.58V51.92h8.3v6.14a10.65,10.65,0,0,1-2.08,6.88,9.8,9.8,0,0,1-6.07,3.34v-3a6,6,0,0,0,4-3.21,5,5,0,0,0,.47-2.44Zm20,5.27a9.69,9.69,0,0,1-6.12,3.43v-3a5.79,5.79,0,0,0,4-3.32,6,6,0,0,0,.41-2.33h-4.54V51.92h8.27v6.14A10.85,10.85,0,0,1,297,64.85Z"/></g></g></svg>