<?xml version="1.0" encoding="utf-8"?>
<!-- Generator: Adobe Illustrator 25.3.1, SVG Export Plug-In . SVG Version: 6.00 Build 0)  -->
<svg version="1.1" id="Capa_1" xmlns="http://www.w3.org/2000/svg" xmlns:xlink="http://www.w3.org/1999/xlink" x="0px" y="0px"
	 viewBox="0 0 383 73.9" style="enable-background:new 0 0 383 73.9;" xml:space="preserve">
<style type="text/css">
	.st0{fill:#FFFFFF;}
</style>
<g>
	<rect x="139.2" y="10.3" class="st0" width="1" height="54.5"/>
	<g>
		<g>
			<path class="st0" d="M18.6,50.1h-3.9V30h6.1l3.6,15.7L28,30h6v20h-3.9V36.5c0-0.4,0-0.9,0-1.6c0-0.7,0-1.2,0-1.6l-3.8,16.8h-4.1
				l-3.8-16.8c0,0.4,0,0.9,0,1.6c0,0.7,0,1.2,0,1.6V50.1z"/>
			<path class="st0" d="M37.6,36.9c1-1.3,2.8-2,5.3-2c1.6,0,3.1,0.3,4.3,1c1.3,0.6,1.9,1.9,1.9,3.6v6.8c0,0.5,0,1,0,1.7
				c0,0.5,0.1,0.9,0.2,1c0.1,0.2,0.3,0.3,0.6,0.4v0.6h-4.2c-0.1-0.3-0.2-0.6-0.2-0.8c0-0.3-0.1-0.6-0.1-0.9
				c-0.5,0.6-1.1,1.1-1.8,1.5c-0.8,0.5-1.8,0.7-2.8,0.7c-1.3,0-2.4-0.4-3.3-1.1c-0.9-0.8-1.3-1.8-1.3-3.3c0-1.8,0.7-3.1,2.1-4
				c0.8-0.4,1.9-0.8,3.4-1l1.3-0.2c0.7-0.1,1.2-0.2,1.5-0.3c0.6-0.2,0.8-0.6,0.8-1.1c0-0.6-0.2-1-0.6-1.3c-0.4-0.2-1-0.3-1.9-0.3
				c-0.9,0-1.6,0.2-1.9,0.7c-0.3,0.3-0.5,0.8-0.5,1.4h-3.7C36.6,38.8,37,37.7,37.6,36.9z M40.5,47.3c0.4,0.3,0.8,0.4,1.3,0.4
				c0.8,0,1.6-0.2,2.3-0.7c0.7-0.5,1.1-1.4,1.1-2.7v-1.4c-0.2,0.2-0.5,0.3-0.7,0.4s-0.6,0.2-1,0.3l-0.9,0.2
				c-0.8,0.1-1.4,0.3-1.8,0.5c-0.6,0.4-0.9,0.9-0.9,1.6C39.9,46.5,40.1,47,40.5,47.3z"/>
			<path class="st0" d="M64.8,40.6h-4c-0.1-0.6-0.3-1.1-0.6-1.5c-0.4-0.6-1.1-0.9-2-0.9c-1.3,0-2.2,0.6-2.7,1.9
				c-0.3,0.7-0.4,1.6-0.4,2.7c0,1.1,0.1,2,0.4,2.6c0.5,1.2,1.3,1.8,2.6,1.8c0.9,0,1.5-0.2,1.9-0.7c0.4-0.5,0.6-1.1,0.7-1.9h4
				c-0.1,1.2-0.5,2.3-1.3,3.3c-1.2,1.7-3,2.5-5.4,2.5s-4.1-0.7-5.3-2.1c-1.1-1.4-1.7-3.2-1.7-5.5c0-2.5,0.6-4.5,1.9-5.9
				c1.2-1.4,3-2.1,5.1-2.1c1.9,0,3.4,0.4,4.6,1.2C63.9,37,64.6,38.5,64.8,40.6z"/>
			<path class="st0" d="M74.9,50.5c-1.2,0-2.2-0.2-2.9-0.7c-0.4-0.3-0.9-0.8-1.4-1.5v1.9h-3.8v-20h3.9v7.1c0.5-0.7,1-1.2,1.6-1.6
				c0.7-0.5,1.6-0.7,2.7-0.7c1.9,0,3.5,0.7,4.6,2.1c1.1,1.4,1.7,3.2,1.7,5.4c0,2.3-0.5,4.2-1.6,5.7C78.4,49.7,76.9,50.5,74.9,50.5z
				 M77,42.9c0-1-0.1-1.9-0.4-2.6c-0.5-1.3-1.5-2-2.9-2c-1.4,0-2.4,0.6-2.9,1.9c-0.3,0.7-0.4,1.6-0.4,2.6c0,1.3,0.3,2.3,0.8,3.2
				s1.4,1.2,2.6,1.2c1,0,1.8-0.4,2.3-1.2S77,44.2,77,42.9z"/>
			<path class="st0" d="M96,45.7c-0.1,0.9-0.6,1.8-1.4,2.7c-1.3,1.4-3,2.2-5.3,2.2c-1.9,0-3.5-0.6-5-1.8c-1.4-1.2-2.2-3.2-2.2-5.9
				c0-2.6,0.6-4.5,1.9-5.9s3-2.1,5.1-2.1c1.2,0,2.3,0.2,3.3,0.7c1,0.5,1.8,1.2,2.4,2.2c0.6,0.9,1,1.9,1.1,3.1
				c0.1,0.7,0.1,1.7,0.1,2.9H86c0.1,1.5,0.5,2.5,1.4,3.1c0.5,0.4,1.2,0.6,1.9,0.6c0.8,0,1.4-0.2,1.9-0.7c0.3-0.2,0.5-0.6,0.7-1H96z
				 M92.2,41.2c-0.1-1-0.4-1.8-0.9-2.3c-0.6-0.5-1.2-0.8-2.1-0.8c-0.9,0-1.6,0.3-2.1,0.8c-0.5,0.6-0.8,1.3-0.9,2.3H92.2z"/>
			<path class="st0" d="M105,47.3v2.9l-1.8,0.1c-1.8,0.1-3.1-0.3-3.7-1c-0.4-0.4-0.7-1.1-0.7-2.1v-9.1h-2.1v-2.8h2.1v-4.1h3.8v4.1
				h2.4v2.8h-2.4V46c0,0.6,0.1,1,0.2,1.1s0.6,0.2,1.4,0.2c0.1,0,0.2,0,0.4,0C104.7,47.3,104.9,47.3,105,47.3z"/>
			<path class="st0" d="M120.3,41.4v8.7h-4v-9c0-0.8-0.1-1.4-0.4-1.9c-0.4-0.7-1-1-2-1c-1,0-1.8,0.3-2.3,1s-0.8,1.7-0.8,2.9v8H107
				v-20h3.9v7.1c0.6-0.9,1.2-1.5,1.9-1.8c0.7-0.3,1.5-0.5,2.3-0.5c0.9,0,1.7,0.2,2.5,0.5s1.4,0.8,1.8,1.5c0.4,0.6,0.7,1.1,0.7,1.7
				S120.3,40,120.3,41.4z"/>
		</g>
	</g>
	<g>
		<g>
			<path class="st0" d="M166.9,42.7h-4.3v7.9h-4.1v-20h9.8c1.4,0,2.5,0.2,3.2,0.5s1.4,0.8,1.9,1.4c0.4,0.5,0.8,1.1,1,1.7
				c0.3,0.6,0.4,1.3,0.4,2.1c0,1-0.2,1.9-0.7,2.8s-1.3,1.6-2.4,1.9c0.9,0.4,1.6,0.9,2,1.6c0.4,0.7,0.6,1.7,0.6,3.1v1.3
				c0,0.9,0,1.5,0.1,1.9c0.1,0.5,0.4,0.9,0.8,1.1v0.5h-4.6c-0.1-0.4-0.2-0.8-0.3-1.1c-0.1-0.6-0.2-1.1-0.2-1.7l0-1.9
				c0-1.3-0.3-2.1-0.7-2.6C168.9,43,168.1,42.7,166.9,42.7z M169.4,39.1c0.8-0.4,1.2-1.1,1.2-2.3c0-1.2-0.4-2-1.2-2.4
				c-0.5-0.2-1.1-0.4-2-0.4h-4.9v5.4h4.7C168.2,39.4,168.9,39.3,169.4,39.1z"/>
			<path class="st0" d="M189.9,37.7c1.2,1.6,1.9,3.4,1.9,5.6c0,2.2-0.6,4-1.9,5.6c-1.2,1.5-3.1,2.3-5.7,2.3s-4.4-0.8-5.7-2.3
				c-1.2-1.5-1.9-3.4-1.9-5.6c0-2.1,0.6-4,1.9-5.6c1.2-1.6,3.1-2.3,5.7-2.3S188.7,36.1,189.9,37.7z M184.2,38.6
				c-1.1,0-2,0.4-2.6,1.2c-0.6,0.8-0.9,1.9-0.9,3.4c0,1.5,0.3,2.6,0.9,3.4c0.6,0.8,1.5,1.2,2.6,1.2c1.1,0,2-0.4,2.6-1.2
				c0.6-0.8,0.9-2,0.9-3.4c0-1.5-0.3-2.6-0.9-3.4C186.2,39,185.3,38.6,184.2,38.6z"/>
			<path class="st0" d="M202.3,39.9c-0.3-0.7-1-1.1-1.9-1.1c-1.1,0-1.8,0.4-2.2,1.1c-0.2,0.4-0.3,1-0.3,1.8v8.9h-3.9V35.8h3.8V38
				c0.5-0.8,0.9-1.3,1.4-1.6c0.8-0.6,1.7-0.9,2.9-0.9c1.1,0,2,0.2,2.7,0.7c0.6,0.5,1,1.1,1.3,1.8c0.5-0.9,1.1-1.5,1.9-1.9
				c0.8-0.4,1.7-0.6,2.7-0.6c0.7,0,1.3,0.1,1.9,0.4c0.6,0.3,1.2,0.7,1.7,1.3c0.4,0.5,0.7,1.1,0.8,1.9c0.1,0.5,0.1,1.2,0.1,2.2l0,9.3
				h-4v-9.4c0-0.6-0.1-1-0.3-1.4c-0.3-0.7-1-1-1.9-1c-1.1,0-1.8,0.4-2.2,1.3c-0.2,0.5-0.3,1-0.3,1.7v8.8h-3.9v-8.8
				C202.6,40.9,202.5,40.3,202.3,39.9z"/>
			<path class="st0" d="M230.9,46.2c-0.1,0.9-0.6,1.8-1.4,2.7c-1.3,1.4-3,2.2-5.3,2.2c-1.9,0-3.5-0.6-5-1.8
				c-1.4-1.2-2.2-3.2-2.2-5.9c0-2.6,0.6-4.5,1.9-5.9s3-2.1,5.1-2.1c1.2,0,2.3,0.2,3.3,0.7c1,0.5,1.8,1.2,2.4,2.2
				c0.6,0.9,1,1.9,1.1,3.1c0.1,0.7,0.1,1.7,0.1,2.9h-10.1c0.1,1.5,0.5,2.5,1.4,3.1c0.5,0.4,1.2,0.6,1.9,0.6c0.8,0,1.4-0.2,1.9-0.7
				c0.3-0.2,0.5-0.6,0.7-1H230.9z M227,41.7c-0.1-1-0.4-1.8-0.9-2.3c-0.6-0.5-1.2-0.8-2.1-0.8c-0.9,0-1.6,0.3-2.1,0.8
				c-0.5,0.6-0.8,1.3-0.9,2.3H227z"/>
			<path class="st0" d="M245.4,37.7c1.2,1.6,1.9,3.4,1.9,5.6c0,2.2-0.6,4-1.9,5.6c-1.2,1.5-3.1,2.3-5.7,2.3s-4.4-0.8-5.7-2.3
				c-1.2-1.5-1.9-3.4-1.9-5.6c0-2.1,0.6-4,1.9-5.6c1.2-1.6,3.1-2.3,5.7-2.3S244.2,36.1,245.4,37.7z M239.7,38.6
				c-1.1,0-2,0.4-2.6,1.2c-0.6,0.8-0.9,1.9-0.9,3.4c0,1.5,0.3,2.6,0.9,3.4c0.6,0.8,1.5,1.2,2.6,1.2c1.1,0,2-0.4,2.6-1.2
				c0.6-0.8,0.9-2,0.9-3.4c0-1.5-0.3-2.6-0.9-3.4C241.7,39,240.9,38.6,239.7,38.6z"/>
			<path class="st0" d="M262.9,51.1c-2,0-3.6-0.6-4.8-1.8c-1.1-1.2-1.7-2.5-1.7-4c0-1.2,0.3-2.2,0.9-3.1c0.6-0.9,1.6-1.7,2.9-2.6
				l0.4-0.3c-0.6-0.7-1-1.3-1.3-2c-0.3-0.7-0.5-1.4-0.5-2.1c0-1.5,0.5-2.6,1.5-3.4c1-0.8,2.2-1.2,3.8-1.2c1.4,0,2.6,0.4,3.5,1.3
				c0.9,0.8,1.4,1.9,1.4,3.2c0,1.2-0.3,2.1-0.8,2.9c-0.6,0.7-1.4,1.4-2.5,2l2.8,3.5c0.3-0.5,0.6-1,0.8-1.5c0.2-0.6,0.3-1.1,0.3-1.8
				h3.4c-0.1,1.2-0.3,2.4-0.9,3.7c-0.3,0.7-0.8,1.5-1.4,2.3l3.6,4.4h-4.7l-1.4-1.7c-0.7,0.6-1.3,1.1-1.9,1.4
				C265.4,50.8,264.2,51.1,262.9,51.1z M262.7,41.9c-1,0.6-1.6,1.2-1.9,1.7c-0.3,0.5-0.5,1-0.5,1.6c0,0.7,0.3,1.3,0.8,1.8
				c0.5,0.6,1.2,0.8,2.1,0.8c0.6,0,1.2-0.1,1.8-0.4c0.6-0.3,1-0.6,1.4-1L262.7,41.9z M262.4,35.1c0,0.4,0.1,0.7,0.4,1.1
				c0.2,0.3,0.5,0.7,1.1,1.4c0.5-0.4,0.9-0.7,1.2-1c0.5-0.5,0.7-1,0.7-1.6c0-0.4-0.1-0.8-0.4-1.1c-0.3-0.3-0.7-0.5-1.2-0.5
				c-0.3,0-0.7,0.1-1,0.3C262.6,34.1,262.4,34.5,262.4,35.1z"/>
			<path class="st0" d="M290.9,44.6v-14h4.2v13.9c0,1.7-0.3,3.1-0.9,4c-1,1.7-2.8,2.5-5.4,2.5c-2.6,0-4.3-0.7-5.2-2
				c-0.9-1.4-1.3-3.2-1.3-5.6V43h4v0.5c0,1.5,0.2,2.6,0.5,3.3s1,0.9,1.9,0.9c1,0,1.6-0.3,2-1C290.8,46.2,290.9,45.5,290.9,44.6z"/>
			<path class="st0" d="M307.8,48.5c0,0-0.1,0.2-0.3,0.4c-0.1,0.2-0.3,0.4-0.5,0.6c-0.6,0.5-1.2,0.9-1.8,1.1c-0.6,0.2-1.2,0.3-2,0.3
				c-2.2,0-3.7-0.8-4.4-2.4c-0.4-0.9-0.6-2.2-0.6-3.8v-8.9h4v8.9c0,0.8,0.1,1.5,0.3,1.9c0.4,0.8,1,1.1,2.1,1.1
				c1.3,0,2.2-0.5,2.7-1.6c0.3-0.6,0.4-1.3,0.4-2.3v-8.1h3.9v14.8h-3.8V48.5z"/>
			<path class="st0" d="M314.8,30.6h3.9v20h-3.9V30.6z"/>
			<path class="st0" d="M325.9,30.4V34H322v-3.6H325.9z M325.9,35.8v14.8H322V35.8H325.9z"/>
			<path class="st0" d="M341.8,46.2c-0.1,0.9-0.6,1.8-1.4,2.7c-1.3,1.4-3,2.2-5.3,2.2c-1.9,0-3.5-0.6-5-1.8
				c-1.4-1.2-2.2-3.2-2.2-5.9c0-2.6,0.6-4.5,1.9-5.9s3-2.1,5.1-2.1c1.2,0,2.3,0.2,3.3,0.7c1,0.5,1.8,1.2,2.4,2.2
				c0.6,0.9,1,1.9,1.1,3.1c0.1,0.7,0.1,1.7,0.1,2.9h-10.1c0.1,1.5,0.5,2.5,1.4,3.1c0.5,0.4,1.2,0.6,1.9,0.6c0.8,0,1.4-0.2,1.9-0.7
				c0.3-0.2,0.5-0.6,0.7-1H341.8z M337.9,41.7c-0.1-1-0.4-1.8-0.9-2.3c-0.6-0.5-1.2-0.8-2.1-0.8c-0.9,0-1.6,0.3-2.1,0.8
				c-0.5,0.6-0.8,1.3-0.9,2.3H337.9z"/>
			<path class="st0" d="M350.8,47.8v2.9l-1.8,0.1c-1.8,0.1-3.1-0.3-3.7-1c-0.4-0.4-0.7-1.1-0.7-2.1v-9.1h-2.1v-2.8h2.1v-4.1h3.8v4.1
				h2.4v2.8h-2.4v7.8c0,0.6,0.1,1,0.2,1.1s0.6,0.2,1.4,0.2c0.1,0,0.2,0,0.4,0C350.5,47.8,350.7,47.8,350.8,47.8z"/>
			<path class="st0" d="M353.3,37.4c1-1.3,2.8-2,5.3-2c1.6,0,3.1,0.3,4.3,1c1.3,0.6,1.9,1.9,1.9,3.6v6.8c0,0.5,0,1,0,1.7
				c0,0.5,0.1,0.9,0.2,1c0.1,0.2,0.3,0.3,0.6,0.4v0.6h-4.2c-0.1-0.3-0.2-0.6-0.2-0.8c0-0.3-0.1-0.6-0.1-0.9
				c-0.5,0.6-1.1,1.1-1.8,1.5c-0.8,0.5-1.8,0.7-2.8,0.7c-1.3,0-2.4-0.4-3.3-1.1c-0.9-0.8-1.3-1.8-1.3-3.3c0-1.8,0.7-3.1,2.1-4
				c0.8-0.4,1.9-0.8,3.4-1l1.3-0.2c0.7-0.1,1.2-0.2,1.5-0.3c0.6-0.2,0.8-0.6,0.8-1.1c0-0.6-0.2-1-0.6-1.3c-0.4-0.2-1-0.3-1.9-0.3
				c-0.9,0-1.6,0.2-1.9,0.7c-0.3,0.3-0.5,0.8-0.5,1.4h-3.7C352.3,39.3,352.6,38.2,353.3,37.4z M356.2,47.8c0.4,0.3,0.8,0.4,1.3,0.4
				c0.8,0,1.6-0.2,2.3-0.7c0.7-0.5,1.1-1.4,1.1-2.7v-1.4c-0.2,0.2-0.5,0.3-0.7,0.4s-0.6,0.2-1,0.3l-0.9,0.2
				c-0.8,0.1-1.4,0.3-1.8,0.5c-0.6,0.4-0.9,0.9-0.9,1.6C355.6,47,355.8,47.5,356.2,47.8z"/>
		</g>
	</g>
</g>
</svg>
