<svg xmlns="http://www.w3.org/2000/svg" viewBox="0 0 88.12 88.33"><defs><style>.cls-1{fill:#fff;stroke:#fff;stroke-miterlimit:10;}</style></defs><g id="Capa_2" data-name="Capa 2"><g id="Capa_1-2" data-name="Capa 1"><g id="QujOcT"><path class="cls-1" d="M25.29,87.83A18.43,18.43,0,0,1,22.71,87,9.29,9.29,0,0,1,17,78.22c-.07-3.67,0-7.33,0-11V47.7a4.84,4.84,0,0,1,0-.85,1.26,1.26,0,0,1,1.36-1.14,1.22,1.22,0,0,1,1.17,1.23c0,.28,0,.57,0,.85V71.52c.13,0,.17,0,.18,0,2.48-2.38,5.52-2.83,8.82-2.82,16.31.06,32.62,0,48.93,0,4.45,0,8,2.31,9.43,6.13a9.51,9.51,0,0,1-7.3,12.8,2.62,2.62,0,0,0-.39.15Zm7.88-16.44C37,76,37,80.59,33.14,85.25H76.78a19,19,0,0,0,2.13-.12,6.88,6.88,0,0,0,5.28-9.87,7.08,7.08,0,0,0-6.84-3.91H34C33.76,71.34,33.49,71.37,33.17,71.39Zm-6.33,0a6.91,6.91,0,1,0,6.54,7.2A6.87,6.87,0,0,0,26.84,71.4Z"/><path class="cls-1" d="M62.81.5a21.9,21.9,0,0,1,3.31,1.25,13.29,13.29,0,0,1,2.63,2.12,1.25,1.25,0,0,1,0,1.89,1.24,1.24,0,0,1-1.83-.15A8.21,8.21,0,0,0,60.3,3.06c-14.19,0-28.37,0-42.55,0H16.63c.16.23.23.35.31.44a9.51,9.51,0,0,1,2.58,6.66c0,10.41,0,30.5,0,40.9,0,1.09-.46,1.67-1.26,1.68s-1.33-.61-1.33-1.73V10.48A6.93,6.93,0,1,0,6.36,15.91a6.82,6.82,0,0,0,5.88.65,6.84,6.84,0,0,1,.74-.21,1.23,1.23,0,0,1,1.62.83,1.15,1.15,0,0,1-.8,1.56,15.28,15.28,0,0,1-4,.79A9.51,9.51,0,0,1,8.36.65,2,2,0,0,0,8.74.5Z"/><path class="cls-1" d="M47.72,47.48c12.52-2.72,25.89-11,34.69-23.33.23-.29.47-.57.72-.85a1.33,1.33,0,0,1,2-.24,1.25,1.25,0,0,1,0,1.9c-1.45,1.67-3.73,5.25-7.71,9.82C70.55,41.86,62.17,46.25,52.81,49a80,80,0,0,0-7.75,2.58A13.12,13.12,0,0,0,41.43,54c-1.89,1.71-3.64,3.59-5.45,5.4a5.68,5.68,0,0,1-.57.52,1.18,1.18,0,0,1-1.69-.07,1.19,1.19,0,0,1-.11-1.7,5.48,5.48,0,0,1,.52-.56c1.37-1.37,2.66-2.82,4.12-4.08a17.17,17.17,0,0,0,5-8.25c1.26-4.06,2.53-8.13,4.06-12.1A48.37,48.37,0,0,1,59.52,15.39,39.92,39.92,0,0,1,69.68,7.86,16.09,16.09,0,0,1,80.5,6.26a9,9,0,0,1,7,8.12A18,18,0,0,1,85.3,24.63,1.29,1.29,0,1,1,83,23.48a18,18,0,0,0,1.91-5.7,10.38,10.38,0,0,0-.34-4.89c-1-2.79-3.48-4.36-6.82-4.38a15.75,15.75,0,0,0-8.9,2.77,49.25,49.25,0,0,0-19.19,23c-1.48,3.7-2.65,7.53-4,11.3l.27.15.61-.6L75.76,16a5.64,5.64,0,0,1,.82-.73,1.15,1.15,0,0,1,1.55.18A1.17,1.17,0,0,1,78.31,17a5.71,5.71,0,0,1-.73.83L48.46,46.9A8.2,8.2,0,0,1,47.72,47.48Z"/><path class="cls-1" d="M41.66,14.26H53.85a5.65,5.65,0,0,1,1,.05,1.12,1.12,0,0,1,1,1.1,1.13,1.13,0,0,1-.76,1.28,2.82,2.82,0,0,1-1,.15h-25a3.37,3.37,0,0,1-.84-.08,1.16,1.16,0,0,1-1-1.31,1.16,1.16,0,0,1,1.13-1.16,12.35,12.35,0,0,1,1.36,0Z"/><path class="cls-1" d="M38.42,25.15H29.31A2.09,2.09,0,0,1,28.23,25c-.37-.26-.84-.72-.85-1.1a2.09,2.09,0,0,1,.78-1.24c.2-.19.64-.15,1-.15H47.79c.31,0,.72,0,.9.13a2.6,2.6,0,0,1,.83,1.22,1,1,0,0,1-.89,1.17,4.22,4.22,0,0,1-1,.08Z"/><path class="cls-1" d="M71,55.33c0,3.26,0,6.53,0,9.8a2.09,2.09,0,0,1-.37,1.25,1.22,1.22,0,0,1-2.1-.48,3.34,3.34,0,0,1-.1-1V45.3c0-1,.52-1.59,1.29-1.6S71,44.29,71,45.27C71,48.63,71,52,71,55.33Z"/><path class="cls-1" d="M36.29,33.59H28.87a1.35,1.35,0,0,1-1.51-1A1.27,1.27,0,0,1,28.73,31c1.88,0,3.75,0,5.63,0,3.1,0,6.19,0,9.29,0,1,0,1.56.53,1.52,1.33s-.6,1.23-1.55,1.24Z"/><path class="cls-1" d="M35.08,42.05c-2,0-3.92,0-5.88,0-.33,0-.76.05-1-.13s-.83-.73-.83-1.11a2,2,0,0,1,.79-1.23c.24-.19.71-.14,1.07-.14H41.16c1.06,0,1.66.49,1.68,1.29s-.61,1.32-1.72,1.33C39.11,42.06,37.09,42.05,35.08,42.05Z"/><path class="cls-1" d="M6.52,10a5.23,5.23,0,0,1,5-5.2A1.34,1.34,0,0,1,13,6a1.25,1.25,0,0,1-1.19,1.38,2.87,2.87,0,0,0-2.42,1.5,2.61,2.61,0,0,0,1.85,3.75c.17,0,.34,0,.5.06.86.17,1.34.72,1.26,1.44a1.31,1.31,0,0,1-1.55,1.11A5.18,5.18,0,0,1,6.52,10Z"/><path class="cls-1" d="M32.71,50.33c-1.31,0-2.61,0-3.92,0-.93,0-1.48-.51-1.47-1.29s.56-1.27,1.49-1.28h7.84c.93,0,1.5.5,1.52,1.26s-.56,1.3-1.54,1.31C35.32,50.34,34,50.33,32.71,50.33Z"/><path class="cls-1" d="M28.83,73.11a1.24,1.24,0,0,1,1.44,1.11c.08.8-.37,1.29-1.32,1.46-1.66.29-2.56,1.23-2.54,2.65a2.59,2.59,0,0,0,2.12,2.53c.22,0,.45.07.67.12a1.22,1.22,0,0,1,1.06,1.47,1.29,1.29,0,0,1-1.42,1.06,5.3,5.3,0,0,1-4.67-3.3,5.23,5.23,0,0,1,1.22-5.65A5,5,0,0,1,28.83,73.11Z"/></g></g></g></svg>