<svg xmlns="http://www.w3.org/2000/svg" viewBox="0 0 162.71 16.34"><defs><style>.cls-1{fill:#64a88d;}</style></defs><g id="Capa_2" data-name="Capa 2"><g id="Capa_1-2" data-name="Capa 1"><path class="cls-1" d="M6.6,9.66H3.22v6.21H0V.16H7.7a6.6,6.6,0,0,1,2.51.39,4.26,4.26,0,0,1,1.5,1.1A4.61,4.61,0,0,1,12.49,3a3.58,3.58,0,0,1,.32,1.65,4.41,4.41,0,0,1-.55,2.2,3.11,3.11,0,0,1-1.89,1.49,3.2,3.2,0,0,1,1.57,1.25A4.9,4.9,0,0,1,12.41,12v1a7.06,7.06,0,0,0,.08,1.49,1.24,1.24,0,0,0,.63.87v.39H9.51c-.08-.31-.16-.63-.24-.86a7.66,7.66,0,0,1-.16-1.34V12.1a3.13,3.13,0,0,0-.55-2A4.87,4.87,0,0,0,6.6,9.66Zm2-2.82A1.79,1.79,0,0,0,9.51,5a1.92,1.92,0,0,0-.95-1.89A4,4,0,0,0,7,2.83H3.14V7.07h3.7A4.92,4.92,0,0,0,8.56,6.84Z"/><path class="cls-1" d="M24.67,5.74a7.07,7.07,0,0,1,1.49,4.39,6.63,6.63,0,0,1-1.49,4.4,5.41,5.41,0,0,1-4.48,1.81,5.52,5.52,0,0,1-4.48-1.81,6.92,6.92,0,0,1-1.49-4.4,6.77,6.77,0,0,1,1.49-4.39c.95-1.26,2.44-1.81,4.48-1.81S23.73,4.48,24.67,5.74Zm-4.48.7a2.43,2.43,0,0,0-2,.95,4.31,4.31,0,0,0-.71,2.67,4.35,4.35,0,0,0,.71,2.67,2.42,2.42,0,0,0,2,.94,2.41,2.41,0,0,0,2-.94,4.43,4.43,0,0,0,.71-2.67,4.25,4.25,0,0,0-.71-2.67A2.42,2.42,0,0,0,20.19,6.44Z"/><path class="cls-1" d="M34.41,7.46a1.51,1.51,0,0,0-1.49-.86,1.8,1.8,0,0,0-1.73.86A3.27,3.27,0,0,0,31,8.88v7H27.89V4.24h3V6a3.71,3.71,0,0,1,3.37-2,3.52,3.52,0,0,1,2.13.55A3.66,3.66,0,0,1,37.4,6a3.35,3.35,0,0,1,1.49-1.49A4.62,4.62,0,0,1,41,4a3.24,3.24,0,0,1,1.49.31,4,4,0,0,1,1.34,1,3,3,0,0,1,.63,1.5,9.82,9.82,0,0,1,.08,1.72v7.31H41.4V8.49a2.22,2.22,0,0,0-.23-1.1,1.48,1.48,0,0,0-1.49-.79,1.67,1.67,0,0,0-1.73,1A3.34,3.34,0,0,0,37.71,9v6.91H34.65V9A3.44,3.44,0,0,0,34.41,7.46Z"/><path class="cls-1" d="M56.88,12.41a3.93,3.93,0,0,1-1.1,2.12,5.38,5.38,0,0,1-4.16,1.73,6,6,0,0,1-3.93-1.41A5.87,5.87,0,0,1,46,10.21a6.45,6.45,0,0,1,1.49-4.63,5.22,5.22,0,0,1,4-1.65,5.71,5.71,0,0,1,2.59.55,4.38,4.38,0,0,1,1.89,1.73,5,5,0,0,1,.86,2.43,18.25,18.25,0,0,1,.08,2.28H49a2.88,2.88,0,0,0,1.1,2.44,2.43,2.43,0,0,0,1.49.47A2,2,0,0,0,53,13.28a2,2,0,0,0,.55-.79h3.3ZM53.82,8.88a3,3,0,0,0-.71-1.81,2.39,2.39,0,0,0-1.65-.63,2.25,2.25,0,0,0-1.65.63,3.17,3.17,0,0,0-.71,1.81Z"/><path class="cls-1" d="M68.27,5.74a7,7,0,0,1,1.5,4.39,6.64,6.64,0,0,1-1.5,4.4,5.4,5.4,0,0,1-4.48,1.81,5.5,5.5,0,0,1-4.47-1.81,6.86,6.86,0,0,1-1.5-4.4,6.78,6.78,0,0,1,1.5-4.39c.94-1.26,2.43-1.81,4.47-1.81S67.33,4.48,68.27,5.74Zm-4.48.7a2.43,2.43,0,0,0-2,.95,4.32,4.32,0,0,0-.7,2.67,4.35,4.35,0,0,0,.7,2.67,2.69,2.69,0,0,0,4.09,0,4.5,4.5,0,0,0,.7-2.67,4.32,4.32,0,0,0-.7-2.67A2.34,2.34,0,0,0,63.79,6.44Z"/><path class="cls-1" d="M82,16.26a5.1,5.1,0,0,1-3.77-1.41,4.56,4.56,0,0,1-1.33-3.14,4.24,4.24,0,0,1,.7-2.44,8.49,8.49,0,0,1,2.28-2L80.22,7a5.88,5.88,0,0,1-1-1.57,4.32,4.32,0,0,1-.39-1.65A3.18,3.18,0,0,1,80,1.1a4.53,4.53,0,0,1,3-.94,3.71,3.71,0,0,1,2.75,1,3.25,3.25,0,0,1,1.1,2.51A4.11,4.11,0,0,1,86.19,6a6.94,6.94,0,0,1-2,1.57l2.2,2.75a7.93,7.93,0,0,0,.63-1.18,4,4,0,0,0,.24-1.41H90a8.41,8.41,0,0,1-.71,2.91,9.58,9.58,0,0,1-1.1,1.8L91,15.87H87.29l-1.1-1.34a7.45,7.45,0,0,1-1.5,1.1A5.49,5.49,0,0,1,82,16.26ZM81.86,9a4.47,4.47,0,0,0-1.49,1.34A2.43,2.43,0,0,0,80,11.63a2.16,2.16,0,0,0,2.28,2,3.13,3.13,0,0,0,1.41-.31,4.09,4.09,0,0,0,1.1-.79Zm-.23-5.34a1.35,1.35,0,0,0,.31.87,13.87,13.87,0,0,0,.87,1.1c.39-.32.7-.55.94-.79a1.67,1.67,0,0,0,.55-1.26A1.21,1.21,0,0,0,84,2.75,1.29,1.29,0,0,0,83,2.36a1.56,1.56,0,0,0-.78.23A1.2,1.2,0,0,0,81.63,3.69Z"/><path class="cls-1" d="M104,11.16V.16h3.3V11.08a5.84,5.84,0,0,1-.71,3.14c-.78,1.34-2.2,2-4.24,2s-3.38-.55-4.08-1.57a7.9,7.9,0,0,1-1-4.4V9.9h3.15v.39a6.78,6.78,0,0,0,.39,2.59c.23.55.78.71,1.49.71a1.58,1.58,0,0,0,1.57-.78A8.31,8.31,0,0,0,104,11.16Z"/><path class="cls-1" d="M117.3,14.22a1.23,1.23,0,0,1-.24.31,2.06,2.06,0,0,1-.39.48,4.65,4.65,0,0,1-1.41.86,4.73,4.73,0,0,1-1.58.24c-1.72,0-2.9-.63-3.45-1.89a7.57,7.57,0,0,1-.47-3v-7h3.14v7a3.89,3.89,0,0,0,.23,1.5,1.57,1.57,0,0,0,1.65.86,2.11,2.11,0,0,0,2.13-1.26,4,4,0,0,0,.31-1.8V4.16h3.06V15.79h-3V14.22Z"/><path class="cls-1" d="M122.8.16h3.06V15.87H122.8Z"/><path class="cls-1" d="M131.52,0V2.83h-3.07V0Zm0,4.24V15.87h-3.07V4.24Z"/><path class="cls-1" d="M144,12.41a3.93,3.93,0,0,1-1.1,2.12,5.38,5.38,0,0,1-4.16,1.73,6,6,0,0,1-3.93-1.41,5.87,5.87,0,0,1-1.73-4.64,6.45,6.45,0,0,1,1.49-4.63,5.22,5.22,0,0,1,4-1.65,5.71,5.71,0,0,1,2.59.55,4.38,4.38,0,0,1,1.89,1.73,5,5,0,0,1,.86,2.43,18.25,18.25,0,0,1,.08,2.28h-7.94a2.93,2.93,0,0,0,1.1,2.44,2.48,2.48,0,0,0,1.5.47,2,2,0,0,0,1.49-.55,2,2,0,0,0,.55-.79H144ZM141,8.88a3,3,0,0,0-.71-1.81,2.39,2.39,0,0,0-1.65-.63,2.25,2.25,0,0,0-1.65.63,3.17,3.17,0,0,0-.71,1.81Z"/><path class="cls-1" d="M151.08,13.67V16l-1.41.08a3.59,3.59,0,0,1-2.91-.79,2.3,2.3,0,0,1-.55-1.65V6.44h-1.65V4.24h1.65V1h3V4.24h1.88v2.2H149.2v6.13a1.57,1.57,0,0,0,.15.86,2.3,2.3,0,0,0,1.1.16h.32A.45.45,0,0,0,151.08,13.67Z"/><path class="cls-1" d="M153.05,5.5c.78-1,2.19-1.57,4.16-1.57a6.73,6.73,0,0,1,3.38.78,2.86,2.86,0,0,1,1.49,2.83v6.68a1.47,1.47,0,0,0,.16.79.74.74,0,0,0,.47.31v.47h-3.3a2.32,2.32,0,0,1-.16-.63c0-.23-.08-.47-.08-.7a5,5,0,0,1-1.41,1.17,4.48,4.48,0,0,1-4.79-.31,3.15,3.15,0,0,1-1-2.59,3.49,3.49,0,0,1,1.64-3.15,8.63,8.63,0,0,1,2.68-.78l1-.16a7.84,7.84,0,0,0,1.18-.23.82.82,0,0,0,.62-.87,1.16,1.16,0,0,0-.47-1,3.38,3.38,0,0,0-1.49-.23c-.71,0-1.26.15-1.49.55a1.51,1.51,0,0,0-.4,1.1h-2.9A3.23,3.23,0,0,1,153.05,5.5Zm2.27,8.17a1.56,1.56,0,0,0,1,.31,3,3,0,0,0,1.81-.55,2.45,2.45,0,0,0,.87-2.12v-1.1a2.11,2.11,0,0,1-.55.32,5.3,5.3,0,0,1-.79.23l-.71.16a4.6,4.6,0,0,0-1.41.39,1.43,1.43,0,0,0-.71,1.26A1.34,1.34,0,0,0,155.32,13.67Z"/></g></g></svg>