<svg xmlns="http://www.w3.org/2000/svg" viewBox="0 0 410.63 71.43"><defs><style>.cls-1{fill:#edeaeb;}.cls-2{fill:none;stroke:#fff;stroke-miterlimit:10;}</style></defs><g id="Capa_2" data-name="Capa 2"><g id="Capa_1-2" data-name="Capa 1"><path class="cls-1" d="M60.89,31h2.57L66,39.69,68.48,31H71L67.05,42.46H64.78Z"/><path class="cls-1" d="M79,40a2.82,2.82,0,0,1-.79,1.54,3.86,3.86,0,0,1-3.06,1.24,4.35,4.35,0,0,1-2.87-1A4.23,4.23,0,0,1,71,38.29a4.73,4.73,0,0,1,1.12-3.39A3.83,3.83,0,0,1,75,33.72a4.35,4.35,0,0,1,1.91.4,3.27,3.27,0,0,1,1.41,1.26A4.33,4.33,0,0,1,79,37.13a11.11,11.11,0,0,1,.07,1.69H73.25a2.13,2.13,0,0,0,.8,1.8,1.93,1.93,0,0,0,1.11.32,1.59,1.59,0,0,0,1.12-.39A1.82,1.82,0,0,0,76.7,40Zm-2.2-2.61A2,2,0,0,0,76.23,36,1.68,1.68,0,0,0,75,35.56a1.51,1.51,0,0,0-1.2.48,2.49,2.49,0,0,0-.54,1.31Z"/><path class="cls-1" d="M85.18,36a1.85,1.85,0,0,0-1.81.88,3.4,3.4,0,0,0-.25,1.51v4.07H80.87V34H83v1.48a4.46,4.46,0,0,1,.9-1.16,2.43,2.43,0,0,1,1.62-.53h.3V36l-.38,0Z"/><path class="cls-1" d="M93.31,34.34a2.72,2.72,0,0,1,1.15,2.2H92.23a1.31,1.31,0,0,0-.24-.68,1.52,1.52,0,0,0-1.25-.45,1.79,1.79,0,0,0-1,.22.64.64,0,0,0-.31.53.59.59,0,0,0,.33.56,13.51,13.51,0,0,0,2.32.62,4.3,4.3,0,0,1,2,.94,2.13,2.13,0,0,1,.65,1.6A2.57,2.57,0,0,1,93.75,42a4.44,4.44,0,0,1-2.91.8,4.34,4.34,0,0,1-3-.85,2.74,2.74,0,0,1-1-2.16h2.26a1.58,1.58,0,0,0,.3.85A2.1,2.1,0,0,0,91,41a2.38,2.38,0,0,0,1-.19.66.66,0,0,0,.07-1.16A13,13,0,0,0,89.81,39a4.88,4.88,0,0,1-2-.9,2,2,0,0,1-.59-1.53,2.68,2.68,0,0,1,.92-2,3.76,3.76,0,0,1,2.61-.85A4.75,4.75,0,0,1,93.31,34.34Z"/><path class="cls-1" d="M99,30.88v2.05H96.69V30.88ZM99,34v8.51H96.69V34Z"/><path class="cls-1" d="M108.53,35a5.3,5.3,0,0,1,0,6.41,4.7,4.7,0,0,1-6.55,0A5.3,5.3,0,0,1,102,35a4.65,4.65,0,0,1,6.55,0Zm-3.28.54a1.8,1.8,0,0,0-1.51.69,3.21,3.21,0,0,0-.52,2,3.26,3.26,0,0,0,.52,2,1.8,1.8,0,0,0,1.51.69,1.77,1.77,0,0,0,1.5-.69,3.26,3.26,0,0,0,.52-2,3.21,3.21,0,0,0-.52-2A1.77,1.77,0,0,0,105.25,35.56Zm-1.31-2.76,1.5-2.34h2.48l-2.38,2.34Z"/><path class="cls-1" d="M115.53,35.59a1.56,1.56,0,0,0-1.56,1,3.38,3.38,0,0,0-.21,1.29v4.61h-2.22V34h2.15V35.2a3.6,3.6,0,0,1,.81-.94,2.79,2.79,0,0,1,1.74-.52,3.29,3.29,0,0,1,2.16.69,2.82,2.82,0,0,1,.84,2.3v5.73H117V37.28a2.35,2.35,0,0,0-.18-1A1.27,1.27,0,0,0,115.53,35.59Z"/><path class="cls-1" d="M126.43,31h2.22V42.46h-2.22Z"/><path class="cls-1" d="M131.47,34.87a3.61,3.61,0,0,1,3-1.13,5.36,5.36,0,0,1,2.48.56,2.12,2.12,0,0,1,1.09,2.09V40.3c0,.27,0,.6,0,1a1.24,1.24,0,0,0,.14.6.75.75,0,0,0,.32.25v.33h-2.42A2.54,2.54,0,0,1,136,42c0-.15,0-.33-.06-.52a4.36,4.36,0,0,1-1.06.85,3.17,3.17,0,0,1-1.63.42,2.79,2.79,0,0,1-1.91-.66,2.37,2.37,0,0,1-.75-1.87,2.43,2.43,0,0,1,1.21-2.28,5.27,5.27,0,0,1,1.95-.54l.76-.1a3.72,3.72,0,0,0,.88-.19.68.68,0,0,0,.48-.64.74.74,0,0,0-.36-.72,2.34,2.34,0,0,0-1.07-.2,1.39,1.39,0,0,0-1.12.39,1.73,1.73,0,0,0-.31.78h-2.15A3.29,3.29,0,0,1,131.47,34.87Zm1.65,6a1.19,1.19,0,0,0,.77.26,2.25,2.25,0,0,0,1.32-.42,1.77,1.77,0,0,0,.63-1.54v-.83a2.49,2.49,0,0,1-.43.22,4.27,4.27,0,0,1-.58.15l-.5.09a3.36,3.36,0,0,0-1,.31,1,1,0,0,0-.52.94A1,1,0,0,0,133.12,40.85Z"/><path class="cls-1" d="M144.65,36a1.85,1.85,0,0,0-1.81.88,3.38,3.38,0,0,0-.26,1.51v4.07h-2.24V34h2.13v1.48a4.71,4.71,0,0,1,.89-1.16,2.46,2.46,0,0,1,1.63-.53h.3V36l-.38,0Z"/><path class="cls-1" d="M149.32,44a1.83,1.83,0,0,0,1.21.31,1.63,1.63,0,0,0,1.61-.81,4.18,4.18,0,0,0,.26-1.73v-.55a2.51,2.51,0,0,1-.69.82,2.73,2.73,0,0,1-1.72.51,3.24,3.24,0,0,1-2.62-1.15,4.63,4.63,0,0,1-1-3.12,5.24,5.24,0,0,1,.94-3.19,3.12,3.12,0,0,1,2.68-1.3,3,3,0,0,1,1.12.2,2.63,2.63,0,0,1,1.31,1.23V34h2.17V42a4.54,4.54,0,0,1-.56,2.49c-.64,1-1.85,1.44-3.66,1.44a5.06,5.06,0,0,1-2.66-.64,2.36,2.36,0,0,1-1.14-1.92H149A1,1,0,0,0,149.32,44Zm-.38-4.39a1.64,1.64,0,0,0,1.63,1.07,1.7,1.7,0,0,0,1.32-.59,2.72,2.72,0,0,0,.54-1.88,2.88,2.88,0,0,0-.52-1.84,1.66,1.66,0,0,0-1.37-.63,1.61,1.61,0,0,0-1.61,1.1,3.8,3.8,0,0,0-.24,1.44A3.29,3.29,0,0,0,148.94,39.56Z"/><path class="cls-1" d="M157.32,34.87a3.65,3.65,0,0,1,3-1.13,5.36,5.36,0,0,1,2.48.56,2.14,2.14,0,0,1,1.09,2.09V40.3c0,.27,0,.6,0,1a1.4,1.4,0,0,0,.13.6.85.85,0,0,0,.33.25v.33H162a2.54,2.54,0,0,1-.14-.48,3.73,3.73,0,0,1-.06-.52,4.22,4.22,0,0,1-1.07.85,3.13,3.13,0,0,1-1.62.42,2.79,2.79,0,0,1-1.91-.66,2.37,2.37,0,0,1-.75-1.87,2.43,2.43,0,0,1,1.21-2.28,5.27,5.27,0,0,1,2-.54l.76-.1a3.85,3.85,0,0,0,.88-.19.68.68,0,0,0,.48-.64.73.73,0,0,0-.37-.72,2.26,2.26,0,0,0-1.06-.2,1.39,1.39,0,0,0-1.12.39,1.62,1.62,0,0,0-.31.78H156.7A3.28,3.28,0,0,1,157.32,34.87Zm1.66,6a1.18,1.18,0,0,0,.77.26,2.25,2.25,0,0,0,1.32-.42,1.83,1.83,0,0,0,.63-1.54v-.83a2.49,2.49,0,0,1-.43.22,4.48,4.48,0,0,1-.59.15l-.5.09a3.28,3.28,0,0,0-1,.31,1,1,0,0,0-.52.94A1,1,0,0,0,159,40.85Z"/><path class="cls-1" d="M306.23,31h2.57l2.5,8.74L313.82,31h2.5l-3.93,11.51h-2.27Z"/><path class="cls-1" d="M324.31,40a2.82,2.82,0,0,1-.79,1.54,3.86,3.86,0,0,1-3.06,1.24,4.35,4.35,0,0,1-2.87-1,4.23,4.23,0,0,1-1.24-3.41,4.73,4.73,0,0,1,1.12-3.39,3.83,3.83,0,0,1,2.91-1.18,4.35,4.35,0,0,1,1.91.4,3.27,3.27,0,0,1,1.41,1.26,4.33,4.33,0,0,1,.65,1.75,11.11,11.11,0,0,1,.07,1.69h-5.83a2.13,2.13,0,0,0,.8,1.8,1.93,1.93,0,0,0,1.11.32,1.59,1.59,0,0,0,1.12-.39A1.82,1.82,0,0,0,322,40Zm-2.2-2.61a2,2,0,0,0-.54-1.34,1.68,1.68,0,0,0-1.19-.45,1.51,1.51,0,0,0-1.2.48,2.49,2.49,0,0,0-.54,1.31Z"/><path class="cls-1" d="M330.52,36a1.85,1.85,0,0,0-1.81.88,3.4,3.4,0,0,0-.25,1.51v4.07h-2.25V34h2.13v1.48a4.46,4.46,0,0,1,.9-1.16,2.43,2.43,0,0,1,1.62-.53h.3V36l-.38,0Z"/><path class="cls-1" d="M338.65,34.34a2.72,2.72,0,0,1,1.15,2.2h-2.23a1.31,1.31,0,0,0-.24-.68,1.52,1.52,0,0,0-1.25-.45,1.79,1.79,0,0,0-1,.22.64.64,0,0,0-.31.53.59.59,0,0,0,.33.56,13.51,13.51,0,0,0,2.32.62,4.3,4.3,0,0,1,2,.94,2.13,2.13,0,0,1,.65,1.6,2.57,2.57,0,0,1-.94,2.07,4.42,4.42,0,0,1-2.91.8,4.34,4.34,0,0,1-3-.85,2.74,2.74,0,0,1-1-2.16h2.26a1.58,1.58,0,0,0,.3.85,2.1,2.1,0,0,0,1.53.44,2.38,2.38,0,0,0,1-.19.66.66,0,0,0,.07-1.16,13,13,0,0,0-2.32-.67,4.88,4.88,0,0,1-2-.9,2,2,0,0,1-.59-1.53,2.68,2.68,0,0,1,.92-2,3.76,3.76,0,0,1,2.61-.85A4.75,4.75,0,0,1,338.65,34.34Z"/><path class="cls-1" d="M344.29,30.88v2.05H342V30.88Zm0,3.07v8.51H342V34Z"/><path class="cls-1" d="M353.87,35a5.3,5.3,0,0,1,0,6.41,4.7,4.7,0,0,1-6.55,0,5.3,5.3,0,0,1,0-6.41,4.65,4.65,0,0,1,6.55,0Zm-3.28.54a1.8,1.8,0,0,0-1.51.69,3.21,3.21,0,0,0-.52,2,3.26,3.26,0,0,0,.52,2,1.8,1.8,0,0,0,1.51.69,1.77,1.77,0,0,0,1.5-.69,3.26,3.26,0,0,0,.52-2,3.21,3.21,0,0,0-.52-2A1.77,1.77,0,0,0,350.59,35.56Zm-1.31-2.76,1.5-2.34h2.48l-2.37,2.34Z"/><path class="cls-1" d="M360.87,35.59a1.56,1.56,0,0,0-1.56,1,3.38,3.38,0,0,0-.21,1.29v4.61h-2.22V34H359V35.2a3.6,3.6,0,0,1,.81-.94,2.79,2.79,0,0,1,1.74-.52,3.29,3.29,0,0,1,2.16.69,2.82,2.82,0,0,1,.84,2.3v5.73H362.3V37.28a2.35,2.35,0,0,0-.18-1A1.27,1.27,0,0,0,360.87,35.59Z"/><path class="cls-1" d="M379.09,37h-2.28a2.13,2.13,0,0,0-.32-.86,1.36,1.36,0,0,0-1.17-.51,1.54,1.54,0,0,0-1.54,1.11,4.83,4.83,0,0,0-.22,1.58,4.42,4.42,0,0,0,.22,1.51,1.49,1.49,0,0,0,1.5,1.06,1.33,1.33,0,0,0,1.11-.42,2.13,2.13,0,0,0,.4-1.09h2.27a3.71,3.71,0,0,1-.73,1.92,3.58,3.58,0,0,1-3.1,1.46,3.66,3.66,0,0,1-3-1.22,5,5,0,0,1-1-3.16A5,5,0,0,1,372.31,35a3.72,3.72,0,0,1,2.95-1.22,4.43,4.43,0,0,1,2.62.72A3.37,3.37,0,0,1,379.09,37Z"/><path class="cls-1" d="M388,35a5.3,5.3,0,0,1,0,6.41,4.7,4.7,0,0,1-6.55,0,5.34,5.34,0,0,1,0-6.41A4.65,4.65,0,0,1,388,35Zm-3.28.54a1.77,1.77,0,0,0-1.5.69,3.14,3.14,0,0,0-.53,2,3.19,3.19,0,0,0,.53,2,2,2,0,0,0,3,0,3.26,3.26,0,0,0,.52-2,3.21,3.21,0,0,0-.52-2A1.77,1.77,0,0,0,384.76,35.56Z"/><path class="cls-1" d="M395.31,36a1.84,1.84,0,0,0-1.8.88,3.38,3.38,0,0,0-.26,1.51v4.07H391V34h2.12v1.48a4.94,4.94,0,0,1,.9-1.16,2.46,2.46,0,0,1,1.63-.53H396V36l-.37,0Z"/><path class="cls-1" d="M401.48,40.88v1.66l-1.06,0a2.84,2.84,0,0,1-2.15-.55,1.62,1.62,0,0,1-.38-1.18V35.61H396.7V34h1.19V31.65h2.2V34h1.39v1.59h-1.39v4.5c0,.35.05.57.14.65s.36.13.81.13h.44Z"/><path class="cls-1" d="M403.55,34.87a3.64,3.64,0,0,1,3-1.13,5.36,5.36,0,0,1,2.48.56,2.12,2.12,0,0,1,1.09,2.09V40.3c0,.27,0,.6,0,1a1.24,1.24,0,0,0,.14.6.72.72,0,0,0,.33.25v.33H408.2a3.59,3.59,0,0,1-.14-.48c0-.15,0-.33-.06-.52a4.36,4.36,0,0,1-1.06.85,3.17,3.17,0,0,1-1.63.42,2.81,2.81,0,0,1-1.91-.66,2.37,2.37,0,0,1-.75-1.87,2.43,2.43,0,0,1,1.21-2.28,5.27,5.27,0,0,1,1.95-.54l.76-.1a3.72,3.72,0,0,0,.88-.19.68.68,0,0,0,.48-.64.74.74,0,0,0-.36-.72,2.34,2.34,0,0,0-1.07-.2,1.39,1.39,0,0,0-1.12.39,1.73,1.73,0,0,0-.31.78h-2.15A3.29,3.29,0,0,1,403.55,34.87Zm1.65,6a1.19,1.19,0,0,0,.77.26,2.25,2.25,0,0,0,1.32-.42,1.77,1.77,0,0,0,.63-1.54v-.83a2.82,2.82,0,0,1-.42.22,5,5,0,0,1-.59.15l-.5.09a3.36,3.36,0,0,0-1,.31,1,1,0,0,0-.52.94A1,1,0,0,0,405.2,40.85Z"/><path class="cls-1" d="M0,34c.12-.92.21-1.84.36-2.75A22.91,22.91,0,0,1,2.94,23.9a23.76,23.76,0,0,1,7.14-8,23.15,23.15,0,0,1,9-3.85,23.28,23.28,0,0,1,17.36,3.21l.53.32,1.36-2a2.47,2.47,0,0,1,.32-.39.45.45,0,0,1,.8.12,2.73,2.73,0,0,1,.16.43c.55,2,1.09,3.92,1.64,5.88.28,1-.13,1.56-1.18,1.65l-5.91.53a.71.71,0,0,1-.14,0c-.28-.07-.7-.07-.81-.25s0-.58.18-.82c.43-.69.91-1.35,1.39-2A19.3,19.3,0,0,0,30.5,16.6a19.92,19.92,0,0,0-18.56,2.7A19.6,19.6,0,0,0,4.32,30.94a18.9,18.9,0,0,0-.3,7,19.57,19.57,0,0,0,7.3,13,19.72,19.72,0,0,0,8.74,4,1.91,1.91,0,1,1-.61,3.77A23.58,23.58,0,0,1,2.71,46.32,22.61,22.61,0,0,1,.08,37.08,2,2,0,0,0,0,36.73Z"/><path class="cls-1" d="M38.47,49.47v0a3.54,3.54,0,0,1,2.7-2.89,1.87,1.87,0,0,1,1.66,2.82,7.62,7.62,0,0,1-1.24,1.54,1.72,1.72,0,0,1-2,.3A1.81,1.81,0,0,1,38.47,49.47Z"/><path class="cls-1" d="M28.73,54.61a2,2,0,0,1,2.13,1.51,1.86,1.86,0,0,1-1.2,2.15,10.42,10.42,0,0,1-1.84.41,1.85,1.85,0,0,1-2-1.47,1.81,1.81,0,0,1,1.09-2.15A14.54,14.54,0,0,1,28.73,54.61Z"/><path class="cls-1" d="M46.46,42.19a13.93,13.93,0,0,1-.85,2.05,1.75,1.75,0,0,1-2.22.59,1.8,1.8,0,0,1-1.12-2,9.27,9.27,0,0,1,.66-1.92A1.83,1.83,0,0,1,45.05,40,2,2,0,0,1,46.46,42.19Z"/><path class="cls-1" d="M42.1,27.39a2,2,0,0,1,1.41-2,1.8,1.8,0,0,1,2.12.89,9.22,9.22,0,0,1,.7,1.9,1.84,1.84,0,0,1-1.07,2A1.87,1.87,0,0,1,43,29.68,6.32,6.32,0,0,1,42.1,27.39Z"/><path class="cls-1" d="M43.65,35.12v-.6a1.9,1.9,0,0,1,3.8-.14,11.75,11.75,0,0,1,0,1.57,1.9,1.9,0,0,1-3.79-.09c0-.25,0-.49,0-.74Z"/><path class="cls-1" d="M34.9,56.11a2,2,0,0,1-2-1.25,1.85,1.85,0,0,1,.62-2.12A10.81,10.81,0,0,1,35,51.8a1.88,1.88,0,0,1,2.45,2.6A4.4,4.4,0,0,1,34.9,56.11Z"/><path class="cls-1" d="M15.36,38.28H12.47V28.37H9.09V26.44A12.81,12.81,0,0,0,11,26.27a2.67,2.67,0,0,0,1.39-.76,2.41,2.41,0,0,0,.55-1,2.09,2.09,0,0,0,.11-.57h2.35Z"/><path class="cls-1" d="M24,26.83a1.79,1.79,0,0,0-1.45-.6,1.76,1.76,0,0,0-1.75,1A4.66,4.66,0,0,0,20.48,29H17.73a6.92,6.92,0,0,1,.67-3,4.12,4.12,0,0,1,4-2.15A5.11,5.11,0,0,1,26,25.1a4.37,4.37,0,0,1,1.35,3.35,4.54,4.54,0,0,1-.95,2.83,9.56,9.56,0,0,1-2.06,1.84l-1.13.8c-.7.5-1.19.86-1.45,1.09a3.29,3.29,0,0,0-.66.78h6.28v2.49H17.57a6.73,6.73,0,0,1,.67-2.82,7.94,7.94,0,0,1,2.85-3.05,21.1,21.1,0,0,0,2.53-2,2.94,2.94,0,0,0,.88-2.06A2.32,2.32,0,0,0,24,26.83Z"/><path class="cls-1" d="M33.82,38.64A4.06,4.06,0,0,1,30,36.71a11.08,11.08,0,0,1-1.11-5.48A11.15,11.15,0,0,1,30,25.74a4.06,4.06,0,0,1,3.85-1.93,4.07,4.07,0,0,1,3.86,1.93,11.27,11.27,0,0,1,1.1,5.49,11.08,11.08,0,0,1-1.11,5.48A4,4,0,0,1,33.82,38.64ZM35.48,35a14.5,14.5,0,0,0,.38-3.79,13.87,13.87,0,0,0-.39-3.84,1.59,1.59,0,0,0-1.65-1.25,1.61,1.61,0,0,0-1.66,1.25,13,13,0,0,0-.41,3.84A13.11,13.11,0,0,0,32.16,35a1.7,1.7,0,0,0,3.32,0Z"/><path class="cls-1" d="M17.25,43.85a.92.92,0,0,0-.93-.52,1.12,1.12,0,0,0-1.09.52,2.07,2.07,0,0,0-.15.89v4.33H13.17V41.88H15v1a3,3,0,0,1,.66-.8,2.28,2.28,0,0,1,1.42-.42,2.28,2.28,0,0,1,1.34.36,2.2,2.2,0,0,1,.62.87A2.42,2.42,0,0,1,20,42a2.76,2.76,0,0,1,1.29-.3,2.39,2.39,0,0,1,.94.19,2,2,0,0,1,.84.64,2.09,2.09,0,0,1,.41.93,6.76,6.76,0,0,1,.07,1.06l0,4.54H21.56V44.49a1.5,1.5,0,0,0-.13-.68.94.94,0,0,0-.92-.5,1.09,1.09,0,0,0-1.08.65,2,2,0,0,0-.15.82v4.29h-1.9V44.78A2.42,2.42,0,0,0,17.25,43.85Z"/><path class="cls-1" d="M26.9,39.27V41H25V39.27Zm0,2.6v7.2H25v-7.2Z"/><path class="cls-1" d="M31.85,43.26a1.31,1.31,0,0,0-1.32.82,2.82,2.82,0,0,0-.18,1.09v3.9H28.47V41.88h1.82v1a3.41,3.41,0,0,1,.68-.8,2.4,2.4,0,0,1,1.48-.43,2.81,2.81,0,0,1,1.83.58A2.39,2.39,0,0,1,35,44.22v4.85H33.06V44.69a1.85,1.85,0,0,0-.16-.87A1.06,1.06,0,0,0,31.85,43.26Z"/><path class="cls-1" d="M242.19,34c.12-.92.22-1.84.36-2.75a22.93,22.93,0,0,1,2.59-7.39,23.73,23.73,0,0,1,7.13-8,23.79,23.79,0,0,1,26.36-.64l.52.32,1.36-2a2.47,2.47,0,0,1,.32-.39.45.45,0,0,1,.8.12,2,2,0,0,1,.16.43q.82,2.94,1.64,5.88c.28,1-.13,1.56-1.18,1.65l-5.91.53a.57.57,0,0,1-.13,0c-.29-.07-.7-.07-.82-.25s0-.58.18-.82c.43-.69.91-1.35,1.39-2a19.23,19.23,0,0,0-4.26-2.17,19.93,19.93,0,0,0-26.19,14.34,19.12,19.12,0,0,0-.3,7,19.9,19.9,0,0,0,16,17,1.91,1.91,0,1,1-.61,3.77A23.58,23.58,0,0,1,244.9,46.32a22.77,22.77,0,0,1-2.63-9.24,2,2,0,0,0-.08-.35Z"/><path class="cls-1" d="M280.66,49.47v0a3.54,3.54,0,0,1,2.71-2.89A1.88,1.88,0,0,1,285,49.36a7.67,7.67,0,0,1-1.25,1.54,1.72,1.72,0,0,1-2,.3A1.82,1.82,0,0,1,280.66,49.47Z"/><path class="cls-1" d="M270.92,54.61a2,2,0,0,1,2.13,1.51,1.84,1.84,0,0,1-1.19,2.15,10.73,10.73,0,0,1-1.85.41,1.85,1.85,0,0,1-2-1.47,1.82,1.82,0,0,1,1.09-2.15A14.54,14.54,0,0,1,270.92,54.61Z"/><path class="cls-1" d="M288.66,42.19a13.93,13.93,0,0,1-.85,2.05,1.77,1.77,0,0,1-2.23.59,1.8,1.8,0,0,1-1.12-2,9.27,9.27,0,0,1,.66-1.92,1.84,1.84,0,0,1,2.13-.91A2,2,0,0,1,288.66,42.19Z"/><path class="cls-1" d="M284.29,27.39a2,2,0,0,1,1.41-2,1.81,1.81,0,0,1,2.13.89,9.81,9.81,0,0,1,.69,1.9,1.82,1.82,0,0,1-1.07,2,1.87,1.87,0,0,1-2.26-.51A6.32,6.32,0,0,1,284.29,27.39Z"/><path class="cls-1" d="M285.85,35.12c0-.2,0-.4,0-.6a1.9,1.9,0,0,1,3.79-.14,9.15,9.15,0,0,1,0,1.57,1.9,1.9,0,0,1-3.79-.09c0-.25,0-.49,0-.74Z"/><path class="cls-1" d="M277.09,56.11a2,2,0,0,1-2-1.25,1.85,1.85,0,0,1,.62-2.12,11.41,11.41,0,0,1,1.53-.94,1.84,1.84,0,0,1,2.16.42,1.79,1.79,0,0,1,.29,2.18A4.37,4.37,0,0,1,277.09,56.11Z"/><path class="cls-1" d="M260.16,38.7a4.7,4.7,0,0,1-2.9-1A3.76,3.76,0,0,1,255.78,35h2.81a1.72,1.72,0,0,0,.54,1,1.64,1.64,0,0,0,1.16.4,2,2,0,0,0,2-1.55,8.74,8.74,0,0,0,.39-2.49,3.16,3.16,0,0,1-.82.75,3.82,3.82,0,0,1-2,.47,4.44,4.44,0,0,1-3-1.18A4.33,4.33,0,0,1,255.49,29a5.31,5.31,0,0,1,1.33-3.74,4.55,4.55,0,0,1,3.47-1.43,4.47,4.47,0,0,1,4.5,2.9,11.39,11.39,0,0,1,.69,4.34,12.45,12.45,0,0,1-.66,4.35A4.66,4.66,0,0,1,260.16,38.7Zm-1-12.15a2.59,2.59,0,0,0-.81,2.16,2.94,2.94,0,0,0,.52,1.91,1.92,1.92,0,0,0,1.6.64,2,2,0,0,0,1.1-.33,2.34,2.34,0,0,0,1-2.14,3,3,0,0,0-.57-1.93,1.9,1.9,0,0,0-1.56-.71A1.94,1.94,0,0,0,259.17,26.55Z"/><path class="cls-1" d="M271.77,38.64a4,4,0,0,1-3.85-1.93,11.05,11.05,0,0,1-1.11-5.48,11.15,11.15,0,0,1,1.11-5.49,4.81,4.81,0,0,1,7.7,0,11.15,11.15,0,0,1,1.11,5.49,11.05,11.05,0,0,1-1.11,5.48A4.06,4.06,0,0,1,271.77,38.64ZM273.42,35a14,14,0,0,0,.39-3.79,13.87,13.87,0,0,0-.39-3.84,1.59,1.59,0,0,0-1.65-1.25,1.62,1.62,0,0,0-1.67,1.25,13.42,13.42,0,0,0-.4,3.84,13.54,13.54,0,0,0,.4,3.79,1.64,1.64,0,0,0,1.67,1.32A1.61,1.61,0,0,0,273.42,35Z"/><path class="cls-1" d="M259.44,43.85a.92.92,0,0,0-.93-.52,1.09,1.09,0,0,0-1.08.52,1.91,1.91,0,0,0-.16.89v4.33h-1.91V41.88h1.83v1a3.44,3.44,0,0,1,.66-.8,2.29,2.29,0,0,1,1.43-.42,2.25,2.25,0,0,1,1.33.36,2.2,2.2,0,0,1,.62.87,2.42,2.42,0,0,1,.92-.93,2.8,2.8,0,0,1,1.3-.3,2.35,2.35,0,0,1,.93.19,2.1,2.1,0,0,1,.84.64,2,2,0,0,1,.41.93,5.72,5.72,0,0,1,.07,1.06v4.54h-1.93V44.49a1.49,1.49,0,0,0-.14-.68.93.93,0,0,0-.92-.5,1.09,1.09,0,0,0-1.08.65,2,2,0,0,0-.15.82v4.29h-1.9V44.78A2.42,2.42,0,0,0,259.44,43.85Z"/><path class="cls-1" d="M269.1,39.27V41h-1.91V39.27Zm0,2.6v7.2h-1.91v-7.2Z"/><path class="cls-1" d="M274,43.26a1.3,1.3,0,0,0-1.31.82,2.63,2.63,0,0,0-.19,1.09v3.9h-1.88V41.88h1.82v1a3.2,3.2,0,0,1,.69-.8,2.39,2.39,0,0,1,1.47-.43,2.77,2.77,0,0,1,1.83.58,2.39,2.39,0,0,1,.71,1.94v4.85h-1.93V44.69a2,2,0,0,0-.15-.87A1.08,1.08,0,0,0,274,43.26Z"/><line class="cls-2" x1="202.29" x2="202.29" y2="71.43"/></g></g></svg>